<svg width="905" height="137" viewBox="0 0 905 137" fill="none" xmlns="http://www.w3.org/2000/svg">
<path d="M79.4844 72.0781H53.6094V88.3438H84.1719V101H37.1562V32.75H84.2656V45.4531H53.6094V59.8438H79.4844V72.0781ZM110.656 89.75C112.875 89.75 114.594 89.1562 115.812 87.9688C117.031 86.75 117.625 85.0625 117.594 82.9062H132.406C132.406 88.4688 130.406 93.0312 126.406 96.5938C122.438 100.156 117.312 101.938 111.031 101.938C103.656 101.938 97.8438 99.625 93.5938 95C89.3438 90.375 87.2188 83.9688 87.2188 75.7812V75.125C87.2188 70 88.1562 65.4844 90.0312 61.5781C91.9375 57.6406 94.6719 54.625 98.2344 52.5312C101.797 50.4062 106.016 49.3438 110.891 49.3438C117.484 49.3438 122.719 51.1719 126.594 54.8281C130.469 58.4844 132.406 63.4375 132.406 69.6875H117.594C117.594 67.0625 116.953 65.0469 115.672 63.6406C114.391 62.2344 112.672 61.5312 110.516 61.5312C106.422 61.5312 104.031 64.1406 103.344 69.3594C103.125 71.0156 103.016 73.2969 103.016 76.2031C103.016 81.2969 103.625 84.8281 104.844 86.7969C106.062 88.7656 108 89.75 110.656 89.75ZM137.094 75.1719C137.094 70.1094 138.078 65.6094 140.047 61.6719C142.016 57.7031 144.844 54.6562 148.531 52.5312C152.219 50.4062 156.547 49.3438 161.516 49.3438C169.109 49.3438 175.094 51.7031 179.469 56.4219C183.844 61.1094 186.031 67.5 186.031 75.5938V76.1562C186.031 84.0625 183.828 90.3438 179.422 95C175.047 99.625 169.109 101.938 161.609 101.938C154.391 101.938 148.594 99.7812 144.219 95.4688C139.844 91.125 137.484 85.25 137.141 77.8438L137.094 75.1719ZM152.891 76.1562C152.891 80.8438 153.625 84.2812 155.094 86.4688C156.562 88.6562 158.734 89.75 161.609 89.75C167.234 89.75 170.109 85.4219 170.234 76.7656V75.1719C170.234 66.0781 167.328 61.5312 161.516 61.5312C156.234 61.5312 153.375 65.4531 152.938 73.2969L152.891 76.1562ZM207.5 50.2812L208.016 56.2344C211.516 51.6406 216.344 49.3438 222.5 49.3438C227.781 49.3438 231.719 50.9219 234.312 54.0781C236.938 57.2344 238.297 61.9844 238.391 68.3281V101H222.547V68.9844C222.547 66.4219 222.031 64.5469 221 63.3594C219.969 62.1406 218.094 61.5312 215.375 61.5312C212.281 61.5312 209.984 62.75 208.484 65.1875V101H192.688V50.2812H207.5ZM245.188 75.1719C245.188 70.1094 246.172 65.6094 248.141 61.6719C250.109 57.7031 252.938 54.6562 256.625 52.5312C260.312 50.4062 264.641 49.3438 269.609 49.3438C277.203 49.3438 283.188 51.7031 287.562 56.4219C291.938 61.1094 294.125 67.5 294.125 75.5938V76.1562C294.125 84.0625 291.922 90.3438 287.516 95C283.141 99.625 277.203 101.938 269.703 101.938C262.484 101.938 256.688 99.7812 252.312 95.4688C247.938 91.125 245.578 85.25 245.234 77.8438L245.188 75.1719ZM260.984 76.1562C260.984 80.8438 261.719 84.2812 263.188 86.4688C264.656 88.6562 266.828 89.75 269.703 89.75C275.328 89.75 278.203 85.4219 278.328 76.7656V75.1719C278.328 66.0781 275.422 61.5312 269.609 61.5312C264.328 61.5312 261.469 65.4531 261.031 73.2969L260.984 76.1562ZM316.016 50.2812L316.531 56.2344C320.125 51.6406 324.953 49.3438 331.016 49.3438C337.422 49.3438 341.75 51.8906 344 56.9844C347.438 51.8906 352.406 49.3438 358.906 49.3438C369.188 49.3438 374.469 55.5625 374.75 68V101H358.906V68.9844C358.906 66.3906 358.469 64.5 357.594 63.3125C356.719 62.125 355.125 61.5312 352.812 61.5312C349.688 61.5312 347.359 62.9219 345.828 65.7031L345.875 66.3594V101H330.031V69.0781C330.031 66.4219 329.609 64.5 328.766 63.3125C327.922 62.125 326.312 61.5312 323.938 61.5312C320.906 61.5312 318.594 62.9219 317 65.7031V101H301.203V50.2812H316.016ZM400.438 101H384.594V50.2812H400.438V101ZM383.656 37.2031C383.656 34.9531 384.469 33.1094 386.094 31.6719C387.719 30.2344 389.828 29.5156 392.422 29.5156C395.016 29.5156 397.125 30.2344 398.75 31.6719C400.375 33.1094 401.188 34.9531 401.188 37.2031C401.188 39.4531 400.375 41.2969 398.75 42.7344C397.125 44.1719 395.016 44.8906 392.422 44.8906C389.828 44.8906 387.719 44.1719 386.094 42.7344C384.469 41.2969 383.656 39.4531 383.656 37.2031ZM431.656 89.75C433.875 89.75 435.594 89.1562 436.812 87.9688C438.031 86.75 438.625 85.0625 438.594 82.9062H453.406C453.406 88.4688 451.406 93.0312 447.406 96.5938C443.438 100.156 438.312 101.938 432.031 101.938C424.656 101.938 418.844 99.625 414.594 95C410.344 90.375 408.219 83.9688 408.219 75.7812V75.125C408.219 70 409.156 65.4844 411.031 61.5781C412.938 57.6406 415.672 54.625 419.234 52.5312C422.797 50.4062 427.016 49.3438 431.891 49.3438C438.484 49.3438 443.719 51.1719 447.594 54.8281C451.469 58.4844 453.406 63.4375 453.406 69.6875H438.594C438.594 67.0625 437.953 65.0469 436.672 63.6406C435.391 62.2344 433.672 61.5312 431.516 61.5312C427.422 61.5312 425.031 64.1406 424.344 69.3594C424.125 71.0156 424.016 73.2969 424.016 76.2031C424.016 81.2969 424.625 84.8281 425.844 86.7969C427.062 88.7656 429 89.75 431.656 89.75ZM488.656 101C488.094 99.9688 487.594 98.4531 487.156 96.4531C484.25 100.109 480.188 101.938 474.969 101.938C470.188 101.938 466.125 100.5 462.781 97.625C459.438 94.7188 457.766 91.0781 457.766 86.7031C457.766 81.2031 459.797 77.0469 463.859 74.2344C467.922 71.4219 473.828 70.0156 481.578 70.0156H486.453V67.3438C486.453 62.6875 484.438 60.3594 480.406 60.3594C476.656 60.3594 474.781 62.2031 474.781 65.8906H458.984C458.984 60.9844 461.062 57 465.219 53.9375C469.406 50.875 474.734 49.3438 481.203 49.3438C487.672 49.3438 492.781 50.9219 496.531 54.0781C500.281 57.2344 502.203 61.5625 502.297 67.0625V89.5156C502.359 94.1719 503.078 97.7344 504.453 100.203V101H488.656ZM478.766 90.6875C480.734 90.6875 482.359 90.2656 483.641 89.4219C484.953 88.5781 485.891 87.625 486.453 86.5625V78.4531H481.859C476.359 78.4531 473.609 80.9219 473.609 85.8594C473.609 87.2969 474.094 88.4688 475.062 89.375C476.031 90.25 477.266 90.6875 478.766 90.6875ZM527.75 101H511.906V29H527.75V101ZM554.188 101H538.344V29H554.188V101ZM584.234 78.875L592.672 50.2812H609.594L588.922 109.484L588.031 111.641C585.094 118.203 579.906 121.484 572.469 121.484C570.406 121.484 568.234 121.172 565.953 120.547V109.25H568.016C570.234 109.25 571.922 108.922 573.078 108.266C574.266 107.641 575.141 106.5 575.703 104.844L576.969 101.469L559.344 50.2812H576.219L584.234 78.875ZM691.25 75.5469L699.078 32.75H715.391L700.906 101H683.844L674.703 62.0938L665.75 101H648.734L634.203 32.75H650.562L658.391 75.5469L667.766 32.75H681.734L691.25 75.5469ZM717.594 75.1719C717.594 70.1094 718.578 65.6094 720.547 61.6719C722.516 57.7031 725.344 54.6562 729.031 52.5312C732.719 50.4062 737.047 49.3438 742.016 49.3438C749.609 49.3438 755.594 51.7031 759.969 56.4219C764.344 61.1094 766.531 67.5 766.531 75.5938V76.1562C766.531 84.0625 764.328 90.3438 759.922 95C755.547 99.625 749.609 101.938 742.109 101.938C734.891 101.938 729.094 99.7812 724.719 95.4688C720.344 91.125 717.984 85.25 717.641 77.8438L717.594 75.1719ZM733.391 76.1562C733.391 80.8438 734.125 84.2812 735.594 86.4688C737.062 88.6562 739.234 89.75 742.109 89.75C747.734 89.75 750.609 85.4219 750.734 76.7656V75.1719C750.734 66.0781 747.828 61.5312 742.016 61.5312C736.734 61.5312 733.875 65.4531 733.438 73.2969L733.391 76.1562ZM793.859 82.1094L789.406 86.5625V101H773.609V28.9531H789.406V67.2031L791 65.0938L802.906 50.2812H821.844L804.078 71.1406L823.016 101H804.922L793.859 82.1094ZM849.594 101.938C841.812 101.938 835.516 99.625 830.703 95C825.891 90.3438 823.484 84.2969 823.484 76.8594V75.5469C823.484 70.3594 824.438 65.7812 826.344 61.8125C828.281 57.8438 831.094 54.7812 834.781 52.625C838.469 50.4375 842.844 49.3438 847.906 49.3438C855.031 49.3438 860.656 51.5625 864.781 56C868.906 60.4062 870.969 66.5625 870.969 74.4688V80.6094H839.562C840.125 83.4531 841.359 85.6875 843.266 87.3125C845.172 88.9375 847.641 89.75 850.672 89.75C855.672 89.75 859.578 88 862.391 84.5L869.609 93.0312C867.641 95.75 864.844 97.9219 861.219 99.5469C857.625 101.141 853.75 101.938 849.594 101.938ZM847.812 61.5312C843.188 61.5312 840.438 64.5938 839.562 70.7188H855.5V69.5C855.562 66.9688 854.922 65.0156 853.578 63.6406C852.234 62.2344 850.312 61.5312 847.812 61.5312Z" fill="#EB5757"/>
</svg>
