<?xml version="1.0" encoding="utf-8" standalone="no"?>
<!DOCTYPE svg PUBLIC "-//W3C//DTD SVG 1.1//EN"
  "http://www.w3.org/Graphics/SVG/1.1/DTD/svg11.dtd">
<!-- Created with matplotlib (http://matplotlib.org/) -->
<svg height="288pt" version="1.1" viewBox="0 0 720 288" width="720pt" xmlns="http://www.w3.org/2000/svg" xmlns:xlink="http://www.w3.org/1999/xlink">
 <defs>
  <style type="text/css">
*{stroke-linecap:butt;stroke-linejoin:round;}
  </style>
 </defs>
 <g id="figure_1">
  <g id="patch_1">
   <path d="M 0 288 
L 720 288 
L 720 0 
L 0 0 
z
" style="fill:#ffffff;"/>
  </g>
  <g id="axes_1">
   <g id="patch_2">
    <path d="M 90 252 
L 648 252 
L 648 34.56 
L 90 34.56 
z
" style="fill:#ffffff;"/>
   </g>
   <g id="matplotlib.axis_1">
    <g id="xtick_1">
     <g id="line2d_1">
      <defs>
       <path d="M 0 0 
L 0 3.5 
" id="m22e881c50f" style="stroke:#000000;stroke-width:0.8;"/>
      </defs>
      <g>
       <use style="stroke:#000000;stroke-width:0.8;" x="90" xlink:href="#m22e881c50f" y="252"/>
      </g>
     </g>
     <g id="text_1">
      <!-- 1800 -->
      <defs>
       <path d="M 12.40625 8.296875 
L 28.515625 8.296875 
L 28.515625 63.921875 
L 10.984375 60.40625 
L 10.984375 69.390625 
L 28.421875 72.90625 
L 38.28125 72.90625 
L 38.28125 8.296875 
L 54.390625 8.296875 
L 54.390625 0 
L 12.40625 0 
z
" id="DejaVuSans-31"/>
       <path d="M 31.78125 34.625 
Q 24.75 34.625 20.71875 30.859375 
Q 16.703125 27.09375 16.703125 20.515625 
Q 16.703125 13.921875 20.71875 10.15625 
Q 24.75 6.390625 31.78125 6.390625 
Q 38.8125 6.390625 42.859375 10.171875 
Q 46.921875 13.96875 46.921875 20.515625 
Q 46.921875 27.09375 42.890625 30.859375 
Q 38.875 34.625 31.78125 34.625 
z
M 21.921875 38.8125 
Q 15.578125 40.375 12.03125 44.71875 
Q 8.5 49.078125 8.5 55.328125 
Q 8.5 64.0625 14.71875 69.140625 
Q 20.953125 74.21875 31.78125 74.21875 
Q 42.671875 74.21875 48.875 69.140625 
Q 55.078125 64.0625 55.078125 55.328125 
Q 55.078125 49.078125 51.53125 44.71875 
Q 48 40.375 41.703125 38.8125 
Q 48.828125 37.15625 52.796875 32.3125 
Q 56.78125 27.484375 56.78125 20.515625 
Q 56.78125 9.90625 50.3125 4.234375 
Q 43.84375 -1.421875 31.78125 -1.421875 
Q 19.734375 -1.421875 13.25 4.234375 
Q 6.78125 9.90625 6.78125 20.515625 
Q 6.78125 27.484375 10.78125 32.3125 
Q 14.796875 37.15625 21.921875 38.8125 
z
M 18.3125 54.390625 
Q 18.3125 48.734375 21.84375 45.5625 
Q 25.390625 42.390625 31.78125 42.390625 
Q 38.140625 42.390625 41.71875 45.5625 
Q 45.3125 48.734375 45.3125 54.390625 
Q 45.3125 60.0625 41.71875 63.234375 
Q 38.140625 66.40625 31.78125 66.40625 
Q 25.390625 66.40625 21.84375 63.234375 
Q 18.3125 60.0625 18.3125 54.390625 
z
" id="DejaVuSans-38"/>
       <path d="M 31.78125 66.40625 
Q 24.171875 66.40625 20.328125 58.90625 
Q 16.5 51.421875 16.5 36.375 
Q 16.5 21.390625 20.328125 13.890625 
Q 24.171875 6.390625 31.78125 6.390625 
Q 39.453125 6.390625 43.28125 13.890625 
Q 47.125 21.390625 47.125 36.375 
Q 47.125 51.421875 43.28125 58.90625 
Q 39.453125 66.40625 31.78125 66.40625 
z
M 31.78125 74.21875 
Q 44.046875 74.21875 50.515625 64.515625 
Q 56.984375 54.828125 56.984375 36.375 
Q 56.984375 17.96875 50.515625 8.265625 
Q 44.046875 -1.421875 31.78125 -1.421875 
Q 19.53125 -1.421875 13.0625 8.265625 
Q 6.59375 17.96875 6.59375 36.375 
Q 6.59375 54.828125 13.0625 64.515625 
Q 19.53125 74.21875 31.78125 74.21875 
z
" id="DejaVuSans-30"/>
      </defs>
      <g transform="translate(77.275 266.598437)scale(0.1 -0.1)">
       <use xlink:href="#DejaVuSans-31"/>
       <use x="63.623047" xlink:href="#DejaVuSans-38"/>
       <use x="127.246094" xlink:href="#DejaVuSans-30"/>
       <use x="190.869141" xlink:href="#DejaVuSans-30"/>
      </g>
     </g>
    </g>
    <g id="xtick_2">
     <g id="line2d_2">
      <g>
       <use style="stroke:#000000;stroke-width:0.8;" x="211.834804" xlink:href="#m22e881c50f" y="252"/>
      </g>
     </g>
     <g id="text_2">
      <!-- 1850 -->
      <defs>
       <path d="M 10.796875 72.90625 
L 49.515625 72.90625 
L 49.515625 64.59375 
L 19.828125 64.59375 
L 19.828125 46.734375 
Q 21.96875 47.46875 24.109375 47.828125 
Q 26.265625 48.1875 28.421875 48.1875 
Q 40.625 48.1875 47.75 41.5 
Q 54.890625 34.8125 54.890625 23.390625 
Q 54.890625 11.625 47.5625 5.09375 
Q 40.234375 -1.421875 26.90625 -1.421875 
Q 22.3125 -1.421875 17.546875 -0.640625 
Q 12.796875 0.140625 7.71875 1.703125 
L 7.71875 11.625 
Q 12.109375 9.234375 16.796875 8.0625 
Q 21.484375 6.890625 26.703125 6.890625 
Q 35.15625 6.890625 40.078125 11.328125 
Q 45.015625 15.765625 45.015625 23.390625 
Q 45.015625 31 40.078125 35.4375 
Q 35.15625 39.890625 26.703125 39.890625 
Q 22.75 39.890625 18.8125 39.015625 
Q 14.890625 38.140625 10.796875 36.28125 
z
" id="DejaVuSans-35"/>
      </defs>
      <g transform="translate(199.109804 266.598437)scale(0.1 -0.1)">
       <use xlink:href="#DejaVuSans-31"/>
       <use x="63.623047" xlink:href="#DejaVuSans-38"/>
       <use x="127.246094" xlink:href="#DejaVuSans-35"/>
       <use x="190.869141" xlink:href="#DejaVuSans-30"/>
      </g>
     </g>
    </g>
    <g id="xtick_3">
     <g id="line2d_3">
      <g>
       <use style="stroke:#000000;stroke-width:0.8;" x="333.669608" xlink:href="#m22e881c50f" y="252"/>
      </g>
     </g>
     <g id="text_3">
      <!-- 1900 -->
      <defs>
       <path d="M 10.984375 1.515625 
L 10.984375 10.5 
Q 14.703125 8.734375 18.5 7.8125 
Q 22.3125 6.890625 25.984375 6.890625 
Q 35.75 6.890625 40.890625 13.453125 
Q 46.046875 20.015625 46.78125 33.40625 
Q 43.953125 29.203125 39.59375 26.953125 
Q 35.25 24.703125 29.984375 24.703125 
Q 19.046875 24.703125 12.671875 31.3125 
Q 6.296875 37.9375 6.296875 49.421875 
Q 6.296875 60.640625 12.9375 67.421875 
Q 19.578125 74.21875 30.609375 74.21875 
Q 43.265625 74.21875 49.921875 64.515625 
Q 56.59375 54.828125 56.59375 36.375 
Q 56.59375 19.140625 48.40625 8.859375 
Q 40.234375 -1.421875 26.421875 -1.421875 
Q 22.703125 -1.421875 18.890625 -0.6875 
Q 15.09375 0.046875 10.984375 1.515625 
z
M 30.609375 32.421875 
Q 37.25 32.421875 41.125 36.953125 
Q 45.015625 41.5 45.015625 49.421875 
Q 45.015625 57.28125 41.125 61.84375 
Q 37.25 66.40625 30.609375 66.40625 
Q 23.96875 66.40625 20.09375 61.84375 
Q 16.21875 57.28125 16.21875 49.421875 
Q 16.21875 41.5 20.09375 36.953125 
Q 23.96875 32.421875 30.609375 32.421875 
z
" id="DejaVuSans-39"/>
      </defs>
      <g transform="translate(320.944608 266.598437)scale(0.1 -0.1)">
       <use xlink:href="#DejaVuSans-31"/>
       <use x="63.623047" xlink:href="#DejaVuSans-39"/>
       <use x="127.246094" xlink:href="#DejaVuSans-30"/>
       <use x="190.869141" xlink:href="#DejaVuSans-30"/>
      </g>
     </g>
    </g>
    <g id="xtick_4">
     <g id="line2d_4">
      <g>
       <use style="stroke:#000000;stroke-width:0.8;" x="455.504412" xlink:href="#m22e881c50f" y="252"/>
      </g>
     </g>
     <g id="text_4">
      <!-- 1950 -->
      <g transform="translate(442.779412 266.598437)scale(0.1 -0.1)">
       <use xlink:href="#DejaVuSans-31"/>
       <use x="63.623047" xlink:href="#DejaVuSans-39"/>
       <use x="127.246094" xlink:href="#DejaVuSans-35"/>
       <use x="190.869141" xlink:href="#DejaVuSans-30"/>
      </g>
     </g>
    </g>
    <g id="xtick_5">
     <g id="line2d_5">
      <g>
       <use style="stroke:#000000;stroke-width:0.8;" x="577.339216" xlink:href="#m22e881c50f" y="252"/>
      </g>
     </g>
     <g id="text_5">
      <!-- 2000 -->
      <defs>
       <path d="M 19.1875 8.296875 
L 53.609375 8.296875 
L 53.609375 0 
L 7.328125 0 
L 7.328125 8.296875 
Q 12.9375 14.109375 22.625 23.890625 
Q 32.328125 33.6875 34.8125 36.53125 
Q 39.546875 41.84375 41.421875 45.53125 
Q 43.3125 49.21875 43.3125 52.78125 
Q 43.3125 58.59375 39.234375 62.25 
Q 35.15625 65.921875 28.609375 65.921875 
Q 23.96875 65.921875 18.8125 64.3125 
Q 13.671875 62.703125 7.8125 59.421875 
L 7.8125 69.390625 
Q 13.765625 71.78125 18.9375 73 
Q 24.125 74.21875 28.421875 74.21875 
Q 39.75 74.21875 46.484375 68.546875 
Q 53.21875 62.890625 53.21875 53.421875 
Q 53.21875 48.921875 51.53125 44.890625 
Q 49.859375 40.875 45.40625 35.40625 
Q 44.1875 33.984375 37.640625 27.21875 
Q 31.109375 20.453125 19.1875 8.296875 
z
" id="DejaVuSans-32"/>
      </defs>
      <g transform="translate(564.614216 266.598437)scale(0.1 -0.1)">
       <use xlink:href="#DejaVuSans-32"/>
       <use x="63.623047" xlink:href="#DejaVuSans-30"/>
       <use x="127.246094" xlink:href="#DejaVuSans-30"/>
       <use x="190.869141" xlink:href="#DejaVuSans-30"/>
      </g>
     </g>
    </g>
    <g id="xtick_6">
     <g id="line2d_6">
      <g>
       <use style="stroke:#000000;stroke-width:0.8;" x="621.204282" xlink:href="#m22e881c50f" y="252"/>
      </g>
     </g>
     <g id="text_6">
      <!-- 2018 -->
      <g transform="translate(608.479282 266.598437)scale(0.1 -0.1)">
       <use xlink:href="#DejaVuSans-32"/>
       <use x="63.623047" xlink:href="#DejaVuSans-30"/>
       <use x="127.246094" xlink:href="#DejaVuSans-31"/>
       <use x="190.869141" xlink:href="#DejaVuSans-38"/>
      </g>
     </g>
    </g>
   </g>
   <g id="matplotlib.axis_2">
    <g id="ytick_1">
     <g id="line2d_7">
      <defs>
       <path d="M 0 0 
L -3.5 0 
" id="md28cedff61" style="stroke:#000000;stroke-width:0.8;"/>
      </defs>
      <g>
       <use style="stroke:#000000;stroke-width:0.8;" x="90" xlink:href="#md28cedff61" y="228.665343"/>
      </g>
     </g>
     <g id="text_7">
      <!-- −0.05 -->
      <defs>
       <path d="M 10.59375 35.5 
L 73.1875 35.5 
L 73.1875 27.203125 
L 10.59375 27.203125 
z
" id="DejaVuSans-2212"/>
       <path d="M 10.6875 12.40625 
L 21 12.40625 
L 21 0 
L 10.6875 0 
z
" id="DejaVuSans-2e"/>
      </defs>
      <g transform="translate(52.354687 232.464562)scale(0.1 -0.1)">
       <use xlink:href="#DejaVuSans-2212"/>
       <use x="83.789062" xlink:href="#DejaVuSans-30"/>
       <use x="147.412109" xlink:href="#DejaVuSans-2e"/>
       <use x="179.199219" xlink:href="#DejaVuSans-30"/>
       <use x="242.822266" xlink:href="#DejaVuSans-35"/>
      </g>
     </g>
    </g>
    <g id="ytick_2">
     <g id="line2d_8">
      <g>
       <use style="stroke:#000000;stroke-width:0.8;" x="90" xlink:href="#md28cedff61" y="186.61121"/>
      </g>
     </g>
     <g id="text_8">
      <!-- 0.00 -->
      <g transform="translate(60.734375 190.410429)scale(0.1 -0.1)">
       <use xlink:href="#DejaVuSans-30"/>
       <use x="63.623047" xlink:href="#DejaVuSans-2e"/>
       <use x="95.410156" xlink:href="#DejaVuSans-30"/>
       <use x="159.033203" xlink:href="#DejaVuSans-30"/>
      </g>
     </g>
    </g>
    <g id="ytick_3">
     <g id="line2d_9">
      <g>
       <use style="stroke:#000000;stroke-width:0.8;" x="90" xlink:href="#md28cedff61" y="144.557077"/>
      </g>
     </g>
     <g id="text_9">
      <!-- 0.05 -->
      <g transform="translate(60.734375 148.356296)scale(0.1 -0.1)">
       <use xlink:href="#DejaVuSans-30"/>
       <use x="63.623047" xlink:href="#DejaVuSans-2e"/>
       <use x="95.410156" xlink:href="#DejaVuSans-30"/>
       <use x="159.033203" xlink:href="#DejaVuSans-35"/>
      </g>
     </g>
    </g>
    <g id="ytick_4">
     <g id="line2d_10">
      <g>
       <use style="stroke:#000000;stroke-width:0.8;" x="90" xlink:href="#md28cedff61" y="102.502945"/>
      </g>
     </g>
     <g id="text_10">
      <!-- 0.10 -->
      <g transform="translate(60.734375 106.302163)scale(0.1 -0.1)">
       <use xlink:href="#DejaVuSans-30"/>
       <use x="63.623047" xlink:href="#DejaVuSans-2e"/>
       <use x="95.410156" xlink:href="#DejaVuSans-31"/>
       <use x="159.033203" xlink:href="#DejaVuSans-30"/>
      </g>
     </g>
    </g>
    <g id="ytick_5">
     <g id="line2d_11">
      <g>
       <use style="stroke:#000000;stroke-width:0.8;" x="90" xlink:href="#md28cedff61" y="60.448812"/>
      </g>
     </g>
     <g id="text_11">
      <!-- 0.15 -->
      <g transform="translate(60.734375 64.248031)scale(0.1 -0.1)">
       <use xlink:href="#DejaVuSans-30"/>
       <use x="63.623047" xlink:href="#DejaVuSans-2e"/>
       <use x="95.410156" xlink:href="#DejaVuSans-31"/>
       <use x="159.033203" xlink:href="#DejaVuSans-35"/>
      </g>
     </g>
    </g>
   </g>
   <g id="line2d_12">
    <path clip-path="url(#p1896797fda)" d="M 136.286818 103.557936 
L 138.721913 136.88973 
L 141.163679 116.223128 
L 143.598774 101.829104 
L 146.033869 93.693922 
L 148.468964 98.109606 
L 150.910731 143.948343 
L 153.345825 158.786465 
L 155.78092 159.190831 
L 158.216015 167.869339 
L 160.657782 183.423938 
L 163.092877 168.340195 
L 165.527972 164.575348 
L 167.963066 182.715957 
L 170.404833 157.76518 
L 172.839928 160.243484 
L 175.275023 159.570501 
L 177.710118 133.2318 
L 180.151884 150.038708 
L 182.586979 168.229824 
L 185.022074 164.338563 
L 187.457169 192.959445 
L 192.33403 209.489348 
L 194.769125 242.116364 
L 197.20422 201.905351 
L 199.645986 192.791397 
L 202.081081 206.112638 
L 204.516176 181.894759 
L 206.951271 159.741936 
L 209.393038 167.531714 
L 211.828133 140.913887 
L 214.263227 128.779096 
L 216.698322 109.443862 
L 219.140089 76.011983 
L 221.575184 130.940159 
L 224.010279 170.307196 
L 226.445374 168.756235 
L 228.88714 165.744982 
L 231.322235 203.940134 
L 233.75733 189.858215 
L 236.192425 206.321035 
L 238.634191 192.121734 
L 241.069286 190.527265 
L 243.504381 170.020084 
L 245.939476 123.864376 
L 248.381242 110.857423 
L 250.816337 110.918665 
L 253.251432 114.451952 
L 255.686527 79.993769 
L 258.128294 75.291329 
L 260.563388 72.782149 
L 262.998483 106.343548 
L 265.433578 102.257503 
L 267.875345 139.577302 
L 270.31044 184.561701 
L 272.745535 174.564931 
L 275.180629 182.709005 
L 277.622396 200.757202 
L 280.057491 211.928693 
L 282.492586 211.820064 
L 284.927681 178.433038 
L 287.369447 156.974735 
L 289.804542 157.362723 
L 292.239637 163.625871 
L 294.674732 161.494547 
L 297.116498 179.133481 
L 299.551593 158.529798 
L 301.986688 139.908136 
L 304.421783 138.664797 
L 306.863549 143.347562 
L 309.298644 164.450814 
L 311.733739 194.648165 
L 314.168834 185.058712 
L 316.610601 189.657616 
L 319.045696 201.496131 
L 321.48079 187.602644 
L 323.915885 202.453668 
L 326.357652 206.673508 
L 328.792747 181.169622 
L 331.227842 167.654511 
L 333.662937 168.237535 
L 336.098031 141.964641 
L 338.533126 146.990183 
L 340.968221 139.292645 
L 343.403316 134.473669 
L 345.845083 113.337702 
L 348.280178 98.434587 
L 350.715273 100.008522 
L 353.150367 146.51554 
L 355.592134 131.782744 
L 358.027229 127.531412 
L 360.462324 153.861528 
L 362.897419 162.146712 
L 365.339185 162.397969 
L 367.77428 155.759158 
L 370.209375 186.158199 
L 372.64447 166.51725 
L 375.086236 167.376389 
L 377.521331 158.565313 
L 379.956426 184.208189 
L 382.391521 184.939653 
L 384.833287 188.934893 
L 387.268382 186.322751 
L 389.703477 172.287398 
L 392.138572 166.851374 
L 394.580339 136.965682 
L 397.015434 153.832572 
L 399.450528 148.344167 
L 401.885623 109.421838 
L 404.32739 84.584314 
L 406.762485 102.71874 
L 409.19758 110.711444 
L 411.632675 154.481651 
L 414.074441 183.162907 
L 416.509536 140.186445 
L 418.944631 165.402197 
L 421.379726 150.109144 
L 423.821492 129.282556 
L 426.256587 181.303887 
L 428.691682 191.697441 
L 431.126777 186.264691 
L 433.568543 175.168611 
L 436.003638 150.606812 
L 438.438733 127.413233 
L 440.873828 150.241875 
L 443.315594 133.641719 
L 445.750689 142.59549 
L 448.185784 176.061261 
L 450.620879 143.602716 
L 453.062646 165.358887 
L 455.497741 152.142473 
L 457.932836 120.963306 
L 460.36793 92.091956 
L 462.809697 92.637418 
L 465.244792 114.565536 
L 467.679887 88.301796 
L 470.114982 91.934713 
L 472.556748 79.753402 
L 474.991843 91.79204 
L 477.426938 59.231115 
L 479.862033 60.733652 
L 482.303799 81.550581 
L 484.738894 75.943898 
L 487.173989 95.784598 
L 489.609084 74.324659 
L 492.05085 101.283287 
L 494.485945 115.869015 
L 496.92104 129.08034 
L 499.356135 100.142569 
L 501.797902 125.710726 
L 504.232997 142.39627 
L 506.668091 139.814249 
L 509.103186 150.194713 
L 511.544953 127.112724 
L 513.980048 157.607162 
L 516.415143 193.511271 
L 518.850238 174.597794 
L 521.292004 147.48175 
L 523.727099 174.054978 
L 526.162194 179.604755 
L 528.597289 159.696109 
L 531.039055 138.100626 
L 533.47415 155.357259 
L 535.909245 156.090635 
L 538.34434 126.958417 
L 540.786106 100.785029 
L 543.221201 105.171776 
L 545.656296 108.980244 
L 548.091391 97.600854 
L 550.533157 88.063984 
L 552.968252 75.496817 
L 555.403347 102.691305 
L 557.838442 72.381116 
L 562.715304 89.634205 
L 565.150399 92.106887 
L 567.585493 85.565585 
L 570.02726 80.819139 
L 572.462355 56.443992 
L 574.89745 44.443636 
L 577.332545 50.940515 
L 579.774311 53.95163 
L 582.209406 87.047722 
L 584.644501 110.455247 
L 587.079596 94.201119 
L 589.521362 85.342215 
L 591.956457 111.507986 
L 594.391552 117.096337 
L 596.826647 140.208113 
L 599.268413 195.008336 
L 601.703508 191.704438 
L 604.138603 172.425228 
L 606.573698 161.457925 
L 609.015465 130.529919 
L 611.45056 127.820918 
L 613.885654 125.804687 
L 616.320749 128.939928 
L 618.762516 132.375259 
L 621.197611 119.01013 
L 623.632706 85.084764 
L 623.632706 85.084764 
" style="fill:none;stroke:#1f77b4;stroke-linecap:square;stroke-width:1.5;"/>
   </g>
   <g id="line2d_13">
    <path clip-path="url(#p1896797fda)" d="M 136.286818 89.81101 
L 138.721913 90.78157 
L 141.163679 96.73707 
L 143.598774 106.945471 
L 146.033869 120.135254 
L 150.910731 148.800165 
L 153.345825 160.872975 
L 155.78092 169.607312 
L 158.216015 174.255526 
L 160.657782 174.710715 
L 163.092877 171.514677 
L 165.527972 165.76851 
L 167.963066 158.958362 
L 170.404833 152.72169 
L 172.839928 148.588734 
L 175.275023 147.738104 
L 177.710118 150.803758 
L 180.151884 157.763434 
L 182.586979 167.926662 
L 187.457169 192.397288 
L 189.898935 203.22895 
L 192.33403 210.833942 
L 194.769125 213.913445 
L 197.20422 211.766386 
L 199.645986 204.414285 
L 202.081081 192.620808 
L 204.516176 177.801161 
L 206.951271 161.832787 
L 209.393038 146.793678 
L 211.828133 134.665708 
L 214.263227 127.04606 
L 216.698322 124.909191 
L 219.140089 128.45485 
L 221.575184 137.065481 
L 224.010279 149.380614 
L 228.88714 177.142969 
L 231.322235 188.169428 
L 233.75733 194.681065 
L 236.192425 195.395995 
L 238.634191 189.815959 
L 241.069286 178.306731 
L 243.504381 162.059098 
L 250.816337 105.341086 
L 253.251432 91.495578 
L 255.686527 83.41506 
L 258.128294 82.112955 
L 260.563388 87.764667 
L 262.998483 99.695212 
L 265.433578 116.479992 
L 272.745535 175.067393 
L 275.180629 190.126313 
L 277.622396 200.181508 
L 280.057491 204.509619 
L 282.492586 203.142218 
L 284.927681 196.82482 
L 287.369447 186.883648 
L 292.239637 163.077771 
L 294.674732 152.774163 
L 297.116498 145.501572 
L 299.551593 142.154202 
L 301.986688 143.042646 
L 304.421783 147.88873 
L 306.863549 155.898187 
L 309.298644 165.896161 
L 311.733739 176.502932 
L 314.168834 186.323346 
L 316.610601 194.123539 
L 319.045696 198.97244 
L 321.48079 200.332324 
L 323.915885 198.09117 
L 326.357652 192.538396 
L 328.792747 184.293305 
L 331.227842 174.201222 
L 336.098031 152.28094 
L 338.533126 142.240112 
L 340.968221 133.761824 
L 343.403316 127.307017 
L 345.845083 123.124158 
L 348.280178 121.270156 
L 350.715273 121.647326 
L 353.150367 124.046187 
L 355.592134 128.184996 
L 358.027229 133.739515 
L 360.462324 140.360214 
L 365.339185 155.301602 
L 367.77428 162.815843 
L 370.209375 169.782003 
L 372.64447 175.75069 
L 375.086236 180.286666 
L 377.521331 183.005854 
L 379.956426 183.620186 
L 382.391521 181.983245 
L 384.833287 178.128171 
L 387.268382 172.289395 
L 389.703477 164.901518 
L 397.015434 140.043275 
L 399.450528 133.35314 
L 401.885623 128.568904 
L 404.32739 126.104667 
L 406.762485 126.126638 
L 409.19758 128.533228 
L 411.632675 132.969389 
L 414.074441 138.873659 
L 418.944631 152.263793 
L 421.379726 158.319569 
L 423.821492 163.156409 
L 426.256587 166.400256 
L 428.691682 167.894636 
L 431.126777 167.696689 
L 433.568543 166.041941 
L 436.003638 163.284727 
L 438.438733 159.824853 
L 453.062646 137.046948 
L 455.497741 132.510795 
L 457.932836 127.212901 
L 460.36793 121.028334 
L 462.809697 113.977845 
L 467.679887 98.200315 
L 470.114982 90.309319 
L 472.556748 83.135682 
L 474.991843 77.242318 
L 477.426938 73.125124 
L 479.862033 71.149529 
L 482.303799 71.505493 
L 484.738894 74.187498 
L 487.173989 79.001792 
L 489.609084 85.598629 
L 492.05085 93.523191 
L 496.92104 111.372464 
L 499.356135 120.391925 
L 501.797902 129.008703 
L 504.232997 137.001585 
L 506.668091 144.242087 
L 509.103186 150.666008 
L 511.544953 156.235804 
L 513.980048 160.90296 
L 516.415143 164.579316 
L 518.850238 167.12441 
L 521.292004 168.352539 
L 523.727099 168.059134 
L 526.162194 166.06187 
L 528.597289 162.248587 
L 531.039055 156.622128 
L 533.47415 149.332116 
L 535.909245 140.685547 
L 540.786106 121.22057 
L 543.221201 111.542118 
L 545.656296 102.651532 
L 548.091391 94.996521 
L 550.533157 88.857116 
L 552.968252 84.310183 
L 555.403347 81.226293 
L 557.838442 79.301505 
L 560.280209 78.120529 
L 565.150399 76.291805 
L 567.585493 75.048881 
L 572.462355 71.89684 
L 574.89745 70.67217 
L 577.332545 70.440406 
L 579.774311 71.864688 
L 582.209406 75.539972 
L 584.644501 81.866347 
L 587.079596 90.940354 
L 589.521362 102.48426 
L 591.956457 115.828519 
L 596.826647 143.600163 
L 599.268413 155.404843 
L 601.703508 164.094751 
L 604.138603 168.662777 
L 606.573698 168.527844 
L 609.015465 163.64423 
L 611.45056 154.542165 
L 613.885654 142.289839 
L 618.762516 114.541687 
L 621.197611 102.537891 
L 623.632706 93.916622 
L 623.632706 93.916622 
" style="fill:none;stroke:#ff7f0e;stroke-linecap:square;stroke-width:1.5;"/>
   </g>
   <g id="line2d_14">
    <path clip-path="url(#p1896797fda)" d="M 90 186.61121 
L 648 186.61121 
" style="fill:none;stroke:#1f77b4;stroke-linecap:square;stroke-width:1.5;"/>
   </g>
   <g id="line2d_15">
    <path clip-path="url(#p1896797fda)" d="M 175.275023 252 
L 175.275023 34.56 
" style="fill:none;opacity:0.1;stroke:#000000;stroke-linecap:square;stroke-width:1.5;"/>
   </g>
   <g id="line2d_16">
    <path clip-path="url(#p1896797fda)" d="M 216.698322 252 
L 216.698322 34.56 
" style="fill:none;opacity:0.1;stroke:#000000;stroke-linecap:square;stroke-width:1.5;"/>
   </g>
   <g id="line2d_17">
    <path clip-path="url(#p1896797fda)" d="M 258.128294 252 
L 258.128294 34.56 
" style="fill:none;opacity:0.1;stroke:#000000;stroke-linecap:square;stroke-width:1.5;"/>
   </g>
   <g id="line2d_18">
    <path clip-path="url(#p1896797fda)" d="M 299.551593 252 
L 299.551593 34.56 
" style="fill:none;opacity:0.1;stroke:#000000;stroke-linecap:square;stroke-width:1.5;"/>
   </g>
   <g id="line2d_19">
    <path clip-path="url(#p1896797fda)" d="M 348.280178 252 
L 348.280178 34.56 
" style="fill:none;opacity:0.1;stroke:#000000;stroke-linecap:square;stroke-width:1.5;"/>
   </g>
   <g id="line2d_20">
    <path clip-path="url(#p1896797fda)" d="M 404.32739 252 
L 404.32739 34.56 
" style="fill:none;opacity:0.1;stroke:#000000;stroke-linecap:square;stroke-width:1.5;"/>
   </g>
   <g id="line2d_21">
    <path clip-path="url(#p1896797fda)" d="M 479.862033 252 
L 479.862033 34.56 
" style="fill:none;opacity:0.1;stroke:#000000;stroke-linecap:square;stroke-width:1.5;"/>
   </g>
   <g id="line2d_22">
    <path clip-path="url(#p1896797fda)" d="M 577.332545 252 
L 577.332545 34.56 
" style="fill:none;opacity:0.1;stroke:#000000;stroke-linecap:square;stroke-width:1.5;"/>
   </g>
   <g id="patch_3">
    <path d="M 90 252 
L 90 34.56 
" style="fill:none;stroke:#000000;stroke-linecap:square;stroke-linejoin:miter;stroke-width:0.8;"/>
   </g>
   <g id="patch_4">
    <path d="M 648 252 
L 648 34.56 
" style="fill:none;stroke:#000000;stroke-linecap:square;stroke-linejoin:miter;stroke-width:0.8;"/>
   </g>
   <g id="patch_5">
    <path d="M 90 252 
L 648 252 
" style="fill:none;stroke:#000000;stroke-linecap:square;stroke-linejoin:miter;stroke-width:0.8;"/>
   </g>
   <g id="patch_6">
    <path d="M 90 34.56 
L 648 34.56 
" style="fill:none;stroke:#000000;stroke-linecap:square;stroke-linejoin:miter;stroke-width:0.8;"/>
   </g>
   <g id="text_12">
    <g id="patch_7">
     <path d="M 215.080089 204.220585 
L 241.015089 204.220585 
L 241.015089 182.55121 
L 215.080089 182.55121 
z
" style="fill:none;"/>
    </g>
    <!-- 17 -->
    <defs>
     <path d="M 8.203125 72.90625 
L 55.078125 72.90625 
L 55.078125 68.703125 
L 28.609375 0 
L 18.3125 0 
L 43.21875 64.59375 
L 8.203125 64.59375 
z
" id="DejaVuSans-37"/>
    </defs>
    <g transform="translate(219.140089 197.249023)scale(0.14 -0.14)">
     <use xlink:href="#DejaVuSans-31"/>
     <use x="63.623047" xlink:href="#DejaVuSans-37"/>
    </g>
   </g>
   <g id="text_13">
    <g id="patch_8">
     <path d="M 256.503388 204.220585 
L 282.438388 204.220585 
L 282.438388 182.55121 
L 256.503388 182.55121 
z
" style="fill:none;"/>
    </g>
    <!-- 17 -->
    <g transform="translate(260.563388 197.249023)scale(0.14 -0.14)">
     <use xlink:href="#DejaVuSans-31"/>
     <use x="63.623047" xlink:href="#DejaVuSans-37"/>
    </g>
   </g>
   <g id="text_14">
    <g id="patch_9">
     <path d="M 297.926688 204.220585 
L 323.861688 204.220585 
L 323.861688 182.55121 
L 297.926688 182.55121 
z
" style="fill:none;"/>
    </g>
    <!-- 17 -->
    <g transform="translate(301.986688 197.249023)scale(0.14 -0.14)">
     <use xlink:href="#DejaVuSans-31"/>
     <use x="63.623047" xlink:href="#DejaVuSans-37"/>
    </g>
   </g>
   <g id="text_15">
    <g id="patch_10">
     <path d="M 346.655273 204.220585 
L 372.590273 204.220585 
L 372.590273 182.55121 
L 346.655273 182.55121 
z
" style="fill:none;"/>
    </g>
    <!-- 20 -->
    <g transform="translate(350.715273 197.249023)scale(0.14 -0.14)">
     <use xlink:href="#DejaVuSans-32"/>
     <use x="63.623047" xlink:href="#DejaVuSans-30"/>
    </g>
   </g>
   <g id="text_16">
    <g id="patch_11">
     <path d="M 402.702485 204.220585 
L 428.637485 204.220585 
L 428.637485 182.55121 
L 402.702485 182.55121 
z
" style="fill:none;"/>
    </g>
    <!-- 23 -->
    <defs>
     <path d="M 40.578125 39.3125 
Q 47.65625 37.796875 51.625 33 
Q 55.609375 28.21875 55.609375 21.1875 
Q 55.609375 10.40625 48.1875 4.484375 
Q 40.765625 -1.421875 27.09375 -1.421875 
Q 22.515625 -1.421875 17.65625 -0.515625 
Q 12.796875 0.390625 7.625 2.203125 
L 7.625 11.71875 
Q 11.71875 9.328125 16.59375 8.109375 
Q 21.484375 6.890625 26.8125 6.890625 
Q 36.078125 6.890625 40.9375 10.546875 
Q 45.796875 14.203125 45.796875 21.1875 
Q 45.796875 27.640625 41.28125 31.265625 
Q 36.765625 34.90625 28.71875 34.90625 
L 20.21875 34.90625 
L 20.21875 43.015625 
L 29.109375 43.015625 
Q 36.375 43.015625 40.234375 45.921875 
Q 44.09375 48.828125 44.09375 54.296875 
Q 44.09375 59.90625 40.109375 62.90625 
Q 36.140625 65.921875 28.71875 65.921875 
Q 24.65625 65.921875 20.015625 65.03125 
Q 15.375 64.15625 9.8125 62.3125 
L 9.8125 71.09375 
Q 15.4375 72.65625 20.34375 73.4375 
Q 25.25 74.21875 29.59375 74.21875 
Q 40.828125 74.21875 47.359375 69.109375 
Q 53.90625 64.015625 53.90625 55.328125 
Q 53.90625 49.265625 50.4375 45.09375 
Q 46.96875 40.921875 40.578125 39.3125 
z
" id="DejaVuSans-33"/>
    </defs>
    <g transform="translate(406.762485 197.249023)scale(0.14 -0.14)">
     <use xlink:href="#DejaVuSans-32"/>
     <use x="63.623047" xlink:href="#DejaVuSans-33"/>
    </g>
   </g>
   <g id="text_17">
    <g id="patch_12">
     <path d="M 478.243799 204.220585 
L 504.178799 204.220585 
L 504.178799 182.55121 
L 478.243799 182.55121 
z
" style="fill:none;"/>
    </g>
    <!-- 31 -->
    <g transform="translate(482.303799 197.249023)scale(0.14 -0.14)">
     <use xlink:href="#DejaVuSans-33"/>
     <use x="63.623047" xlink:href="#DejaVuSans-31"/>
    </g>
   </g>
   <g id="text_18">
    <g id="patch_13">
     <path d="M 575.714311 204.220585 
L 601.649311 204.220585 
L 601.649311 182.55121 
L 575.714311 182.55121 
z
" style="fill:none;"/>
    </g>
    <!-- 40 -->
    <defs>
     <path d="M 37.796875 64.3125 
L 12.890625 25.390625 
L 37.796875 25.390625 
z
M 35.203125 72.90625 
L 47.609375 72.90625 
L 47.609375 25.390625 
L 58.015625 25.390625 
L 58.015625 17.1875 
L 47.609375 17.1875 
L 47.609375 0 
L 37.796875 0 
L 37.796875 17.1875 
L 4.890625 17.1875 
L 4.890625 26.703125 
z
" id="DejaVuSans-34"/>
    </defs>
    <g transform="translate(579.774311 197.249023)scale(0.14 -0.14)">
     <use xlink:href="#DejaVuSans-34"/>
     <use x="63.623047" xlink:href="#DejaVuSans-30"/>
    </g>
   </g>
  </g>
 </g>
 <defs>
  <clipPath id="p1896797fda">
   <rect height="217.44" width="558" x="90" y="34.56"/>
  </clipPath>
 </defs>
</svg>
