<svg version="1.1" xmlns="http://www.w3.org/2000/svg" viewBox="0 0 124.00226637477988 219.84384449723177" width="248.00453274955976" height="439.68768899446354">
  <!-- svg-source:excalidraw -->
  
  <defs>
    <style>
      @font-face {
        font-family: "Virgil";
        src: url("https://excalidraw.com/FG_Virgil.woff2");
      }
      @font-face {
        font-family: "Cascadia";
        src: url("https://excalidraw.com/Cascadia.woff2");
      }
    </style>
  </defs>
  <g><g transform="translate(15.449709703577696 25.18792790025475) rotate(0 -2.4913638072973185 76.17450614537114)"><path d="M0.46698208898305893 0.8924173012375831 C-0.1611458197236062 26.071932996809487, -3.921514786779881 125.46871172338724, -4.646326960623265 150.40206500440837 M-0.7469910436403007 0.31533243904821573 C-1.4322433307301252 25.77397920112126, -4.890608606291935 126.76095005701298, -5.449709703577683 152.03367985169405" stroke="#000000" stroke-width="1" fill="none"></path></g></g><g><g transform="translate(15.031740953577696 178.3285529002548) rotate(0 26.32462394869424 14.400674293055204)"><path d="M-0.13011816591024394 -0.13398665338754645 C8.884884895384312 4.694800721108914, 45.126696886122225 25.265468131005765, 54.306816829741 30.051282177865506 M-1.6575689323525877 -1.249933591755107 C7.20934022855945 3.7681884181778877, 44.13984778863378 23.262683266131205, 53.532154889227826 28.40475166621618" stroke="#000000" stroke-width="1" fill="none"></path></g></g><g><g transform="translate(68.9692409535777 207.66058415025475) rotate(0 -0.7533220227947481 -98.8764710979024)"><path d="M-0.8957473620772362 -0.2209148302674293 C-1.4699573541680973 -32.81808367321889, -2.3913818543155987 -162.92669279326995, -2.341490589082241 -195.53206933885812 M0.8348465434927492 -1.3824990614969284 C0.5653054073670256 -34.36932161129701, 0.3302757563410948 -165.33216878401427, 0.06608373177237814 -197.53202736553737" stroke="#000000" stroke-width="1" fill="none"></path></g></g><g><g transform="translate(71.3637722035777 208.69574040025475) rotate(0 21.111385621130466 -19.66823827622926)"><path d="M-0.41572292894124985 -0.9615029230713844 C6.8757276828090355 -7.88847625007232, 35.71366495837768 -33.97605977604787, 42.63849417120218 -40.48458064943552 M1.5668838040251285 1.1481040969770402 C8.875541495007152 -5.1059476347484924, 35.74580417694835 -32.58384015150058, 42.15895892870613 -39.230271176667884" stroke="#000000" stroke-width="1" fill="none"></path></g></g><g><g transform="translate(111.3540065785777 165.91839665025475) rotate(0 0.17748717682633242 -73.749864281849)"><path d="M-0.741913877427578 -0.12477730661630626 C-0.5397129401564598 -24.613412417471405, 0.3656152859330178 -121.23492335230111, 0.3238510742783547 -145.76526225954294 M1.0694426075834782 -1.2358893379289657 C1.2679711074847728 -25.536748727532103, 0.3449112389702351 -123.19997429278679, -0.16501241910271336 -147.3749512570817" stroke="#000000" stroke-width="1" fill="none"></path></g></g><g><g transform="translate(68.5688503285777 11.95550602525475) rotate(0 -25.957276541320653 6.164614855661057)"><path d="M-0.7334462508559227 0.6160249337553978 C-9.602873629828295 2.674514558414618, -43.39981336841981 10.546393007536729, -52.12214144319296 12.43539563268423 M1.0823557381052522 -0.10616592136211689 C-8.028641913014777 1.6037168638190877, -44.38383230266783 8.448417921590929, -52.99690882074647 10.699313747314736" stroke="#000000" stroke-width="1" fill="none"></path></g></g><g><g transform="translate(69.8911159535777 10.94183415025475) rotate(0 21.088725744187855 4.428980256072236)"><path d="M-1.0119065657258033 -0.9418341502547264 C6.2709350690245635 0.48965959300597495, 35.63235107511282 6.533460312585035, 43.18935805410147 8.200285781919955 M0.6577037579286844 1.1780989755224436 C7.820273774610833 2.8583169478209074, 34.957005583094436 8.791215093039598, 42.201272443877535 9.799794662399218" stroke="#000000" stroke-width="1" fill="none"></path></g></g><g><g transform="translate(23.803682354271245 32.58030321142104) rotate(0 6.90234375 -0.736328125)"><path d="M0 0 C2.30078125 -0.24544270833333334, 11.50390625 -1.2272135416666667, 13.8046875 -1.47265625 M0 0 C2.30078125 -0.24544270833333334, 11.50390625 -1.2272135416666667, 13.8046875 -1.47265625" stroke="#000000" stroke-width="1" fill="none"></path></g></g><g><g transform="translate(37.331026104271245 30.65256883642104) rotate(0 -0.525390625 10.619140625)"><path d="M0 0 C-0.17513020833333334 3.5397135416666665, -0.8756510416666666 17.698567708333332, -1.05078125 21.23828125 M0 0 C-0.17513020833333334 3.5397135416666665, -0.8756510416666666 17.698567708333332, -1.05078125 21.23828125" stroke="#000000" stroke-width="1" fill="none"></path></g></g><g><g transform="translate(25.235322979271245 32.99241258642104) rotate(0 0.0185546875 7.857421875)"><path d="M0 0 C0.006184895833333333 2.619140625, 0.030924479166666668 13.095703125, 0.037109375 15.71484375 M0 0 C0.006184895833333333 2.619140625, 0.030924479166666668 13.095703125, 0.037109375 15.71484375" stroke="#000000" stroke-width="1" fill="none"></path></g></g><g><g transform="translate(36.055635479271245 51.60178758642104) rotate(0 -5.802734375 -0.9306640625)"><path d="M0 0 C-1.9342447916666667 -0.3102213541666667, -9.671223958333334 -1.5511067708333333, -11.60546875 -1.861328125 M0 0 C-1.9342447916666667 -0.3102213541666667, -9.671223958333334 -1.5511067708333333, -11.60546875 -1.861328125" stroke="#000000" stroke-width="1" fill="none"></path></g></g><g><g transform="translate(43.266572979271245 32.09983446142104) rotate(0 7.2421875 -1.443359375)"><path d="M0 0 C2.4140625 -0.4811197916666667, 12.0703125 -2.4055989583333335, 14.484375 -2.88671875 M0 0 C2.4140625 -0.4811197916666667, 12.0703125 -2.4055989583333335, 14.484375 -2.88671875" stroke="#000000" stroke-width="1" fill="none"></path></g></g><g><g transform="translate(57.608369854271245 28.69358446142104) rotate(0 -0.4306640625 13.681640625)"><path d="M0 0 C-0.1435546875 4.560546875, -0.7177734375 22.802734375, -0.861328125 27.36328125 M0 0 C-0.1435546875 4.560546875, -0.7177734375 22.802734375, -0.861328125 27.36328125" stroke="#000000" stroke-width="1" fill="none"></path></g></g><g><g transform="translate(44.538057354271245 30.97092821142104) rotate(0 -0.0595703125 10.390625)"><path d="M0 0 C-0.019856770833333332 3.4635416666666665, -0.09928385416666667 17.317708333333332, -0.119140625 20.78125 M0 0 C-0.019856770833333332 3.4635416666666665, -0.09928385416666667 17.317708333333332, -0.119140625 20.78125" stroke="#000000" stroke-width="1" fill="none"></path></g></g><g><g transform="translate(55.588838604271245 55.27952196142104) rotate(0 -6.658203125 -1.7060546875)"><path d="M0 0 C-2.2194010416666665 -0.5686848958333334, -11.097005208333334 -2.8434244791666665, -13.31640625 -3.412109375 M0 0 C-2.2194010416666665 -0.5686848958333334, -11.097005208333334 -2.8434244791666665, -13.31640625 -3.412109375" stroke="#000000" stroke-width="1" fill="none"></path></g></g><g><g transform="translate(21.948213604271245 68.15256883642104) rotate(0 6.90234375 -0.736328125)"><path d="M0 0 C2.30078125 -0.24544270833333334, 11.50390625 -1.2272135416666667, 13.8046875 -1.47265625 M0 0 C2.30078125 -0.24544270833333334, 11.50390625 -1.2272135416666667, 13.8046875 -1.47265625" stroke="#000000" stroke-width="1" fill="none"></path></g></g><g><g transform="translate(35.475557354271245 66.22483446142104) rotate(0 -0.525390625 10.619140625)"><path d="M0 0 C-0.17513020833333334 3.5397135416666665, -0.8756510416666666 17.698567708333332, -1.05078125 21.23828125 M0 0 C-0.17513020833333334 3.5397135416666665, -0.8756510416666666 17.698567708333332, -1.05078125 21.23828125" stroke="#000000" stroke-width="1" fill="none"></path></g></g><g><g transform="translate(23.379854229271245 68.56467821142104) rotate(0 0.0185546875 7.857421875)"><path d="M0 0 C0.006184895833333333 2.619140625, 0.030924479166666668 13.095703125, 0.037109375 15.71484375 M0 0 C0.006184895833333333 2.619140625, 0.030924479166666668 13.095703125, 0.037109375 15.71484375" stroke="#000000" stroke-width="1" fill="none"></path></g></g><g><g transform="translate(34.200166729271245 87.17405321142104) rotate(0 -5.802734375 -0.9306640625)"><path d="M0 0 C-1.9342447916666667 -0.3102213541666667, -9.671223958333334 -1.5511067708333333, -11.60546875 -1.861328125 M0 0 C-1.9342447916666667 -0.3102213541666667, -9.671223958333334 -1.5511067708333333, -11.60546875 -1.861328125" stroke="#000000" stroke-width="1" fill="none"></path></g></g><g><g transform="translate(41.411104229271245 67.67210008642104) rotate(0 7.2421875 -1.443359375)"><path d="M0 0 C2.4140625 -0.4811197916666667, 12.0703125 -2.4055989583333335, 14.484375 -2.88671875 M0 0 C2.4140625 -0.4811197916666667, 12.0703125 -2.4055989583333335, 14.484375 -2.88671875" stroke="#000000" stroke-width="1" fill="none"></path></g></g><g><g transform="translate(55.752901104271245 64.26585008642104) rotate(0 -0.4306640625 13.681640625)"><path d="M0 0 C-0.1435546875 4.560546875, -0.7177734375 22.802734375, -0.861328125 27.36328125 M0 0 C-0.1435546875 4.560546875, -0.7177734375 22.802734375, -0.861328125 27.36328125" stroke="#000000" stroke-width="1" fill="none"></path></g></g><g><g transform="translate(42.682588604271245 66.54319383642104) rotate(0 -0.0595703125 10.390625)"><path d="M0 0 C-0.019856770833333332 3.4635416666666665, -0.09928385416666667 17.317708333333332, -0.119140625 20.78125 M0 0 C-0.019856770833333332 3.4635416666666665, -0.09928385416666667 17.317708333333332, -0.119140625 20.78125" stroke="#000000" stroke-width="1" fill="none"></path></g></g><g><g transform="translate(53.733369854271245 90.85178758642104) rotate(0 -6.658203125 -1.7060546875)"><path d="M0 0 C-2.2194010416666665 -0.5686848958333334, -11.097005208333334 -2.8434244791666665, -13.31640625 -3.412109375 M0 0 C-2.2194010416666665 -0.5686848958333334, -11.097005208333334 -2.8434244791666665, -13.31640625 -3.412109375" stroke="#000000" stroke-width="1" fill="none"></path></g></g><g><g transform="translate(21.823213604271245 102.80686571142104) rotate(0 6.90234375 -0.736328125)"><path d="M0 0 C2.30078125 -0.24544270833333334, 11.50390625 -1.2272135416666667, 13.8046875 -1.47265625 M0 0 C2.30078125 -0.24544270833333334, 11.50390625 -1.2272135416666667, 13.8046875 -1.47265625" stroke="#000000" stroke-width="1" fill="none"></path></g></g><g><g transform="translate(35.350557354271245 100.87913133642104) rotate(0 -0.525390625 10.619140625)"><path d="M0 0 C-0.17513020833333334 3.5397135416666665, -0.8756510416666666 17.698567708333332, -1.05078125 21.23828125 M0 0 C-0.17513020833333334 3.5397135416666665, -0.8756510416666666 17.698567708333332, -1.05078125 21.23828125" stroke="#000000" stroke-width="1" fill="none"></path></g></g><g><g transform="translate(23.254854229271245 103.21897508642104) rotate(0 0.0185546875 7.857421875)"><path d="M0 0 C0.006184895833333333 2.619140625, 0.030924479166666668 13.095703125, 0.037109375 15.71484375 M0 0 C0.006184895833333333 2.619140625, 0.030924479166666668 13.095703125, 0.037109375 15.71484375" stroke="#000000" stroke-width="1" fill="none"></path></g></g><g><g transform="translate(34.075166729271245 121.82835008642104) rotate(0 -5.802734375 -0.9306640625)"><path d="M0 0 C-1.9342447916666667 -0.3102213541666667, -9.671223958333334 -1.5511067708333333, -11.60546875 -1.861328125 M0 0 C-1.9342447916666667 -0.3102213541666667, -9.671223958333334 -1.5511067708333333, -11.60546875 -1.861328125" stroke="#000000" stroke-width="1" fill="none"></path></g></g><g><g transform="translate(41.286104229271245 102.32639696142104) rotate(0 7.2421875 -1.443359375)"><path d="M0 0 C2.4140625 -0.4811197916666667, 12.0703125 -2.4055989583333335, 14.484375 -2.88671875 M0 0 C2.4140625 -0.4811197916666667, 12.0703125 -2.4055989583333335, 14.484375 -2.88671875" stroke="#000000" stroke-width="1" fill="none"></path></g></g><g><g transform="translate(55.627901104271245 98.92014696142104) rotate(0 -0.4306640625 13.681640625)"><path d="M0 0 C-0.1435546875 4.560546875, -0.7177734375 22.802734375, -0.861328125 27.36328125 M0 0 C-0.1435546875 4.560546875, -0.7177734375 22.802734375, -0.861328125 27.36328125" stroke="#000000" stroke-width="1" fill="none"></path></g></g><g><g transform="translate(42.557588604271245 101.19749071142104) rotate(0 -0.0595703125 10.390625)"><path d="M0 0 C-0.019856770833333332 3.4635416666666665, -0.09928385416666667 17.317708333333332, -0.119140625 20.78125 M0 0 C-0.019856770833333332 3.4635416666666665, -0.09928385416666667 17.317708333333332, -0.119140625 20.78125" stroke="#000000" stroke-width="1" fill="none"></path></g></g><g><g transform="translate(53.608369854271245 125.50608446142104) rotate(0 -6.658203125 -1.7060546875)"><path d="M0 0 C-2.2194010416666665 -0.5686848958333334, -11.097005208333334 -2.8434244791666665, -13.31640625 -3.412109375 M0 0 C-2.2194010416666665 -0.5686848958333334, -11.097005208333334 -2.8434244791666665, -13.31640625 -3.412109375" stroke="#000000" stroke-width="1" fill="none"></path></g></g><g><g transform="translate(21.305635479271245 138.85178758642104) rotate(0 6.90234375 -0.736328125)"><path d="M0 0 C2.30078125 -0.24544270833333334, 11.50390625 -1.2272135416666667, 13.8046875 -1.47265625 M0 0 C2.30078125 -0.24544270833333334, 11.50390625 -1.2272135416666667, 13.8046875 -1.47265625" stroke="#000000" stroke-width="1" fill="none"></path></g></g><g><g transform="translate(34.832979229271245 136.92405321142104) rotate(0 -0.525390625 10.619140625)"><path d="M0 0 C-0.17513020833333334 3.5397135416666665, -0.8756510416666666 17.698567708333332, -1.05078125 21.23828125 M0 0 C-0.17513020833333334 3.5397135416666665, -0.8756510416666666 17.698567708333332, -1.05078125 21.23828125" stroke="#000000" stroke-width="1" fill="none"></path></g></g><g><g transform="translate(22.737276104271245 139.26389696142104) rotate(0 0.0185546875 7.857421875)"><path d="M0 0 C0.006184895833333333 2.619140625, 0.030924479166666668 13.095703125, 0.037109375 15.71484375 M0 0 C0.006184895833333333 2.619140625, 0.030924479166666668 13.095703125, 0.037109375 15.71484375" stroke="#000000" stroke-width="1" fill="none"></path></g></g><g><g transform="translate(33.557588604271245 157.87327196142104) rotate(0 -5.802734375 -0.9306640625)"><path d="M0 0 C-1.9342447916666667 -0.3102213541666667, -9.671223958333334 -1.5511067708333333, -11.60546875 -1.861328125 M0 0 C-1.9342447916666667 -0.3102213541666667, -9.671223958333334 -1.5511067708333333, -11.60546875 -1.861328125" stroke="#000000" stroke-width="1" fill="none"></path></g></g><g><g transform="translate(40.768526104271245 138.37131883642104) rotate(0 7.2421875 -1.443359375)"><path d="M0 0 C2.4140625 -0.4811197916666667, 12.0703125 -2.4055989583333335, 14.484375 -2.88671875 M0 0 C2.4140625 -0.4811197916666667, 12.0703125 -2.4055989583333335, 14.484375 -2.88671875" stroke="#000000" stroke-width="1" fill="none"></path></g></g><g><g transform="translate(55.110322979271245 134.96506883642104) rotate(0 -0.4306640625 13.681640625)"><path d="M0 0 C-0.1435546875 4.560546875, -0.7177734375 22.802734375, -0.861328125 27.36328125 M0 0 C-0.1435546875 4.560546875, -0.7177734375 22.802734375, -0.861328125 27.36328125" stroke="#000000" stroke-width="1" fill="none"></path></g></g><g><g transform="translate(42.040010479271245 137.24241258642104) rotate(0 -0.0595703125 10.390625)"><path d="M0 0 C-0.019856770833333332 3.4635416666666665, -0.09928385416666667 17.317708333333332, -0.119140625 20.78125 M0 0 C-0.019856770833333332 3.4635416666666665, -0.09928385416666667 17.317708333333332, -0.119140625 20.78125" stroke="#000000" stroke-width="1" fill="none"></path></g></g><g><g transform="translate(53.090791729271245 161.55100633642104) rotate(0 -6.658203125 -1.7060546875)"><path d="M0 0 C-2.2194010416666665 -0.5686848958333334, -11.097005208333334 -2.8434244791666665, -13.31640625 -3.412109375 M0 0 C-2.2194010416666665 -0.5686848958333334, -11.097005208333334 -2.8434244791666665, -13.31640625 -3.412109375" stroke="#000000" stroke-width="1" fill="none"></path></g></g><g><g transform="translate(25.701143291771245 184.26975633642098) rotate(0 0.1533203125 -9.017578125)"><path d="M0 0 C0.051106770833333336 -3.005859375, 0.2555338541666667 -15.029296875, 0.306640625 -18.03515625 M0 0 C0.051106770833333336 -3.005859375, 0.2555338541666667 -15.029296875, 0.306640625 -18.03515625" stroke="#000000" stroke-width="1" fill="none"></path></g></g><g><g transform="translate(41.304658916771245 191.87717821142098) rotate(0 0.3154296875 -11.0478515625)"><path d="M0 0 C0.10514322916666667 -3.6826171875, 0.5257161458333334 -18.4130859375, 0.630859375 -22.095703125 M0 0 C0.10514322916666667 -3.6826171875, 0.5257161458333334 -18.4130859375, 0.630859375 -22.095703125" stroke="#000000" stroke-width="1" fill="none"></path></g></g><g><g transform="translate(42.187471416771245 169.92600633642098) rotate(0 -8.3076171875 -1.7685546875)"><path d="M0 0 C-2.7692057291666665 -0.5895182291666666, -13.846028645833334 -2.9475911458333335, -16.615234375 -3.537109375 M0 0 C-2.7692057291666665 -0.5895182291666666, -13.846028645833334 -2.9475911458333335, -16.615234375 -3.537109375" stroke="#000000" stroke-width="1" fill="none"></path></g></g></svg>