<svg version="1.1" xmlns="http://www.w3.org/2000/svg" viewBox="0 0 310.15852038582784 256.40237854542215" width="620.3170407716557" height="512.8047570908443">
  <!-- svg-source:excalidraw -->
  
  <defs>
    <style>
      @font-face {
        font-family: "Virgil";
        src: url("https://excalidraw.com/FG_Virgil.woff2");
      }
      @font-face {
        font-family: "Cascadia";
        src: url("https://excalidraw.com/Cascadia.woff2");
      }
    </style>
  </defs>
  <g><g transform="translate(62.32314334223042 136.87511095963418) rotate(0 35.98543194114228 0.019794310699467133)"><path d="M-0.8018995877355337 1.1050004180520772 C2.0898742043723666 -5.052202616507809, 6.955933948730431 -34.155980625127754, 18.32674229182303 -36.44236266054213 C29.69755063491563 -38.72874469595651, 58.612629874919854 -25.098125452175736, 67.42295047082007 -12.61329179443419 C76.23327106672029 -0.12845813669264317, 70.62640219169359 30.331419199332593, 71.18866586722433 38.46663928590715 M0.9779643993638456 0.6395216921903195 C3.5803864247662327 -5.896811984187613, 6.077569074736287 -35.626813196347406, 17.103166218902917 -38.142978587355465 C28.128763363069545 -40.659143978363524, 58.00358453105515 -26.89591914555058, 67.13154726436362 -14.457470653858035 C76.2595099976721 -2.019022162165493, 71.46702929467584 28.082307255659252, 71.87094261875376 36.48771236279979" stroke="#000000" stroke-width="1" fill="none"></path></g></g><g><g transform="translate(62.36220584223042 135.99229845963418) rotate(0 37.20297138132156 20.443553335824987)"><path d="M-0.5248202081769705 0.8037310894578693 C12.097290218248963 7.404067804043492, 62.36718716658652 34.03143183949093, 74.93076297082007 40.70702070556581 M1.4005104531906545 0.18008596608415228 C14.013814986553044 6.97115861027812, 62.26937866946682 32.59746737469608, 74.4570125981234 39.08278026470914" stroke="#000000" stroke-width="1" fill="none"></path></g></g><g><g transform="translate(131.26064334223042 124.11729845963418) rotate(0 70.11807384981768 -45.46124190985225)"><path d="M0.9034192208200691 0.94920820556581 C24.37715127505362 -14.239135220025977, 117.14723552502691 -74.73563809233407, 140.31757211722433 -90.32632946409285 M-0.08142441758885988 0.40193856814876217 C23.352771066930146 -15.166161548302817, 116.55979225983842 -76.48949200571204, 139.8049043588899 -91.8716920252703" stroke="#000000" stroke-width="1" fill="none"></path></g></g><g><g transform="translate(80.47158084223042 96.69932970963418) rotate(0 70.14868743359108 -41.380556619539846)"><path d="M0.8292908672243355 1.099451785907149 C24.094028501088424 -13.035510419184964, 117.36481681702038 -69.95385790107152, 140.4918450240046 -83.86056502498687 M-0.1944701568223537 0.631060028169304 C22.871448289758213 -13.484891539520273, 116.64380099575347 -68.74856627653664, 139.77330726047978 -82.93694813063368" stroke="#000000" stroke-width="1" fill="none"></path></g></g><g><g transform="translate(134.44423709223042 174.66807970963418) rotate(0 68.3428526769485 -45.75127562751993)"><path d="M0.43715752400457863 -1.169158774986863 C23.211972189322115 -16.418313815568883, 114.60234071053564 -75.65088465052347, 137.47817885912954 -90.39547845758497 M-0.7924735052324832 0.8314289228059351 C21.7112245236896 -14.278881562755753, 113.35558548023924 -76.96260628820086, 136.28693901529536 -92.3339801778458" stroke="#000000" stroke-width="1" fill="none"></path></g></g><g><g transform="translate(269.8270495922304 82.48057970963418) rotate(0 -21.847118595617076 -35.40187406407668)"><path d="M-0.16851142086088666 -0.6147963758558035 C-0.010183551286657738 -9.515126033251486, 8.689793628081679 -40.26201324425638, 0.5625785645097494 -52.23964379988611 C-7.56463649906218 -64.21727435551584, -40.57113120791813 -69.31594366592665, -48.93180180229247 -72.48057970963418 M-1.7161186461523177 1.6768315814808012 C-1.145053215113779 -7.028668632221718, 10.740845710746944 -41.616930909268554, 2.8357071597501635 -53.80922294985503 C-5.069431391246617 -66.00151499044149, -40.481739010897776 -68.20520129652073, -49.146949952133 -71.47692066203803" stroke="#000000" stroke-width="1" fill="none"></path></g></g><g><g transform="translate(10.338768342230424 163.88878283463418) rotate(0 36.30061825634908 -0.09012434667053526)"><path d="M-0.31679126657545564 0.9687711361795663 C2.885564185803135 -5.501108971859018, 7.0672825710227105 -35.64663395447035, 18.40307702384889 -38.08851304017007 C29.738871476675072 -40.53039212586979, 58.88576917809745 -26.390821766480805, 67.69797545038163 -13.682503378018737 C76.51018172266582 -0.9741849895566705, 70.88261437180141 29.54956518448889, 71.27631465755402 38.16139729060232 M1.7177545891329649 0.43177203733474023 C4.7938136464481556 -5.971394176098207, 6.247375723732015 -34.85005952359487, 17.219576685242355 -36.993357916288076 C28.191777646752698 -39.13665630898128, 58.420121968400984 -24.597281024865808, 67.55096035819501 -12.42801831882447 C76.68179874798905 -0.2587556127831334, 71.24775286934027 27.499979883022608, 72.00460702400655 36.02221831995994" stroke="#000000" stroke-width="1" fill="none"></path></g></g><g><g transform="translate(80.95986209223042 205.88487658463407) rotate(0 37.95997423084452 0.48570894325052905)"><path d="M0.9889494236558674 -0.8223707076162099 C3.927051641171177 -7.060150901104013, 7.164365424339971 -34.16022147697707, 18.195135157927872 -36.45032291375101 C29.225904891515775 -38.74042435052495, 57.56093379817903 -27.049393725022675, 67.17356782518327 -14.562979328259825 C76.78620185218752 -2.0765649314969767, 74.45820776385565 29.46793261803687, 75.87093931995332 38.468163466826084 M0.049009141735732564 1.3602807255461813 C3.332082015884419 -5.298933118196826, 9.445427075040836 -35.633280495417615, 20.562465339712798 -38.155117973499 C31.67950360438476 -40.67695545158039, 58.0090546546504 -26.69753099601716, 66.75123872976751 -13.770744142942132 C75.49342280488462 -0.8439572898671024, 71.703999589098 30.415128891058266, 73.01556979041547 39.405603144951165" stroke="#000000" stroke-width="1" fill="none"></path></g></g><g><g transform="translate(10.588768342230424 161.38292345963418) rotate(0 73.71567386468871 42.241403639409725)"><path d="M0.5707346800714732 0.33374173007905483 C24.997907336925472 14.231154479210575, 121.40655181842547 69.69329596521955, 145.91345889605583 83.65093401037157 M-0.588768342230469 -0.5366478069685399 C24.24633812378471 13.513666961782922, 123.39981991977122 70.68781602580721, 148.02011607160793 85.01945508578792" stroke="#000000" stroke-width="1" fill="none"></path></g></g><g><g transform="translate(151.31533084223042 198.80870470963418) rotate(0 74.4939524848387 -52.152873569354426)"><path d="M1.0517076428979635 -0.22036967240273952 C25.57924098732571 -17.620149759079016, 122.21607093972466 -86.64891334337491, 146.4800746973604 -104.08537746630608 M0.14471542607992882 -1.3816676957532765 C25.126036003145078 -18.63794114223371, 124.60015689225246 -85.62589887292435, 148.8431895435974 -102.74863475989551" stroke="#000000" stroke-width="1" fill="none"></path></g></g><g><g transform="translate(269.1590808422304 83.32432970963418) rotate(0 15.129617145713382 33.11858715699054)"><path d="M0.8764821533113716 -0.9299775067716837 C5.656099649642904 1.2165264543145895, 23.510200445229806 1.852618771418932, 27.876083124056457 12.99051257930696 C32.24196580288311 24.12840638719499, 27.150558913126588 57.135154908522956, 27.07177822627127 65.8973853405565 M-0.12250344553962345 1.1961803568340836 C4.6616146038038035 3.458878755066544, 22.53475907564784 3.062267680261284, 27.482317238058894 14.0574295909144 C32.429875400469946 25.052591501567512, 29.573037642445414 58.43589785763993, 29.5628455289267 67.16715182075276" stroke="#000000" stroke-width="1" fill="none"></path></g></g><g><g transform="translate(155.87197146723042 243.62901720963418) rotate(0 71.81420027853926 -48.86874002965169)"><path d="M0.7812048967927694 0.7415730837732553 C24.67405488652488 -15.302431932712595, 119.97446198227506 -80.17495047611494, 143.89620181880892 -96.47716052494943 M-0.2678012617304921 0.08529500741511575 C23.46135962129881 -16.325579660149913, 119.15036534151685 -82.47389651597788, 143.1971779350564 -98.4790531430766" stroke="#000000" stroke-width="1" fill="none"></path></g></g><g><g transform="translate(34.47158084223042 125.20714220963418) rotate(0 18.977186479605734 -9.570505451597256)"><path d="M-0.7886425796896219 0.23403580226004128 C5.549208333653708 -3.010880368513363, 32.385710813912254 -15.985072474988788, 38.74301553890109 -19.375046705454576 M0.998181336633861 -0.6886993468925358 C7.145312284280856 -3.7670796454449476, 31.524238090316455 -14.904913167754799, 37.974630794860424 -18.01502629254012" stroke="#000000" stroke-width="1" fill="none"></path></g></g></svg>