<svg version="1.1" xmlns="http://www.w3.org/2000/svg" viewBox="0 0 279.19328528756375 365.6496939194668" width="558.3865705751275" height="731.2993878389336">
  <!-- svg-source:excalidraw -->
  
  <defs>
    <style>
      @font-face {
        font-family: "Virgil";
        src: url("https://excalidraw.com/FG_Virgil.woff2");
      }
      @font-face {
        font-family: "Cascadia";
        src: url("https://excalidraw.com/Cascadia.woff2");
      }
    </style>
  </defs>
  <g><g transform="translate(193.42375403756375 353.09298976634625) rotate(0 -75.74120959899659 -170.26814280661284)"><path d="M0.28001853078603745 -0.02550042718648915 C5.556113237639268 -6.840588206549485, 36.62224878718455 9.998940560718374, 31.4016917809844 -41.6321338519454 C26.181134774784248 -93.26320826460918, -6.122094604869684 -265.42177062282957, -31.04332350641489 -309.81194690316914 C-55.9645524079601 -354.2021231835087, -93.05379710743824 -353.5975950265924, -118.12568162828684 -307.97319153398274 C-143.19756614913544 -262.3487880413731, -175.45848697572947 -87.82050856202841, -181.47463063150644 -36.0655259475112 C-187.49077428728341 15.689456667006013, -158.97009975661837 -3.9828777655959122, -154.22254356294872 2.556704153120518 M-1.0321104698907584 -1.0844920967984946 C4.131791575498258 -7.6415414152511705, 35.730818344003836 11.050017783942948, 30.59480793987401 -40.16202809174545 C25.458797535744186 -91.37407396743384, -7.113452331873898 -263.38061084329775, -31.8481728946697 -308.35676735092886 C-56.5828934574655 -353.33292385856, -92.67007932400021 -355.4564706888764, -117.81351543690079 -310.0189671375323 C-142.95695154980137 -264.5814635861882, -176.84558108533733 -87.63027344305999, -182.70878957207316 -35.731746042864394 C-188.571998058809 16.166781357331203, -157.52067203238917 -4.9172014992404725, -152.9927663573157 1.372197263641283" stroke="#000000" stroke-width="1" fill="none"></path></g></g><g><g transform="translate(37.005785287563754 353.55392726634625) rotate(0 79.32977217584846 -0.6145652428269841)"><path d="M-0.447267709672451 0.34038640111684804 C26.22413387050231 0.08364114214976631, 132.65837953637043 -1.5735092376669246, 159.10681206136942 -1.5695168867707252 M1.5187780134100466 -0.5265146836359054 C28.1470953062394 -0.6548943928598115, 132.4126657833873 -0.35207948671964295, 158.36454996121117 -0.5033536261040716" stroke="#000000" stroke-width="1" fill="none"></path></g></g><g><g transform="translate(19.470629037563754 268.41330226634625) rotate(0 98.0111527851829 -24.164206163388826)"><path d="M-0.8901991233229637 1.1981180772185327 C4.725245934228103 0.7820379997293156, 17.58959464778503 7.132878647744654, 34.399892915785315 -1.7557808771729468 C51.2101911837856 -10.644440402090549, 78.68168965727091 -51.54631429264943, 99.97159048467874 -52.13383907228708 C121.26149131208658 -52.721363851924735, 146.31082639445862 -13.626977671682834, 162.13929788023233 -5.280929554998875 C177.96776936600605 3.065118561685085, 189.55703415622312 -2.7460418278972307, 194.94241939932107 -2.057550372183323 M0.8433076075930148 0.7815261224191636 C6.7751486252962305 0.5048385493240009, 20.21376492204455 8.466187429158019, 36.6696427954454 -0.21933980521745955 C53.12552066884625 -8.904867039592936, 78.5698772616405 -50.70246376789796, 99.5785748479981 -51.3316372838337 C120.5872724343557 -51.96081079976944, 146.4995066726425 -12.231269457014278, 162.72182831359095 -3.994380900831893 C178.9441499545394 4.242507655350491, 191.46826442214038 -2.2498757360099506, 196.91250469368882 -1.9103059467393906" stroke="#000000" stroke-width="1" fill="none"></path></g></g><g><g transform="translate(116.24406653756375 215.47189601634625) rotate(0 1.4023994115599976 -73.90570837408305)"><path d="M1.0014590397477148 0.6293076619505882 C1.3751626625657078 -23.971552790701388, 2.4700599804520604 -123.57687109857798, 2.7367125168442725 -148.44072441011667 M0.06808630627579992 -0.08590976086445146 C0.285138823511079 -24.492287796707828, 1.7291015074867755 -122.783319605859, 2.0564958120603114 -147.40128103670665" stroke="#000000" stroke-width="1" fill="none"></path></g></g><g><g transform="translate(135.27531653756375 187.50705226634625) rotate(0 -17.962126116855075 0.021798930368362335)"><path d="M-0.9957486525177955 -0.9832056865096092 C-6.948734654486179 -1.088475452363491, -29.91982597261667 -1.1093679293990135, -35.48966225534677 -0.9945403441786765 M0.6823445755708963 1.1150073827337472 C-5.476783100618049 1.204981316132471, -30.695367149068044 0.29250358651392167, -36.60659680928104 0.29760669509880255" stroke="#000000" stroke-width="1" fill="none"></path></g></g><g><g transform="translate(136.44328528756375 159.60080226634625) rotate(0 -19.921327990680027 1.182622543452311)"><path d="M0.5647828236222268 1.031679068505764 C-6.071439904471238 1.040386893848578, -32.649261906246345 0.658601707716783, -39.55405915826559 0.7064651116728783 M-0.5978449233155698 0.5277066341321914 C-7.399348059970265 0.6158128003558764, -34.07995421347829 1.5002393143655108, -40.40743880498223 1.8375384527724234" stroke="#000000" stroke-width="1" fill="none"></path></g></g><g><g transform="translate(132.29094153756375 129.08908351634625) rotate(0 -14.214373972741896 -1.1798843864957007)"><path d="M-0.4193372592329979 -0.22884043604135518 C-5.168256317079067 -0.3629213069876036, -24.48401878923178 -0.1821729237834615, -29.48481315225363 -0.5891099348664286 M1.5613719503302126 -1.3945856103021652 C-3.185039964197204 -1.8563513465443007, -24.523192835031075 -2.052537701797361, -29.990119895813987 -2.130928336950019" stroke="#000000" stroke-width="1" fill="none"></path></g></g><g><g transform="translate(133.45109778756375 94.71798976634625) rotate(0 -15.852460922300793 -0.538750064051186)"><path d="M0.19867449849843988 -0.183282981812954 C-5.068856689830621 -0.1562748139103254, -26.50236917088429 0.4627522443731626, -31.90359634310007 0.45092221647500996 M-1.156160119129345 -1.3251104926038533 C-6.020223110768324 -1.6447798977264512, -24.84501505767616 -1.58684908598351, -29.639369730604813 -1.1662660249043257" stroke="#000000" stroke-width="1" fill="none"></path></g></g><g><g transform="translate(160.66984778756375 245.74923976634625) rotate(0 38.961849726736546 -76.73504382520915)"><path d="M-0.5575279578566551 1.1679463014006612 C12.490446803470451 -24.770084052781268, 65.10343850205342 -128.7587392543753, 78.48122741132974 -154.63803395181895 M1.3506311349291353 0.7355141642969101 C14.183056513390813 -25.106776487004634, 64.29055062792884 -127.6693111215749, 77.28953727615065 -153.2325491815526" stroke="#000000" stroke-width="1" fill="none"></path></g></g><g transform="translate(225.15031653756375 49.99923976634625) rotate(0 22.021484375 22.02734375)"><path d="M20.30573179492024 -0.8074921388160021 C24.65172244529272 -1.1115456548001035, 31.224596177296338 2.1812950691428434, 34.93172424771848 5.183631579115904 C38.63885231814062 8.185968089088965, 41.57243108213522 12.803661280360792, 42.54850021745308 17.20652692102236 C43.524569352770946 21.609392561683926, 42.712017803547695 27.40944063416591, 40.788139059625664 31.60082542308531 C38.86426031570363 35.79221021200471, 35.22662094461833 40.49669283122981, 31.005227753920906 42.35483565453876 C26.78383456322348 44.21297847784771, 20.210188050269583 44.14975954552377, 15.459779915441104 42.74968236293903 C10.709371780612624 41.349605180354295, 4.928443215911853 37.82382046171836, 2.5027789449500375 33.95437255903032 C0.07711467398822203 30.084924656342277, 0.17682119877572366 24.225024520609463, 0.9057942896702116 19.532994946810785 C1.6347673805646994 14.840965373012107, 3.0591871671213453 8.882455789586693, 6.876617490316965 5.802195116238256 C10.694047813512585 2.7219344428898182, 20.542304987627443 1.8514135121737714, 23.810376228843932 1.0514309067201602 C27.07844747006042 0.2514483012665488, 26.393599712978205 0.8736178343667523, 26.48504493761591 1.0022994835165875 M11.943448250728352 1.2125969663727396 C16.049854275000246 -0.9187437508773697, 23.043901416082296 -0.7899749036370756, 27.78862922299689 0.8495056511337111 C32.533357029911485 2.4889862059044976, 37.609744812380654 7.217795464387375, 40.41181509221592 11.04948029499746 C43.21388537205118 14.881165125607545, 44.92629247995633 19.484201483258524, 44.60105090200845 23.83961463479422 C44.275809324060575 28.195027786329916, 41.764074784882006 34.05360022337106, 38.46036562452863 37.18195920421163 C35.15665646417525 40.310318185052196, 29.496331681641784 42.20110421720025, 24.778795939888166 42.60976851983763 C20.061260198134548 43.018432822475006, 14.359741895802864 42.1471601247559, 10.155151174006914 39.63394502003587 C5.950560452210963 37.120729915315835, 0.7968256121762074 31.989931160897243, -0.4487483908875376 27.530477891517425 C-1.6943223939512826 23.071024622137607, 0.6527844311900655 16.92205562611956, 2.6817071556244443 12.87722540375696 C4.710629880058823 8.83239518139436, 9.775568746651073 5.086117378347215, 11.724787955718735 3.261496557341829 C13.674007164786397 1.436875736336443, 13.886613466803029 1.85051874732763, 14.377022410030419 1.9295004777246447" stroke="#000000" stroke-width="1" fill="none"></path></g><g><g transform="translate(252.88469153756375 50.05002101634625) rotate(0 5.1019588055265785 -0.17670938469171915)"><path d="M0.19980670362710962 -0.7306092157959938 C1.8851131096482276 -1.6715555245677631, 9.739367116987705 -7.276106823980808, 11.039888061583042 -6.162207449972629 C12.34040900617838 -5.04830807596445, 8.308632434904576 3.9667079870899524, 8.002932371199131 5.952787028253079 M-1.1544335063081235 1.500217000572011 C0.35836989593692103 0.8067754169584566, 8.561069304766132 -5.029800571473315, 10.492178361536935 -4.6371383756119755 C12.423287418307737 -4.244476179750636, 10.577747224094345 1.9166969665170956, 10.432220834316686 3.856190175740048" stroke="#000000" stroke-width="1" fill="none"></path></g></g></svg>