<svg version="1.1" xmlns="http://www.w3.org/2000/svg" viewBox="0 0 277.9133459488395 517.9946692980229" width="555.826691897679" height="1035.9893385960459">
  <!-- svg-source:excalidraw -->
  
  <defs>
    <style>
      @font-face {
        font-family: "Virgil";
        src: url("https://excalidraw.com/FG_Virgil.woff2");
      }
      @font-face {
        font-family: "Cascadia";
        src: url("https://excalidraw.com/Cascadia.woff2");
      }
    </style>
  </defs>
  <g><g transform="translate(13.584732081228822 49.627481798022984) rotate(0 20.487739234375738 22.10771953337826)"><path d="M0.7868800543248653 1.0871023155748845 C7.593954768031836 8.204409748067459, 34.22791584953666 35.394983400652805, 41.23462511524558 42.27175051942468 M-0.25914664649404595 0.6122270859126 C6.3132303780969234 7.9373831999146685, 32.88199967659078 36.455399130467946, 40.032414087122305 43.603211980843916" stroke="#000000" stroke-width="1" fill="none"></path></g></g><g><g transform="translate(63.22535708122882 95.22513804802298) rotate(0 64.8290092068678 69.34294145407088)"><path d="M0.48028929010033616 0.044322433322668164 C14.420443961769342 -2.1935318487385906, 61.71980642254154 -22.071052497376996, 83.52958516851068 -14.458393321186303 C105.33936391447982 -6.8457341449956095, 129.60094078158338 21.03720739508669, 131.33896176591514 45.720277490466835 C133.0769827502469 70.40334758584697, 115.97918385441105 115.22524252558748, 93.95771107450128 133.64002725109458 C71.9362382945915 152.05481197660168, 15.333645341545344 152.37318798527122, -0.7898749135434626 156.20898584350942 M-0.7266975619364531 -0.9780122345220298 C13.160393976671623 -3.436362500839556, 61.274710925423236 -23.965793895277503, 83.15283363710158 -16.01156596983783 C105.03095634877992 -8.057338044398154, 128.62892272621704 22.143656805899614, 130.54203870813362 46.74735531811602 C132.4551546900502 71.35105383033243, 116.66869320531997 113.33112025007294, 94.63152952860109 131.61062510346062 C72.59436585188222 149.89012995684828, 14.397283979756756 152.41389308844694, -1.680943352179602 156.42438443844208" stroke="#000000" stroke-width="1" fill="none"></path></g></g><g><g transform="translate(59.74488833122882 249.62357554802298) rotate(0 -1.0664014114672113 77.93328235129363)"><path d="M-0.22594757303595547 -1.115298018604517 C-0.4209061724444231 24.69765514358878, -0.3751180830101171 129.17254106029867, -0.42643730863928786 155.40170592293143 M-1.8037087782192975 0.9135665762890133 C-2.199911071754371 26.89216055308469, -1.3400196486680458 131.39906518642792, -1.2435772030521184 156.98186272119173" stroke="#000000" stroke-width="1" fill="none"></path></g></g><g><g transform="translate(62.36988833122882 403.975138048023) rotate(0 32.776681007253956 0.9776673656049866)"><path d="M0.6759974621236324 0.6734941698610781 C11.762259441862504 0.6774712699155011, 54.99480476205548 0.28043480490644773, 65.9816046141088 0.3480463959276676 M-0.42824259960092603 -0.01852533630095432 C10.532639146313693 0.17618483323293418, 53.86522597130699 2.1026265844547503, 64.94802266663872 1.9738600675109774" stroke="#000000" stroke-width="1" fill="none"></path></g></g><g><g transform="translate(128.08082583122882 400.682169298023) rotate(0 1.217065882361453 -47.181284973770346)"><path d="M0.9588349319994449 -0.07899745479226117 C1.3671305236717064 -15.93650225972136, 2.0436630385617414 -78.61151766950886, 2.4310472227632998 -94.2835724927485 M0.003084541959688103 -1.166075063897297 C0.2824601241977265 -16.971355268213276, 1.126697733604039 -77.87375328277858, 1.6477781135868281 -93.20674155022017" stroke="#000000" stroke-width="1" fill="none"></path></g></g><g><g transform="translate(131.69410708122882 307.803263048023) rotate(0 7.262565893190924 -148.67428788241742)"><path d="M-0.9278023101389408 0.4546872831881046 C14.031436862796545 -7.248044906308254, 67.41060032670697 -19.460587861388927, 90.26844052299857 -46.12860808596015 C113.12628071929018 -72.79662831053137, 137.26347310369215 -121.246061676989, 136.2192388676107 -159.55343406423927 C135.17500463152925 -197.86080645148954, 110.97619110569359 -253.16911102359495, 84.00303510650993 -275.97284240946175 C57.029879107326266 -298.77657379532855, 8.342040465523802 -299.8329178673526, -25.619697127491236 -296.3758223794401 C-59.58143472050627 -292.91872689152757, -104.1245989340047 -261.9825912577411, -119.76739045158028 -255.23026948198677 M0.7859627476986497 -0.3522058384772391 C15.560654244488106 -7.935813273008293, 66.88167748865051 -18.234903684770686, 89.43056461519562 -45.056553642367945 C111.97945174174073 -71.8782035999652, 137.45436264243287 -122.87713712276582, 136.0792855069693 -161.2821055840608 C134.70420837150576 -199.68707404535576, 107.79334801352583 -253.05801305305522, 81.18010180241428 -275.48636441013775 C54.56685559130274 -297.9147157672203, 10.212176387573901 -299.1318245868043, -23.600191759699957 -295.85221372655593 C-57.41255990697381 -292.57260286630753, -105.29085359040337 -262.2711102778868, -121.69410708122886 -255.80869924864732" stroke="#000000" stroke-width="1" fill="none"></path></g></g><g transform="translate(54.86988833122882 433.779825548023) rotate(0 36.171875 37.107421875)"><path d="M29.096006554665664 0.33887978872434843 C35.99591481298668 -1.5285942101405492, 46.231766225419776 0.699001659714058, 52.990558420474414 4.1785538072394885 C59.74935061552905 7.658105954764919, 66.65336783799361 14.527242805973604, 69.64875972499351 21.216192673876932 C72.64415161199341 27.90514254178026, 72.49799025413363 37.15834846170597, 70.96290974247384 44.31225301465946 C69.42782923081405 51.46615756761295, 65.63990847875431 59.183392114486864, 60.4382766550348 64.13961999159787 C55.23664483131528 69.09584786870887, 47.00992725739081 73.33214325058668, 39.75311880015675 74.0496202773255 C32.49631034292269 74.76709730406432, 23.076855506067343 72.57733283658958, 16.89742591163043 68.44448215203079 C10.71799631719352 64.311631467472, 5.320440360361488 56.34699157653038, 2.676541233535275 49.252516169972765 C0.03264210670906165 42.15804076341515, -0.9735511546823967 32.915228350701, 1.034031150673151 25.87762971268512 C3.0416134560286987 18.840031074669238, 8.85053153881012 11.396270050593571, 14.72203506566856 7.026924341877471 C20.593538592527 2.657578633161372, 31.4368420970031 0.5155172403492868, 36.263052311823785 -0.3384445396114728 C41.08926252664447 -1.1924063195722323, 43.72848394774084 1.0930310930323892, 43.67929635459267 1.9031536621129135 M44.220793346544866 2.4243010703261376 C50.85047172142227 3.5650763114397206, 58.29203737391558 6.593198914770334, 63.189805694126825 12.32906610403672 C68.08757401433806 18.064933293303106, 72.97504435486455 29.279258510206247, 73.60740326781232 36.83950420592445 C74.23976218076008 44.39974990164265, 71.52598269336937 51.64418334861663, 66.98395917181341 57.69054027834592 C62.44193565025744 63.73689720807521, 53.5919784441384 70.77602771678238, 46.35526213847652 73.11764578430021 C39.11854583281464 75.45926385181804, 30.36762697383969 74.59791155811338, 23.56366133784212 71.74024868345293 C16.75969570184455 68.88258580879248, 9.324264891071326 62.42686874501179, 5.531468322491097 55.9716685363375 C1.738671753910868 49.51646832766322, 0.23546134548172404 40.26337496927624, 0.8068819263607452 33.00904743140721 C1.3783025072397663 25.754719893538184, 4.084634755900933 18.027219516800344, 8.959991807765224 12.445703309123338 C13.835348859629516 6.8641871014463325, 24.047687386930765 1.4742475588703197, 30.059024237546488 -0.48004981465482643 C36.07036108816221 -2.4343471881799728, 42.82692556114665 0.2677482866574792, 45.02801291145956 0.7199190679724623 C47.22910026177247 1.1720898492874454, 43.34376178861347 1.8073702534069749, 43.26554833942394 2.2329748732350723" stroke="#000000" stroke-width="1" fill="none"></path></g></svg>