<svg version="1.1" xmlns="http://www.w3.org/2000/svg" viewBox="0 0 317.51171875 262.77305771894754" width="635.0234375" height="525.5461154378951">
  <!-- svg-source:excalidraw -->
  
  <defs>
    <style>
      @font-face {
        font-family: "Virgil";
        src: url("https://excalidraw.com/FG_Virgil.woff2");
      }
      @font-face {
        font-family: "Cascadia";
        src: url("https://excalidraw.com/Cascadia.woff2");
      }
    </style>
  </defs>
  <g transform="translate(10 13.6328125) rotate(0 59.685546875 59.685546875)"><path d="M0.5826633106917143 1.7406703997403383 C28.013187454800573 -1.5794786359261705, 57.04870541909986 -1.9672431494187548, 118.41432519070804 -0.17512558214366436 M0.7615930521860719 0.8582220738753676 C26.17396063614615 0.9584581912078647, 53.74630994770632 0.9483251929797916, 120.11498103383929 0.18307820614427328 M118.62689967267215 1.0076933074742556 C116.55773089649945 27.78026416246685, 120.1857860517767 57.89879944922214, 118.03993476741016 118.99584515579045 M119.70783243421465 0.7130257254466414 C120.36245033633746 26.13766103770795, 120.60351986181773 52.9178022932676, 119.94541478995234 118.42201328929514 M117.45021737925708 120.74780161865056 C71.43925109892479 120.32957688156134, 25.39301984972043 120.7618311363793, 1.3618009816855192 118.8662806916982 M119.6043291175738 119.87552190478891 C81.80335910032991 119.60665559516961, 45.75691426771736 121.00417068348939, -0.5249622678384185 118.91746292170137 M-1.5453449953347445 120.02282394655049 C-1.3693539012418843 75.53691716726499, -0.529640268181429 28.15637423380467, -1.6340532172471285 -1.3828497361391783 M-0.21819790359586477 118.74008927401155 C1.1813617201746456 80.08750173333355, -0.0767390576898106 41.745681366422644, -0.6910170828923583 -0.0856082970276475" stroke="#000000" stroke-width="1" fill="none"></path></g><g transform="translate(182.5546875 10) rotate(0 62.478515625 62.478515625)"><path d="M73.97103975932956 2.042458027242965 C83.5878477568556 3.0104517306828193, 95.30851843300096 7.838869986725246, 103.13907802950396 14.044769844923906 C110.96963762600697 20.250669703122565, 117.26983470900085 29.98617924676993, 120.95439733834758 39.27785717643492 C124.6389599676943 48.56953510609991, 126.46140391334288 60.02520765365178, 125.24645380558434 69.79483742291384 C124.0315036978258 79.56446719217591, 119.59082711664605 89.75247005017232, 113.66469669179631 97.8956357920073 C107.73856626694656 106.03880153384227, 98.84178575980754 114.08085707737561, 89.68967125648587 118.6538318739237 C80.5375567531642 123.2268066704718, 68.59689141924584 125.89529996120511, 58.75200967186628 125.33348457129583 C48.90712792448673 124.77166918138654, 39.01283755535296 120.50188221160253, 30.62038077220855 115.28293953446801 C22.227923989064138 110.06399685733349, 13.407860070242624 102.66395450278493, 8.397268972999804 94.01982850848867 C3.386677875756983 85.37570251419241, 0.8815673702454572 73.40032705599093, 0.5568341887516226 63.418183568690445 C0.23210100725778798 53.43604008138996, 1.9450897935488447 42.94062272942336, 6.448869884036796 34.126967584685794 C10.952649974524746 25.313312439948227, 19.18925039822546 16.104531127816003, 27.579514731679332 10.536252700265052 C35.9697790651332 4.967974272714103, 47.13236600221262 1.6253229472696034, 56.79045588476001 0.7172970193800978 C66.4485457673074 -0.1907289085094076, 79.46175149765544 3.658523659648595, 85.52805402696364 5.08809713292802 C91.59435655627185 6.517670606207445, 93.66602766204286 8.622668666614835, 93.18827106060925 9.294737859056646 M63.50152829326208 -1.1699616475601502 C72.71944392444831 -1.5195793973171152, 84.16407202103493 3.905095672835391, 92.80340297834886 9.047983795792206 C101.44273393566279 14.190871918749021, 110.07149574681777 21.533930724731825, 115.3375140371457 29.687367090180736 C120.60353232747362 37.84080345562965, 123.76237894424465 48.19403020639275, 124.39951272031641 57.96860198848568 C125.03664649638817 67.74317377057861, 123.42840119301587 79.01917526562677, 119.1603166935763 88.3347977827383 C114.89223219413674 97.65042029984984, 107.11935317569097 108.04791368424355, 98.79100572367899 113.8623370911549 C90.46265827166701 119.67676049806624, 78.75549231233906 122.23989567669443, 69.19023198150443 123.22133822420639 C59.62497165066979 124.20278077171835, 50.266356317568146 123.23647645018005, 41.39944373867121 119.75099237622663 C32.53253115977427 116.26550830227322, 22.58448851283825 109.47918450528046, 15.988756508122805 102.3084337804859 C9.39302450340736 95.13768305569134, 3.879423315195924 86.45583079339248, 1.8250517103785526 76.7264880274593 C-0.22931989443881884 66.99714526152611, 0.9804527236263092 53.55620393357292, 3.662526879218575 43.932377184886775 C6.344601034810841 34.30855043620063, 10.890780414604418 25.73585795988124, 17.917496643932147 18.983527535342454 C24.944212873259875 12.231197110803667, 38.16314625912923 6.592719362976192, 45.822824255184955 3.4183946376540604 C53.48250225124068 0.24406991233192832, 60.64915506011275 0.5385540958867819, 63.8755646202665 -0.06242081659033971 C67.10197418042026 -0.6633957290674614, 65.32014743845771 -1.3368939524715888, 65.1812816161075 -0.1874548372086693" stroke="#000000" stroke-width="1" fill="none"></path></g><g><g transform="translate(162.42861089313408 144.31548497265203) rotate(0 -33.46338005649858 53.30254275741987)"><path d="M-0.5012707393616438 -0.03985972590744491 C-11.738820079431568 17.793029092565803, -56.304003609049495 88.52720424093619, -67.79900267140945 106.20454839693384 M1.4364233931340276 -1.106390027347952 C-9.862470467385533 16.995152166631698, -56.94527351325692 89.65765824368536, -68.36318350613122 107.71147554218771" stroke="#000000" stroke-width="1" fill="none"></path></g></g><g><g transform="translate(165.37109375 142.828125) rotate(0 33.01365600168708 54.5857691783458)"><path d="M0.6671671729534865 -0.773394362255931 C11.941780318940681 17.651473502193888, 55.30697135341664 91.48269035803774, 66.4690207939595 109.94493271894753 M-0.4417087905853987 1.434969652220607 C10.732580358857911 19.54020034683247, 53.97213939813276 90.27937684985498, 65.24836359091103 108.02108436636627" stroke="#000000" stroke-width="1" fill="none"></path></g></g><g><g transform="translate(93.44140625 251.90234375) rotate(0 70.74130359090861 -0.2181913737207708)"><path d="M0.39153625778853884 -0.15330028943717489 C23.82164422087371 -0.16975691330929607, 116.48100805096328 -0.6500854930529992, 140.03079107813537 -0.6315235774964094 M-0.8620459362119437 -1.2793868867307903 C23.001804449930788 -1.0553400993098816, 118.6347035650164 0.9860733644415933, 142.34465311802924 0.8430041392892598" stroke="#000000" stroke-width="1" fill="none"></path></g></g></svg>