<svg version="1.1" xmlns="http://www.w3.org/2000/svg" viewBox="0 0 246.9692772451466 263.5304551761352" width="493.9385544902932" height="527.0609103522704">
  <!-- svg-source:excalidraw -->
  
  <defs>
    <style>
      @font-face {
        font-family: "Virgil";
        src: url("https://excalidraw.com/FG_Virgil.woff2");
      }
      @font-face {
        font-family: "Cascadia";
        src: url("https://excalidraw.com/Cascadia.woff2");
      }
    </style>
  </defs>
  <g transform="translate(10 53.940611426135206) rotate(0 105.048828125 99.794921875)"><path d="M137.81948376291535 6.122934723911001 C150.2122435981907 8.624318180241035, 163.2367448888687 16.709813279642326, 173.31589919467223 24.729032560645734 C183.39505350047574 32.74825184164914, 192.3753791827103 43.206572157384784, 198.2944095977365 54.23825040993147 C204.21344001276267 65.26992866247815, 207.8386388013392 78.34632741286376, 208.83008168482934 90.91910207592585 C209.8215245683195 103.49187673898794, 207.96442077517293 117.45847318671076, 204.24306689867734 129.674898388304 C200.52171302218176 141.89132358989724, 194.829611951761 154.45197191341586, 186.50195842585583 164.2176532854853 C178.17430489995067 173.98333465755476, 166.08421352590105 182.3619519462885, 154.27714574324642 188.26898662072074 C142.4700779605918 194.17602129515296, 128.77071440108355 198.5020059345114, 115.65955172992801 199.6598613320786 C102.54838905877247 200.8177167296458, 88.51241685306789 199.1012949769667, 75.6101697163132 195.21611900612402 C62.707922579558506 191.33094303528134, 48.83226585417556 184.33275560265466, 38.24606890939987 176.34880550702243 C27.659871964624173 168.3648554113902, 18.394060715733712 158.34657587969954, 12.092988047659048 147.31241843233067 C5.791915379584384 136.2782609849618, 1.6361998474673645 122.6388261150165, 0.439632900951878 110.1438608228092 C-0.7569340455636084 97.6488955306019, 1.2592578208085805 84.46803096266893, 4.913586368566129 72.34262667908692 C8.567914916323678 60.217222395504905, 14.334042060067501 47.40847518298725, 22.36560418749717 37.3914351213171 C30.397166314926835 27.37439505964695, 41.420508746200646 18.491764412257243, 53.10295913314413 12.240386309065997 C64.78540952008761 5.989008205874751, 79.36978683186626 1.399886493320918, 92.46030650915807 -0.11683349783037045 C105.55082618644988 -1.633553488981659, 121.48528084477856 1.4621683302939676, 131.64607719689502 3.140066362158265 C141.8068735490115 4.817964394022563, 148.07428845211606 7.273537058479597, 153.42508462185688 9.950554693355414 C158.7758807915977 12.627572328231231, 164.5343841224048 17.572287320019186, 163.75085421533987 19.202172171413167 M145.25617507811074 8.26777644218997 C157.72331652178715 11.572219241766206, 171.00456382916914 21.474787536336, 180.45792417628473 30.465523057907646 C189.91128452340033 39.4562585794793, 197.25145155410087 50.7809835841111, 201.97633716080435 62.21218957161985 C206.70122276750783 73.6433955591286, 208.81693747085802 86.40903156790003, 208.80723781650562 99.05275898296016 C208.79753816215322 111.69648639802028, 206.89649791568087 126.00193358503955, 201.91813923468993 138.07455406198062 C196.939780553699 150.1471745389217, 188.42505198022457 162.7160084073594, 178.93708573056009 171.48848184460655 C169.4491194808956 180.2609552818537, 157.0272672151034 185.82262913066208, 144.99034173670307 190.70939468546356 C132.95341625830275 195.59616024026505, 119.62636131410011 200.72157468354428, 106.71553286015813 200.8090751734154 C93.80470440621616 200.89657566328654, 79.77222841480146 196.2495218360398, 67.52537101305127 191.2343976246903 C55.27851361130108 186.2192734133408, 42.791685520110974 179.19783514929546, 33.234388449657004 170.71832990531846 C23.677091379203034 162.23882466134145, 15.89023132545254 151.4972783748802, 10.181588590327436 140.35736616082835 C4.472945855202333 129.2174539467765, -0.6580403491276219 116.57707305579125, -1.0174679610936153 103.87885662100729 C-1.3768955730596086 91.18064018622333, 2.891088711103696 76.45442201868767, 8.025022918531477 64.1680675521246 C13.158957125959258 51.88171308556153, 20.956926441433602 39.15091661035957, 29.786137283473067 30.160729821628877 C38.61534812551253 21.17054303289818, 49.18872202967025 15.05813104999509, 61.000287970768284 10.22694681974042 C72.81185391186632 5.395762589485749, 87.36453846327248 1.8823048629107668, 100.65553293006127 1.173624440100852 C113.94652739685006 0.46494401729093704, 132.94200108099471 4.762132601356399, 140.74625477150101 5.9748642828809295 C148.55050846200731 7.18759596440546, 146.45015328751452 7.797050875800767, 147.48105507309916 8.450014529248037 C148.5119568586838 9.102978182695308, 148.0183527686014 8.51831384718862, 146.9316654850089 9.892646203564553" stroke="#000000" stroke-width="1" fill="none"></path></g><g transform="translate(24.662109375 68.6066270511352) rotate(0 89.28173813790488 84.81640625)"><path d="M68.65512933532494 2.7368792551053076 C79.6434584347203 -1.242053215091938, 94.1104695317546 -0.7767334812678517, 105.97766137324123 1.2225686449379367 C117.84485321472786 3.221870771143725, 129.9825911944091 8.057805731959089, 139.8582803842447 14.732692012340038 C149.73396957408028 21.407578292720988, 158.72026917147684 31.110791268777135, 165.23179651225468 41.27188632722364 C171.7433238530325 51.432981385670146, 177.36499932223177 64.09839760364632, 178.9274444289117 75.69926236301907 C180.48988953559166 87.30012712239183, 178.3803726522831 99.81814716626081, 174.60646715233443 110.87707488346014 C170.83256165238575 121.93600260065946, 164.3232306853465 133.48358215489787, 156.28401142921967 142.05282866621502 C148.24479217309286 150.62207517753217, 137.70897142335645 157.83902490450893, 126.37115161557351 162.2925539513631 C115.03333180779057 166.74608299821725, 100.73023181462905 168.8605773403034, 88.25709258252203 168.77400294734002 C75.78395335041502 168.68742855437665, 62.572421218163825 166.53029446028668, 51.53231622293142 161.77310759358286 C40.492211227699016 157.01592072687905, 29.807013230777812 148.88280016644836, 22.016462611127622 140.23088174711717 C14.225911991477432 131.57896332778597, 8.388365248520605 120.92614672697832, 4.789012505030286 109.86159707759563 C1.1896597615399664 98.79704742821295, -0.8757485262470961 85.45263817155731, 0.42034615018570776 73.84358385082108 C1.7164408266185116 62.23452953008484, 6.132320313896687 50.16649749960601, 12.565580563627108 40.20727115317822 C18.99884081335753 30.24804480675043, 27.972672580153585 20.767884002450558, 39.019907648568235 14.088225772254333 C50.067142716982886 7.408567542058109, 70.10436018018345 2.340358332719648, 78.84899097411501 0.12932177200087835 C87.59362176804657 -2.0817147887178913, 91.33376102781058 -0.4923264279568471, 91.48769241215763 0.8220064079417142 M124.25247176411685 7.832255047662983 C135.18669270411144 10.906759959980475, 145.88063341116276 19.567310819875487, 154.28151096893563 28.14897955451734 C162.6823885267085 36.73064828915919, 170.76298119397887 48.31918757795772, 174.65773711075417 59.32226745551411 C178.55249302752947 70.3253473330705, 179.27196445141954 82.91340622056615, 177.65004646958738 94.16745881985568 C176.02812848775523 105.42151141914522, 171.08710942919498 116.842480561406, 164.92622921976124 126.84658305125134 C158.7653490103275 136.85068554109668, 150.53802714771155 147.08648971419558, 140.68476521298493 154.19207375892768 C130.8315032782583 161.29765780365977, 117.90559148134881 167.43359034847177, 105.80665761140145 169.48008731964399 C93.70772374145409 171.5265842908162, 79.77355344581629 169.12174323365343, 68.09116199330076 166.471055585961 C56.40877054078523 163.8203679382686, 45.04714791069634 160.64238335246202, 35.71230889630826 153.5759614334895 C26.377469881920177 146.509539514517, 17.813702985890007 134.6061031404497, 12.082127906972289 124.07252407212594 C6.350552828054572 113.5389450038022, 2.2479961763762497 101.64729983844437, 1.322858422801957 90.37448702354702 C0.39772066922766436 79.10167420864967, 2.757246836593412 66.92566525195562, 6.5313013855265325 56.43564718274182 C10.305355934459653 45.94562911352801, 15.518570223905483 35.85316393121076, 23.967185716400678 27.43437860826417 C32.41580120889587 19.01559328531758, 45.49282823773601 10.72333180212361, 57.2229943404977 5.922935245062263 C68.95316044325939 1.1225386880009154, 83.06472218426694 -1.7736061991913037, 94.34818233297081 -1.3680007341039158 C105.63164248167467 -0.9623952690165278, 119.92285921866443 6.489995952157355, 124.92375523272092 8.35656803558659 C129.92465124677742 10.223140119015826, 124.93584962723924 8.739309234857707, 124.35355841730981 9.831431766471496" stroke="#000000" stroke-width="1" fill="none"></path></g><g><g transform="translate(189.44140625 81.2335801761352) rotate(0 9.342094481363858 -9.004832212096076)"><path d="M-0.6280090626329183 -0.2254623536020517 C2.544567837690314 -2.909266225869457, 16.14602562027673 -13.51408049700161, 19.312198025360704 -16.14927406348288 M1.243147450145334 -1.3894340345822276 C4.295327418701103 -4.393531254089127, 16.029177623844394 -15.043716282205034, 18.735185431297868 -17.78420207059011" stroke="#000000" stroke-width="1" fill="none"></path></g></g><g><g transform="translate(196.728515625 89.1281114261352) rotate(0 8.993824391728253 -8.341779704904184)"><path d="M0.7067292753607035 0.9288509365171194 C3.872901680444678 -1.7063426299641529, 15.53478236036996 -12.837479456638295, 18.369025367870925 -16.036623752489685 M-0.3813765844143928 0.37089373284950833 C2.6610365289015077 -2.5590727703335387, 13.877031652486572 -14.621899695650985, 17.29684712862596 -17.612410346325486" stroke="#000000" stroke-width="1" fill="none"></path></g></g><g transform="translate(209.46875 42.503111426135206) rotate(316.302442586111 7.662109375 20.697265625)"><path d="M4.161704769358039 0.8101013693958521 M4.413905758454166 -0.4615789714500352 C6.819688067623065 0.20303240712806653, 9.075250575537392 -0.48456363775343564, 11.60786461100488 0.06994250403386104 M3.990462186394234 -0.2970661889369694 C6.354598229555905 0.30970549907295214, 8.944704812261353 0.21679256691648335, 11.869785375346055 0.00047832941772868454 M11.4931640625 0 C14.22689927679797 -1.7613508310168982, 17.15825473330915 0.027968545133868705, 15.86251019500196 3.6973963771015406 M10.615866115316749 -0.04920848272740841 C12.152332061746469 -0.7953885820694266, 17.321973676700146 0.5050849718662598, 16.080148555058987 6.118674689810723 M15.497534373775125 1.9495299365371466 C16.097414930365105 11.833108139983416, 14.761647840044516 20.22064409184277, 14.115904489532113 39.025809517130256 M16.190936024300754 3.1406024591997266 C14.64137183378707 13.735616278515044, 15.242063778147804 24.31841257616288, 15.954101945273578 36.6551956133917 M15.32421875 37.5634765625 C16.294261386618018 41.04562520918747, 14.950644563262662 39.54190335609019, 12.233775248751044 39.43710277415812 M15.123151829466224 35.86215547658503 C16.35613286914304 38.24395817446833, 16.2812116356877 41.54505638508126, 10.952505130786449 43.64723850516602 M11.866108556344807 40.90600613267179 C9.173076839293572 41.68865483899563, 8.402766361980502 41.43486716330363, 3.6001547548830786 40.92818077358552 M11.578091035326452 41.67592093064877 C9.461020037820253 41.29360623706878, 6.3965187843980855 41.17442992150889, 4.196669823583306 41.10003075228442 M3.8310546875 41.39453125 C3.2701546854029098 40.08441022969782, -0.8517710063606501 40.279264985894166, -1.6810085866600275 37.597989896312356 M3.7601601388305426 43.243772426620126 C1.8074300907241798 41.305500492732975, -1.2036840367130934 39.68537684309607, 0.8289621246047316 36.99419335750863 M1.73583541251719 36.0746741797775 C-2.240919661398566 25.73977809987027, 0.4512444616597531 15.08779484650113, 1.2895616684108973 4.262350549921393 M-0.32834381330758333 38.07926439214498 C-0.2328096065113823 28.64316857756876, -0.7501482102463524 19.619049577262558, -0.9075507866218686 3.4470336632803082 M0 3.8310546875 C0.6147028710693121 1.5993076159308353, 2.508006722355882 1.0455547366291285, 5.6733344700187445 0.6873819623142481 M1.9726918246597052 3.6381228361278772 C-1.6131691771559415 0.7876677347036698, 0.8393000058519342 -1.2963576254434883, 2.665647466201335 -1.97197930784896" stroke="#000000" stroke-width="1" fill="none"></path></g><g transform="translate(101.37076598004478 -14.336546835580037) rotate(270.0500662049372 10.11556214495522 34.482236386715456)"><path d="M7.020933758611591 -0.6566876266151667 M4.124100715895677 -0.8089119330066774 C7.6961594622250615 -0.35326379078281217, 13.102399909750961 0.38285781061910445, 15.484246472082031 0.16300691602362294 M5.00899071917021 -0.25627715589622224 C8.28141154528641 -0.45451602202697794, 12.264722521069533 -0.1960302139415944, 14.888269606079348 0.42244835313404583 M15.17334321743283 0 C17.475801941535945 -0.7816951964050531, 19.02229862159038 2.4620915465537414, 20.400076317246203 4.541092597092302 M13.411003724173042 -1.889679143205285 C16.508499639916742 -2.231096656899899, 18.16439907487402 3.5930720010321537, 19.423914378247353 6.828135183690847 M21.09313845505858 3.343546938295276 C20.913150765688414 23.240084584847292, 21.432115831167692 39.84509734431435, 20.275338827277665 62.18662495425647 M19.747624126839582 6.021409479114027 C19.4515788666621 18.115068282575184, 20.441561799468115 33.28733559891476, 21.029432056117003 63.02087425793266 M20.23112428991044 63.9066917009533 C21.91537426656032 67.70916861564895, 17.141580161235805 70.96322070894954, 16.585759118631813 67.6924395495486 M21.792719709332232 63.6791826102764 C19.736578812561127 69.07380862067497, 18.27926277189287 70.64051973618757, 17.368329742890182 66.7590431252886 M15.399473069057978 69.78698616424758 C12.249385440496958 68.06236922584675, 9.00483003630072 68.33894477187266, 4.721385075012037 68.29363419485978 M14.678723990413614 68.9610960666204 C12.113698434349322 68.91100784425846, 9.30252366754576 68.78948671467144, 5.1013648198679835 68.75861690345162 M5.05778107247761 68.96447277343091 C3.4654131830219135 70.54084723530528, 1.1716491375118494 67.95406258375426, -1.3919336404651403 65.87793280816382 M4.930898379678638 68.21000867424723 C1.3418417244698808 70.22297147013438, 1.3905885729007421 69.1795482410029, 1.4529885503463444 64.91700546935877 M1.9155565407127142 65.73646844438022 C1.4864328242085074 52.89392561411392, -1.2404288315036203 40.295746568637654, -0.6162857506424189 4.328311812276752 M0.5068928794935346 64.13287773336029 C0.44021008146635976 46.68507293692056, -0.7441958712256721 29.190510442421747, 0.816315402276814 5.418564376565428 M0 5.05778107247761 C-0.34472193382680416 1.6134592704955444, 3.594989925670992 0.3753188755363226, 3.7995243185710024 -1.3117678258568048 M1.01744101382792 5.952959560002 C-0.1461325225420298 -0.47706860215254565, 2.52404932971261 0.0018113684840499467, 4.092668055794002 1.829571665544063" stroke="#000000" stroke-width="1" fill="none"></path></g><g><g transform="translate(105.2578125 31.680845801135206) rotate(0 0.6712269338943315 11.256343679334975)"><path d="M1.071383058652282 -0.8683757957071065 C1.2385987278074027 2.9407264494647585, 1.1638689395040274 18.22526109057168, 1.031965422257781 22.05211655534804 M0.17472043510526403 1.290122966207564 C0.2717030417546628 5.339064997670551, 0.7112812637910244 19.72556674821923, 0.6257018053159116 23.381063154377042" stroke="#000000" stroke-width="1" fill="none"></path></g></g><g><g transform="translate(120.580078125 29.919127051135206) rotate(0 0.764058464393031 12.111244561579085)"><path d="M-0.3049503687769174 -1.0592512305825947 C-0.04776277579367155 3.1163569553444788, 1.6041004534810783 19.699526443456612, 1.833067297562957 24.031364411488177 M1.7358119582757356 0.9990379280224442 C1.886945108138025 5.420622222262124, 1.5773511194810272 21.652424926993746, 1.349042321406305 25.28174035374075" stroke="#000000" stroke-width="1" fill="none"></path></g></g><g><g transform="translate(112.37699938688604 204.00257299970167) rotate(0 3.3374241774813527 -82.96674099988583)"><path d="M-1.504028382364385 -47.893787862459185 C-1.4170177211268682 -57.55739260644007, -1.4533422301679808 -93.77371806306098, -0.5961842592805624 -105.4815225241785 C0.260973711606856 -117.18932698529602, 2.3398178033177324 -117.77060404205344, 3.638919442960126 -118.14061462916433 C4.9380210826025195 -118.51062521627523, 6.442340497841087 -119.3882941010152, 7.198425578573797 -107.70158604684386 C7.954510659306507 -96.01487799267251, 8.218181509894826 -58.14277553427782, 8.175429927356388 -48.02036630413628 M0.13183089128909253 -45.79078933545015 C0.16288861909593758 -55.72844371138427, -1.831660961971428 -94.7272209472515, -1.294287005905062 -107.11920483539673 C-0.756913049838696 -119.51118872354196, 1.862095042264141 -120.16600285999127, 3.3560746276872884 -120.14269266432152 C4.850054213110436 -120.11938246865176, 7.095999821276363 -118.97909255677136, 7.669590506633822 -106.97934366137821 C8.243181191991281 -94.97959476598506, 6.775923704409547 -57.97930411414992, 6.79761873983204 -48.1441992919626" stroke="#000000" stroke-width="1" fill="none"></path></g></g><g transform="translate(107.78515625 148.33318955113515) rotate(0 7.021484375 8.2294921875)"><path d="M6.308466075657056 0.8121556808798331 C7.615015487406209 0.5770088630375446, 9.329167962122765 -0.3902651187928632, 10.640091693003544 0.6811829107741856 C11.951015423884323 1.7526309403412343, 13.6509131813356 5.371479720829183, 14.174008460941733 7.240843858282126 C14.697103740547867 9.11020799573507, 14.463638943654761 10.488072454914263, 13.77866337064034 11.897367735491848 C13.093687797625918 13.306663016069432, 11.458201501375672 14.864226516798325, 10.06415502285521 15.696615541747633 C8.670108544334749 16.52900456669694, 7.028905585244725 17.319339154704554, 5.414384499517573 16.891701885187693 C3.7998634137904217 16.464064615670832, 1.151111882029825 14.634386490966346, 0.3770285084923026 13.130791924646458 C-0.3970548650452197 11.627197358326569, 0.5002476198300292 9.56194763785851, 0.7698842582924392 7.870134487268368 C1.0395208967548493 6.178321336678225, 0.808334299360151 4.308335043539357, 1.9948483392667633 2.9799130211056006 C3.1813623791733754 1.6514909986718445, 6.736275162233769 0.3081215916043347, 7.8889684977321135 -0.10039764733416945 C9.041661833230458 -0.5089168862726736, 8.87541137764731 0.48296990730071937, 8.911008352256832 0.5287975874745756 M7.965254442838841 0.23636112845227153 C9.235030732423114 0.7860378901260563, 11.202933584242547 3.4269668480088002, 12.069268016687184 5.039588654040094 C12.935602449131821 6.652210460071388, 13.09419975488708 8.270612372331266, 13.163261037506663 9.912091964640034 C13.232322320126245 11.553571556948802, 13.4169500398148 13.798429716330396, 12.483635712404677 14.888466207892703 C11.550321384994554 15.97850269945501, 9.18923756920108 16.45999174880447, 7.563375073045926 16.45231091401387 C5.937512576890773 16.444630079223273, 4.051029098998618 15.881627541626278, 2.728460735473756 14.842381199149125 C1.4058923719488934 13.803134856671972, -0.12711804918477906 11.778159665771462, -0.37203510810324847 10.216832859150959 C-0.6169521670217178 8.655506052530455, 0.20531881310162814 7.022896196642182, 1.2589583819629393 5.474420359426104 C2.3125979508242507 3.9259445222100267, 4.567810721724609 1.9527940588087072, 5.949802305064619 0.9259778358544946 C7.331793888404629 -0.10083838709971804, 9.042126443758677 -0.5843828546996362, 9.550907882003003 -0.6864769782991713 C10.059689320247328 -0.7885711018987064, 8.871069415003019 0.1032760511817575, 9.002490934530574 0.31341309425728436" stroke="none" stroke-width="0" fill="#ffffff"></path><path d="M6.460587545900281 0.3758654322537964 C7.676762183923841 -0.1000067410097305, 8.615411729773017 -0.7308410257691111, 9.892834606228675 0.26706471760324035 C11.170257482684333 1.2649704609755918, 13.368331030138917 4.686966452857626, 14.125124804634233 6.363299892487905 C14.881918579129549 8.039633332118186, 15.217337671683419 8.774107636941213, 14.433597253200574 10.325065355384918 C13.64985683471773 11.876023073828623, 10.969428289617422 14.832572354344297, 9.422682293737166 15.669046203150138 C7.87593629785691 16.50552005195598, 6.456751703394184 15.622653045507137, 5.1531212779190385 15.343908448219963 C3.8494908524438927 15.06516385093279, 2.4975239103412243 15.13767154522474, 1.600899740886292 13.996578619427094 C0.7042755714313594 12.855485693629449, -0.2880223233580132 10.390286873434114, -0.22662373881055675 8.497350893434088 C-0.16522515426310033 6.604414913434063, 0.9309259754738446 4.012675537577564, 1.9692912481710305 2.6389627394269413 C3.0076565208682164 1.2652499412763187, 5.190832319670836 0.5862448115005046, 6.003567897372559 0.25507410453035284 C6.816303475074282 -0.07609660243979893, 6.851601291583657 0.6501478538937357, 6.845704714381367 0.6519384976060305 M4.944397665065972 2.174985104900398 C6.10749352080531 1.400224360246907, 8.296497746202277 -0.7901689041568343, 9.723054956408223 -0.5915607501405704 C11.149612166614169 -0.39295259612430655, 12.693772245735873 1.913059821669336, 13.50374092630165 3.3666340289979813 C14.313709606867425 4.820208236326627, 15.02220690092315 6.300065431525237, 14.582867039802881 8.129884493831302 C14.143527178682612 9.959703556137367, 11.93909665539119 13.091217981833502, 10.867701759580033 14.345548402834371 C9.796306863768876 15.59987882383524, 9.600669792662153 15.78939997512664, 8.154497664935947 15.655867019836514 C6.708325537209743 15.522334064546387, 3.427553152540904 14.640264013939179, 2.190668993222803 13.54435067109361 C0.9537848339047024 12.448437328248042, 0.756449405112158 10.617224096992924, 0.7331927090273425 9.080386962763107 C0.709936012942527 7.54354982853329, 1.2822771250533216 5.579958850519374, 2.05112881671391 4.323327865714704 C2.8199805083744987 3.066696880910035, 5.081456995485834 2.044070956516023, 5.346302858990874 1.5406010539350898 C5.611148722495913 1.0371311513541568, 3.7335796240742436 1.0873348327458123, 3.6402039977441465 1.302508450229106" stroke="#000000" stroke-width="1" fill="none"></path></g></svg>