<?xml version="1.0" encoding="utf-8" standalone="no"?>
<!DOCTYPE svg PUBLIC "-//W3C//DTD SVG 1.1//EN"
  "http://www.w3.org/Graphics/SVG/1.1/DTD/svg11.dtd">
<!-- Created with matplotlib (http://matplotlib.org/) -->
<svg height="360pt" version="1.1" viewBox="0 0 1440 360" width="1440pt" xmlns="http://www.w3.org/2000/svg" xmlns:xlink="http://www.w3.org/1999/xlink">
 <defs>
  <style type="text/css">
*{stroke-linecap:butt;stroke-linejoin:round;}
  </style>
 </defs>
 <g id="figure_1">
  <g id="patch_1">
   <path d="M 0 360 
L 1440 360 
L 1440 0 
L 0 0 
z
" style="fill:#ffffff;"/>
  </g>
  <g id="axes_1">
   <g id="patch_2">
    <path d="M 180 315 
L 1296 315 
L 1296 43.2 
L 180 43.2 
z
" style="fill:#ffffff;"/>
   </g>
   <g id="PolyCollection_1">
    <path clip-path="url(#p9d95602c1e)" d="M 230.727273 262.551416 
L 230.727273 268.237104 
L 232.122796 281.870601 
L 233.518319 287.973215 
L 234.913843 287.194158 
L 236.309366 295.374256 
L 237.704889 291.478971 
L 239.100413 294.725042 
L 240.495936 283.688401 
L 241.891459 280.702016 
L 243.286983 280.182645 
L 244.682506 274.080032 
L 246.078029 272.132389 
L 247.473553 271.353332 
L 248.869076 272.002546 
L 250.264599 267.198361 
L 251.660123 265.120876 
L 253.055646 265.899933 
L 254.451169 259.537634 
L 255.846693 258.498892 
L 257.242216 258.109363 
L 258.637739 254.73345 
L 260.033262 251.876907 
L 261.428786 251.617222 
L 262.824309 251.747064 
L 264.219832 251.747064 
L 265.615356 252.00675 
L 267.010879 253.694707 
L 268.406402 252.655964 
L 269.801926 253.564864 
L 271.197449 260.446534 
L 272.592972 261.61512 
L 273.988496 264.86119 
L 275.384019 269.795218 
L 276.779542 271.483175 
L 278.175066 271.872703 
L 279.570589 277.845474 
L 280.966112 284.727144 
L 282.361636 270.574275 
L 283.757159 277.326102 
L 285.152682 284.207772 
L 286.548206 277.845474 
L 287.943729 281.091544 
L 289.339252 288.362743 
L 290.734776 277.585788 
L 292.130299 279.143902 
L 293.525822 274.209874 
L 294.921346 269.665375 
L 296.316869 273.300975 
L 297.712392 275.638146 
L 299.107915 272.781603 
L 300.503439 266.549147 
L 301.898962 267.458047 
L 303.294485 272.911446 
L 304.690009 268.756475 
L 306.085532 268.366947 
L 307.481055 265.510405 
L 308.876579 265.899933 
L 310.272102 265.899933 
L 311.667625 265.380562 
L 313.063149 265.510405 
L 314.458672 265.640247 
L 315.854195 264.601505 
L 317.249719 264.86119 
L 318.645242 265.899933 
L 320.040765 264.601505 
L 321.436289 264.731348 
L 322.831812 264.341819 
L 324.227335 258.239206 
L 325.622859 258.369049 
L 327.018382 258.109363 
L 328.413905 258.369049 
L 329.809429 259.667477 
L 331.204952 258.369049 
L 332.600475 258.369049 
L 333.995998 259.018263 
L 335.391522 258.498892 
L 336.787045 258.109363 
L 338.182568 258.109363 
L 339.578092 259.148106 
L 340.973615 258.109363 
L 342.369138 258.758577 
L 343.764662 259.927163 
L 345.160185 257.849678 
L 346.555708 253.564864 
L 347.951232 252.91565 
L 349.346755 251.876907 
L 350.742278 251.09785 
L 352.137802 250.448636 
L 353.533325 250.318793 
L 354.928848 251.09785 
L 356.324372 250.448636 
L 357.719895 250.059108 
L 359.115418 251.487379 
L 360.510942 250.578479 
L 361.906465 250.318793 
L 363.301988 247.462251 
L 364.697512 246.163823 
L 366.093035 243.826652 
L 367.488558 243.177438 
L 368.884082 242.917752 
L 370.279605 239.931367 
L 371.675128 236.42561 
L 373.070651 234.737653 
L 374.466175 231.751268 
L 375.861698 233.439225 
L 377.257221 231.751268 
L 378.652745 228.764883 
L 380.048268 233.439225 
L 381.443791 239.411995 
L 382.839315 238.632938 
L 384.234838 244.735552 
L 385.630361 250.968007 
L 387.025885 252.396279 
L 388.421408 251.876907 
L 389.816931 254.343921 
L 391.212455 252.91565 
L 392.607978 251.747064 
L 394.003501 253.175336 
L 395.399025 249.929265 
L 396.794548 244.995237 
L 398.190071 243.826652 
L 399.585595 242.398381 
L 400.981118 237.983724 
L 402.376641 228.764883 
L 403.772165 224.220384 
L 405.167688 224.739755 
L 406.563211 225.38897 
L 407.958735 225.259127 
L 409.354258 228.505198 
L 410.749781 226.817241 
L 412.145304 227.985826 
L 413.540828 225.38897 
L 414.936351 221.75337 
L 416.331874 217.728242 
L 417.727398 215.391072 
L 419.122921 207.340816 
L 420.518444 190.980619 
L 421.913968 187.994234 
L 423.309491 191.759676 
L 424.705014 184.228792 
L 426.100538 184.748163 
L 427.496061 186.695806 
L 428.891584 188.643448 
L 430.287108 187.085334 
L 431.682631 186.955491 
L 433.078154 186.955491 
L 434.473678 202.796317 
L 435.869201 198.381661 
L 437.264724 200.459146 
L 438.660248 204.873802 
L 440.055771 209.937673 
L 441.451294 217.728242 
L 442.846818 221.883213 
L 444.242341 223.051799 
L 445.637864 230.842369 
L 447.033388 239.931367 
L 448.428911 249.799422 
L 449.824434 255.252821 
L 451.219957 255.382664 
L 452.615481 249.669579 
L 454.011004 243.437123 
L 455.406527 239.801524 
L 456.802051 234.607811 
L 458.197574 231.36174 
L 459.593097 231.491583 
L 460.988621 236.036082 
L 462.384144 239.801524 
L 463.779667 249.799422 
L 465.175191 258.109363 
L 466.570714 260.836063 
L 467.966237 253.82455 
L 469.361761 249.409893 
L 470.757284 248.111465 
L 472.152807 245.644451 
L 473.548331 244.475866 
L 474.943854 241.229795 
L 476.339377 240.320895 
L 477.734901 238.113567 
L 479.130424 237.853881 
L 480.525947 234.348125 
L 481.921471 226.427712 
L 483.316994 218.117771 
L 484.712517 211.495787 
L 486.108041 211.106258 
L 487.503564 201.757574 
L 488.899087 193.31779 
L 490.29461 168.517809 
L 491.690134 167.219381 
L 493.085657 163.583782 
L 494.48118 173.58168 
L 495.876704 173.321994 
L 497.272227 174.360737 
L 498.66775 178.256022 
L 500.063274 187.085334 
L 501.458797 182.151307 
L 502.85432 167.089538 
L 504.249844 156.702111 
L 505.645367 148.651856 
L 507.04089 135.797416 
L 508.436414 147.613113 
L 509.831937 156.312583 
L 511.22746 172.932465 
L 512.622984 180.852878 
L 514.018507 192.798419 
L 515.41403 210.976415 
L 516.809554 222.532427 
L 518.205077 231.621426 
L 519.6006 232.27064 
L 520.996124 235.776396 
L 522.391647 231.491583 
L 523.78717 224.350227 
L 525.182694 223.830856 
L 526.578217 222.532427 
L 527.97374 227.985826 
L 529.369263 235.776396 
L 530.764787 236.036082 
L 532.16031 240.320895 
L 533.555833 241.619324 
L 534.951357 240.710424 
L 536.34688 240.970109 
L 537.742403 234.867496 
L 539.137927 232.400482 
L 540.53345 234.607811 
L 541.928973 234.867496 
L 543.324497 235.386868 
L 544.72002 238.373253 
L 546.115543 239.282153 
L 547.511067 243.177438 
L 548.90659 243.696809 
L 550.302113 242.787909 
L 551.697637 242.658066 
L 553.09316 242.138695 
L 554.488683 234.088439 
L 555.884207 233.569068 
L 557.27973 233.179539 
L 558.675253 226.947084 
L 560.070777 223.830856 
L 561.4663 219.546042 
L 562.861823 219.026671 
L 564.257347 218.377457 
L 565.65287 216.559657 
L 567.048393 215.520914 
L 568.443916 215.391072 
L 569.83944 214.092643 
L 571.234963 207.99003 
L 572.630486 204.873802 
L 574.02601 202.147103 
L 575.421533 199.160718 
L 576.817056 193.837161 
L 578.21258 187.215177 
L 579.608103 176.82775 
L 581.003626 173.321994 
L 582.39915 172.802623 
L 583.794673 172.932465 
L 585.190196 172.542937 
L 586.58572 173.58168 
L 587.981243 170.595295 
L 589.376766 169.94608 
L 590.77229 167.608909 
L 592.167813 161.506296 
L 593.563336 155.143998 
L 594.95886 124.760775 
L 596.354383 132.421502 
L 597.749906 124.630932 
L 599.14543 124.111561 
L 600.540953 120.086433 
L 601.936476 80.354526 
L 603.331999 74.901127 
L 604.727523 160.986925 
L 606.123046 180.593193 
L 607.518569 186.306277 
L 608.914093 178.775393 
L 610.309616 162.415196 
L 611.705139 137.225687 
L 613.100663 97.753466 
L 614.496186 58.151402 
L 615.891709 55.814231 
L 617.287233 96.714723 
L 618.682756 112.685391 
L 620.078279 99.441423 
L 621.473803 63.08543 
L 622.869326 55.554545 
L 624.264849 56.333602 
L 625.660373 72.174428 
L 627.055896 97.49378 
L 628.451419 107.751364 
L 629.846943 130.733545 
L 631.242466 142.938771 
L 632.637989 131.902131 
L 634.033513 111.646649 
L 635.429036 112.945077 
L 636.824559 109.569164 
L 638.220083 115.931462 
L 639.615606 119.826747 
L 641.011129 140.082229 
L 642.406652 172.153408 
L 643.802176 169.686395 
L 645.197699 177.476965 
L 646.593222 184.098949 
L 647.988746 187.34502 
L 649.384269 190.850776 
L 650.779792 193.058104 
L 652.175316 189.682191 
L 653.570839 189.292662 
L 654.966362 191.49999 
L 656.361886 186.955491 
L 657.757409 181.891621 
L 659.152932 179.424607 
L 660.548456 180.852878 
L 661.943979 180.46335 
L 663.339502 182.281149 
L 664.735026 180.593193 
L 666.130549 179.424607 
L 667.526072 179.035079 
L 668.921596 174.880108 
L 670.317119 169.94608 
L 671.712642 169.556552 
L 673.108166 159.948182 
L 674.503689 157.740854 
L 675.899212 152.417298 
L 677.294736 156.831954 
L 678.690259 173.841365 
L 680.085782 181.112564 
L 681.481305 194.746061 
L 682.876829 195.13559 
L 684.272352 193.187947 
L 685.667875 192.149205 
L 687.063399 196.174332 
L 688.458922 200.069617 
L 689.854445 205.782702 
L 691.249969 201.238203 
L 692.645492 200.978517 
L 694.041015 200.718832 
L 695.436539 199.809932 
L 696.832062 199.030875 
L 698.227585 196.174332 
L 699.623109 197.862289 
L 701.018632 201.497889 
L 702.414155 206.431916 
L 703.809679 212.794215 
L 705.205202 214.612015 
L 706.600725 213.703115 
L 707.996249 218.377457 
L 709.391772 223.441327 
L 710.787295 227.076926 
L 712.182819 227.596298 
L 713.578342 225.129284 
L 714.973865 213.832958 
L 716.369389 220.065413 
L 717.764912 224.350227 
L 719.160435 223.960698 
L 720.555958 220.84447 
L 721.951482 214.612015 
L 723.347005 216.170129 
L 724.742528 218.117771 
L 726.138052 216.170129 
L 727.533575 209.80783 
L 728.929098 208.89893 
L 730.324622 216.6895 
L 731.720145 215.650757 
L 733.115668 214.8717 
L 734.511192 218.117771 
L 735.906715 218.117771 
L 737.302238 214.352329 
L 738.697762 211.495787 
L 740.093285 206.042388 
L 741.488808 202.92616 
L 742.884332 199.550246 
L 744.279855 197.213075 
L 745.675378 195.784804 
L 747.070902 195.13559 
L 748.466425 189.812034 
L 749.861948 185.137692 
L 751.257472 182.021464 
L 752.652995 175.659165 
L 754.048518 175.789008 
L 755.444042 176.178536 
L 756.839565 179.814136 
L 758.235088 183.579578 
L 759.630611 186.825648 
L 761.026135 186.43612 
L 762.421658 188.773291 
L 763.817181 192.538733 
L 765.212705 193.837161 
L 766.608228 196.693704 
L 768.003751 196.563861 
L 769.399275 196.04449 
L 770.794798 196.304175 
L 772.190321 197.342918 
L 773.585845 195.914647 
L 774.981368 197.732446 
L 776.376891 197.992132 
L 777.772415 197.083232 
L 779.167938 198.251818 
L 780.563461 202.147103 
L 781.958985 208.639244 
L 783.354508 213.832958 
L 784.750031 222.402584 
L 786.145555 224.090541 
L 787.541078 226.817241 
L 788.936601 228.505198 
L 790.332125 226.947084 
L 791.727648 227.985826 
L 793.123171 230.063312 
L 794.518695 232.790011 
L 795.914218 235.906239 
L 797.309741 241.099952 
L 798.705264 246.03398 
L 800.100788 251.227693 
L 801.496311 250.838165 
L 802.891834 251.876907 
L 804.287358 255.122978 
L 805.682881 253.954393 
L 807.078404 254.73345 
L 808.473928 261.355434 
L 809.869451 260.70622 
L 811.264974 261.744962 
L 812.660498 263.303076 
L 814.056021 263.432919 
L 815.451544 265.640247 
L 816.847068 264.341819 
L 818.242591 264.211976 
L 819.638114 263.692605 
L 821.033638 265.120876 
L 822.429161 264.601505 
L 823.824684 264.082133 
L 825.220208 263.822448 
L 826.615731 264.211976 
L 828.011254 263.432919 
L 829.406778 264.731348 
L 830.802301 264.341819 
L 832.197824 265.120876 
L 833.593348 263.952291 
L 834.988871 261.355434 
L 836.384394 260.186849 
L 837.779917 257.330306 
L 839.175441 251.487379 
L 840.570964 248.371151 
L 841.966487 248.241308 
L 843.362011 245.514609 
L 844.757534 242.138695 
L 846.153057 241.749166 
L 847.548581 234.867496 
L 848.944104 232.790011 
L 850.339627 231.751268 
L 851.735151 226.687398 
L 853.130674 225.908341 
L 854.526197 224.999441 
L 855.921721 225.518812 
L 857.317244 225.648655 
L 858.712767 227.596298 
L 860.108291 229.024569 
L 861.503814 228.245512 
L 862.899337 228.764883 
L 864.294861 228.245512 
L 865.690384 230.842369 
L 867.085907 231.36174 
L 868.481431 235.776396 
L 869.876954 234.607811 
L 871.272477 235.776396 
L 872.668001 235.51671 
L 874.063524 235.127182 
L 875.459047 233.439225 
L 876.85457 235.776396 
L 878.250094 234.737653 
L 879.645617 235.51671 
L 881.04114 234.607811 
L 882.436664 234.867496 
L 883.832187 235.386868 
L 885.22771 236.165925 
L 886.623234 233.569068 
L 888.018757 232.010954 
L 889.41428 232.140797 
L 890.809804 231.36174 
L 892.205327 231.881111 
L 893.60085 231.621426 
L 894.996374 231.621426 
L 896.391897 232.140797 
L 897.78742 231.881111 
L 899.182944 232.140797 
L 900.578467 231.36174 
L 901.97399 232.010954 
L 903.369514 232.27064 
L 904.765037 232.790011 
L 906.16056 232.27064 
L 907.556084 231.36174 
L 908.951607 231.621426 
L 910.34713 231.491583 
L 911.742653 232.010954 
L 913.138177 237.724039 
L 914.5337 240.840267 
L 915.929223 242.787909 
L 917.324747 243.437123 
L 918.72027 241.749166 
L 920.115793 241.099952 
L 921.511317 242.008852 
L 922.90684 242.008852 
L 924.302363 241.749166 
L 925.697887 238.762781 
L 927.09341 237.724039 
L 928.488933 235.776396 
L 929.884457 236.036082 
L 931.27998 233.179539 
L 932.675503 234.737653 
L 934.071027 232.790011 
L 935.46655 229.154412 
L 936.862073 227.596298 
L 938.257597 225.38897 
L 939.65312 222.142899 
L 941.048643 218.766985 
L 942.444167 218.637142 
L 943.83969 219.156514 
L 945.235213 218.896828 
L 946.630737 219.026671 
L 948.02626 219.026671 
L 949.421783 220.454942 
L 950.817306 225.908341 
L 952.21283 232.27064 
L 953.608353 234.607811 
L 955.003876 241.229795 
L 956.3994 248.890522 
L 957.794923 252.00675 
L 959.190446 254.603607 
L 960.58597 256.161721 
L 961.981493 263.692605 
L 963.377016 271.223489 
L 964.77254 276.417203 
L 966.168063 279.922959 
L 967.563586 281.091544 
L 968.95911 280.961702 
L 970.354633 281.091544 
L 971.750156 280.831859 
L 973.14568 280.831859 
L 974.541203 280.831859 
L 975.936726 281.091544 
L 977.33225 280.961702 
L 978.727773 280.831859 
L 980.123296 280.831859 
L 981.51882 286.155415 
L 982.914343 287.453843 
L 984.309866 287.453843 
L 985.70539 287.194158 
L 987.100913 287.324 
L 988.496436 287.194158 
L 989.891959 287.194158 
L 991.287483 287.713529 
L 992.683006 290.440228 
L 994.078529 290.180543 
L 995.474053 290.440228 
L 996.869576 290.440228 
L 998.265099 290.570071 
L 999.660623 290.829757 
L 1001.056146 290.570071 
L 1002.451669 290.440228 
L 1003.847193 290.570071 
L 1005.242716 290.570071 
L 1006.638239 290.570071 
L 1008.033763 290.180543 
L 1009.429286 287.194158 
L 1010.824809 284.986829 
L 1012.220333 282.649658 
L 1013.615856 280.702016 
L 1015.011379 278.494688 
L 1016.406903 275.508303 
L 1017.802426 273.950189 
L 1019.197949 271.093646 
L 1020.593473 269.40569 
L 1021.988996 267.328204 
L 1023.384519 264.601505 
L 1024.780043 264.082133 
L 1026.175566 261.225591 
L 1027.571089 258.109363 
L 1028.966612 256.551249 
L 1030.362136 254.473764 
L 1031.757659 251.617222 
L 1033.153182 249.539736 
L 1034.548706 247.851779 
L 1035.944229 245.254923 
L 1037.339752 243.956495 
L 1038.735276 241.359638 
L 1040.130799 239.411995 
L 1041.526322 238.762781 
L 1042.921846 235.51671 
L 1044.317369 235.386868 
L 1045.712892 235.386868 
L 1047.108416 235.386868 
L 1048.503939 235.386868 
L 1049.899462 235.51671 
L 1051.294986 235.386868 
L 1052.690509 235.257025 
L 1054.086032 235.257025 
L 1055.481556 235.386868 
L 1056.877079 235.386868 
L 1058.272602 235.386868 
L 1059.668126 235.257025 
L 1061.063649 238.373253 
L 1062.459172 239.411995 
L 1063.854696 241.749166 
L 1065.250219 245.254923 
L 1066.645742 248.500994 
L 1068.041265 252.396279 
L 1069.436789 264.86119 
L 1070.832312 269.665375 
L 1072.227835 273.950189 
L 1073.623359 277.845474 
L 1075.018882 277.585788 
L 1076.414405 277.455945 
L 1077.809929 277.585788 
L 1079.205452 280.052802 
L 1080.600975 290.9596 
L 1081.996499 298.490484 
L 1083.392022 301.476869 
L 1084.787545 301.606712 
L 1086.183069 300.697812 
L 1087.578592 301.217183 
L 1088.974115 301.606712 
L 1090.369639 301.217183 
L 1091.765162 300.827655 
L 1093.160685 301.476869 
L 1094.556209 301.476869 
L 1095.951732 301.606712 
L 1097.347255 301.99624 
L 1098.742779 301.99624 
L 1100.138302 301.99624 
L 1101.533825 302.126083 
L 1102.929349 301.866398 
L 1104.324872 301.476869 
L 1105.720395 300.957498 
L 1107.115918 300.957498 
L 1108.511442 301.217183 
L 1109.906965 301.217183 
L 1111.302488 301.087341 
L 1112.698012 301.087341 
L 1114.093535 301.087341 
L 1115.489058 301.087341 
L 1116.884582 301.217183 
L 1118.280105 301.347026 
L 1119.675628 301.476869 
L 1121.071152 301.736555 
L 1122.466675 302.255926 
L 1123.862198 302.385769 
L 1125.257722 302.385769 
L 1126.653245 302.645455 
L 1128.048768 302.255926 
L 1129.444292 302.515612 
L 1130.839815 302.645455 
L 1132.235338 302.515612 
L 1133.630862 302.645455 
L 1135.026385 302.515612 
L 1136.421908 302.255926 
L 1137.817432 301.866398 
L 1139.212955 301.736555 
L 1140.608478 301.476869 
L 1142.004002 301.476869 
L 1143.399525 301.476869 
L 1144.795048 301.866398 
L 1146.190571 301.736555 
L 1147.586095 301.476869 
L 1148.981618 301.476869 
L 1150.377141 301.476869 
L 1151.772665 301.736555 
L 1153.168188 301.606712 
L 1154.563711 301.736555 
L 1155.959235 301.606712 
L 1157.354758 302.126083 
L 1158.750281 302.385769 
L 1160.145805 302.385769 
L 1161.541328 302.515612 
L 1162.936851 302.515612 
L 1164.332375 302.385769 
L 1165.727898 302.515612 
L 1167.123421 302.385769 
L 1168.518945 302.645455 
L 1169.914468 302.645455 
L 1171.309991 302.515612 
L 1172.705515 302.385769 
L 1174.101038 302.385769 
L 1175.496561 302.255926 
L 1176.892085 302.385769 
L 1178.287608 302.385769 
L 1179.683131 302.385769 
L 1181.078654 302.385769 
L 1182.474178 302.385769 
L 1183.869701 301.99624 
L 1185.265224 302.126083 
L 1186.660748 302.126083 
L 1188.056271 302.126083 
L 1189.451794 301.99624 
L 1190.847318 301.99624 
L 1192.242841 301.866398 
L 1193.638364 301.866398 
L 1195.033888 301.736555 
L 1196.429411 301.736555 
L 1197.824934 301.99624 
L 1199.220458 301.99624 
L 1200.615981 300.438126 
L 1202.011504 299.139698 
L 1203.407028 298.620327 
L 1204.802551 298.880012 
L 1206.198074 298.75017 
L 1207.593598 298.75017 
L 1208.989121 298.620327 
L 1210.384644 298.490484 
L 1211.780168 298.360641 
L 1213.175691 298.360641 
L 1214.571214 298.360641 
L 1215.966738 298.230798 
L 1217.362261 296.542841 
L 1218.757784 295.11457 
L 1220.153307 294.984727 
L 1221.548831 293.296771 
L 1222.944354 291.868499 
L 1224.339877 291.738657 
L 1225.735401 290.0507 
L 1227.130924 288.622429 
L 1228.526447 288.492586 
L 1229.921971 288.622429 
L 1231.317494 288.622429 
L 1232.713017 288.492586 
L 1234.108541 286.674786 
L 1235.504064 285.246515 
L 1236.899587 285.116672 
L 1238.295111 283.948087 
L 1239.690634 281.610916 
L 1241.086157 281.481073 
L 1242.481681 279.922959 
L 1243.877204 278.754373 
L 1245.272727 278.754373 
L 1245.272727 274.999838 
L 1245.272727 274.999838 
L 1243.877204 272.987144 
L 1242.481681 274.274406 
L 1241.086157 274.506176 
L 1239.690634 275.779025 
L 1238.295111 276.065588 
L 1236.899587 279.565242 
L 1235.504064 279.904781 
L 1234.108541 280.497513 
L 1232.713017 281.33448 
L 1231.317494 280.526079 
L 1229.921971 281.577286 
L 1228.526447 281.683628 
L 1227.130924 281.584038 
L 1225.735401 281.441731 
L 1224.339877 281.047008 
L 1222.944354 279.109494 
L 1221.548831 277.560339 
L 1220.153307 274.682243 
L 1218.757784 274.057699 
L 1217.362261 275.032299 
L 1215.966738 276.14674 
L 1214.571214 275.705664 
L 1213.175691 274.892328 
L 1211.780168 273.444191 
L 1210.384644 275.126045 
L 1208.989121 274.409183 
L 1207.593598 274.46138 
L 1206.198074 275.685149 
L 1204.802551 275.05606 
L 1203.407028 273.284355 
L 1202.011504 274.89908 
L 1200.615981 276.343192 
L 1199.220458 277.357654 
L 1197.824934 278.758658 
L 1196.429411 278.992765 
L 1195.033888 279.824798 
L 1193.638364 280.119801 
L 1192.242841 280.672412 
L 1190.847318 281.24372 
L 1189.451794 280.085133 
L 1188.056271 280.787842 
L 1186.660748 281.510028 
L 1185.265224 282.14444 
L 1183.869701 282.696662 
L 1182.474178 281.448742 
L 1181.078654 280.082795 
L 1179.683131 281.106606 
L 1178.287608 281.172826 
L 1176.892085 279.417611 
L 1175.496561 278.45158 
L 1174.101038 278.15437 
L 1172.705515 279.766498 
L 1171.309991 282.043163 
L 1169.914468 283.203568 
L 1168.518945 282.503585 
L 1167.123421 281.259431 
L 1165.727898 281.208663 
L 1164.332375 281.737642 
L 1162.936851 281.038049 
L 1161.541328 280.642548 
L 1160.145805 281.53288 
L 1158.750281 282.311028 
L 1157.354758 281.725567 
L 1155.959235 281.283712 
L 1154.563711 279.048597 
L 1153.168188 277.530475 
L 1151.772665 278.555714 
L 1150.377141 278.970432 
L 1148.981618 278.348095 
L 1147.586095 277.596435 
L 1146.190571 277.785356 
L 1144.795048 278.709448 
L 1143.399525 276.284114 
L 1142.004002 274.755734 
L 1140.608478 274.247269 
L 1139.212955 273.515085 
L 1137.817432 274.270251 
L 1136.421908 275.293153 
L 1135.026385 273.983169 
L 1133.630862 274.605376 
L 1132.235338 275.595168 
L 1130.839815 276.285412 
L 1129.444292 277.91429 
L 1128.048768 278.218902 
L 1126.653245 280.63242 
L 1125.257722 282.27623 
L 1123.862198 283.942244 
L 1122.466675 286.223712 
L 1121.071152 288.10072 
L 1119.675628 289.375387 
L 1118.280105 291.218247 
L 1116.884582 293.109148 
L 1115.489058 293.579828 
L 1114.093535 295.624853 
L 1112.698012 293.114471 
L 1111.302488 291.994837 
L 1109.906965 292.260105 
L 1108.511442 291.81851 
L 1107.115918 291.318355 
L 1105.720395 291.568043 
L 1104.324872 289.182701 
L 1102.929349 286.155285 
L 1101.533825 283.381712 
L 1100.138302 279.971131 
L 1098.742779 281.419527 
L 1097.347255 281.369798 
L 1095.951732 283.94575 
L 1094.556209 284.840497 
L 1093.160685 283.691387 
L 1091.765162 281.085961 
L 1090.369639 279.731571 
L 1088.974115 278.897071 
L 1087.578592 280.754213 
L 1086.183069 280.36832 
L 1084.787545 281.739071 
L 1083.392022 280.662024 
L 1081.996499 277.547225 
L 1080.600975 274.780923 
L 1079.205452 271.441495 
L 1077.809929 270.557136 
L 1076.414405 270.969776 
L 1075.018882 272.221721 
L 1073.623359 273.525473 
L 1072.227835 274.240907 
L 1070.832312 272.980652 
L 1069.436789 274.035625 
L 1068.041265 271.538228 
L 1066.645742 271.885947 
L 1065.250219 273.313959 
L 1063.854696 275.323796 
L 1062.459172 275.806032 
L 1061.063649 275.845764 
L 1059.668126 274.865451 
L 1058.272602 274.710159 
L 1056.877079 274.417104 
L 1055.481556 273.156589 
L 1054.086032 271.724163 
L 1052.690509 268.402394 
L 1051.294986 268.889045 
L 1049.899462 270.146053 
L 1048.503939 269.53722 
L 1047.108416 268.253594 
L 1045.712892 265.49807 
L 1044.317369 266.733264 
L 1042.921846 268.636501 
L 1041.526322 269.248969 
L 1040.130799 271.869587 
L 1038.735276 273.824241 
L 1037.339752 276.382405 
L 1035.944229 276.869835 
L 1034.548706 276.067406 
L 1033.153182 275.327691 
L 1031.757659 276.025856 
L 1030.362136 276.694806 
L 1028.966612 277.901566 
L 1027.571089 275.843946 
L 1026.175566 275.815771 
L 1024.780043 277.136662 
L 1023.384519 275.140847 
L 1021.988996 274.480077 
L 1020.593473 273.096602 
L 1019.197949 272.909109 
L 1017.802426 274.105481 
L 1016.406903 275.385991 
L 1015.011379 275.429618 
L 1013.615856 277.492171 
L 1012.220333 278.068673 
L 1010.824809 281.410568 
L 1009.429286 280.704223 
L 1008.033763 279.335031 
L 1006.638239 281.37629 
L 1005.242716 280.692278 
L 1003.847193 282.698739 
L 1002.451669 287.366199 
L 1001.056146 288.660992 
L 999.660623 288.62983 
L 998.265099 289.337993 
L 996.869576 286.63012 
L 995.474053 287.943351 
L 994.078529 286.559226 
L 992.683006 283.767475 
L 991.287483 283.746701 
L 989.891959 283.074374 
L 988.496436 284.449799 
L 987.100913 281.662983 
L 985.70539 280.907297 
L 984.309866 278.717238 
L 982.914343 278.664392 
L 981.51882 278.01375 
L 980.123296 274.485011 
L 978.727773 274.407365 
L 977.33225 272.937674 
L 975.936726 274.963872 
L 974.541203 274.219223 
L 973.14568 270.656206 
L 971.750156 270.673865 
L 970.354633 272.022152 
L 968.95911 269.755746 
L 967.563586 270.29758 
L 966.168063 268.039353 
L 964.77254 267.368585 
L 963.377016 269.459964 
L 961.981493 269.366477 
L 960.58597 268.538989 
L 959.190446 268.461732 
L 957.794923 268.403563 
L 956.3994 270.5374 
L 955.003876 269.819629 
L 953.608353 269.02551 
L 952.21283 268.109728 
L 950.817306 269.423348 
L 949.421783 270.037115 
L 948.02626 270.07464 
L 946.630737 270.784101 
L 945.235213 269.942849 
L 943.83969 269.828977 
L 942.444167 271.258806 
L 941.048643 271.203883 
L 939.65312 271.939183 
L 938.257597 273.443802 
L 936.862073 271.86738 
L 935.46655 275.472206 
L 934.071027 277.630194 
L 932.675503 278.298885 
L 931.27998 276.813223 
L 929.884457 276.797902 
L 928.488933 277.466592 
L 927.09341 278.900706 
L 925.697887 276.581843 
L 924.302363 276.5351 
L 922.90684 277.300783 
L 921.511317 275.033987 
L 920.115793 276.472386 
L 918.72027 276.393701 
L 917.324747 272.458814 
L 915.929223 272.367794 
L 914.5337 273.146202 
L 913.138177 273.906432 
L 911.742653 271.475514 
L 910.34713 271.399816 
L 908.951607 274.44502 
L 907.556084 274.393472 
L 906.16056 274.410611 
L 904.765037 275.960805 
L 903.369514 275.895494 
L 901.97399 274.237531 
L 900.578467 274.872592 
L 899.182944 274.786766 
L 897.78742 275.597764 
L 896.391897 274.009267 
L 894.996374 275.463377 
L 893.60085 273.795416 
L 892.205327 272.172381 
L 890.809804 272.11538 
L 889.41428 270.523507 
L 888.018757 268.929556 
L 886.623234 271.270752 
L 885.22771 271.133248 
L 883.832187 270.974451 
L 882.436664 269.238192 
L 881.04114 270.097882 
L 879.645617 270.056851 
L 878.250094 269.111206 
L 876.85457 269.808073 
L 875.459047 268.09142 
L 874.063524 268.854247 
L 872.668001 268.832693 
L 871.272477 268.811139 
L 869.876954 267.127078 
L 868.481431 266.130924 
L 867.085907 265.100621 
L 865.690384 264.083432 
L 864.294861 264.158351 
L 862.899337 264.108492 
L 861.503814 265.632067 
L 860.108291 265.511184 
L 858.712767 264.535025 
L 857.317244 264.485166 
L 855.921721 263.602754 
L 854.526197 263.577045 
L 853.130674 265.218258 
L 851.735151 265.020378 
L 850.339627 266.528502 
L 848.944104 269.807034 
L 847.548581 267.276007 
L 846.153057 265.48963 
L 844.757534 264.491138 
L 843.362011 266.115992 
L 841.966487 265.96823 
L 840.570964 265.91876 
L 839.175441 266.749884 
L 837.779917 267.605808 
L 836.384394 265.819301 
L 834.988871 267.391178 
L 833.593348 265.441718 
L 832.197824 262.652174 
L 830.802301 263.549258 
L 829.406778 264.340131 
L 828.011254 261.471643 
L 826.615731 260.478476 
L 825.220208 262.124493 
L 823.824684 260.243979 
L 822.429161 259.299762 
L 821.033638 258.383981 
L 819.638114 259.209132 
L 818.242591 257.181896 
L 816.847068 258.750008 
L 815.451544 260.393299 
L 814.056021 259.494137 
L 812.660498 257.536367 
L 811.264974 260.997717 
L 809.869451 258.059374 
L 808.473928 255.091946 
L 807.078404 254.003084 
L 805.682881 253.932839 
L 804.287358 252.942398 
L 802.891834 252.870465 
L 801.496311 254.504667 
L 800.100788 252.325125 
L 798.705264 246.284577 
L 797.309741 245.303614 
L 795.914218 246.076698 
L 794.518695 244.879028 
L 793.123171 243.582937 
L 791.727648 241.268099 
L 790.332125 239.018182 
L 788.936601 236.893953 
L 787.541078 236.794624 
L 786.145555 235.675378 
L 784.750031 230.224446 
L 783.354508 230.763684 
L 781.958985 236.411328 
L 780.563461 235.320128 
L 779.167938 235.111601 
L 777.772415 231.641421 
L 776.376891 232.256227 
L 774.981368 238.129668 
L 773.585845 239.896049 
L 772.190321 241.82084 
L 770.794798 240.661733 
L 769.399275 239.447053 
L 768.003751 243.186137 
L 766.608228 246.029046 
L 765.212705 246.87692 
L 763.817181 246.786809 
L 762.421658 247.685711 
L 761.026135 248.368554 
L 759.630611 245.869729 
L 758.235088 243.529701 
L 756.839565 245.494613 
L 755.444042 244.294346 
L 754.048518 244.149181 
L 752.652995 242.840366 
L 751.257472 241.367039 
L 749.861948 243.362334 
L 748.466425 243.162376 
L 747.070902 246.445062 
L 745.675378 245.173771 
L 744.279855 245.918939 
L 742.884332 246.624895 
L 741.488808 245.235057 
L 740.093285 245.086517 
L 738.697762 247.245024 
L 737.302238 248.255071 
L 735.906715 246.859261 
L 734.511192 247.635851 
L 733.115668 247.490946 
L 731.720145 248.469572 
L 730.324622 246.171483 
L 728.929098 247.149979 
L 727.533575 247.988374 
L 726.138052 248.787557 
L 724.742528 252.074788 
L 723.347005 250.744678 
L 721.951482 249.501043 
L 720.555958 249.405219 
L 719.160435 251.524774 
L 717.764912 254.819795 
L 716.369389 254.688784 
L 714.973865 254.557123 
L 713.578342 254.512976 
L 712.182819 251.945594 
L 710.787295 250.43682 
L 709.391772 251.332346 
L 707.996249 249.94952 
L 706.600725 252.237741 
L 705.205202 252.143345 
L 703.809679 249.55324 
L 702.414155 250.606395 
L 701.018632 249.150987 
L 699.623109 246.467265 
L 698.227585 247.577162 
L 696.832062 246.252765 
L 695.436539 249.80942 
L 694.041015 252.009996 
L 692.645492 250.431237 
L 691.249969 248.935967 
L 689.854445 246.234068 
L 688.458922 244.818911 
L 687.063399 244.591945 
L 685.667875 241.784484 
L 684.272352 242.809203 
L 682.876829 245.169486 
L 681.481305 242.391888 
L 680.085782 243.607217 
L 678.690259 239.46614 
L 677.294736 237.794803 
L 675.899212 237.33451 
L 674.503689 238.372214 
L 673.108166 236.733078 
L 671.712642 236.530264 
L 670.317119 239.02805 
L 668.921596 238.699158 
L 667.526072 241.219148 
L 666.130549 241.02763 
L 664.735026 240.770281 
L 663.339502 247.679348 
L 661.943979 255.710517 
L 660.548456 258.182724 
L 659.152932 264.775364 
L 657.757409 264.614879 
L 656.361886 265.801512 
L 654.966362 257.279148 
L 653.570839 247.220484 
L 652.175316 242.582238 
L 650.779792 242.451876 
L 649.384269 242.255164 
L 647.988746 244.915644 
L 646.593222 234.921121 
L 645.197699 227.589935 
L 643.802176 227.259356 
L 642.406652 211.934266 
L 641.011129 205.341756 
L 639.615606 192.302289 
L 638.220083 191.16188 
L 636.824559 188.371168 
L 635.429036 188.942736 
L 634.033513 185.377641 
L 632.637989 183.301325 
L 631.242466 179.675983 
L 629.846943 170.778113 
L 628.451419 161.538757 
L 627.055896 150.33345 
L 625.660373 153.428514 
L 624.264849 159.106152 
L 622.869326 181.876689 
L 621.473803 180.511262 
L 620.078279 180.75212 
L 618.682756 174.20895 
L 617.287233 162.457395 
L 615.891709 156.082761 
L 614.496186 145.753245 
L 613.100663 146.011762 
L 611.705139 144.098268 
L 610.309616 147.884485 
L 608.914093 149.957555 
L 607.518569 143.054202 
L 606.123046 127.157284 
L 604.727523 131.164104 
L 603.331999 135.239611 
L 601.936476 141.250815 
L 600.540953 147.366542 
L 599.14543 147.894872 
L 597.749906 156.526434 
L 596.354383 165.668149 
L 594.95886 172.361027 
L 593.563336 175.26652 
L 592.167813 173.907975 
L 590.77229 179.047543 
L 589.376766 182.261673 
L 587.981243 181.136845 
L 586.58572 182.20597 
L 585.190196 183.291716 
L 583.794673 184.394731 
L 582.39915 192.26048 
L 581.003626 193.798858 
L 579.608103 191.190315 
L 578.21258 194.82929 
L 576.817056 200.770898 
L 575.421533 206.436201 
L 574.02601 208.081699 
L 572.630486 212.025805 
L 571.234963 215.706849 
L 569.83944 219.576425 
L 568.443916 221.18323 
L 567.048393 222.811719 
L 565.65287 220.209279 
L 564.257347 219.784823 
L 562.861823 226.398108 
L 561.4663 226.003126 
L 560.070777 223.376925 
L 558.675253 222.823016 
L 557.27973 222.402584 
L 555.884207 217.295087 
L 554.488683 221.548348 
L 553.09316 221.114414 
L 551.697637 222.978178 
L 550.302113 222.402584 
L 548.90659 221.965533 
L 547.511067 224.010948 
L 546.115543 219.02732 
L 544.72002 216.046388 
L 543.324497 215.56558 
L 541.928973 214.916236 
L 540.53345 216.992423 
L 539.137927 218.926822 
L 537.742403 218.610395 
L 536.34688 220.727742 
L 534.951357 217.646961 
L 533.555833 219.625506 
L 532.16031 216.494995 
L 530.764787 216.160131 
L 529.369263 215.822669 
L 527.97374 212.436628 
L 526.578217 203.675223 
L 525.182694 197.295785 
L 523.78717 185.515404 
L 522.391647 179.011188 
L 520.996124 166.736495 
L 519.6006 157.176168 
L 518.205077 155.94357 
L 516.809554 151.933244 
L 515.41403 153.735722 
L 514.018507 159.284556 
L 512.622984 158.665335 
L 511.22746 166.435909 
L 509.831937 170.888869 
L 508.436414 178.541546 
L 507.04089 189.406794 
L 505.645367 200.595221 
L 504.249844 214.699399 
L 502.85432 222.942341 
L 501.458797 228.366915 
L 500.063274 233.84005 
L 498.66775 239.506261 
L 497.272227 242.554322 
L 495.876704 245.328933 
L 494.48118 248.11588 
L 493.085657 253.727557 
L 491.690134 262.520514 
L 490.29461 262.334449 
L 488.899087 262.240702 
L 487.503564 262.146566 
L 486.108041 261.957126 
L 484.712517 264.839766 
L 483.316994 267.735651 
L 481.921471 267.653071 
L 480.525947 264.661362 
L 479.130424 264.571511 
L 477.734901 264.48127 
L 476.339377 267.403253 
L 474.943854 261.181445 
L 473.548331 267.234717 
L 472.152807 267.1498 
L 470.757284 263.930996 
L 469.361761 260.580402 
L 467.966237 260.478476 
L 466.570714 260.376159 
L 465.175191 263.460316 
L 463.779667 263.460316 
L 462.384144 260.170099 
L 460.988621 253.614854 
L 459.593097 246.964304 
L 458.197574 243.383238 
L 456.802051 240.061469 
L 455.406527 239.905918 
L 454.011004 236.228379 
L 452.615481 239.116213 
L 451.219957 235.556832 
L 449.824434 228.51961 
L 448.428911 221.582887 
L 447.033388 218.088167 
L 445.637864 217.653193 
L 444.242341 220.534665 
L 442.846818 223.445612 
L 441.451294 222.823016 
L 440.055771 222.613319 
L 438.660248 218.800485 
L 437.264724 225.376764 
L 435.869201 228.579468 
L 434.473678 224.549406 
L 433.078154 223.917461 
L 431.682631 223.490408 
L 430.287108 223.275128 
L 428.891584 226.558594 
L 427.496061 226.141279 
L 426.100538 225.71942 
L 424.705014 228.85032 
L 423.309491 228.645038 
L 421.913968 228.231229 
L 420.518444 224.205972 
L 419.122921 223.984979 
L 417.727398 231.016488 
L 416.331874 234.256196 
L 414.936351 237.718585 
L 413.540828 237.53252 
L 412.145304 237.345547 
L 410.749781 240.846109 
L 409.354258 240.487873 
L 407.958735 240.125352 
L 406.563211 239.942533 
L 405.167688 243.511393 
L 403.772165 247.100898 
L 402.376641 246.936777 
L 400.981118 246.771747 
L 399.585595 250.402282 
L 398.190071 250.246471 
L 396.794548 254.054112 
L 395.399025 257.861883 
L 394.003501 257.727495 
L 392.607978 257.456254 
L 391.212455 261.172485 
L 389.816931 261.046278 
L 388.421408 260.919422 
L 387.025885 260.791786 
L 385.630361 260.663372 
L 384.234838 256.481394 
L 382.839315 256.338826 
L 381.443791 256.19522 
L 380.048268 260.273454 
L 378.652745 256.19522 
L 377.257221 260.141793 
L 375.861698 263.968131 
L 374.466175 263.847118 
L 373.070651 267.817842 
L 371.675128 271.788565 
L 370.279605 275.759289 
L 368.884082 279.730013 
L 367.488558 283.63984 
L 366.093035 287.622769 
L 364.697512 291.605568 
L 363.301988 283.578554 
L 361.906465 287.573688 
L 360.510942 283.516879 
L 359.115418 283.454814 
L 357.719895 283.392359 
L 356.324372 287.474748 
L 354.928848 287.474748 
L 353.533325 283.392359 
L 352.137802 283.392359 
L 350.742278 287.424758 
L 349.346755 283.329645 
L 347.951232 283.329645 
L 346.555708 287.374509 
L 345.160185 287.374509 
L 343.764662 287.324 
L 342.369138 287.273102 
L 340.973615 291.343415 
L 339.578092 283.138776 
L 338.182568 283.138776 
L 336.787045 283.074374 
L 335.391522 283.074374 
L 333.995998 278.900706 
L 332.600475 278.822411 
L 331.204952 278.822411 
L 329.809429 283.009583 
L 328.413905 283.009583 
L 327.018382 287.118589 
L 325.622859 287.066392 
L 324.227335 282.878701 
L 322.831812 287.013806 
L 321.436289 287.013806 
L 320.040765 291.14904 
L 318.645242 286.96096 
L 317.249719 291.109308 
L 315.854195 291.069447 
L 314.458672 291.069447 
L 313.063149 286.907854 
L 311.667625 286.907854 
L 310.272102 286.907854 
L 308.876579 286.854359 
L 307.481055 286.800474 
L 306.085532 286.800474 
L 304.690009 282.544226 
L 303.294485 282.544226 
L 301.898962 286.7462 
L 300.503439 282.475929 
L 299.107915 286.691666 
L 297.712392 286.691666 
L 296.316869 286.691666 
L 294.921346 286.691666 
L 293.525822 286.691666 
L 292.130299 282.338165 
L 290.734776 286.581429 
L 289.339252 286.581429 
L 287.943729 290.824693 
L 286.548206 290.824693 
L 285.152682 290.824693 
L 283.757159 295.067957 
L 282.361636 295.067957 
L 280.966112 290.782884 
L 279.570589 290.782884 
L 278.175066 290.782884 
L 276.779542 290.782884 
L 275.384019 290.698616 
L 273.988496 286.356671 
L 272.592972 286.356671 
L 271.197449 281.985772 
L 269.801926 281.985772 
L 268.406402 277.585788 
L 267.010879 277.585788 
L 265.615356 273.15633 
L 264.219832 277.498923 
L 262.824309 277.498923 
L 261.428786 277.498923 
L 260.033262 268.579889 
L 258.637739 272.848342 
L 257.242216 277.234823 
L 255.846693 277.234823 
L 254.451169 277.145621 
L 253.055646 277.145621 
L 251.660123 281.547033 
L 250.264599 281.547033 
L 248.869076 281.472244 
L 247.473553 281.472244 
L 246.078029 281.472244 
L 244.682506 281.472244 
L 243.286983 281.320977 
L 241.891459 281.244629 
L 240.495936 276.690262 
L 239.100413 272.104473 
L 237.704889 276.597424 
L 236.309366 271.995275 
L 234.913843 271.995275 
L 233.518319 267.361184 
L 232.122796 262.551416 
L 230.727273 262.551416 
z
" style="fill:#1f77b4;"/>
   </g>
   <g id="matplotlib.axis_1">
    <g id="xtick_1">
     <g id="line2d_1">
      <defs>
       <path d="M 0 0 
L 0 3.5 
" id="m7ba0a43399" style="stroke:#000000;stroke-width:0.8;"/>
      </defs>
      <g>
       <use style="stroke:#000000;stroke-width:0.8;" x="230.727273" xlink:href="#m7ba0a43399" y="315"/>
      </g>
     </g>
     <g id="text_1">
      <!-- 0 -->
      <defs>
       <path d="M 31.78125 66.40625 
Q 24.171875 66.40625 20.328125 58.90625 
Q 16.5 51.421875 16.5 36.375 
Q 16.5 21.390625 20.328125 13.890625 
Q 24.171875 6.390625 31.78125 6.390625 
Q 39.453125 6.390625 43.28125 13.890625 
Q 47.125 21.390625 47.125 36.375 
Q 47.125 51.421875 43.28125 58.90625 
Q 39.453125 66.40625 31.78125 66.40625 
z
M 31.78125 74.21875 
Q 44.046875 74.21875 50.515625 64.515625 
Q 56.984375 54.828125 56.984375 36.375 
Q 56.984375 17.96875 50.515625 8.265625 
Q 44.046875 -1.421875 31.78125 -1.421875 
Q 19.53125 -1.421875 13.0625 8.265625 
Q 6.59375 17.96875 6.59375 36.375 
Q 6.59375 54.828125 13.0625 64.515625 
Q 19.53125 74.21875 31.78125 74.21875 
z
" id="DejaVuSans-30"/>
      </defs>
      <g transform="translate(227.546023 329.598437)scale(0.1 -0.1)">
       <use xlink:href="#DejaVuSans-30"/>
      </g>
     </g>
    </g>
    <g id="xtick_2">
     <g id="line2d_2">
      <g>
       <use style="stroke:#000000;stroke-width:0.8;" x="370.279605" xlink:href="#m7ba0a43399" y="315"/>
      </g>
     </g>
     <g id="text_2">
      <!-- 100 -->
      <defs>
       <path d="M 12.40625 8.296875 
L 28.515625 8.296875 
L 28.515625 63.921875 
L 10.984375 60.40625 
L 10.984375 69.390625 
L 28.421875 72.90625 
L 38.28125 72.90625 
L 38.28125 8.296875 
L 54.390625 8.296875 
L 54.390625 0 
L 12.40625 0 
z
" id="DejaVuSans-31"/>
      </defs>
      <g transform="translate(360.735855 329.598437)scale(0.1 -0.1)">
       <use xlink:href="#DejaVuSans-31"/>
       <use x="63.623047" xlink:href="#DejaVuSans-30"/>
       <use x="127.246094" xlink:href="#DejaVuSans-30"/>
      </g>
     </g>
    </g>
    <g id="xtick_3">
     <g id="line2d_3">
      <g>
       <use style="stroke:#000000;stroke-width:0.8;" x="509.831937" xlink:href="#m7ba0a43399" y="315"/>
      </g>
     </g>
     <g id="text_3">
      <!-- 200 -->
      <defs>
       <path d="M 19.1875 8.296875 
L 53.609375 8.296875 
L 53.609375 0 
L 7.328125 0 
L 7.328125 8.296875 
Q 12.9375 14.109375 22.625 23.890625 
Q 32.328125 33.6875 34.8125 36.53125 
Q 39.546875 41.84375 41.421875 45.53125 
Q 43.3125 49.21875 43.3125 52.78125 
Q 43.3125 58.59375 39.234375 62.25 
Q 35.15625 65.921875 28.609375 65.921875 
Q 23.96875 65.921875 18.8125 64.3125 
Q 13.671875 62.703125 7.8125 59.421875 
L 7.8125 69.390625 
Q 13.765625 71.78125 18.9375 73 
Q 24.125 74.21875 28.421875 74.21875 
Q 39.75 74.21875 46.484375 68.546875 
Q 53.21875 62.890625 53.21875 53.421875 
Q 53.21875 48.921875 51.53125 44.890625 
Q 49.859375 40.875 45.40625 35.40625 
Q 44.1875 33.984375 37.640625 27.21875 
Q 31.109375 20.453125 19.1875 8.296875 
z
" id="DejaVuSans-32"/>
      </defs>
      <g transform="translate(500.288187 329.598437)scale(0.1 -0.1)">
       <use xlink:href="#DejaVuSans-32"/>
       <use x="63.623047" xlink:href="#DejaVuSans-30"/>
       <use x="127.246094" xlink:href="#DejaVuSans-30"/>
      </g>
     </g>
    </g>
    <g id="xtick_4">
     <g id="line2d_4">
      <g>
       <use style="stroke:#000000;stroke-width:0.8;" x="649.384269" xlink:href="#m7ba0a43399" y="315"/>
      </g>
     </g>
     <g id="text_4">
      <!-- 300 -->
      <defs>
       <path d="M 40.578125 39.3125 
Q 47.65625 37.796875 51.625 33 
Q 55.609375 28.21875 55.609375 21.1875 
Q 55.609375 10.40625 48.1875 4.484375 
Q 40.765625 -1.421875 27.09375 -1.421875 
Q 22.515625 -1.421875 17.65625 -0.515625 
Q 12.796875 0.390625 7.625 2.203125 
L 7.625 11.71875 
Q 11.71875 9.328125 16.59375 8.109375 
Q 21.484375 6.890625 26.8125 6.890625 
Q 36.078125 6.890625 40.9375 10.546875 
Q 45.796875 14.203125 45.796875 21.1875 
Q 45.796875 27.640625 41.28125 31.265625 
Q 36.765625 34.90625 28.71875 34.90625 
L 20.21875 34.90625 
L 20.21875 43.015625 
L 29.109375 43.015625 
Q 36.375 43.015625 40.234375 45.921875 
Q 44.09375 48.828125 44.09375 54.296875 
Q 44.09375 59.90625 40.109375 62.90625 
Q 36.140625 65.921875 28.71875 65.921875 
Q 24.65625 65.921875 20.015625 65.03125 
Q 15.375 64.15625 9.8125 62.3125 
L 9.8125 71.09375 
Q 15.4375 72.65625 20.34375 73.4375 
Q 25.25 74.21875 29.59375 74.21875 
Q 40.828125 74.21875 47.359375 69.109375 
Q 53.90625 64.015625 53.90625 55.328125 
Q 53.90625 49.265625 50.4375 45.09375 
Q 46.96875 40.921875 40.578125 39.3125 
z
" id="DejaVuSans-33"/>
      </defs>
      <g transform="translate(639.840519 329.598437)scale(0.1 -0.1)">
       <use xlink:href="#DejaVuSans-33"/>
       <use x="63.623047" xlink:href="#DejaVuSans-30"/>
       <use x="127.246094" xlink:href="#DejaVuSans-30"/>
      </g>
     </g>
    </g>
    <g id="xtick_5">
     <g id="line2d_5">
      <g>
       <use style="stroke:#000000;stroke-width:0.8;" x="788.936601" xlink:href="#m7ba0a43399" y="315"/>
      </g>
     </g>
     <g id="text_5">
      <!-- 400 -->
      <defs>
       <path d="M 37.796875 64.3125 
L 12.890625 25.390625 
L 37.796875 25.390625 
z
M 35.203125 72.90625 
L 47.609375 72.90625 
L 47.609375 25.390625 
L 58.015625 25.390625 
L 58.015625 17.1875 
L 47.609375 17.1875 
L 47.609375 0 
L 37.796875 0 
L 37.796875 17.1875 
L 4.890625 17.1875 
L 4.890625 26.703125 
z
" id="DejaVuSans-34"/>
      </defs>
      <g transform="translate(779.392851 329.598437)scale(0.1 -0.1)">
       <use xlink:href="#DejaVuSans-34"/>
       <use x="63.623047" xlink:href="#DejaVuSans-30"/>
       <use x="127.246094" xlink:href="#DejaVuSans-30"/>
      </g>
     </g>
    </g>
    <g id="xtick_6">
     <g id="line2d_6">
      <g>
       <use style="stroke:#000000;stroke-width:0.8;" x="928.488933" xlink:href="#m7ba0a43399" y="315"/>
      </g>
     </g>
     <g id="text_6">
      <!-- 500 -->
      <defs>
       <path d="M 10.796875 72.90625 
L 49.515625 72.90625 
L 49.515625 64.59375 
L 19.828125 64.59375 
L 19.828125 46.734375 
Q 21.96875 47.46875 24.109375 47.828125 
Q 26.265625 48.1875 28.421875 48.1875 
Q 40.625 48.1875 47.75 41.5 
Q 54.890625 34.8125 54.890625 23.390625 
Q 54.890625 11.625 47.5625 5.09375 
Q 40.234375 -1.421875 26.90625 -1.421875 
Q 22.3125 -1.421875 17.546875 -0.640625 
Q 12.796875 0.140625 7.71875 1.703125 
L 7.71875 11.625 
Q 12.109375 9.234375 16.796875 8.0625 
Q 21.484375 6.890625 26.703125 6.890625 
Q 35.15625 6.890625 40.078125 11.328125 
Q 45.015625 15.765625 45.015625 23.390625 
Q 45.015625 31 40.078125 35.4375 
Q 35.15625 39.890625 26.703125 39.890625 
Q 22.75 39.890625 18.8125 39.015625 
Q 14.890625 38.140625 10.796875 36.28125 
z
" id="DejaVuSans-35"/>
      </defs>
      <g transform="translate(918.945183 329.598437)scale(0.1 -0.1)">
       <use xlink:href="#DejaVuSans-35"/>
       <use x="63.623047" xlink:href="#DejaVuSans-30"/>
       <use x="127.246094" xlink:href="#DejaVuSans-30"/>
      </g>
     </g>
    </g>
    <g id="xtick_7">
     <g id="line2d_7">
      <g>
       <use style="stroke:#000000;stroke-width:0.8;" x="1068.041265" xlink:href="#m7ba0a43399" y="315"/>
      </g>
     </g>
     <g id="text_7">
      <!-- 600 -->
      <defs>
       <path d="M 33.015625 40.375 
Q 26.375 40.375 22.484375 35.828125 
Q 18.609375 31.296875 18.609375 23.390625 
Q 18.609375 15.53125 22.484375 10.953125 
Q 26.375 6.390625 33.015625 6.390625 
Q 39.65625 6.390625 43.53125 10.953125 
Q 47.40625 15.53125 47.40625 23.390625 
Q 47.40625 31.296875 43.53125 35.828125 
Q 39.65625 40.375 33.015625 40.375 
z
M 52.59375 71.296875 
L 52.59375 62.3125 
Q 48.875 64.0625 45.09375 64.984375 
Q 41.3125 65.921875 37.59375 65.921875 
Q 27.828125 65.921875 22.671875 59.328125 
Q 17.53125 52.734375 16.796875 39.40625 
Q 19.671875 43.65625 24.015625 45.921875 
Q 28.375 48.1875 33.59375 48.1875 
Q 44.578125 48.1875 50.953125 41.515625 
Q 57.328125 34.859375 57.328125 23.390625 
Q 57.328125 12.15625 50.6875 5.359375 
Q 44.046875 -1.421875 33.015625 -1.421875 
Q 20.359375 -1.421875 13.671875 8.265625 
Q 6.984375 17.96875 6.984375 36.375 
Q 6.984375 53.65625 15.1875 63.9375 
Q 23.390625 74.21875 37.203125 74.21875 
Q 40.921875 74.21875 44.703125 73.484375 
Q 48.484375 72.75 52.59375 71.296875 
z
" id="DejaVuSans-36"/>
      </defs>
      <g transform="translate(1058.497515 329.598437)scale(0.1 -0.1)">
       <use xlink:href="#DejaVuSans-36"/>
       <use x="63.623047" xlink:href="#DejaVuSans-30"/>
       <use x="127.246094" xlink:href="#DejaVuSans-30"/>
      </g>
     </g>
    </g>
    <g id="xtick_8">
     <g id="line2d_8">
      <g>
       <use style="stroke:#000000;stroke-width:0.8;" x="1207.593598" xlink:href="#m7ba0a43399" y="315"/>
      </g>
     </g>
     <g id="text_8">
      <!-- 700 -->
      <defs>
       <path d="M 8.203125 72.90625 
L 55.078125 72.90625 
L 55.078125 68.703125 
L 28.609375 0 
L 18.3125 0 
L 43.21875 64.59375 
L 8.203125 64.59375 
z
" id="DejaVuSans-37"/>
      </defs>
      <g transform="translate(1198.049848 329.598437)scale(0.1 -0.1)">
       <use xlink:href="#DejaVuSans-37"/>
       <use x="63.623047" xlink:href="#DejaVuSans-30"/>
       <use x="127.246094" xlink:href="#DejaVuSans-30"/>
      </g>
     </g>
    </g>
   </g>
   <g id="matplotlib.axis_2">
    <g id="ytick_1">
     <g id="line2d_9">
      <defs>
       <path d="M 0 0 
L -3.5 0 
" id="mccd17e248f" style="stroke:#000000;stroke-width:0.8;"/>
      </defs>
      <g>
       <use style="stroke:#000000;stroke-width:0.8;" x="180" xlink:href="#mccd17e248f" y="303.554354"/>
      </g>
     </g>
     <g id="text_9">
      <!-- 0.0 -->
      <defs>
       <path d="M 10.6875 12.40625 
L 21 12.40625 
L 21 0 
L 10.6875 0 
z
" id="DejaVuSans-2e"/>
      </defs>
      <g transform="translate(157.096875 307.353573)scale(0.1 -0.1)">
       <use xlink:href="#DejaVuSans-30"/>
       <use x="63.623047" xlink:href="#DejaVuSans-2e"/>
       <use x="95.410156" xlink:href="#DejaVuSans-30"/>
      </g>
     </g>
    </g>
    <g id="ytick_2">
     <g id="line2d_10">
      <g>
       <use style="stroke:#000000;stroke-width:0.8;" x="180" xlink:href="#mccd17e248f" y="271.093646"/>
      </g>
     </g>
     <g id="text_10">
      <!-- 2.5 -->
      <g transform="translate(157.096875 274.892865)scale(0.1 -0.1)">
       <use xlink:href="#DejaVuSans-32"/>
       <use x="63.623047" xlink:href="#DejaVuSans-2e"/>
       <use x="95.410156" xlink:href="#DejaVuSans-35"/>
      </g>
     </g>
    </g>
    <g id="ytick_3">
     <g id="line2d_11">
      <g>
       <use style="stroke:#000000;stroke-width:0.8;" x="180" xlink:href="#mccd17e248f" y="238.632938"/>
      </g>
     </g>
     <g id="text_11">
      <!-- 5.0 -->
      <g transform="translate(157.096875 242.432157)scale(0.1 -0.1)">
       <use xlink:href="#DejaVuSans-35"/>
       <use x="63.623047" xlink:href="#DejaVuSans-2e"/>
       <use x="95.410156" xlink:href="#DejaVuSans-30"/>
      </g>
     </g>
    </g>
    <g id="ytick_4">
     <g id="line2d_12">
      <g>
       <use style="stroke:#000000;stroke-width:0.8;" x="180" xlink:href="#mccd17e248f" y="206.17223"/>
      </g>
     </g>
     <g id="text_12">
      <!-- 7.5 -->
      <g transform="translate(157.096875 209.971449)scale(0.1 -0.1)">
       <use xlink:href="#DejaVuSans-37"/>
       <use x="63.623047" xlink:href="#DejaVuSans-2e"/>
       <use x="95.410156" xlink:href="#DejaVuSans-35"/>
      </g>
     </g>
    </g>
    <g id="ytick_5">
     <g id="line2d_13">
      <g>
       <use style="stroke:#000000;stroke-width:0.8;" x="180" xlink:href="#mccd17e248f" y="173.711522"/>
      </g>
     </g>
     <g id="text_13">
      <!-- 10.0 -->
      <g transform="translate(150.734375 177.510741)scale(0.1 -0.1)">
       <use xlink:href="#DejaVuSans-31"/>
       <use x="63.623047" xlink:href="#DejaVuSans-30"/>
       <use x="127.246094" xlink:href="#DejaVuSans-2e"/>
       <use x="159.033203" xlink:href="#DejaVuSans-30"/>
      </g>
     </g>
    </g>
    <g id="ytick_6">
     <g id="line2d_14">
      <g>
       <use style="stroke:#000000;stroke-width:0.8;" x="180" xlink:href="#mccd17e248f" y="141.250815"/>
      </g>
     </g>
     <g id="text_14">
      <!-- 12.5 -->
      <g transform="translate(150.734375 145.050033)scale(0.1 -0.1)">
       <use xlink:href="#DejaVuSans-31"/>
       <use x="63.623047" xlink:href="#DejaVuSans-32"/>
       <use x="127.246094" xlink:href="#DejaVuSans-2e"/>
       <use x="159.033203" xlink:href="#DejaVuSans-35"/>
      </g>
     </g>
    </g>
    <g id="ytick_7">
     <g id="line2d_15">
      <g>
       <use style="stroke:#000000;stroke-width:0.8;" x="180" xlink:href="#mccd17e248f" y="108.790107"/>
      </g>
     </g>
     <g id="text_15">
      <!-- 15.0 -->
      <g transform="translate(150.734375 112.589325)scale(0.1 -0.1)">
       <use xlink:href="#DejaVuSans-31"/>
       <use x="63.623047" xlink:href="#DejaVuSans-35"/>
       <use x="127.246094" xlink:href="#DejaVuSans-2e"/>
       <use x="159.033203" xlink:href="#DejaVuSans-30"/>
      </g>
     </g>
    </g>
    <g id="ytick_8">
     <g id="line2d_16">
      <g>
       <use style="stroke:#000000;stroke-width:0.8;" x="180" xlink:href="#mccd17e248f" y="76.329399"/>
      </g>
     </g>
     <g id="text_16">
      <!-- 17.5 -->
      <g transform="translate(150.734375 80.128617)scale(0.1 -0.1)">
       <use xlink:href="#DejaVuSans-31"/>
       <use x="63.623047" xlink:href="#DejaVuSans-37"/>
       <use x="127.246094" xlink:href="#DejaVuSans-2e"/>
       <use x="159.033203" xlink:href="#DejaVuSans-35"/>
      </g>
     </g>
    </g>
    <g id="ytick_9">
     <g id="line2d_17">
      <g>
       <use style="stroke:#000000;stroke-width:0.8;" x="180" xlink:href="#mccd17e248f" y="43.868691"/>
      </g>
     </g>
     <g id="text_17">
      <!-- 20.0 -->
      <g transform="translate(150.734375 47.667909)scale(0.1 -0.1)">
       <use xlink:href="#DejaVuSans-32"/>
       <use x="63.623047" xlink:href="#DejaVuSans-30"/>
       <use x="127.246094" xlink:href="#DejaVuSans-2e"/>
       <use x="159.033203" xlink:href="#DejaVuSans-30"/>
      </g>
     </g>
    </g>
   </g>
   <g id="patch_3">
    <path d="M 180 315 
L 180 43.2 
" style="fill:none;stroke:#000000;stroke-linecap:square;stroke-linejoin:miter;stroke-width:0.8;"/>
   </g>
   <g id="patch_4">
    <path d="M 1296 315 
L 1296 43.2 
" style="fill:none;stroke:#000000;stroke-linecap:square;stroke-linejoin:miter;stroke-width:0.8;"/>
   </g>
   <g id="patch_5">
    <path d="M 180 315 
L 1296 315 
" style="fill:none;stroke:#000000;stroke-linecap:square;stroke-linejoin:miter;stroke-width:0.8;"/>
   </g>
   <g id="patch_6">
    <path d="M 180 43.2 
L 1296 43.2 
" style="fill:none;stroke:#000000;stroke-linecap:square;stroke-linejoin:miter;stroke-width:0.8;"/>
   </g>
  </g>
 </g>
 <defs>
  <clipPath id="p9d95602c1e">
   <rect height="271.8" width="1116" x="180" y="43.2"/>
  </clipPath>
 </defs>
</svg>
