<?xml version="1.0" encoding="utf-8" standalone="no"?>
<!DOCTYPE svg PUBLIC "-//W3C//DTD SVG 1.1//EN"
  "http://www.w3.org/Graphics/SVG/1.1/DTD/svg11.dtd">
<!-- Created with matplotlib (http://matplotlib.org/) -->
<svg height="720pt" version="1.1" viewBox="0 0 720 720" width="720pt" xmlns="http://www.w3.org/2000/svg" xmlns:xlink="http://www.w3.org/1999/xlink">
 <defs>
  <style type="text/css">
*{stroke-linecap:butt;stroke-linejoin:round;}
  </style>
 </defs>
 <g id="figure_1">
  <g id="patch_1">
   <path d="M 0 720 
L 720 720 
L 720 0 
L 0 0 
z
" style="fill:#ffffff;"/>
  </g>
  <g id="axes_1">
   <g id="patch_2">
    <path d="M 90 630 
L 648 630 
L 648 86.4 
L 90 86.4 
z
" style="fill:#ffffff;"/>
   </g>
   <g id="matplotlib.axis_1">
    <g id="xtick_1">
     <g id="line2d_1">
      <defs>
       <path d="M 0 0 
L 0 3.5 
" id="m92159a514b" style="stroke:#000000;stroke-width:0.8;"/>
      </defs>
      <g>
       <use style="stroke:#000000;stroke-width:0.8;" x="115.363636" xlink:href="#m92159a514b" y="630"/>
      </g>
     </g>
     <g id="text_1">
      <!-- 1970 -->
      <defs>
       <path d="M 12.40625 8.296875 
L 28.515625 8.296875 
L 28.515625 63.921875 
L 10.984375 60.40625 
L 10.984375 69.390625 
L 28.421875 72.90625 
L 38.28125 72.90625 
L 38.28125 8.296875 
L 54.390625 8.296875 
L 54.390625 0 
L 12.40625 0 
z
" id="DejaVuSans-31"/>
       <path d="M 10.984375 1.515625 
L 10.984375 10.5 
Q 14.703125 8.734375 18.5 7.8125 
Q 22.3125 6.890625 25.984375 6.890625 
Q 35.75 6.890625 40.890625 13.453125 
Q 46.046875 20.015625 46.78125 33.40625 
Q 43.953125 29.203125 39.59375 26.953125 
Q 35.25 24.703125 29.984375 24.703125 
Q 19.046875 24.703125 12.671875 31.3125 
Q 6.296875 37.9375 6.296875 49.421875 
Q 6.296875 60.640625 12.9375 67.421875 
Q 19.578125 74.21875 30.609375 74.21875 
Q 43.265625 74.21875 49.921875 64.515625 
Q 56.59375 54.828125 56.59375 36.375 
Q 56.59375 19.140625 48.40625 8.859375 
Q 40.234375 -1.421875 26.421875 -1.421875 
Q 22.703125 -1.421875 18.890625 -0.6875 
Q 15.09375 0.046875 10.984375 1.515625 
z
M 30.609375 32.421875 
Q 37.25 32.421875 41.125 36.953125 
Q 45.015625 41.5 45.015625 49.421875 
Q 45.015625 57.28125 41.125 61.84375 
Q 37.25 66.40625 30.609375 66.40625 
Q 23.96875 66.40625 20.09375 61.84375 
Q 16.21875 57.28125 16.21875 49.421875 
Q 16.21875 41.5 20.09375 36.953125 
Q 23.96875 32.421875 30.609375 32.421875 
z
" id="DejaVuSans-39"/>
       <path d="M 8.203125 72.90625 
L 55.078125 72.90625 
L 55.078125 68.703125 
L 28.609375 0 
L 18.3125 0 
L 43.21875 64.59375 
L 8.203125 64.59375 
z
" id="DejaVuSans-37"/>
       <path d="M 31.78125 66.40625 
Q 24.171875 66.40625 20.328125 58.90625 
Q 16.5 51.421875 16.5 36.375 
Q 16.5 21.390625 20.328125 13.890625 
Q 24.171875 6.390625 31.78125 6.390625 
Q 39.453125 6.390625 43.28125 13.890625 
Q 47.125 21.390625 47.125 36.375 
Q 47.125 51.421875 43.28125 58.90625 
Q 39.453125 66.40625 31.78125 66.40625 
z
M 31.78125 74.21875 
Q 44.046875 74.21875 50.515625 64.515625 
Q 56.984375 54.828125 56.984375 36.375 
Q 56.984375 17.96875 50.515625 8.265625 
Q 44.046875 -1.421875 31.78125 -1.421875 
Q 19.53125 -1.421875 13.0625 8.265625 
Q 6.59375 17.96875 6.59375 36.375 
Q 6.59375 54.828125 13.0625 64.515625 
Q 19.53125 74.21875 31.78125 74.21875 
z
" id="DejaVuSans-30"/>
      </defs>
      <g transform="translate(102.638636 644.598438)scale(0.1 -0.1)">
       <use xlink:href="#DejaVuSans-31"/>
       <use x="63.623047" xlink:href="#DejaVuSans-39"/>
       <use x="127.246094" xlink:href="#DejaVuSans-37"/>
       <use x="190.869141" xlink:href="#DejaVuSans-30"/>
      </g>
     </g>
    </g>
    <g id="xtick_2">
     <g id="line2d_2">
      <g>
       <use style="stroke:#000000;stroke-width:0.8;" x="219.586421" xlink:href="#m92159a514b" y="630"/>
      </g>
     </g>
     <g id="text_2">
      <!-- 1980 -->
      <defs>
       <path d="M 31.78125 34.625 
Q 24.75 34.625 20.71875 30.859375 
Q 16.703125 27.09375 16.703125 20.515625 
Q 16.703125 13.921875 20.71875 10.15625 
Q 24.75 6.390625 31.78125 6.390625 
Q 38.8125 6.390625 42.859375 10.171875 
Q 46.921875 13.96875 46.921875 20.515625 
Q 46.921875 27.09375 42.890625 30.859375 
Q 38.875 34.625 31.78125 34.625 
z
M 21.921875 38.8125 
Q 15.578125 40.375 12.03125 44.71875 
Q 8.5 49.078125 8.5 55.328125 
Q 8.5 64.0625 14.71875 69.140625 
Q 20.953125 74.21875 31.78125 74.21875 
Q 42.671875 74.21875 48.875 69.140625 
Q 55.078125 64.0625 55.078125 55.328125 
Q 55.078125 49.078125 51.53125 44.71875 
Q 48 40.375 41.703125 38.8125 
Q 48.828125 37.15625 52.796875 32.3125 
Q 56.78125 27.484375 56.78125 20.515625 
Q 56.78125 9.90625 50.3125 4.234375 
Q 43.84375 -1.421875 31.78125 -1.421875 
Q 19.734375 -1.421875 13.25 4.234375 
Q 6.78125 9.90625 6.78125 20.515625 
Q 6.78125 27.484375 10.78125 32.3125 
Q 14.796875 37.15625 21.921875 38.8125 
z
M 18.3125 54.390625 
Q 18.3125 48.734375 21.84375 45.5625 
Q 25.390625 42.390625 31.78125 42.390625 
Q 38.140625 42.390625 41.71875 45.5625 
Q 45.3125 48.734375 45.3125 54.390625 
Q 45.3125 60.0625 41.71875 63.234375 
Q 38.140625 66.40625 31.78125 66.40625 
Q 25.390625 66.40625 21.84375 63.234375 
Q 18.3125 60.0625 18.3125 54.390625 
z
" id="DejaVuSans-38"/>
      </defs>
      <g transform="translate(206.861421 644.598438)scale(0.1 -0.1)">
       <use xlink:href="#DejaVuSans-31"/>
       <use x="63.623047" xlink:href="#DejaVuSans-39"/>
       <use x="127.246094" xlink:href="#DejaVuSans-38"/>
       <use x="190.869141" xlink:href="#DejaVuSans-30"/>
      </g>
     </g>
    </g>
    <g id="xtick_3">
     <g id="line2d_3">
      <g>
       <use style="stroke:#000000;stroke-width:0.8;" x="323.837745" xlink:href="#m92159a514b" y="630"/>
      </g>
     </g>
     <g id="text_3">
      <!-- 1990 -->
      <g transform="translate(311.112745 644.598438)scale(0.1 -0.1)">
       <use xlink:href="#DejaVuSans-31"/>
       <use x="63.623047" xlink:href="#DejaVuSans-39"/>
       <use x="127.246094" xlink:href="#DejaVuSans-39"/>
       <use x="190.869141" xlink:href="#DejaVuSans-30"/>
      </g>
     </g>
    </g>
    <g id="xtick_4">
     <g id="line2d_4">
      <g>
       <use style="stroke:#000000;stroke-width:0.8;" x="428.060529" xlink:href="#m92159a514b" y="630"/>
      </g>
     </g>
     <g id="text_4">
      <!-- 2000 -->
      <defs>
       <path d="M 19.1875 8.296875 
L 53.609375 8.296875 
L 53.609375 0 
L 7.328125 0 
L 7.328125 8.296875 
Q 12.9375 14.109375 22.625 23.890625 
Q 32.328125 33.6875 34.8125 36.53125 
Q 39.546875 41.84375 41.421875 45.53125 
Q 43.3125 49.21875 43.3125 52.78125 
Q 43.3125 58.59375 39.234375 62.25 
Q 35.15625 65.921875 28.609375 65.921875 
Q 23.96875 65.921875 18.8125 64.3125 
Q 13.671875 62.703125 7.8125 59.421875 
L 7.8125 69.390625 
Q 13.765625 71.78125 18.9375 73 
Q 24.125 74.21875 28.421875 74.21875 
Q 39.75 74.21875 46.484375 68.546875 
Q 53.21875 62.890625 53.21875 53.421875 
Q 53.21875 48.921875 51.53125 44.890625 
Q 49.859375 40.875 45.40625 35.40625 
Q 44.1875 33.984375 37.640625 27.21875 
Q 31.109375 20.453125 19.1875 8.296875 
z
" id="DejaVuSans-32"/>
      </defs>
      <g transform="translate(415.335529 644.598438)scale(0.1 -0.1)">
       <use xlink:href="#DejaVuSans-32"/>
       <use x="63.623047" xlink:href="#DejaVuSans-30"/>
       <use x="127.246094" xlink:href="#DejaVuSans-30"/>
       <use x="190.869141" xlink:href="#DejaVuSans-30"/>
      </g>
     </g>
    </g>
    <g id="xtick_5">
     <g id="line2d_5">
      <g>
       <use style="stroke:#000000;stroke-width:0.8;" x="532.311853" xlink:href="#m92159a514b" y="630"/>
      </g>
     </g>
     <g id="text_5">
      <!-- 2010 -->
      <g transform="translate(519.586853 644.598438)scale(0.1 -0.1)">
       <use xlink:href="#DejaVuSans-32"/>
       <use x="63.623047" xlink:href="#DejaVuSans-30"/>
       <use x="127.246094" xlink:href="#DejaVuSans-31"/>
       <use x="190.869141" xlink:href="#DejaVuSans-30"/>
      </g>
     </g>
    </g>
    <g id="xtick_6">
     <g id="line2d_6">
      <g>
       <use style="stroke:#000000;stroke-width:0.8;" x="636.534638" xlink:href="#m92159a514b" y="630"/>
      </g>
     </g>
     <g id="text_6">
      <!-- 2020 -->
      <g transform="translate(623.809638 644.598438)scale(0.1 -0.1)">
       <use xlink:href="#DejaVuSans-32"/>
       <use x="63.623047" xlink:href="#DejaVuSans-30"/>
       <use x="127.246094" xlink:href="#DejaVuSans-32"/>
       <use x="190.869141" xlink:href="#DejaVuSans-30"/>
      </g>
     </g>
    </g>
   </g>
   <g id="matplotlib.axis_2">
    <g id="ytick_1">
     <g id="line2d_7">
      <defs>
       <path d="M 0 0 
L -3.5 0 
" id="maeac56d16b" style="stroke:#000000;stroke-width:0.8;"/>
      </defs>
      <g>
       <use style="stroke:#000000;stroke-width:0.8;" x="90" xlink:href="#maeac56d16b" y="607.108709"/>
      </g>
     </g>
     <g id="text_7">
      <!-- 0.0 -->
      <defs>
       <path d="M 10.6875 12.40625 
L 21 12.40625 
L 21 0 
L 10.6875 0 
z
" id="DejaVuSans-2e"/>
      </defs>
      <g transform="translate(67.096875 610.907927)scale(0.1 -0.1)">
       <use xlink:href="#DejaVuSans-30"/>
       <use x="63.623047" xlink:href="#DejaVuSans-2e"/>
       <use x="95.410156" xlink:href="#DejaVuSans-30"/>
      </g>
     </g>
    </g>
    <g id="ytick_2">
     <g id="line2d_8">
      <g>
       <use style="stroke:#000000;stroke-width:0.8;" x="90" xlink:href="#maeac56d16b" y="542.187293"/>
      </g>
     </g>
     <g id="text_8">
      <!-- 2.5 -->
      <defs>
       <path d="M 10.796875 72.90625 
L 49.515625 72.90625 
L 49.515625 64.59375 
L 19.828125 64.59375 
L 19.828125 46.734375 
Q 21.96875 47.46875 24.109375 47.828125 
Q 26.265625 48.1875 28.421875 48.1875 
Q 40.625 48.1875 47.75 41.5 
Q 54.890625 34.8125 54.890625 23.390625 
Q 54.890625 11.625 47.5625 5.09375 
Q 40.234375 -1.421875 26.90625 -1.421875 
Q 22.3125 -1.421875 17.546875 -0.640625 
Q 12.796875 0.140625 7.71875 1.703125 
L 7.71875 11.625 
Q 12.109375 9.234375 16.796875 8.0625 
Q 21.484375 6.890625 26.703125 6.890625 
Q 35.15625 6.890625 40.078125 11.328125 
Q 45.015625 15.765625 45.015625 23.390625 
Q 45.015625 31 40.078125 35.4375 
Q 35.15625 39.890625 26.703125 39.890625 
Q 22.75 39.890625 18.8125 39.015625 
Q 14.890625 38.140625 10.796875 36.28125 
z
" id="DejaVuSans-35"/>
      </defs>
      <g transform="translate(67.096875 545.986512)scale(0.1 -0.1)">
       <use xlink:href="#DejaVuSans-32"/>
       <use x="63.623047" xlink:href="#DejaVuSans-2e"/>
       <use x="95.410156" xlink:href="#DejaVuSans-35"/>
      </g>
     </g>
    </g>
    <g id="ytick_3">
     <g id="line2d_9">
      <g>
       <use style="stroke:#000000;stroke-width:0.8;" x="90" xlink:href="#maeac56d16b" y="477.265877"/>
      </g>
     </g>
     <g id="text_9">
      <!-- 5.0 -->
      <g transform="translate(67.096875 481.065096)scale(0.1 -0.1)">
       <use xlink:href="#DejaVuSans-35"/>
       <use x="63.623047" xlink:href="#DejaVuSans-2e"/>
       <use x="95.410156" xlink:href="#DejaVuSans-30"/>
      </g>
     </g>
    </g>
    <g id="ytick_4">
     <g id="line2d_10">
      <g>
       <use style="stroke:#000000;stroke-width:0.8;" x="90" xlink:href="#maeac56d16b" y="412.344461"/>
      </g>
     </g>
     <g id="text_10">
      <!-- 7.5 -->
      <g transform="translate(67.096875 416.14368)scale(0.1 -0.1)">
       <use xlink:href="#DejaVuSans-37"/>
       <use x="63.623047" xlink:href="#DejaVuSans-2e"/>
       <use x="95.410156" xlink:href="#DejaVuSans-35"/>
      </g>
     </g>
    </g>
    <g id="ytick_5">
     <g id="line2d_11">
      <g>
       <use style="stroke:#000000;stroke-width:0.8;" x="90" xlink:href="#maeac56d16b" y="347.423045"/>
      </g>
     </g>
     <g id="text_11">
      <!-- 10.0 -->
      <g transform="translate(60.734375 351.222264)scale(0.1 -0.1)">
       <use xlink:href="#DejaVuSans-31"/>
       <use x="63.623047" xlink:href="#DejaVuSans-30"/>
       <use x="127.246094" xlink:href="#DejaVuSans-2e"/>
       <use x="159.033203" xlink:href="#DejaVuSans-30"/>
      </g>
     </g>
    </g>
    <g id="ytick_6">
     <g id="line2d_12">
      <g>
       <use style="stroke:#000000;stroke-width:0.8;" x="90" xlink:href="#maeac56d16b" y="282.501629"/>
      </g>
     </g>
     <g id="text_12">
      <!-- 12.5 -->
      <g transform="translate(60.734375 286.300848)scale(0.1 -0.1)">
       <use xlink:href="#DejaVuSans-31"/>
       <use x="63.623047" xlink:href="#DejaVuSans-32"/>
       <use x="127.246094" xlink:href="#DejaVuSans-2e"/>
       <use x="159.033203" xlink:href="#DejaVuSans-35"/>
      </g>
     </g>
    </g>
    <g id="ytick_7">
     <g id="line2d_13">
      <g>
       <use style="stroke:#000000;stroke-width:0.8;" x="90" xlink:href="#maeac56d16b" y="217.580213"/>
      </g>
     </g>
     <g id="text_13">
      <!-- 15.0 -->
      <g transform="translate(60.734375 221.379432)scale(0.1 -0.1)">
       <use xlink:href="#DejaVuSans-31"/>
       <use x="63.623047" xlink:href="#DejaVuSans-35"/>
       <use x="127.246094" xlink:href="#DejaVuSans-2e"/>
       <use x="159.033203" xlink:href="#DejaVuSans-30"/>
      </g>
     </g>
    </g>
    <g id="ytick_8">
     <g id="line2d_14">
      <g>
       <use style="stroke:#000000;stroke-width:0.8;" x="90" xlink:href="#maeac56d16b" y="152.658797"/>
      </g>
     </g>
     <g id="text_14">
      <!-- 17.5 -->
      <g transform="translate(60.734375 156.458016)scale(0.1 -0.1)">
       <use xlink:href="#DejaVuSans-31"/>
       <use x="63.623047" xlink:href="#DejaVuSans-37"/>
       <use x="127.246094" xlink:href="#DejaVuSans-2e"/>
       <use x="159.033203" xlink:href="#DejaVuSans-35"/>
      </g>
     </g>
    </g>
    <g id="ytick_9">
     <g id="line2d_15">
      <g>
       <use style="stroke:#000000;stroke-width:0.8;" x="90" xlink:href="#maeac56d16b" y="87.737381"/>
      </g>
     </g>
     <g id="text_15">
      <!-- 20.0 -->
      <g transform="translate(60.734375 91.5366)scale(0.1 -0.1)">
       <use xlink:href="#DejaVuSans-32"/>
       <use x="63.623047" xlink:href="#DejaVuSans-30"/>
       <use x="127.246094" xlink:href="#DejaVuSans-2e"/>
       <use x="159.033203" xlink:href="#DejaVuSans-30"/>
      </g>
     </g>
    </g>
   </g>
   <g id="line2d_16">
    <path clip-path="url(#p70e3a80828)" d="M 115.363636 373.910983 
L 116.248331 373.910983 
L 117.047411 405.592634 
L 117.932106 396.763321 
L 118.788262 400.918292 
L 119.672957 409.747604 
L 120.529114 419.875345 
L 121.413809 435.456485 
L 122.298504 443.766426 
L 123.154661 446.103597 
L 124.039356 461.684737 
L 125.780207 499.598844 
L 126.664902 510.505642 
L 127.463982 510.765327 
L 129.204833 486.874246 
L 130.089528 479.603048 
L 130.945685 469.215621 
L 131.83038 462.72348 
L 132.715075 462.983165 
L 133.571231 472.072164 
L 134.455926 479.603048 
L 135.312083 499.598844 
L 136.196778 516.218726 
L 137.081473 521.672125 
L 137.909091 507.6491 
L 138.793786 498.819787 
L 139.649942 496.22293 
L 140.534638 491.288903 
L 141.390794 488.951732 
L 142.275489 482.45959 
L 143.160184 480.64179 
L 144.016341 476.227134 
L 144.901036 475.707763 
L 145.757192 468.69625 
L 148.325662 422.991573 
L 149.210357 422.212516 
L 150.066513 403.515148 
L 150.951208 386.63558 
L 151.807365 337.035618 
L 152.69206 334.438762 
L 153.576755 327.167563 
L 154.432911 347.163359 
L 155.317606 346.643988 
L 156.173763 348.721473 
L 157.058458 356.512043 
L 157.943153 374.170668 
L 158.742232 364.302613 
L 159.626928 334.179076 
L 160.483084 313.404223 
L 161.367779 297.303712 
L 162.223936 271.594831 
L 163.108631 295.226227 
L 163.993326 312.625166 
L 164.849482 345.864931 
L 165.734177 361.705756 
L 166.590334 385.596838 
L 167.475029 421.95283 
L 169.158803 463.242851 
L 170.043498 464.541279 
L 170.899655 471.552792 
L 171.78435 462.983165 
L 172.640506 448.700454 
L 173.525201 447.661711 
L 174.409896 445.064855 
L 175.266053 455.971652 
L 176.150748 471.552792 
L 177.006904 472.072164 
L 177.8916 480.64179 
L 178.776295 483.238647 
L 179.603913 481.420847 
L 180.488608 481.940219 
L 181.344764 469.734993 
L 182.229459 464.800965 
L 183.085616 469.215621 
L 183.970311 469.734993 
L 184.855006 470.773735 
L 185.711162 476.746506 
L 186.595857 478.564305 
L 187.452014 486.354875 
L 188.336709 487.393618 
L 189.221404 485.575818 
L 190.020483 485.316132 
L 190.905178 484.27739 
L 191.761335 468.176879 
L 192.64603 467.138136 
L 193.502186 466.359079 
L 194.386881 453.894167 
L 195.271577 447.661711 
L 196.127733 439.092084 
L 197.012428 438.053342 
L 197.868585 436.754913 
L 198.75328 433.119314 
L 199.637975 431.041829 
L 200.437054 430.782143 
L 201.321749 428.185286 
L 202.177906 415.98006 
L 203.918757 404.294205 
L 204.803452 398.321435 
L 205.688147 387.674323 
L 206.544304 374.430354 
L 207.428999 353.655501 
L 208.285155 346.643988 
L 209.16985 345.605245 
L 210.054545 345.864931 
L 210.853625 345.085874 
L 211.73832 347.163359 
L 212.594476 341.190589 
L 213.479171 339.892161 
L 214.335328 335.217819 
L 216.104718 310.287995 
L 216.960875 249.52155 
L 217.84557 264.843004 
L 218.701726 249.261864 
L 219.586421 248.223121 
L 220.471116 240.172866 
L 221.298734 160.709053 
L 222.183429 149.802255 
L 223.039586 321.97385 
L 223.924281 361.186385 
L 224.780437 372.612554 
L 225.665132 357.550786 
L 226.549827 324.830392 
L 227.405984 274.451373 
L 229.146835 116.302804 
L 230.03153 111.628462 
L 230.916226 193.429446 
L 231.715305 225.370783 
L 232.6 198.882845 
L 233.456157 126.170859 
L 234.340852 111.109091 
L 235.197008 112.667205 
L 236.081703 144.348856 
L 236.966398 194.98756 
L 237.822555 215.502728 
L 238.70725 261.46709 
L 239.563406 285.877543 
L 240.448101 263.804261 
L 241.332796 223.293298 
L 242.131876 225.890154 
L 243.016571 219.138327 
L 243.872727 231.862925 
L 244.757422 239.653494 
L 245.613579 280.164458 
L 246.498274 344.306817 
L 247.382969 339.372789 
L 248.239125 354.953929 
L 249.12382 368.197898 
L 250.864672 381.701553 
L 251.749367 386.116209 
L 252.548446 379.364382 
L 253.433142 378.585325 
L 254.289298 382.999981 
L 255.173993 373.910983 
L 256.03015 363.783242 
L 256.914845 358.849214 
L 257.79954 361.705756 
L 258.655696 360.926699 
L 259.540391 364.562299 
L 260.396548 361.186385 
L 261.281243 358.849214 
L 262.165938 358.070157 
L 263.878251 339.892161 
L 264.734407 339.113104 
L 265.619102 319.896365 
L 266.475259 315.481708 
L 267.359954 304.834596 
L 268.244649 313.663909 
L 269.100806 347.682731 
L 269.985501 362.225128 
L 270.841657 389.492122 
L 271.726352 390.271179 
L 272.611047 386.375895 
L 273.410127 384.298409 
L 275.150978 400.139235 
L 276.035673 411.565404 
L 276.89183 402.476406 
L 278.66122 401.437663 
L 279.517376 399.619863 
L 280.402071 398.061749 
L 281.258228 392.348665 
L 282.142923 395.724578 
L 283.027618 402.995777 
L 283.826697 412.863832 
L 284.711392 425.58843 
L 285.567549 429.224029 
L 286.452244 427.406229 
L 288.193096 446.882654 
L 289.077791 454.153853 
L 289.933947 455.192595 
L 290.818642 450.258568 
L 291.674799 427.665915 
L 292.559494 440.130827 
L 293.444189 448.700454 
L 294.243268 447.921397 
L 295.127963 441.688941 
L 295.98412 429.224029 
L 296.868815 432.340257 
L 297.724971 436.235542 
L 298.609666 432.340257 
L 299.494361 419.615659 
L 300.350518 417.79786 
L 301.235213 433.379 
L 302.091369 431.301514 
L 302.976064 429.7434 
L 303.860759 436.235542 
L 304.688377 436.235542 
L 305.573072 428.704658 
L 306.429229 422.991573 
L 307.313924 412.084775 
L 309.054776 399.100492 
L 309.939471 394.42615 
L 310.795627 391.569608 
L 311.680322 390.271179 
L 312.536479 379.624067 
L 313.421174 370.275383 
L 314.305869 364.042927 
L 315.104948 351.31833 
L 315.989643 351.578016 
L 316.8458 352.357073 
L 319.471346 373.651297 
L 320.356041 372.87224 
L 321.212198 377.546582 
L 322.096893 385.077466 
L 322.953049 387.674323 
L 323.837745 393.387407 
L 324.72244 393.127722 
L 325.521519 392.088979 
L 326.406214 392.60835 
L 327.262371 394.685836 
L 328.147066 391.829293 
L 329.003222 395.464893 
L 329.887917 395.984264 
L 330.772612 394.166464 
L 331.628769 396.503635 
L 332.513464 404.294205 
L 333.36962 417.278489 
L 334.254315 427.665915 
L 335.13901 444.805169 
L 335.93809 448.181083 
L 336.822785 453.634481 
L 337.678941 457.010395 
L 338.563636 453.894167 
L 339.419793 455.971652 
L 340.304488 460.126623 
L 341.189183 465.580022 
L 342.045339 471.812478 
L 344.670886 502.455386 
L 345.555581 501.676329 
L 346.383199 503.753815 
L 347.267894 510.245956 
L 348.124051 507.908785 
L 349.008746 509.466899 
L 349.864902 522.710868 
L 350.749597 521.41244 
L 351.634292 523.489925 
L 352.490449 526.606153 
L 353.375144 526.865839 
L 354.2313 531.280495 
L 355.115995 528.683638 
L 356.00069 528.423953 
L 356.79977 527.38521 
L 357.684465 530.241752 
L 359.425316 528.164267 
L 360.281473 527.644896 
L 361.166168 528.423953 
L 362.050863 526.865839 
L 362.90702 529.462695 
L 363.791715 528.683638 
L 364.647871 530.241752 
L 365.532566 527.904581 
L 366.417261 522.710868 
L 367.216341 520.373697 
L 368.101036 514.660612 
L 368.957192 502.974758 
L 369.841887 496.742302 
L 370.698044 496.482616 
L 371.582739 491.029217 
L 372.467434 484.27739 
L 373.32359 483.498333 
L 374.208285 469.734993 
L 375.064442 465.580022 
L 375.949137 463.502537 
L 376.833832 453.374796 
L 378.517606 449.998882 
L 379.373763 451.037625 
L 380.258458 451.29731 
L 381.114614 455.192595 
L 381.99931 458.049138 
L 382.884005 456.491024 
L 383.740161 457.529766 
L 384.624856 456.491024 
L 385.481013 461.684737 
L 386.365708 462.72348 
L 387.250403 471.552792 
L 388.078021 469.215621 
L 388.962716 471.552792 
L 389.818872 471.033421 
L 390.703567 470.254364 
L 391.559724 466.87845 
L 392.444419 471.552792 
L 393.329114 469.475307 
L 394.18527 471.033421 
L 395.069965 469.215621 
L 395.926122 469.734993 
L 396.810817 470.773735 
L 397.695512 472.331849 
L 398.494591 467.138136 
L 399.379287 464.021908 
L 400.235443 464.281594 
L 401.120138 462.72348 
L 401.976295 463.762222 
L 402.86099 463.242851 
L 403.745685 463.242851 
L 404.601841 464.281594 
L 405.486536 463.762222 
L 406.342693 464.281594 
L 407.227388 462.72348 
L 408.112083 464.021908 
L 408.911162 464.541279 
L 409.795857 465.580022 
L 410.652014 464.541279 
L 411.536709 462.72348 
L 412.392865 463.242851 
L 413.27756 462.983165 
L 414.162255 464.021908 
L 415.018412 475.448077 
L 415.903107 481.680533 
L 416.759264 485.575818 
L 417.643959 486.874246 
L 418.528654 483.498333 
L 419.327733 482.199904 
L 420.212428 484.017704 
L 421.068585 484.017704 
L 421.95328 483.498333 
L 422.809436 477.525563 
L 423.694131 475.448077 
L 424.578826 471.552792 
L 425.434983 472.072164 
L 426.319678 466.359079 
L 427.175834 469.475307 
L 428.060529 465.580022 
L 428.945224 458.308823 
L 429.772842 455.192595 
L 430.657537 450.777939 
L 432.398389 437.53397 
L 433.254545 437.274285 
L 434.139241 438.313027 
L 435.023936 437.793656 
L 435.880092 438.053342 
L 436.764787 438.053342 
L 437.620944 440.909884 
L 438.505639 451.816682 
L 439.390334 464.541279 
L 440.189413 469.215621 
L 441.074108 482.45959 
L 441.930265 497.781044 
L 442.81496 504.0135 
L 443.671116 509.207213 
L 444.555811 512.323441 
L 446.296663 542.446978 
L 447.181358 552.834405 
L 448.037514 559.845918 
L 448.922209 562.183089 
L 449.806904 561.923403 
L 450.605984 562.183089 
L 451.490679 561.663718 
L 453.23153 561.663718 
L 454.087687 562.183089 
L 455.857077 561.663718 
L 456.713234 561.663718 
L 457.597929 572.31083 
L 458.454085 574.907686 
L 459.33878 574.907686 
L 460.223475 574.388315 
L 461.022555 574.648001 
L 461.90725 574.388315 
L 462.763406 574.388315 
L 463.648101 575.427058 
L 464.504258 580.880457 
L 465.388953 580.361085 
L 466.273648 580.880457 
L 467.129804 580.880457 
L 468.014499 581.140142 
L 468.870656 581.659514 
L 469.755351 581.140142 
L 470.640046 580.880457 
L 471.467664 581.140142 
L 473.208516 581.140142 
L 474.093211 580.361085 
L 474.949367 574.388315 
L 478.459609 556.989376 
L 479.315765 551.016605 
L 480.20046 547.900377 
L 481.085155 542.187293 
L 482.76893 534.656409 
L 483.625086 529.20301 
L 484.509781 528.164267 
L 486.250633 516.218726 
L 487.135328 513.102498 
L 487.991484 508.947528 
L 488.87618 503.234443 
L 489.732336 499.079473 
L 490.617031 495.703559 
L 491.501726 490.509846 
L 492.300806 487.912989 
L 493.185501 482.719276 
L 494.041657 478.823991 
L 494.926352 477.525563 
L 495.782509 471.033421 
L 496.667204 470.773735 
L 499.29275 470.773735 
L 500.148907 471.033421 
L 501.918297 470.51405 
L 502.717376 470.51405 
L 503.602071 470.773735 
L 505.342923 470.773735 
L 506.199079 470.51405 
L 507.083774 476.746506 
L 507.96847 478.823991 
L 508.824626 483.498333 
L 511.450173 504.792557 
L 512.334868 529.722381 
L 513.162486 539.33075 
L 514.903337 555.690947 
L 515.788032 555.171576 
L 516.644189 554.91189 
L 517.528884 555.171576 
L 518.413579 560.105604 
L 519.269735 581.919199 
L 520.15443 596.980968 
L 521.010587 602.953738 
L 521.895282 603.213424 
L 522.779977 601.395624 
L 523.579056 602.434367 
L 524.463751 603.213424 
L 526.204603 601.65531 
L 527.060759 602.953738 
L 527.945455 602.953738 
L 528.83015 603.213424 
L 529.686306 603.992481 
L 531.427158 603.992481 
L 532.311853 604.252166 
L 533.196548 603.732795 
L 533.995627 602.953738 
L 534.880322 601.914995 
L 535.736479 601.914995 
L 536.621174 602.434367 
L 537.47733 602.434367 
L 538.362025 602.174681 
L 540.987572 602.174681 
L 543.613119 602.953738 
L 544.412198 603.473109 
L 545.296893 604.511852 
L 546.153049 604.771538 
L 547.037745 604.771538 
L 547.893901 605.290909 
L 548.778596 604.511852 
L 549.663291 605.031223 
L 550.519448 605.290909 
L 551.404143 605.031223 
L 552.260299 605.290909 
L 553.144994 605.031223 
L 554.029689 604.511852 
L 554.857307 603.732795 
L 555.742002 603.473109 
L 556.598159 602.953738 
L 558.33901 602.953738 
L 559.223705 603.732795 
L 560.1084 603.473109 
L 560.964557 602.953738 
L 562.705409 602.953738 
L 563.590104 603.473109 
L 564.474799 603.213424 
L 565.273878 603.473109 
L 566.158573 603.213424 
L 567.01473 604.252166 
L 567.899425 604.771538 
L 568.755581 604.771538 
L 569.640276 605.031223 
L 570.524971 605.031223 
L 571.381128 604.771538 
L 572.265823 605.031223 
L 573.121979 604.771538 
L 574.006674 605.290909 
L 574.891369 605.290909 
L 576.575144 604.771538 
L 577.4313 604.771538 
L 578.315995 604.511852 
L 579.172152 604.771538 
L 582.682394 604.771538 
L 583.53855 603.992481 
L 584.423245 604.252166 
L 586.10702 604.252166 
L 586.991715 603.992481 
L 587.847871 603.992481 
L 588.732566 603.732795 
L 589.588723 603.732795 
L 590.473418 603.473109 
L 591.358113 603.473109 
L 592.214269 603.992481 
L 593.098964 603.992481 
L 593.955121 600.876253 
L 594.839816 598.279396 
L 595.724511 597.240654 
L 596.552129 597.760025 
L 597.436824 597.500339 
L 598.29298 597.500339 
L 600.918527 596.721282 
L 602.659379 596.721282 
L 603.544074 596.461597 
L 604.40023 593.085683 
L 605.284925 590.229141 
L 606.16962 589.969455 
L 606.9687 586.593541 
L 607.853395 583.736999 
L 608.709551 583.477313 
L 610.450403 577.244857 
L 611.335098 576.985172 
L 612.219793 577.244857 
L 613.075949 577.244857 
L 613.960644 576.985172 
L 614.816801 573.349572 
L 615.701496 570.49303 
L 616.586191 570.233344 
L 617.38527 567.896174 
L 618.269965 563.221832 
L 619.126122 562.962146 
L 620.010817 559.845918 
L 620.866974 557.508747 
L 621.751669 557.508747 
L 622.636364 556.470004 
L 622.636364 556.470004 
" style="fill:none;stroke:#1f77b4;stroke-linecap:square;stroke-width:2;"/>
   </g>
   <g id="patch_3">
    <path d="M 90 630 
L 90 86.4 
" style="fill:none;stroke:#000000;stroke-linecap:square;stroke-linejoin:miter;stroke-width:0.8;"/>
   </g>
   <g id="patch_4">
    <path d="M 648 630 
L 648 86.4 
" style="fill:none;stroke:#000000;stroke-linecap:square;stroke-linejoin:miter;stroke-width:0.8;"/>
   </g>
   <g id="patch_5">
    <path d="M 90 630 
L 648 630 
" style="fill:none;stroke:#000000;stroke-linecap:square;stroke-linejoin:miter;stroke-width:0.8;"/>
   </g>
   <g id="patch_6">
    <path d="M 90 86.4 
L 648 86.4 
" style="fill:none;stroke:#000000;stroke-linecap:square;stroke-linejoin:miter;stroke-width:0.8;"/>
   </g>
  </g>
 </g>
 <defs>
  <clipPath id="p70e3a80828">
   <rect height="543.6" width="558" x="90" y="86.4"/>
  </clipPath>
 </defs>
</svg>
