<?xml version="1.0" encoding="utf-8" standalone="no"?>
<!DOCTYPE svg PUBLIC "-//W3C//DTD SVG 1.1//EN"
  "http://www.w3.org/Graphics/SVG/1.1/DTD/svg11.dtd">
<!-- Created with matplotlib (https://matplotlib.org/) -->
<svg height="340.325pt" version="1.1" viewBox="0 0 700.23 340.325" width="700.23pt" xmlns="http://www.w3.org/2000/svg" xmlns:xlink="http://www.w3.org/1999/xlink">
 <defs>
  <style type="text/css">
*{stroke-linecap:butt;stroke-linejoin:round;}
  </style>
 </defs>
 <g id="figure_1">
  <g id="patch_1">
   <path d="M 0 340.325 
L 700.23 340.325 
L 700.23 0 
L 0 0 
z
" style="fill:none;"/>
  </g>
  <g id="axes_1">
   <g id="patch_2">
    <path d="M 64.84 310.64 
L 693.03 310.64 
L 693.03 7.2 
L 64.84 7.2 
z
" style="fill:none;"/>
   </g>
   <g id="matplotlib.axis_1">
    <g id="xtick_1">
     <g id="line2d_1">
      <defs>
       <path d="M 0 0 
L 0 3.5 
" id="mc7ff8c7e3a" style="stroke:#003559;stroke-width:0.8;"/>
      </defs>
      <g>
       <use style="fill:#003559;stroke:#003559;stroke-width:0.8;" x="93.394091" xlink:href="#mc7ff8c7e3a" y="310.64"/>
      </g>
     </g>
     <g id="text_1">
      <!-- 2010 -->
      <defs>
       <path d="M 19.1875 8.296875 
L 53.609375 8.296875 
L 53.609375 0 
L 7.328125 0 
L 7.328125 8.296875 
Q 12.9375 14.109375 22.625 23.890625 
Q 32.328125 33.6875 34.8125 36.53125 
Q 39.546875 41.84375 41.421875 45.53125 
Q 43.3125 49.21875 43.3125 52.78125 
Q 43.3125 58.59375 39.234375 62.25 
Q 35.15625 65.921875 28.609375 65.921875 
Q 23.96875 65.921875 18.8125 64.3125 
Q 13.671875 62.703125 7.8125 59.421875 
L 7.8125 69.390625 
Q 13.765625 71.78125 18.9375 73 
Q 24.125 74.21875 28.421875 74.21875 
Q 39.75 74.21875 46.484375 68.546875 
Q 53.21875 62.890625 53.21875 53.421875 
Q 53.21875 48.921875 51.53125 44.890625 
Q 49.859375 40.875 45.40625 35.40625 
Q 44.1875 33.984375 37.640625 27.21875 
Q 31.109375 20.453125 19.1875 8.296875 
z
" id="DejaVuSans-50"/>
       <path d="M 31.78125 66.40625 
Q 24.171875 66.40625 20.328125 58.90625 
Q 16.5 51.421875 16.5 36.375 
Q 16.5 21.390625 20.328125 13.890625 
Q 24.171875 6.390625 31.78125 6.390625 
Q 39.453125 6.390625 43.28125 13.890625 
Q 47.125 21.390625 47.125 36.375 
Q 47.125 51.421875 43.28125 58.90625 
Q 39.453125 66.40625 31.78125 66.40625 
z
M 31.78125 74.21875 
Q 44.046875 74.21875 50.515625 64.515625 
Q 56.984375 54.828125 56.984375 36.375 
Q 56.984375 17.96875 50.515625 8.265625 
Q 44.046875 -1.421875 31.78125 -1.421875 
Q 19.53125 -1.421875 13.0625 8.265625 
Q 6.59375 17.96875 6.59375 36.375 
Q 6.59375 54.828125 13.0625 64.515625 
Q 19.53125 74.21875 31.78125 74.21875 
z
" id="DejaVuSans-48"/>
       <path d="M 12.40625 8.296875 
L 28.515625 8.296875 
L 28.515625 63.921875 
L 10.984375 60.40625 
L 10.984375 69.390625 
L 28.421875 72.90625 
L 38.28125 72.90625 
L 38.28125 8.296875 
L 54.390625 8.296875 
L 54.390625 0 
L 12.40625 0 
z
" id="DejaVuSans-49"/>
      </defs>
      <g style="fill:#003559;" transform="translate(73.034091 329.7975)scale(0.16 -0.16)">
       <use xlink:href="#DejaVuSans-50"/>
       <use x="63.623047" xlink:href="#DejaVuSans-48"/>
       <use x="127.246094" xlink:href="#DejaVuSans-49"/>
       <use x="190.869141" xlink:href="#DejaVuSans-48"/>
      </g>
     </g>
    </g>
    <g id="xtick_2">
     <g id="line2d_2">
      <g>
       <use style="fill:#003559;stroke:#003559;stroke-width:0.8;" x="187.878377" xlink:href="#mc7ff8c7e3a" y="310.64"/>
      </g>
     </g>
     <g id="text_2">
      <!-- Jul -->
      <defs>
       <path d="M 9.8125 72.90625 
L 19.671875 72.90625 
L 19.671875 5.078125 
Q 19.671875 -8.109375 14.671875 -14.0625 
Q 9.671875 -20.015625 -1.421875 -20.015625 
L -5.171875 -20.015625 
L -5.171875 -11.71875 
L -2.09375 -11.71875 
Q 4.4375 -11.71875 7.125 -8.046875 
Q 9.8125 -4.390625 9.8125 5.078125 
z
" id="DejaVuSans-74"/>
       <path d="M 8.5 21.578125 
L 8.5 54.6875 
L 17.484375 54.6875 
L 17.484375 21.921875 
Q 17.484375 14.15625 20.5 10.265625 
Q 23.53125 6.390625 29.59375 6.390625 
Q 36.859375 6.390625 41.078125 11.03125 
Q 45.3125 15.671875 45.3125 23.6875 
L 45.3125 54.6875 
L 54.296875 54.6875 
L 54.296875 0 
L 45.3125 0 
L 45.3125 8.40625 
Q 42.046875 3.421875 37.71875 1 
Q 33.40625 -1.421875 27.6875 -1.421875 
Q 18.265625 -1.421875 13.375 4.4375 
Q 8.5 10.296875 8.5 21.578125 
z
M 31.109375 56 
z
" id="DejaVuSans-117"/>
       <path d="M 9.421875 75.984375 
L 18.40625 75.984375 
L 18.40625 0 
L 9.421875 0 
z
" id="DejaVuSans-108"/>
      </defs>
      <g style="fill:#003559;" transform="translate(178.225877 329.7975)scale(0.16 -0.16)">
       <use xlink:href="#DejaVuSans-74"/>
       <use x="29.492188" xlink:href="#DejaVuSans-117"/>
       <use x="92.871094" xlink:href="#DejaVuSans-108"/>
      </g>
     </g>
    </g>
    <g id="xtick_3">
     <g id="line2d_3">
      <g>
       <use style="fill:#003559;stroke:#003559;stroke-width:0.8;" x="283.928701" xlink:href="#mc7ff8c7e3a" y="310.64"/>
      </g>
     </g>
     <g id="text_3">
      <!-- 2011 -->
      <g style="fill:#003559;" transform="translate(263.568701 329.7975)scale(0.16 -0.16)">
       <use xlink:href="#DejaVuSans-50"/>
       <use x="63.623047" xlink:href="#DejaVuSans-48"/>
       <use x="127.246094" xlink:href="#DejaVuSans-49"/>
       <use x="190.869141" xlink:href="#DejaVuSans-49"/>
      </g>
     </g>
    </g>
    <g id="xtick_4">
     <g id="line2d_4">
      <g>
       <use style="fill:#003559;stroke:#003559;stroke-width:0.8;" x="378.412987" xlink:href="#mc7ff8c7e3a" y="310.64"/>
      </g>
     </g>
     <g id="text_4">
      <!-- Jul -->
      <g style="fill:#003559;" transform="translate(368.760487 329.7975)scale(0.16 -0.16)">
       <use xlink:href="#DejaVuSans-74"/>
       <use x="29.492188" xlink:href="#DejaVuSans-117"/>
       <use x="92.871094" xlink:href="#DejaVuSans-108"/>
      </g>
     </g>
    </g>
    <g id="xtick_5">
     <g id="line2d_5">
      <g>
       <use style="fill:#003559;stroke:#003559;stroke-width:0.8;" x="474.463311" xlink:href="#mc7ff8c7e3a" y="310.64"/>
      </g>
     </g>
     <g id="text_5">
      <!-- 2012 -->
      <g style="fill:#003559;" transform="translate(454.103311 329.7975)scale(0.16 -0.16)">
       <use xlink:href="#DejaVuSans-50"/>
       <use x="63.623047" xlink:href="#DejaVuSans-48"/>
       <use x="127.246094" xlink:href="#DejaVuSans-49"/>
       <use x="190.869141" xlink:href="#DejaVuSans-50"/>
      </g>
     </g>
    </g>
    <g id="xtick_6">
     <g id="line2d_6">
      <g>
       <use style="fill:#003559;stroke:#003559;stroke-width:0.8;" x="569.46961" xlink:href="#mc7ff8c7e3a" y="310.64"/>
      </g>
     </g>
     <g id="text_6">
      <!-- Jul -->
      <g style="fill:#003559;" transform="translate(559.81711 329.7975)scale(0.16 -0.16)">
       <use xlink:href="#DejaVuSans-74"/>
       <use x="29.492188" xlink:href="#DejaVuSans-117"/>
       <use x="92.871094" xlink:href="#DejaVuSans-108"/>
      </g>
     </g>
    </g>
    <g id="xtick_7">
     <g id="line2d_7">
      <g>
       <use style="fill:#003559;stroke:#003559;stroke-width:0.8;" x="665.519934" xlink:href="#mc7ff8c7e3a" y="310.64"/>
      </g>
     </g>
     <g id="text_7">
      <!-- 2013 -->
      <defs>
       <path d="M 40.578125 39.3125 
Q 47.65625 37.796875 51.625 33 
Q 55.609375 28.21875 55.609375 21.1875 
Q 55.609375 10.40625 48.1875 4.484375 
Q 40.765625 -1.421875 27.09375 -1.421875 
Q 22.515625 -1.421875 17.65625 -0.515625 
Q 12.796875 0.390625 7.625 2.203125 
L 7.625 11.71875 
Q 11.71875 9.328125 16.59375 8.109375 
Q 21.484375 6.890625 26.8125 6.890625 
Q 36.078125 6.890625 40.9375 10.546875 
Q 45.796875 14.203125 45.796875 21.1875 
Q 45.796875 27.640625 41.28125 31.265625 
Q 36.765625 34.90625 28.71875 34.90625 
L 20.21875 34.90625 
L 20.21875 43.015625 
L 29.109375 43.015625 
Q 36.375 43.015625 40.234375 45.921875 
Q 44.09375 48.828125 44.09375 54.296875 
Q 44.09375 59.90625 40.109375 62.90625 
Q 36.140625 65.921875 28.71875 65.921875 
Q 24.65625 65.921875 20.015625 65.03125 
Q 15.375 64.15625 9.8125 62.3125 
L 9.8125 71.09375 
Q 15.4375 72.65625 20.34375 73.4375 
Q 25.25 74.21875 29.59375 74.21875 
Q 40.828125 74.21875 47.359375 69.109375 
Q 53.90625 64.015625 53.90625 55.328125 
Q 53.90625 49.265625 50.4375 45.09375 
Q 46.96875 40.921875 40.578125 39.3125 
z
" id="DejaVuSans-51"/>
      </defs>
      <g style="fill:#003559;" transform="translate(645.159934 329.7975)scale(0.16 -0.16)">
       <use xlink:href="#DejaVuSans-50"/>
       <use x="63.623047" xlink:href="#DejaVuSans-48"/>
       <use x="127.246094" xlink:href="#DejaVuSans-49"/>
       <use x="190.869141" xlink:href="#DejaVuSans-51"/>
      </g>
     </g>
    </g>
   </g>
   <g id="matplotlib.axis_2">
    <g id="ytick_1">
     <g id="line2d_8">
      <path clip-path="url(#p84f4b2a733)" d="M 64.84 285.632131 
L 693.03 285.632131 
" style="fill:none;stroke:#f0f0f0;stroke-linecap:square;"/>
     </g>
     <g id="line2d_9">
      <defs>
       <path d="M 0 0 
L -3.5 0 
" id="m719db08baa" style="stroke:#003559;stroke-width:0.8;"/>
      </defs>
      <g>
       <use style="fill:#003559;stroke:#003559;stroke-width:0.8;" x="64.84" xlink:href="#m719db08baa" y="285.632131"/>
      </g>
     </g>
     <g id="text_8">
      <!-- -6% -->
      <defs>
       <path d="M 4.890625 31.390625 
L 31.203125 31.390625 
L 31.203125 23.390625 
L 4.890625 23.390625 
z
" id="DejaVuSans-45"/>
       <path d="M 33.015625 40.375 
Q 26.375 40.375 22.484375 35.828125 
Q 18.609375 31.296875 18.609375 23.390625 
Q 18.609375 15.53125 22.484375 10.953125 
Q 26.375 6.390625 33.015625 6.390625 
Q 39.65625 6.390625 43.53125 10.953125 
Q 47.40625 15.53125 47.40625 23.390625 
Q 47.40625 31.296875 43.53125 35.828125 
Q 39.65625 40.375 33.015625 40.375 
z
M 52.59375 71.296875 
L 52.59375 62.3125 
Q 48.875 64.0625 45.09375 64.984375 
Q 41.3125 65.921875 37.59375 65.921875 
Q 27.828125 65.921875 22.671875 59.328125 
Q 17.53125 52.734375 16.796875 39.40625 
Q 19.671875 43.65625 24.015625 45.921875 
Q 28.375 48.1875 33.59375 48.1875 
Q 44.578125 48.1875 50.953125 41.515625 
Q 57.328125 34.859375 57.328125 23.390625 
Q 57.328125 12.15625 50.6875 5.359375 
Q 44.046875 -1.421875 33.015625 -1.421875 
Q 20.359375 -1.421875 13.671875 8.265625 
Q 6.984375 17.96875 6.984375 36.375 
Q 6.984375 53.65625 15.1875 63.9375 
Q 23.390625 74.21875 37.203125 74.21875 
Q 40.921875 74.21875 44.703125 73.484375 
Q 48.484375 72.75 52.59375 71.296875 
z
" id="DejaVuSans-54"/>
       <path d="M 72.703125 32.078125 
Q 68.453125 32.078125 66.03125 28.46875 
Q 63.625 24.859375 63.625 18.40625 
Q 63.625 12.0625 66.03125 8.421875 
Q 68.453125 4.78125 72.703125 4.78125 
Q 76.859375 4.78125 79.265625 8.421875 
Q 81.6875 12.0625 81.6875 18.40625 
Q 81.6875 24.8125 79.265625 28.4375 
Q 76.859375 32.078125 72.703125 32.078125 
z
M 72.703125 38.28125 
Q 80.421875 38.28125 84.953125 32.90625 
Q 89.5 27.546875 89.5 18.40625 
Q 89.5 9.28125 84.9375 3.921875 
Q 80.375 -1.421875 72.703125 -1.421875 
Q 64.890625 -1.421875 60.34375 3.921875 
Q 55.8125 9.28125 55.8125 18.40625 
Q 55.8125 27.59375 60.375 32.9375 
Q 64.9375 38.28125 72.703125 38.28125 
z
M 22.3125 68.015625 
Q 18.109375 68.015625 15.6875 64.375 
Q 13.28125 60.75 13.28125 54.390625 
Q 13.28125 47.953125 15.671875 44.328125 
Q 18.0625 40.71875 22.3125 40.71875 
Q 26.5625 40.71875 28.96875 44.328125 
Q 31.390625 47.953125 31.390625 54.390625 
Q 31.390625 60.6875 28.953125 64.34375 
Q 26.515625 68.015625 22.3125 68.015625 
z
M 66.40625 74.21875 
L 74.21875 74.21875 
L 28.609375 -1.421875 
L 20.796875 -1.421875 
z
M 22.3125 74.21875 
Q 30.03125 74.21875 34.609375 68.875 
Q 39.203125 63.53125 39.203125 54.390625 
Q 39.203125 45.171875 34.640625 39.84375 
Q 30.078125 34.515625 22.3125 34.515625 
Q 14.546875 34.515625 10.03125 39.859375 
Q 5.515625 45.21875 5.515625 54.390625 
Q 5.515625 63.484375 10.046875 68.84375 
Q 14.59375 74.21875 22.3125 74.21875 
z
" id="DejaVuSans-37"/>
      </defs>
      <g style="fill:#003559;" transform="translate(26.685 291.710881)scale(0.16 -0.16)">
       <use xlink:href="#DejaVuSans-45"/>
       <use x="36.083984" xlink:href="#DejaVuSans-54"/>
       <use x="99.707031" xlink:href="#DejaVuSans-37"/>
      </g>
     </g>
    </g>
    <g id="ytick_2">
     <g id="line2d_10">
      <path clip-path="url(#p84f4b2a733)" d="M 64.84 241.525564 
L 693.03 241.525564 
" style="fill:none;stroke:#f0f0f0;stroke-linecap:square;"/>
     </g>
     <g id="line2d_11">
      <g>
       <use style="fill:#003559;stroke:#003559;stroke-width:0.8;" x="64.84" xlink:href="#m719db08baa" y="241.525564"/>
      </g>
     </g>
     <g id="text_9">
      <!-- -5% -->
      <defs>
       <path d="M 10.796875 72.90625 
L 49.515625 72.90625 
L 49.515625 64.59375 
L 19.828125 64.59375 
L 19.828125 46.734375 
Q 21.96875 47.46875 24.109375 47.828125 
Q 26.265625 48.1875 28.421875 48.1875 
Q 40.625 48.1875 47.75 41.5 
Q 54.890625 34.8125 54.890625 23.390625 
Q 54.890625 11.625 47.5625 5.09375 
Q 40.234375 -1.421875 26.90625 -1.421875 
Q 22.3125 -1.421875 17.546875 -0.640625 
Q 12.796875 0.140625 7.71875 1.703125 
L 7.71875 11.625 
Q 12.109375 9.234375 16.796875 8.0625 
Q 21.484375 6.890625 26.703125 6.890625 
Q 35.15625 6.890625 40.078125 11.328125 
Q 45.015625 15.765625 45.015625 23.390625 
Q 45.015625 31 40.078125 35.4375 
Q 35.15625 39.890625 26.703125 39.890625 
Q 22.75 39.890625 18.8125 39.015625 
Q 14.890625 38.140625 10.796875 36.28125 
z
" id="DejaVuSans-53"/>
      </defs>
      <g style="fill:#003559;" transform="translate(26.685 247.604314)scale(0.16 -0.16)">
       <use xlink:href="#DejaVuSans-45"/>
       <use x="36.083984" xlink:href="#DejaVuSans-53"/>
       <use x="99.707031" xlink:href="#DejaVuSans-37"/>
      </g>
     </g>
    </g>
    <g id="ytick_3">
     <g id="line2d_12">
      <path clip-path="url(#p84f4b2a733)" d="M 64.84 197.418997 
L 693.03 197.418997 
" style="fill:none;stroke:#f0f0f0;stroke-linecap:square;"/>
     </g>
     <g id="line2d_13">
      <g>
       <use style="fill:#003559;stroke:#003559;stroke-width:0.8;" x="64.84" xlink:href="#m719db08baa" y="197.418997"/>
      </g>
     </g>
     <g id="text_10">
      <!-- -4% -->
      <defs>
       <path d="M 37.796875 64.3125 
L 12.890625 25.390625 
L 37.796875 25.390625 
z
M 35.203125 72.90625 
L 47.609375 72.90625 
L 47.609375 25.390625 
L 58.015625 25.390625 
L 58.015625 17.1875 
L 47.609375 17.1875 
L 47.609375 0 
L 37.796875 0 
L 37.796875 17.1875 
L 4.890625 17.1875 
L 4.890625 26.703125 
z
" id="DejaVuSans-52"/>
      </defs>
      <g style="fill:#003559;" transform="translate(26.685 203.497747)scale(0.16 -0.16)">
       <use xlink:href="#DejaVuSans-45"/>
       <use x="36.083984" xlink:href="#DejaVuSans-52"/>
       <use x="99.707031" xlink:href="#DejaVuSans-37"/>
      </g>
     </g>
    </g>
    <g id="ytick_4">
     <g id="line2d_14">
      <path clip-path="url(#p84f4b2a733)" d="M 64.84 153.312429 
L 693.03 153.312429 
" style="fill:none;stroke:#f0f0f0;stroke-linecap:square;"/>
     </g>
     <g id="line2d_15">
      <g>
       <use style="fill:#003559;stroke:#003559;stroke-width:0.8;" x="64.84" xlink:href="#m719db08baa" y="153.312429"/>
      </g>
     </g>
     <g id="text_11">
      <!-- -3% -->
      <g style="fill:#003559;" transform="translate(26.685 159.391179)scale(0.16 -0.16)">
       <use xlink:href="#DejaVuSans-45"/>
       <use x="36.083984" xlink:href="#DejaVuSans-51"/>
       <use x="99.707031" xlink:href="#DejaVuSans-37"/>
      </g>
     </g>
    </g>
    <g id="ytick_5">
     <g id="line2d_16">
      <path clip-path="url(#p84f4b2a733)" d="M 64.84 109.205862 
L 693.03 109.205862 
" style="fill:none;stroke:#f0f0f0;stroke-linecap:square;"/>
     </g>
     <g id="line2d_17">
      <g>
       <use style="fill:#003559;stroke:#003559;stroke-width:0.8;" x="64.84" xlink:href="#m719db08baa" y="109.205862"/>
      </g>
     </g>
     <g id="text_12">
      <!-- -2% -->
      <g style="fill:#003559;" transform="translate(26.685 115.284612)scale(0.16 -0.16)">
       <use xlink:href="#DejaVuSans-45"/>
       <use x="36.083984" xlink:href="#DejaVuSans-50"/>
       <use x="99.707031" xlink:href="#DejaVuSans-37"/>
      </g>
     </g>
    </g>
    <g id="ytick_6">
     <g id="line2d_18">
      <path clip-path="url(#p84f4b2a733)" d="M 64.84 65.099295 
L 693.03 65.099295 
" style="fill:none;stroke:#f0f0f0;stroke-linecap:square;"/>
     </g>
     <g id="line2d_19">
      <g>
       <use style="fill:#003559;stroke:#003559;stroke-width:0.8;" x="64.84" xlink:href="#m719db08baa" y="65.099295"/>
      </g>
     </g>
     <g id="text_13">
      <!-- -1% -->
      <g style="fill:#003559;" transform="translate(26.685 71.178045)scale(0.16 -0.16)">
       <use xlink:href="#DejaVuSans-45"/>
       <use x="36.083984" xlink:href="#DejaVuSans-49"/>
       <use x="99.707031" xlink:href="#DejaVuSans-37"/>
      </g>
     </g>
    </g>
    <g id="ytick_7">
     <g id="line2d_20">
      <path clip-path="url(#p84f4b2a733)" d="M 64.84 20.992727 
L 693.03 20.992727 
" style="fill:none;stroke:#f0f0f0;stroke-linecap:square;"/>
     </g>
     <g id="line2d_21">
      <g>
       <use style="fill:#003559;stroke:#003559;stroke-width:0.8;" x="64.84" xlink:href="#m719db08baa" y="20.992727"/>
      </g>
     </g>
     <g id="text_14">
      <!-- 0% -->
      <g style="fill:#003559;" transform="translate(32.4575 27.071477)scale(0.16 -0.16)">
       <use xlink:href="#DejaVuSans-48"/>
       <use x="63.623047" xlink:href="#DejaVuSans-37"/>
      </g>
     </g>
    </g>
    <g id="text_15">
     <!-- Drawdown -->
     <defs>
      <path d="M 19.671875 64.796875 
L 19.671875 8.109375 
L 31.59375 8.109375 
Q 46.6875 8.109375 53.6875 14.9375 
Q 60.6875 21.78125 60.6875 36.53125 
Q 60.6875 51.171875 53.6875 57.984375 
Q 46.6875 64.796875 31.59375 64.796875 
z
M 9.8125 72.90625 
L 30.078125 72.90625 
Q 51.265625 72.90625 61.171875 64.09375 
Q 71.09375 55.28125 71.09375 36.53125 
Q 71.09375 17.671875 61.125 8.828125 
Q 51.171875 0 30.078125 0 
L 9.8125 0 
z
" id="DejaVuSans-68"/>
      <path d="M 41.109375 46.296875 
Q 39.59375 47.171875 37.8125 47.578125 
Q 36.03125 48 33.890625 48 
Q 26.265625 48 22.1875 43.046875 
Q 18.109375 38.09375 18.109375 28.8125 
L 18.109375 0 
L 9.078125 0 
L 9.078125 54.6875 
L 18.109375 54.6875 
L 18.109375 46.1875 
Q 20.953125 51.171875 25.484375 53.578125 
Q 30.03125 56 36.53125 56 
Q 37.453125 56 38.578125 55.875 
Q 39.703125 55.765625 41.0625 55.515625 
z
" id="DejaVuSans-114"/>
      <path d="M 34.28125 27.484375 
Q 23.390625 27.484375 19.1875 25 
Q 14.984375 22.515625 14.984375 16.5 
Q 14.984375 11.71875 18.140625 8.90625 
Q 21.296875 6.109375 26.703125 6.109375 
Q 34.1875 6.109375 38.703125 11.40625 
Q 43.21875 16.703125 43.21875 25.484375 
L 43.21875 27.484375 
z
M 52.203125 31.203125 
L 52.203125 0 
L 43.21875 0 
L 43.21875 8.296875 
Q 40.140625 3.328125 35.546875 0.953125 
Q 30.953125 -1.421875 24.3125 -1.421875 
Q 15.921875 -1.421875 10.953125 3.296875 
Q 6 8.015625 6 15.921875 
Q 6 25.140625 12.171875 29.828125 
Q 18.359375 34.515625 30.609375 34.515625 
L 43.21875 34.515625 
L 43.21875 35.40625 
Q 43.21875 41.609375 39.140625 45 
Q 35.0625 48.390625 27.6875 48.390625 
Q 23 48.390625 18.546875 47.265625 
Q 14.109375 46.140625 10.015625 43.890625 
L 10.015625 52.203125 
Q 14.9375 54.109375 19.578125 55.046875 
Q 24.21875 56 28.609375 56 
Q 40.484375 56 46.34375 49.84375 
Q 52.203125 43.703125 52.203125 31.203125 
z
" id="DejaVuSans-97"/>
      <path d="M 4.203125 54.6875 
L 13.1875 54.6875 
L 24.421875 12.015625 
L 35.59375 54.6875 
L 46.1875 54.6875 
L 57.421875 12.015625 
L 68.609375 54.6875 
L 77.59375 54.6875 
L 63.28125 0 
L 52.6875 0 
L 40.921875 44.828125 
L 29.109375 0 
L 18.5 0 
z
" id="DejaVuSans-119"/>
      <path d="M 45.40625 46.390625 
L 45.40625 75.984375 
L 54.390625 75.984375 
L 54.390625 0 
L 45.40625 0 
L 45.40625 8.203125 
Q 42.578125 3.328125 38.25 0.953125 
Q 33.9375 -1.421875 27.875 -1.421875 
Q 17.96875 -1.421875 11.734375 6.484375 
Q 5.515625 14.40625 5.515625 27.296875 
Q 5.515625 40.1875 11.734375 48.09375 
Q 17.96875 56 27.875 56 
Q 33.9375 56 38.25 53.625 
Q 42.578125 51.265625 45.40625 46.390625 
z
M 14.796875 27.296875 
Q 14.796875 17.390625 18.875 11.75 
Q 22.953125 6.109375 30.078125 6.109375 
Q 37.203125 6.109375 41.296875 11.75 
Q 45.40625 17.390625 45.40625 27.296875 
Q 45.40625 37.203125 41.296875 42.84375 
Q 37.203125 48.484375 30.078125 48.484375 
Q 22.953125 48.484375 18.875 42.84375 
Q 14.796875 37.203125 14.796875 27.296875 
z
" id="DejaVuSans-100"/>
      <path d="M 30.609375 48.390625 
Q 23.390625 48.390625 19.1875 42.75 
Q 14.984375 37.109375 14.984375 27.296875 
Q 14.984375 17.484375 19.15625 11.84375 
Q 23.34375 6.203125 30.609375 6.203125 
Q 37.796875 6.203125 41.984375 11.859375 
Q 46.1875 17.53125 46.1875 27.296875 
Q 46.1875 37.015625 41.984375 42.703125 
Q 37.796875 48.390625 30.609375 48.390625 
z
M 30.609375 56 
Q 42.328125 56 49.015625 48.375 
Q 55.71875 40.765625 55.71875 27.296875 
Q 55.71875 13.875 49.015625 6.21875 
Q 42.328125 -1.421875 30.609375 -1.421875 
Q 18.84375 -1.421875 12.171875 6.21875 
Q 5.515625 13.875 5.515625 27.296875 
Q 5.515625 40.765625 12.171875 48.375 
Q 18.84375 56 30.609375 56 
z
" id="DejaVuSans-111"/>
      <path d="M 54.890625 33.015625 
L 54.890625 0 
L 45.90625 0 
L 45.90625 32.71875 
Q 45.90625 40.484375 42.875 44.328125 
Q 39.84375 48.1875 33.796875 48.1875 
Q 26.515625 48.1875 22.3125 43.546875 
Q 18.109375 38.921875 18.109375 30.90625 
L 18.109375 0 
L 9.078125 0 
L 9.078125 54.6875 
L 18.109375 54.6875 
L 18.109375 46.1875 
Q 21.34375 51.125 25.703125 53.5625 
Q 30.078125 56 35.796875 56 
Q 45.21875 56 50.046875 50.171875 
Q 54.890625 44.34375 54.890625 33.015625 
z
" id="DejaVuSans-110"/>
     </defs>
     <g style="fill:#003559;" transform="translate(19.3575 201.4)rotate(-90)scale(0.16 -0.16)">
      <use xlink:href="#DejaVuSans-68"/>
      <use x="77.001953" xlink:href="#DejaVuSans-114"/>
      <use x="118.115234" xlink:href="#DejaVuSans-97"/>
      <use x="179.394531" xlink:href="#DejaVuSans-119"/>
      <use x="261.181641" xlink:href="#DejaVuSans-100"/>
      <use x="324.658203" xlink:href="#DejaVuSans-111"/>
      <use x="385.839844" xlink:href="#DejaVuSans-119"/>
      <use x="467.626953" xlink:href="#DejaVuSans-110"/>
     </g>
    </g>
   </g>
   <g id="line2d_22">
    <path clip-path="url(#p84f4b2a733)" d="M 93.394091 20.992727 
L 94.438116 30.32907 
L 94.960129 39.417581 
L 95.482141 31.459728 
L 96.004154 51.357787 
L 96.526167 35.717475 
L 97.048179 42.053892 
L 97.570192 38.89749 
L 98.092205 40.732581 
L 98.614217 27.536988 
L 99.13623 45.326498 
L 99.658242 47.799718 
L 100.180255 50.81196 
L 100.702268 40.523453 
L 101.22428 49.827354 
L 101.746293 50.983586 
L 102.268306 58.320021 
L 102.790318 57.596612 
L 103.312331 52.143844 
L 103.834344 61.4295 
L 104.878369 42.816437 
L 105.400381 38.050274 
L 105.922394 29.778453 
L 106.444407 35.441325 
L 106.966419 36.165795 
L 107.488432 44.036139 
L 108.010445 46.031581 
L 108.532457 41.024534 
L 109.05447 46.742599 
L 109.576482 49.866936 
L 110.098495 55.534155 
L 110.620508 62.577184 
L 111.14252 68.088795 
L 111.664533 67.845931 
L 112.186546 77.243969 
L 112.708558 74.84984 
L 113.230571 60.034148 
L 113.752584 53.192243 
L 114.274596 54.517536 
L 115.318621 68.109438 
L 115.840634 52.985864 
L 116.362647 52.186312 
L 116.884659 57.411034 
L 117.406672 55.386561 
L 117.928685 36.649606 
L 118.450697 35.237474 
L 118.97271 29.454467 
L 119.494722 26.455133 
L 120.016735 29.20183 
L 120.538748 38.905046 
L 121.06076 41.61844 
L 121.582773 43.097012 
L 122.104786 37.592746 
L 123.148811 21.310298 
L 123.670824 20.992727 
L 124.192836 20.992727 
L 124.714849 27.290305 
L 125.236861 20.992727 
L 125.758874 20.992727 
L 126.280887 23.265095 
L 126.802899 20.992727 
L 127.324912 21.302166 
L 127.846925 20.992727 
L 128.89095 20.992727 
L 129.934975 45.302655 
L 130.456988 49.372945 
L 130.979 47.615388 
L 131.501013 39.578032 
L 132.023026 36.449752 
L 132.545038 53.869757 
L 133.067051 56.196205 
L 133.589063 48.596324 
L 134.111076 46.224322 
L 134.633089 39.185677 
L 135.677114 42.190488 
L 136.199127 40.197194 
L 136.721139 36.240102 
L 137.243152 34.140918 
L 137.765165 32.738097 
L 138.287177 38.282213 
L 138.80919 34.608858 
L 139.331202 33.181451 
L 139.853215 22.889238 
L 140.375228 20.992727 
L 140.89724 20.992727 
L 141.419253 23.946031 
L 141.941266 29.219736 
L 142.463278 25.134391 
L 142.985291 24.095923 
L 143.507303 26.770079 
L 144.029316 26.029266 
L 144.551329 31.135448 
L 145.073341 24.635667 
L 145.595354 28.219762 
L 146.117367 20.992727 
L 147.161392 20.992727 
L 147.683405 30.294085 
L 148.205417 28.446611 
L 148.72743 21.568371 
L 149.249442 29.623009 
L 149.771455 31.610307 
L 150.293468 30.966954 
L 150.81548 42.695866 
L 151.337493 39.573981 
L 151.859506 31.78548 
L 152.381518 38.992657 
L 152.903531 35.557256 
L 153.425543 46.739071 
L 153.947556 46.723306 
L 154.469569 60.538272 
L 154.991581 50.380589 
L 155.513594 46.442759 
L 156.035607 46.303519 
L 156.557619 52.747069 
L 157.079632 41.237133 
L 157.601645 23.608794 
L 158.123657 39.631922 
L 158.64567 28.417721 
L 159.167682 20.992727 
L 159.689695 20.992727 
L 160.211708 31.214644 
L 160.73372 23.260079 
L 161.255733 24.498194 
L 161.777746 29.464415 
L 162.299758 39.937785 
L 162.821771 34.746513 
L 163.343783 27.418634 
L 163.865796 32.554298 
L 164.387809 27.617902 
L 164.909821 37.340667 
L 165.431834 29.937538 
L 165.953847 29.171108 
L 166.475859 30.457307 
L 166.997872 30.996477 
L 167.519884 22.992751 
L 168.041897 20.992727 
L 171.173973 20.992727 
L 171.695986 23.371162 
L 172.217998 44.481037 
L 172.740011 35.010739 
L 173.262023 20.992727 
L 173.784036 20.992727 
L 174.306049 21.519025 
L 175.350074 23.058139 
L 175.872087 22.547602 
L 176.394099 32.084715 
L 176.916112 36.278391 
L 177.438124 44.687032 
L 177.960137 42.148803 
L 178.48215 44.397527 
L 179.004162 39.696986 
L 179.526175 40.875874 
L 180.048188 31.858732 
L 180.5702 29.623401 
L 181.092213 20.992727 
L 181.614226 37.363919 
L 182.136238 42.693515 
L 182.658251 34.424897 
L 183.180263 20.992727 
L 183.702276 22.82881 
L 184.224289 22.086698 
L 184.746301 23.725478 
L 185.268314 20.992727 
L 185.790327 23.169957 
L 186.312339 20.992727 
L 186.834352 23.456595 
L 187.356364 34.31896 
L 187.878377 31.205291 
L 188.922402 20.992727 
L 189.444415 21.609812 
L 189.966428 26.697842 
L 190.48844 21.38323 
L 191.010453 20.992727 
L 191.532466 20.992727 
L 192.054478 21.280475 
L 192.576491 20.992727 
L 194.664541 20.992727 
L 195.186554 34.991668 
L 195.708567 29.339216 
L 196.752592 20.992727 
L 197.274604 20.992727 
L 197.796617 24.171797 
L 198.31863 20.992727 
L 198.840642 25.595797 
L 199.362655 20.992727 
L 199.884668 32.385088 
L 200.928693 61.639173 
L 201.450706 69.068736 
L 201.972718 78.479889 
L 202.494731 61.097056 
L 203.016743 63.597067 
L 203.538756 74.973071 
L 204.060769 64.910228 
L 204.582781 69.678976 
L 205.104794 80.115952 
L 205.626807 72.141053 
L 206.148819 66.352887 
L 206.670832 69.796788 
L 207.192844 57.164573 
L 207.714857 55.680794 
L 208.23687 41.174959 
L 208.758882 36.404848 
L 209.280895 22.346231 
L 209.802908 21.024358 
L 210.32492 31.426828 
L 210.846933 20.992727 
L 211.368945 25.44997 
L 211.890958 26.845366 
L 212.412971 32.658874 
L 212.934983 34.092077 
L 213.979009 29.469161 
L 214.501021 23.292783 
L 215.023034 20.992727 
L 215.545047 21.69818 
L 216.589072 42.263803 
L 217.111084 47.75283 
L 217.633097 62.076797 
L 218.15511 54.512866 
L 218.677122 58.519875 
L 219.199135 60.885667 
L 219.721148 60.548229 
L 220.24316 72.403769 
L 220.765173 79.560109 
L 221.809198 67.590299 
L 222.331211 71.104927 
L 222.853223 54.961947 
L 223.375236 66.037012 
L 223.897249 68.695619 
L 224.419261 70.356565 
L 224.941274 94.366284 
L 225.463287 77.207801 
L 225.985299 73.664808 
L 226.507312 82.41648 
L 227.029324 64.22219 
L 227.551337 58.752815 
L 228.07335 54.642124 
L 228.595362 59.601319 
L 229.117375 58.318421 
L 229.639388 71.308852 
L 230.1614 64.022555 
L 230.683413 66.939651 
L 231.205425 65.416006 
L 231.727438 54.565496 
L 233.293476 46.285894 
L 233.815489 52.362065 
L 234.337501 44.685193 
L 234.859514 30.788586 
L 235.381527 23.75338 
L 235.903539 20.992727 
L 236.947564 35.659907 
L 237.469577 47.972044 
L 237.99159 36.813426 
L 238.513602 38.691662 
L 239.035615 26.036982 
L 239.557628 32.569787 
L 240.07964 36.062796 
L 240.601653 34.867915 
L 241.123665 26.409007 
L 241.645678 25.517004 
L 242.167691 23.299681 
L 242.689703 22.796946 
L 243.211716 20.992727 
L 243.733729 30.484257 
L 244.255741 29.415475 
L 244.777754 30.701683 
L 245.299766 30.84543 
L 245.821779 26.155672 
L 246.343792 31.796334 
L 246.865804 32.183652 
L 247.387817 34.443822 
L 247.90983 30.417783 
L 248.431842 23.153429 
L 248.953855 31.220378 
L 249.99788 20.992727 
L 250.519893 33.613061 
L 251.563918 47.936906 
L 252.085931 50.028854 
L 252.607943 35.452585 
L 253.129956 34.979151 
L 253.651969 40.731758 
L 254.173981 34.915578 
L 254.695994 39.833865 
L 255.218006 29.61055 
L 255.740019 26.56645 
L 256.262032 20.992727 
L 256.784044 26.469449 
L 257.306057 20.992727 
L 258.872095 21.087074 
L 259.91612 34.417963 
L 260.438133 35.257695 
L 260.960145 41.911868 
L 261.482158 39.074615 
L 262.004171 45.976266 
L 262.526183 40.173355 
L 263.048196 31.420135 
L 263.570209 37.275497 
L 264.092221 26.437395 
L 264.614234 28.177003 
L 265.136246 20.992727 
L 266.180272 20.992727 
L 266.702284 29.430549 
L 267.224297 30.01429 
L 267.74631 20.992727 
L 268.268322 26.087421 
L 270.356373 99.971779 
L 270.878385 103.187149 
L 271.400398 91.768481 
L 271.922411 95.255455 
L 272.444423 92.098382 
L 272.966436 92.701566 
L 273.488449 92.275983 
L 274.532474 94.54425 
L 275.054486 90.192769 
L 275.576499 100.052126 
L 276.620524 82.611819 
L 277.142537 83.95623 
L 277.66455 76.600919 
L 278.186562 82.356998 
L 278.708575 86.677845 
L 279.230588 84.968038 
L 279.7526 86.269677 
L 280.274613 89.817635 
L 281.318638 99.789112 
L 281.840651 91.301595 
L 282.362663 107.819485 
L 282.884676 104.421063 
L 283.406689 106.11685 
L 283.928701 99.470179 
L 284.450714 94.65655 
L 284.972726 118.440977 
L 285.494739 113.048261 
L 286.016752 109.897691 
L 286.538764 109.358717 
L 287.060777 113.06016 
L 287.58279 105.340471 
L 288.104802 108.563884 
L 288.626815 92.35049 
L 289.148827 87.101015 
L 289.67084 68.173371 
L 290.192853 74.675307 
L 290.714865 89.623497 
L 291.758891 75.296294 
L 292.280903 74.635407 
L 292.802916 87.691636 
L 293.324929 91.231111 
L 293.846941 85.514965 
L 294.368954 86.763898 
L 294.890966 87.419906 
L 295.412979 88.592551 
L 295.934992 96.352912 
L 296.457004 100.623415 
L 296.979017 112.629558 
L 297.50103 97.008069 
L 298.023042 100.778164 
L 298.545055 96.290486 
L 299.067067 104.799866 
L 299.58908 97.573842 
L 300.111093 113.459684 
L 300.633105 105.159189 
L 301.155118 105.11484 
L 301.677131 86.501238 
L 302.199143 97.503509 
L 302.721156 96.490415 
L 303.243169 92.955309 
L 303.765181 81.90559 
L 304.287194 85.231959 
L 304.809206 84.128338 
L 305.331219 102.405087 
L 305.853232 109.242485 
L 306.375244 104.988294 
L 306.897257 95.083117 
L 307.41927 97.175451 
L 308.463295 63.32197 
L 308.985307 63.498096 
L 309.50732 84.229428 
L 310.029333 99.333002 
L 310.551345 105.722005 
L 311.073358 95.717569 
L 311.595371 92.675779 
L 312.117383 110.498154 
L 312.639396 112.125263 
L 313.161409 97.837534 
L 313.683421 100.73522 
L 314.205434 106.880584 
L 314.727446 88.758788 
L 315.249459 87.94317 
L 315.771472 91.754025 
L 316.293484 88.363175 
L 316.815497 87.862325 
L 317.33751 91.238744 
L 318.381535 70.335044 
L 318.903547 62.647314 
L 319.42556 63.192513 
L 319.947573 52.818358 
L 320.469585 52.899011 
L 320.991598 48.457764 
L 322.557636 20.992727 
L 323.079648 20.992727 
L 323.601661 35.491146 
L 324.123674 45.3357 
L 324.645686 33.136484 
L 325.167699 35.694572 
L 325.689712 31.940142 
L 326.211724 39.076141 
L 326.733737 29.927513 
L 327.25575 32.958882 
L 327.777762 20.992727 
L 328.299775 25.330528 
L 328.821787 20.992727 
L 329.3438 20.992727 
L 329.865813 27.00797 
L 330.387825 20.992727 
L 331.431851 35.475283 
L 331.953863 28.773716 
L 332.997888 38.790712 
L 333.519901 41.456365 
L 334.041914 49.882691 
L 334.563926 40.369984 
L 335.085939 34.670035 
L 335.607952 34.923613 
L 336.129964 35.520679 
L 336.651977 31.20677 
L 337.17399 20.992727 
L 337.696002 20.992727 
L 338.218015 25.120784 
L 338.740027 20.992727 
L 339.26204 21.683242 
L 339.784053 23.081246 
L 340.306065 20.992727 
L 341.350091 28.198016 
L 341.872103 45.033398 
L 342.394116 56.981101 
L 342.916128 52.679787 
L 343.438141 58.411225 
L 343.960154 53.548998 
L 344.482166 62.956467 
L 345.004179 69.306945 
L 345.526192 63.068238 
L 346.048204 49.950389 
L 346.570217 44.403456 
L 347.614242 20.992727 
L 348.136255 20.992727 
L 348.658267 28.737372 
L 349.18028 29.308443 
L 349.702293 23.403242 
L 350.224305 26.703729 
L 350.746318 22.365393 
L 351.268331 35.934199 
L 351.790343 42.863031 
L 352.312356 37.865319 
L 352.834368 57.168033 
L 353.356381 66.505096 
L 353.878394 66.306265 
L 354.400406 80.964226 
L 354.922419 80.114849 
L 355.444432 86.720951 
L 356.488457 90.800678 
L 357.01047 88.805742 
L 357.532482 93.350924 
L 358.054495 92.221409 
L 358.576507 97.087328 
L 359.09852 91.915617 
L 359.620533 76.862797 
L 360.664558 72.96243 
L 361.186571 82.756529 
L 361.708583 76.373578 
L 362.752608 89.307227 
L 363.274621 84.114371 
L 363.796634 82.188136 
L 364.318646 72.204656 
L 364.840659 59.271316 
L 365.362672 63.636597 
L 365.884684 62.161343 
L 366.406697 46.423248 
L 366.928709 37.591118 
L 367.450722 30.968901 
L 367.972735 20.992727 
L 368.494747 25.968917 
L 369.01676 20.992727 
L 370.060785 20.992727 
L 370.582798 27.747133 
L 371.104811 29.607175 
L 371.626823 25.881213 
L 372.148836 28.070917 
L 372.670848 31.165075 
L 373.192861 24.788821 
L 373.714874 27.546783 
L 374.236886 42.938415 
L 374.758899 39.406903 
L 375.280912 42.780142 
L 375.802924 48.845891 
L 376.324937 62.21559 
L 376.846949 53.002065 
L 377.368962 72.150937 
L 377.890975 86.614362 
L 378.412987 88.659595 
L 379.457013 65.875612 
L 379.979025 75.60683 
L 380.501038 76.801597 
L 381.023051 89.604529 
L 381.545063 80.47147 
L 382.067076 92.968658 
L 382.589088 93.859846 
L 383.111101 84.546812 
L 383.633114 86.128469 
L 384.155126 72.999316 
L 384.677139 80.230448 
L 385.199152 76.665038 
L 385.721164 68.880283 
L 386.243177 69.746018 
L 386.765189 57.298826 
L 387.287202 52.149141 
L 387.809215 66.136884 
L 388.331227 31.220677 
L 388.85324 25.155683 
L 389.375253 23.852802 
L 389.897265 35.827196 
L 390.419278 34.752321 
L 390.941291 38.440875 
L 391.463303 32.423525 
L 391.985316 28.797125 
L 392.507328 20.992727 
L 394.073366 20.992727 
L 394.595379 21.9454 
L 395.117392 23.205755 
L 395.639404 20.992727 
L 396.161417 20.992727 
L 396.683429 26.188026 
L 397.205442 35.641644 
L 397.727455 35.878297 
L 398.249467 25.311451 
L 398.77148 25.197206 
L 399.293493 20.992727 
L 399.815505 27.472662 
L 400.337518 25.868365 
L 400.85953 47.684125 
L 401.381543 52.551858 
L 401.903556 54.904556 
L 402.425568 50.077611 
L 402.947581 34.731988 
L 403.469594 34.06861 
L 403.991606 20.992727 
L 405.035632 20.992727 
L 405.557644 24.747623 
L 406.079657 20.992727 
L 406.601669 30.100479 
L 407.123682 25.385084 
L 407.645695 33.418311 
L 408.167707 37.619963 
L 408.68972 50.107008 
L 409.211733 54.276963 
L 409.733745 50.848517 
L 410.255758 51.096272 
L 410.77777 62.549419 
L 411.299783 49.343963 
L 411.821796 46.033446 
L 412.865821 29.578524 
L 413.387834 35.075607 
L 413.909846 51.82263 
L 414.431859 59.486724 
L 414.953872 48.419477 
L 415.475884 57.300365 
L 415.997897 49.806783 
L 416.519909 54.818856 
L 417.041922 51.023247 
L 417.563935 66.648299 
L 418.085947 56.106225 
L 418.60796 56.09901 
L 419.129973 47.992699 
L 419.651985 45.973107 
L 420.173998 38.617828 
L 420.69601 39.157634 
L 421.218023 32.271527 
L 421.740036 45.197599 
L 422.262048 54.323328 
L 422.784061 47.617552 
L 423.306074 47.606023 
L 423.828086 49.256712 
L 424.350099 50.476061 
L 424.872112 45.724957 
L 425.394124 50.574479 
L 425.916137 45.74828 
L 426.438149 53.426227 
L 426.960162 56.637732 
L 428.004187 37.917315 
L 428.5262 47.202688 
L 429.048213 39.493709 
L 429.570225 48.266505 
L 430.092238 41.485268 
L 430.61425 57.801919 
L 431.136263 67.219841 
L 431.658276 71.309129 
L 432.180288 72.407872 
L 432.702301 59.643075 
L 433.224314 51.384422 
L 433.746326 37.227746 
L 434.268339 26.26717 
L 435.312364 30.391442 
L 435.834377 20.992727 
L 436.356389 20.992727 
L 436.878402 22.020415 
L 437.400415 33.438793 
L 437.922427 34.019066 
L 438.44444 58.21046 
L 438.966453 61.845876 
L 439.488465 70.055837 
L 440.010478 63.661152 
L 440.53249 67.489075 
L 441.054503 70.007706 
L 441.576516 57.90329 
L 442.098528 66.725788 
L 442.620541 63.607905 
L 443.142554 79.811363 
L 443.664566 78.677951 
L 444.186579 74.75367 
L 444.708591 66.908084 
L 445.230604 74.39964 
L 446.274629 68.133428 
L 446.796642 67.947878 
L 447.318655 66.285226 
L 448.36268 58.05352 
L 449.406705 76.498532 
L 449.928718 54.31798 
L 450.45073 37.156342 
L 450.972743 49.032026 
L 451.494756 44.73083 
L 452.538781 31.913847 
L 453.060794 30.322123 
L 453.582806 38.12461 
L 454.104819 39.371732 
L 454.626831 43.330333 
L 455.148844 41.795595 
L 455.670857 43.796299 
L 456.192869 44.59649 
L 457.236895 24.12835 
L 457.758907 34.182876 
L 458.28092 37.871796 
L 458.802933 44.465158 
L 459.324945 33.372467 
L 459.846958 33.538499 
L 460.36897 20.992727 
L 460.890983 24.848415 
L 461.412996 24.262371 
L 461.935008 35.793887 
L 462.457021 23.986367 
L 462.979034 26.825951 
L 463.501046 39.552924 
L 464.023059 44.401519 
L 464.545071 64.270617 
L 465.067084 64.194835 
L 465.589097 62.858561 
L 466.111109 59.987642 
L 466.633122 46.535152 
L 467.155135 48.819648 
L 467.677147 41.386815 
L 468.19916 38.289644 
L 468.721173 39.632505 
L 469.243185 57.519512 
L 469.765198 48.87628 
L 470.28721 52.938943 
L 470.809223 52.42708 
L 471.331236 63.199684 
L 471.853248 60.373395 
L 472.375261 59.074917 
L 472.897274 58.463537 
L 473.419286 59.28832 
L 474.463311 40.936475 
L 474.985324 34.206302 
L 475.507337 20.992727 
L 476.029349 25.9303 
L 476.551362 28.917593 
L 477.073375 37.496849 
L 477.595387 33.309403 
L 478.1174 39.000804 
L 478.639412 62.35097 
L 479.161425 72.59999 
L 479.683438 71.617067 
L 480.20545 62.458553 
L 480.727463 75.709858 
L 481.249476 80.692609 
L 481.771488 81.552868 
L 482.293501 87.538987 
L 482.815514 82.572305 
L 483.337526 82.18529 
L 483.859539 79.038373 
L 484.381551 84.999029 
L 484.903564 71.289437 
L 485.425577 70.939578 
L 485.947589 59.304831 
L 486.469602 62.789629 
L 486.991615 57.280212 
L 487.513627 62.869699 
L 488.03564 70.824514 
L 488.557652 76.614444 
L 489.079665 76.661248 
L 489.601678 78.213716 
L 490.12369 64.45947 
L 491.167716 83.28843 
L 491.689728 68.150208 
L 492.211741 62.48397 
L 492.733754 78.570519 
L 493.255766 73.888676 
L 493.777779 71.467278 
L 494.299791 89.814497 
L 494.821804 92.672026 
L 495.343817 92.472101 
L 495.865829 85.773317 
L 496.387842 77.125121 
L 496.909855 75.938601 
L 497.431867 66.583022 
L 497.95388 67.506496 
L 498.997905 82.425163 
L 499.519918 77.352763 
L 500.04193 94.053023 
L 500.563943 87.821626 
L 501.085956 97.083361 
L 501.607968 99.846482 
L 502.129981 95.117235 
L 502.651994 84.202756 
L 503.174006 100.724686 
L 503.696019 107.356935 
L 504.218031 106.582412 
L 504.740044 111.388368 
L 505.262057 103.593612 
L 505.784069 121.303129 
L 506.828095 113.811028 
L 507.350107 113.0375 
L 507.87212 103.167486 
L 508.394132 113.461318 
L 508.916145 103.537173 
L 509.438158 109.271292 
L 509.96017 102.649031 
L 510.482183 105.105402 
L 511.526208 90.592417 
L 512.048221 102.951931 
L 512.570234 103.938857 
L 513.092246 104.388412 
L 513.614259 106.09666 
L 514.136271 112.283668 
L 514.658284 95.939784 
L 515.180297 93.775486 
L 515.702309 79.93325 
L 516.224322 84.534368 
L 516.746335 93.413817 
L 517.268347 91.915035 
L 517.79036 96.45217 
L 518.312372 75.37757 
L 518.834385 72.886515 
L 519.356398 62.485702 
L 519.87841 64.091305 
L 520.400423 66.585776 
L 520.922436 66.502126 
L 521.444448 63.043093 
L 521.966461 55.266274 
L 522.488473 55.981033 
L 523.010486 61.585025 
L 523.532499 70.564489 
L 524.054511 70.880111 
L 525.098537 61.177332 
L 525.620549 60.979126 
L 526.142562 65.87118 
L 526.664575 64.236122 
L 527.186587 58.887805 
L 527.7086 58.855661 
L 528.230612 57.518796 
L 528.752625 58.481203 
L 529.274638 50.119771 
L 529.79665 53.604902 
L 530.318663 51.625774 
L 530.840676 47.815844 
L 531.362688 41.099673 
L 531.884701 27.608586 
L 532.406713 21.302466 
L 532.928726 20.992727 
L 533.450739 33.604947 
L 533.972751 27.914782 
L 534.494764 20.992727 
L 535.016777 27.957312 
L 535.538789 36.579976 
L 536.060802 38.110873 
L 536.582815 28.78127 
L 537.104827 23.803884 
L 537.62684 27.653088 
L 538.148852 27.613426 
L 538.670865 20.992727 
L 541.280928 20.992727 
L 541.802941 23.714023 
L 542.324953 31.976962 
L 542.846966 30.107538 
L 543.368979 25.432624 
L 543.890991 37.37162 
L 544.413004 41.606502 
L 544.935017 44.493067 
L 545.457029 41.806938 
L 545.979042 43.738231 
L 546.501055 39.476781 
L 547.023067 38.259223 
L 547.54508 28.586554 
L 548.067092 43.298724 
L 548.589105 28.399239 
L 549.111118 20.992727 
L 550.677156 20.992727 
L 551.199168 27.139387 
L 551.721181 25.332145 
L 552.243193 20.992727 
L 554.331244 20.992727 
L 554.853257 27.408562 
L 555.375269 30.262906 
L 555.897282 33.953244 
L 556.419294 20.992727 
L 556.941307 20.992727 
L 557.46332 29.451779 
L 557.985332 25.585843 
L 558.507345 26.920974 
L 559.029358 53.466257 
L 559.55137 48.909921 
L 560.073383 62.165128 
L 560.595396 56.756077 
L 561.117408 64.812622 
L 561.639421 77.195498 
L 562.161433 72.537671 
L 562.683446 85.211358 
L 563.205459 88.742457 
L 563.727471 86.615557 
L 564.771497 74.109432 
L 565.293509 74.072725 
L 565.815522 80.974274 
L 566.337534 63.882137 
L 566.859547 68.821978 
L 567.38156 52.731154 
L 567.903572 56.339661 
L 568.947598 36.082794 
L 569.46961 44.918245 
L 569.991623 41.445904 
L 571.035648 27.936891 
L 571.557661 29.332377 
L 572.079673 26.317202 
L 572.601686 29.437909 
L 573.123699 39.398531 
L 573.645711 30.398761 
L 574.167724 34.968917 
L 574.689737 22.480134 
L 575.211749 20.992727 
L 575.733762 28.509841 
L 576.255774 29.572804 
L 576.777787 31.737673 
L 577.2998 39.044998 
L 577.821812 34.284093 
L 578.343825 38.137249 
L 578.865838 23.443722 
L 579.38785 20.992727 
L 579.909863 28.399948 
L 580.431876 28.210673 
L 580.953888 29.851104 
L 581.475901 43.267915 
L 582.519926 26.030568 
L 583.041939 20.992727 
L 583.563951 24.666758 
L 584.085964 20.992727 
L 584.607977 22.485821 
L 585.129989 20.992727 
L 586.174014 20.992727 
L 586.696027 33.154281 
L 587.21804 35.58584 
L 587.740052 29.594189 
L 588.262065 20.992727 
L 588.784078 30.637059 
L 589.30609 31.957849 
L 589.828103 29.548293 
L 590.872128 20.992727 
L 591.394141 29.002008 
L 591.916153 32.374305 
L 592.438166 23.14938 
L 592.960179 20.992727 
L 595.048229 20.992727 
L 595.570242 23.410391 
L 596.614267 45.945379 
L 597.13628 44.938301 
L 597.658292 46.333868 
L 598.180305 51.72 
L 598.702318 48.579526 
L 599.22433 56.028802 
L 599.746343 54.700097 
L 600.268355 54.516523 
L 600.790368 61.515521 
L 601.312381 81.248535 
L 601.834393 68.223256 
L 602.356406 65.106632 
L 602.878419 88.019042 
L 603.400431 91.371764 
L 603.922444 87.601965 
L 604.444457 89.232265 
L 604.966469 83.840517 
L 605.488482 91.951567 
L 606.010494 90.079761 
L 606.532507 90.19256 
L 607.05452 91.430473 
L 607.576532 92.997602 
L 608.098545 90.912857 
L 608.620558 82.46392 
L 609.14257 86.722875 
L 609.664583 89.909851 
L 610.186595 88.163967 
L 610.708608 88.855944 
L 611.230621 85.155055 
L 611.752633 78.558955 
L 612.274646 66.96509 
L 612.796659 67.628094 
L 613.318671 87.151022 
L 613.840684 87.404145 
L 614.362697 83.977721 
L 614.884709 85.251257 
L 615.406722 86.231309 
L 615.928734 107.019923 
L 616.450747 102.275999 
L 616.97276 104.731093 
L 617.494772 117.457282 
L 618.538798 131.727731 
L 619.582823 120.959391 
L 620.104835 107.551045 
L 620.626848 101.597471 
L 621.670873 124.774361 
L 622.192886 114.685778 
L 622.714899 100.809508 
L 623.236911 102.518067 
L 623.758924 97.329204 
L 624.280937 110.023545 
L 624.802949 126.475358 
L 625.324962 136.23545 
L 625.846974 138.956117 
L 626.368987 143.084686 
L 626.891 144.711089 
L 627.413012 148.573803 
L 627.935025 142.407936 
L 628.457038 129.814379 
L 628.97905 129.154558 
L 629.501063 111.338007 
L 630.545088 120.652134 
L 631.067101 116.959956 
L 631.589113 119.672218 
L 632.111126 109.172162 
L 632.633139 114.364448 
L 633.155151 102.593914 
L 633.677164 100.56213 
L 634.199177 77.988972 
L 634.721189 81.677582 
L 635.243202 83.08872 
L 635.765214 81.469794 
L 636.287227 100.093216 
L 637.331252 90.002703 
L 637.853265 88.701845 
L 638.89729 114.806787 
L 639.419303 109.392502 
L 639.941315 98.88361 
L 640.463328 84.715832 
L 641.507353 100.743497 
L 642.029366 102.748236 
L 642.551379 119.503135 
L 643.073391 124.233025 
L 643.595404 116.546158 
L 644.117416 102.089737 
L 644.639429 99.321861 
L 645.161442 84.75617 
L 645.683454 80.83209 
L 646.205467 78.814554 
L 646.72748 79.954545 
L 647.249492 77.975131 
L 647.771505 79.841637 
L 648.293518 80.715633 
L 648.81553 86.122962 
L 649.337543 83.519774 
L 649.859555 83.041988 
L 650.381568 95.558036 
L 650.903581 97.294271 
L 651.425593 104.360815 
L 651.947606 121.736673 
L 652.469619 117.216636 
L 652.991631 103.417515 
L 653.513644 82.553503 
L 654.035656 68.611061 
L 654.557669 75.856396 
L 655.601694 55.131953 
L 656.123707 72.177057 
L 656.64572 64.314472 
L 657.167732 58.482593 
L 657.689745 56.704451 
L 658.211758 53.824776 
L 658.73377 52.959713 
L 659.255783 38.313618 
L 659.777795 41.488205 
L 660.299808 42.888194 
L 660.821821 42.467908 
L 661.343833 39.692565 
L 661.865846 54.825111 
L 662.387859 42.320813 
L 662.909871 39.979607 
L 663.431884 34.625127 
L 663.953896 32.533822 
L 664.475909 33.817907 
L 664.475909 33.817907 
" style="fill:none;stroke:#003559;stroke-linecap:square;stroke-width:2;"/>
   </g>
   <g id="line2d_23">
    <path clip-path="url(#p84f4b2a733)" d="M 93.394091 20.992727 
L 95.482141 20.992727 
L 96.004154 22.223241 
L 96.526167 20.992727 
L 97.570192 54.520135 
L 98.092205 49.331986 
L 98.614217 51.591686 
L 99.13623 74.378098 
L 99.658242 77.930187 
L 100.180255 86.683287 
L 100.702268 71.411317 
L 101.22428 79.008054 
L 101.746293 64.760451 
L 102.268306 58.206517 
L 102.790318 60.382363 
L 103.312331 59.573701 
L 103.834344 53.420198 
L 104.356356 83.203698 
L 104.878369 78.408734 
L 105.400381 82.831101 
L 105.922394 58.846335 
L 106.444407 67.383479 
L 106.966419 51.893951 
L 107.488432 84.406166 
L 108.010445 73.253946 
L 108.532457 69.114395 
L 109.05447 71.817291 
L 109.576482 72.868833 
L 110.098495 75.74651 
L 110.620508 69.689674 
L 111.14252 70.916546 
L 111.664533 93.774347 
L 112.186546 95.665457 
L 112.708558 66.069571 
L 113.230571 64.92571 
L 113.752584 60.585871 
L 114.274596 65.799169 
L 115.318621 60.126267 
L 115.840634 63.020768 
L 116.362647 51.176237 
L 116.884659 62.774655 
L 117.406672 63.950346 
L 117.928685 56.801992 
L 118.450697 59.774845 
L 118.97271 75.295698 
L 119.494722 67.470501 
L 120.016735 79.799321 
L 120.538748 85.110515 
L 121.06076 95.381227 
L 121.582773 96.294904 
L 122.626798 106.992172 
L 123.148811 97.631813 
L 123.670824 74.187785 
L 124.192836 78.332006 
L 124.714849 70.977316 
L 125.236861 75.097109 
L 125.758874 73.274736 
L 126.280887 57.999795 
L 126.802899 56.808591 
L 127.846925 76.008253 
L 128.368937 83.538111 
L 128.89095 83.183449 
L 129.412962 71.462099 
L 129.934975 88.706252 
L 130.979 113.177006 
L 131.501013 135.316678 
L 132.023026 117.704946 
L 132.545038 117.651697 
L 133.067051 92.527762 
L 133.589063 110.541719 
L 134.111076 93.23989 
L 134.633089 101.844978 
L 135.155101 106.610489 
L 136.199127 130.682633 
L 136.721139 147.240309 
L 137.243152 143.939265 
L 137.765165 160.323136 
L 138.287177 162.902701 
L 138.80919 162.501974 
L 139.331202 153.445782 
L 139.853215 151.637579 
L 140.375228 146.991811 
L 140.89724 139.859081 
L 141.419253 139.559827 
L 141.941266 134.359861 
L 142.463278 146.468253 
L 142.985291 155.916786 
L 143.507303 131.057625 
L 144.029316 130.686584 
L 144.551329 139.331616 
L 145.073341 121.041538 
L 145.595354 122.546149 
L 146.117367 130.380072 
L 146.639379 148.555065 
L 147.161392 138.018845 
L 147.683405 151.489782 
L 148.205417 157.891267 
L 148.72743 149.11391 
L 149.249442 146.234418 
L 149.771455 146.824953 
L 150.293468 149.055136 
L 150.81548 133.812262 
L 151.337493 104.534098 
L 151.859506 111.132097 
L 152.381518 103.233363 
L 152.903531 77.661598 
L 153.425543 63.038074 
L 153.947556 71.508879 
L 154.469569 76.612696 
L 154.991581 83.896173 
L 155.513594 95.28229 
L 156.035607 102.871956 
L 156.557619 98.945297 
L 157.079632 106.049231 
L 157.601645 94.153489 
L 158.123657 92.022712 
L 158.64567 96.665668 
L 159.167682 84.6155 
L 160.211708 75.941146 
L 160.73372 61.821704 
L 161.255733 53.775646 
L 161.777746 54.674056 
L 162.299758 41.831379 
L 162.821771 37.22456 
L 163.343783 20.992727 
L 166.475859 20.992727 
L 166.997872 31.454985 
L 167.519884 38.365402 
L 168.041897 30.873398 
L 168.56391 50.949211 
L 169.085922 47.678851 
L 169.607935 56.725485 
L 170.129948 46.767595 
L 170.65196 56.050573 
L 171.173973 30.941683 
L 171.695986 20.992727 
L 172.217998 37.246427 
L 172.740011 20.992727 
L 173.262023 23.463922 
L 173.784036 32.548967 
L 174.306049 45.525955 
L 174.828061 37.522272 
L 175.350074 20.992727 
L 175.872087 28.110652 
L 176.916112 55.234404 
L 177.438124 35.056087 
L 177.960137 20.992727 
L 178.48215 25.067883 
L 179.004162 20.992727 
L 179.526175 20.992727 
L 180.048188 21.259181 
L 180.5702 20.992727 
L 181.614226 20.992727 
L 182.136238 24.328319 
L 182.658251 20.992727 
L 183.180263 24.188417 
L 183.702276 22.992907 
L 184.224289 20.992727 
L 184.746301 36.350579 
L 185.790327 43.345705 
L 186.312339 41.480286 
L 187.356364 70.63584 
L 187.878377 48.866245 
L 188.40039 33.128503 
L 188.922402 20.992727 
L 189.966428 20.992727 
L 190.48844 21.662074 
L 191.010453 20.992727 
L 191.532466 45.323593 
L 192.054478 59.240396 
L 192.576491 48.758023 
L 193.098503 47.796742 
L 193.620516 64.067102 
L 194.142529 54.907889 
L 194.664541 41.260401 
L 195.186554 31.930306 
L 195.708567 31.795722 
L 196.230579 42.296717 
L 196.752592 40.346684 
L 197.274604 34.188969 
L 197.796617 38.385408 
L 198.31863 29.903829 
L 199.362655 20.992727 
L 199.884668 47.351429 
L 200.40668 32.599325 
L 200.928693 20.992727 
L 201.450706 25.782363 
L 201.972718 44.768202 
L 202.494731 35.826565 
L 203.016743 41.433436 
L 203.538756 53.636295 
L 204.060769 37.110923 
L 204.582781 54.815018 
L 205.104794 44.863124 
L 205.626807 60.750849 
L 206.148819 41.045599 
L 206.670832 33.708299 
L 207.192844 36.570064 
L 207.714857 34.066673 
L 208.23687 25.853125 
L 208.758882 20.992727 
L 209.802908 20.992727 
L 210.32492 26.773623 
L 210.846933 20.992727 
L 211.368945 37.808328 
L 211.890958 24.03909 
L 212.412971 20.992727 
L 212.934983 20.992727 
L 213.456996 28.247637 
L 213.979009 25.25282 
L 214.501021 20.992727 
L 215.023034 20.992727 
L 215.545047 26.102572 
L 216.067059 21.505504 
L 216.589072 20.992727 
L 217.111084 20.992727 
L 217.633097 28.772721 
L 218.15511 23.753693 
L 218.677122 20.992727 
L 219.199135 20.992727 
L 219.721148 21.421431 
L 220.24316 20.992727 
L 220.765173 21.395727 
L 221.287185 20.992727 
L 221.809198 20.992727 
L 222.331211 24.780397 
L 222.853223 20.992727 
L 223.375236 31.623535 
L 223.897249 46.578124 
L 224.941274 65.30031 
L 225.463287 64.62008 
L 226.507312 22.592645 
L 227.029324 20.992727 
L 227.551337 53.513199 
L 228.07335 47.933013 
L 228.595362 64.637095 
L 229.117375 70.666303 
L 229.639388 85.178298 
L 230.1614 79.100423 
L 230.683413 86.753696 
L 231.205425 76.161542 
L 231.727438 69.395785 
L 232.249451 72.007594 
L 232.771463 70.424344 
L 233.293476 57.891323 
L 233.815489 62.242846 
L 234.337501 49.709919 
L 234.859514 49.431528 
L 235.381527 45.357504 
L 236.425552 20.992727 
L 237.99159 20.992727 
L 238.513602 40.90624 
L 239.035615 20.992727 
L 239.557628 37.995784 
L 240.07964 25.550287 
L 240.601653 32.472323 
L 241.123665 25.243444 
L 241.645678 26.249087 
L 242.167691 21.701618 
L 242.689703 31.760187 
L 243.211716 59.745263 
L 243.733729 53.880588 
L 244.777754 69.208892 
L 245.299766 78.171482 
L 245.821779 51.725352 
L 246.343792 58.843157 
L 246.865804 54.024682 
L 247.387817 68.732845 
L 247.90983 48.267408 
L 248.431842 55.049922 
L 248.953855 88.664159 
L 249.475868 52.8027 
L 249.99788 66.696634 
L 250.519893 49.026098 
L 251.563918 29.72705 
L 252.085931 32.249242 
L 252.607943 29.217722 
L 253.129956 20.992727 
L 253.651969 24.438829 
L 254.173981 20.992727 
L 255.218006 20.992727 
L 255.740019 26.080288 
L 256.262032 20.992727 
L 256.784044 20.992727 
L 257.306057 22.113204 
L 257.82807 31.841545 
L 258.350082 44.580363 
L 259.394108 20.992727 
L 259.91612 49.179707 
L 260.438133 56.739448 
L 260.960145 43.54409 
L 261.482158 20.992727 
L 263.048196 20.992727 
L 263.570209 27.435722 
L 264.092221 20.992727 
L 264.614234 36.82705 
L 265.136246 43.701209 
L 265.658259 38.94295 
L 266.180272 20.992727 
L 267.224297 20.992727 
L 267.74631 22.707464 
L 268.268322 39.663591 
L 268.790335 31.186758 
L 269.312348 35.260713 
L 269.83436 31.573842 
L 270.356373 42.778693 
L 270.878385 40.649018 
L 271.400398 60.362885 
L 271.922411 53.223708 
L 272.444423 35.356854 
L 272.966436 22.768809 
L 273.488449 20.992727 
L 275.054486 20.992727 
L 275.576499 32.097482 
L 276.098512 20.992727 
L 276.620524 20.992727 
L 277.142537 23.669995 
L 277.66455 35.073508 
L 278.186562 26.869465 
L 278.708575 20.992727 
L 279.7526 20.992727 
L 280.274613 22.946079 
L 280.796625 22.44685 
L 281.318638 20.992727 
L 281.840651 20.992727 
L 282.362663 40.307219 
L 282.884676 37.944167 
L 283.928701 70.294437 
L 284.450714 62.097978 
L 284.972726 72.599009 
L 285.494739 113.306406 
L 286.016752 104.423845 
L 286.538764 87.253825 
L 287.060777 60.154307 
L 287.58279 64.820443 
L 288.104802 45.353925 
L 288.626815 79.310675 
L 289.148827 92.405641 
L 290.192853 78.446086 
L 290.714865 60.673118 
L 291.236878 47.597133 
L 291.758891 48.137382 
L 292.280903 27.494446 
L 292.802916 20.992727 
L 293.324929 20.992727 
L 293.846941 31.099092 
L 294.368954 26.600672 
L 294.890966 31.742718 
L 295.412979 20.992727 
L 296.457004 26.157225 
L 296.979017 43.153568 
L 297.50103 38.562798 
L 298.023042 23.327804 
L 298.545055 20.992727 
L 299.067067 60.364969 
L 299.58908 81.073744 
L 300.111093 54.374691 
L 300.633105 56.306818 
L 301.155118 57.730311 
L 301.677131 41.907721 
L 302.199143 38.784791 
L 302.721156 46.587797 
L 303.243169 48.815677 
L 303.765181 23.338433 
L 304.287194 41.07172 
L 304.809206 23.398968 
L 305.853232 30.043696 
L 306.375244 20.992727 
L 306.897257 28.963407 
L 307.41927 20.992727 
L 307.941282 25.260836 
L 308.463295 43.656281 
L 308.985307 45.308713 
L 309.50732 29.393934 
L 310.029333 31.314185 
L 310.551345 23.526714 
L 311.073358 20.992727 
L 311.595371 20.992727 
L 312.117383 25.981242 
L 312.639396 23.704276 
L 313.161409 50.05145 
L 313.683421 55.412272 
L 314.205434 78.564105 
L 314.727446 74.513228 
L 315.249459 69.348013 
L 315.771472 79.236113 
L 316.293484 68.244519 
L 316.815497 62.532948 
L 317.33751 58.154238 
L 317.859522 62.364742 
L 318.381535 55.636662 
L 318.903547 41.265396 
L 319.42556 49.430852 
L 319.947573 59.637276 
L 320.469585 43.511057 
L 322.035623 130.206766 
L 323.079648 124.8485 
L 323.601661 117.910267 
L 324.123674 116.402998 
L 325.689712 59.275704 
L 326.211724 73.905323 
L 326.733737 68.622808 
L 327.25575 79.430586 
L 327.777762 85.439484 
L 328.299775 98.25475 
L 328.821787 97.589068 
L 329.3438 89.987769 
L 329.865813 88.435384 
L 330.387825 103.45694 
L 330.909838 122.746075 
L 331.953863 141.582116 
L 332.475876 130.967207 
L 332.997888 134.564139 
L 334.041914 137.974693 
L 334.563926 123.324572 
L 335.085939 101.654453 
L 335.607952 95.580963 
L 336.129964 98.284233 
L 336.651977 79.525164 
L 337.17399 73.274628 
L 337.696002 78.251069 
L 338.218015 64.523931 
L 338.740027 61.278417 
L 339.26204 79.549246 
L 339.784053 70.835478 
L 340.306065 66.383283 
L 341.350091 117.655941 
L 341.872103 115.367875 
L 342.916128 97.571862 
L 343.438141 114.741136 
L 343.960154 118.710751 
L 344.482166 109.561933 
L 345.004179 128.949855 
L 345.526192 127.326324 
L 346.048204 124.048723 
L 346.570217 111.587922 
L 347.09223 142.866016 
L 347.614242 140.479559 
L 348.136255 113.977959 
L 348.658267 121.499958 
L 349.18028 125.06548 
L 349.702293 112.216976 
L 350.224305 121.581282 
L 350.746318 106.098034 
L 351.268331 98.558257 
L 351.790343 118.493686 
L 352.312356 116.668101 
L 352.834368 135.030359 
L 353.356381 122.230203 
L 354.400406 166.221526 
L 354.922419 180.256634 
L 355.444432 189.98271 
L 355.966444 172.734812 
L 356.488457 172.450714 
L 357.01047 168.21497 
L 357.532482 153.948756 
L 359.09852 179.591314 
L 359.620533 169.062396 
L 360.142545 147.658633 
L 360.664558 143.812865 
L 361.708583 157.471542 
L 362.230596 171.215005 
L 362.752608 161.352459 
L 363.274621 174.45077 
L 363.796634 177.185678 
L 364.318646 191.588759 
L 364.840659 215.235196 
L 365.362672 246.851501 
L 365.884684 257.516061 
L 366.406697 254.278123 
L 366.928709 257.75356 
L 367.450722 260.046052 
L 369.01676 296.847273 
L 369.538773 293.724751 
L 370.060785 267.802954 
L 370.582798 269.000634 
L 371.104811 285.594459 
L 371.626823 269.261699 
L 372.148836 281.225316 
L 372.670848 273.779134 
L 373.192861 278.79555 
L 373.714874 277.280883 
L 374.236886 233.994566 
L 374.758899 242.898209 
L 375.280912 249.761737 
L 375.802924 244.546146 
L 376.324937 244.313179 
L 376.846949 248.90557 
L 377.368962 257.03575 
L 377.890975 249.133369 
L 378.412987 235.106844 
L 379.457013 260.343178 
L 379.979025 236.937152 
L 380.501038 254.361941 
L 381.023051 244.890026 
L 381.545063 238.865859 
L 382.067076 252.23006 
L 382.589088 242.199619 
L 383.633114 268.699187 
L 384.155126 285.54736 
L 384.677139 274.666623 
L 385.199152 279.765404 
L 385.721164 265.743523 
L 386.243177 275.362352 
L 386.765189 267.193306 
L 387.287202 249.104111 
L 387.809215 249.675284 
L 388.331227 263.287103 
L 388.85324 267.064613 
L 389.375253 250.857332 
L 389.897265 241.079458 
L 390.419278 245.42292 
L 390.941291 266.821394 
L 391.463303 257.37519 
L 392.507328 215.18635 
L 393.029341 209.199605 
L 393.551354 211.106497 
L 394.073366 220.547364 
L 394.595379 227.269655 
L 395.117392 247.56744 
L 395.639404 220.265744 
L 396.161417 220.094819 
L 396.683429 189.457044 
L 397.205442 189.889802 
L 397.727455 209.968063 
L 398.249467 185.878411 
L 398.77148 196.314523 
L 399.293493 201.364081 
L 400.337518 160.805278 
L 400.85953 186.247293 
L 401.381543 185.718131 
L 401.903556 199.08061 
L 402.425568 191.720621 
L 402.947581 168.155051 
L 403.469594 174.256069 
L 403.991606 154.667172 
L 404.513619 166.062992 
L 405.035632 137.746788 
L 405.557644 147.860999 
L 406.079657 153.295132 
L 406.601669 148.963934 
L 407.123682 166.438592 
L 407.645695 146.092231 
L 408.167707 159.32848 
L 408.68972 150.940486 
L 409.211733 166.97564 
L 409.733745 165.053004 
L 410.255758 164.669433 
L 410.77777 169.120931 
L 411.299783 162.34719 
L 411.821796 176.132841 
L 412.343808 156.186908 
L 412.865821 153.070858 
L 413.387834 188.381337 
L 413.909846 162.335461 
L 414.431859 156.018497 
L 414.953872 135.571681 
L 415.475884 137.330196 
L 415.997897 165.957702 
L 416.519909 170.810669 
L 417.041922 185.965324 
L 417.563935 185.939714 
L 418.085947 191.572502 
L 418.60796 188.398735 
L 419.129973 210.343745 
L 419.651985 209.149847 
L 420.173998 214.458653 
L 420.69601 205.931467 
L 421.218023 226.871709 
L 421.740036 231.722902 
L 422.262048 210.317231 
L 422.784061 224.761403 
L 423.306074 214.935625 
L 423.828086 197.59229 
L 424.350099 197.206101 
L 425.394124 170.347748 
L 425.916137 149.762482 
L 426.438149 153.967369 
L 426.960162 154.888858 
L 427.482175 144.052196 
L 428.004187 153.122406 
L 428.5262 151.985894 
L 429.048213 160.434945 
L 429.570225 189.759583 
L 430.092238 184.982261 
L 430.61425 162.777417 
L 431.136263 167.023726 
L 431.658276 165.427171 
L 432.180288 170.708052 
L 432.702301 179.662039 
L 433.224314 177.409367 
L 433.746326 163.199045 
L 434.268339 134.305863 
L 434.790352 123.128863 
L 435.312364 135.031634 
L 435.834377 152.903705 
L 436.356389 135.609138 
L 436.878402 131.005396 
L 437.400415 138.359112 
L 437.922427 151.440926 
L 438.44444 161.29263 
L 438.966453 144.972375 
L 439.488465 144.739175 
L 440.010478 162.22947 
L 440.53249 150.534605 
L 441.054503 146.031783 
L 441.576516 149.254212 
L 442.098528 140.926559 
L 442.620541 151.059411 
L 443.142554 138.161166 
L 443.664566 155.992467 
L 444.186579 167.061496 
L 444.708591 184.158953 
L 445.230604 188.950962 
L 445.752617 198.07647 
L 446.274629 202.168042 
L 446.796642 201.593751 
L 447.318655 194.046328 
L 447.840667 191.668712 
L 448.36268 187.950001 
L 448.884693 167.009673 
L 449.406705 169.901065 
L 449.928718 188.028533 
L 450.45073 175.401109 
L 450.972743 151.442312 
L 451.494756 148.517452 
L 452.016768 137.209631 
L 452.538781 145.134464 
L 453.060794 142.22604 
L 453.582806 133.50755 
L 454.104819 128.103899 
L 454.626831 134.548947 
L 455.148844 113.005997 
L 455.670857 110.242378 
L 456.192869 97.65812 
L 456.714882 91.855702 
L 457.758907 67.241463 
L 458.28092 69.541445 
L 458.802933 58.101748 
L 459.324945 29.223883 
L 459.846958 20.992727 
L 460.890983 20.992727 
L 461.412996 37.763961 
L 461.935008 20.992727 
L 462.457021 20.992727 
L 462.979034 44.101599 
L 463.501046 41.393994 
L 464.023059 28.002098 
L 464.545071 36.662326 
L 465.067084 20.992727 
L 465.589097 20.992727 
L 466.111109 37.329192 
L 466.633122 23.492575 
L 467.155135 21.476295 
L 467.677147 28.239566 
L 468.19916 31.887419 
L 468.721173 37.226554 
L 469.243185 52.72715 
L 469.765198 58.084717 
L 470.28721 48.464859 
L 470.809223 29.181891 
L 471.331236 20.992727 
L 471.853248 28.043615 
L 472.375261 29.057605 
L 472.897274 39.873164 
L 473.419286 25.769032 
L 474.463311 64.418254 
L 474.985324 72.218393 
L 475.507337 68.399969 
L 476.029349 72.07367 
L 477.073375 69.960092 
L 477.595387 66.377755 
L 478.1174 79.3946 
L 478.639412 83.296831 
L 479.161425 75.23361 
L 479.683438 71.04201 
L 480.20545 56.209843 
L 480.727463 65.473495 
L 481.249476 53.072404 
L 481.771488 33.275308 
L 482.293501 34.622493 
L 483.337526 27.072576 
L 483.859539 20.992727 
L 486.469602 20.992727 
L 486.991615 34.241596 
L 487.513627 27.990415 
L 488.03564 30.493405 
L 488.557652 38.344111 
L 489.079665 49.598145 
L 489.601678 49.991267 
L 490.12369 57.444085 
L 490.645703 30.146873 
L 491.167716 20.992727 
L 491.689728 23.988937 
L 492.211741 20.992727 
L 492.733754 20.992727 
L 493.255766 22.743929 
L 493.777779 20.992727 
L 494.299791 20.992727 
L 494.821804 21.802735 
L 495.343817 45.070929 
L 495.865829 57.249765 
L 496.387842 52.5361 
L 496.909855 57.76175 
L 497.431867 57.50273 
L 497.95388 67.302836 
L 498.475892 63.539689 
L 498.997905 69.014794 
L 499.519918 88.806489 
L 500.04193 92.730032 
L 500.563943 99.648865 
L 501.085956 119.287961 
L 501.607968 100.352334 
L 502.129981 100.814369 
L 502.651994 104.535071 
L 503.174006 94.268542 
L 503.696019 94.816381 
L 504.218031 84.306671 
L 504.740044 103.089298 
L 505.262057 116.025149 
L 505.784069 108.441897 
L 506.306082 88.56737 
L 506.828095 87.648747 
L 507.350107 84.300469 
L 507.87212 94.511749 
L 508.394132 94.374384 
L 508.916145 103.072055 
L 509.438158 104.627031 
L 509.96017 94.72542 
L 510.482183 120.204035 
L 511.004196 116.924937 
L 512.048221 134.642252 
L 512.570234 119.448044 
L 513.092246 115.102214 
L 513.614259 102.487673 
L 514.136271 124.868767 
L 515.180297 134.978151 
L 515.702309 142.053951 
L 516.224322 135.867569 
L 516.746335 123.79967 
L 518.312372 165.022606 
L 518.834385 149.81507 
L 519.356398 155.906944 
L 519.87841 156.687964 
L 520.400423 160.429208 
L 520.922436 172.258311 
L 521.966461 161.552759 
L 522.488473 148.975376 
L 523.010486 151.351321 
L 523.532499 154.646221 
L 524.054511 161.639489 
L 524.576524 142.057632 
L 525.098537 128.570382 
L 525.620549 128.568988 
L 526.142562 119.668495 
L 526.664575 126.72312 
L 527.186587 99.667072 
L 527.7086 106.828789 
L 528.752625 115.513865 
L 529.274638 92.961261 
L 529.79665 90.512997 
L 530.318663 75.862811 
L 530.840676 76.772349 
L 531.362688 92.090392 
L 531.884701 81.467499 
L 532.406713 89.114641 
L 532.928726 105.764302 
L 533.450739 110.638481 
L 533.972751 101.925375 
L 534.494764 78.4828 
L 535.016777 96.073748 
L 535.538789 124.149612 
L 536.060802 111.606386 
L 536.582815 107.192886 
L 537.104827 113.977696 
L 537.62684 108.034139 
L 538.148852 98.047415 
L 538.670865 72.662536 
L 539.192878 73.837485 
L 539.71489 56.576715 
L 540.758916 68.125063 
L 541.280928 62.047548 
L 542.324953 92.615631 
L 542.846966 79.550545 
L 543.368979 104.652345 
L 543.890991 102.655331 
L 544.935017 110.66171 
L 545.457029 127.407423 
L 545.979042 153.173597 
L 546.501055 161.136893 
L 547.023067 175.546348 
L 547.54508 180.4612 
L 548.067092 178.821994 
L 548.589105 187.769098 
L 549.111118 200.908561 
L 549.63313 196.713343 
L 550.155143 205.877849 
L 550.677156 217.528792 
L 551.199168 220.798867 
L 551.721181 216.68085 
L 552.243193 189.503892 
L 552.765206 168.45367 
L 553.809231 200.452376 
L 554.331244 199.116876 
L 554.853257 191.530162 
L 555.375269 192.690417 
L 555.897282 164.550181 
L 556.419294 148.96379 
L 556.941307 127.371981 
L 557.46332 132.244993 
L 558.507345 156.53924 
L 559.029358 157.479189 
L 559.55137 173.09517 
L 560.073383 180.674957 
L 560.595396 185.652124 
L 561.117408 173.108032 
L 561.639421 178.631987 
L 562.161433 196.068137 
L 562.683446 201.23953 
L 563.205459 198.332273 
L 563.727471 190.694379 
L 564.249484 201.905335 
L 564.771497 193.176814 
L 565.293509 175.02786 
L 565.815522 168.259707 
L 566.337534 164.687553 
L 566.859547 169.905433 
L 567.38156 177.196875 
L 567.903572 202.588961 
L 568.425585 194.362089 
L 568.947598 198.348728 
L 569.46961 195.896699 
L 569.991623 189.012314 
L 570.513636 198.506185 
L 571.035648 185.07668 
L 571.557661 183.119812 
L 572.079673 163.523616 
L 572.601686 160.841985 
L 573.123699 156.240816 
L 573.645711 159.227838 
L 574.167724 139.785238 
L 574.689737 166.347581 
L 575.211749 172.647502 
L 575.733762 176.027797 
L 576.255774 195.049501 
L 576.777787 204.635353 
L 577.2998 231.666638 
L 577.821812 228.757557 
L 578.343825 245.96505 
L 578.865838 240.812218 
L 579.38785 243.594371 
L 579.909863 253.547959 
L 580.431876 272.51599 
L 580.953888 280.530906 
L 581.475901 276.158322 
L 581.997913 277.217399 
L 582.519926 268.409127 
L 583.041939 277.749404 
L 583.563951 257.231381 
L 584.085964 259.704226 
L 584.607977 269.775748 
L 585.652002 235.385641 
L 586.174014 236.011004 
L 586.696027 241.59719 
L 587.21804 229.648404 
L 587.740052 240.409441 
L 588.262065 228.141454 
L 588.784078 245.123888 
L 589.30609 245.662695 
L 589.828103 245.006559 
L 590.350116 229.324325 
L 590.872128 251.874755 
L 591.394141 248.427321 
L 591.916153 249.434021 
L 592.438166 248.889479 
L 592.960179 259.475363 
L 593.482191 275.263725 
L 594.004204 280.533739 
L 594.526217 283.038987 
L 595.048229 264.175131 
L 595.570242 262.276328 
L 596.092254 261.823323 
L 596.614267 252.580827 
L 597.13628 272.281309 
L 597.658292 262.759772 
L 598.702318 238.919262 
L 599.22433 242.598394 
L 600.268355 269.439409 
L 600.790368 265.843921 
L 601.312381 258.629688 
L 602.878419 210.997491 
L 603.400431 210.055163 
L 603.922444 206.187173 
L 604.444457 208.656776 
L 604.966469 194.779664 
L 605.488482 186.711418 
L 606.010494 183.446813 
L 606.532507 198.93288 
L 607.05452 185.128029 
L 607.576532 204.064031 
L 608.620558 174.877068 
L 609.14257 194.62733 
L 609.664583 194.728652 
L 610.186595 209.993021 
L 610.708608 211.311776 
L 611.230621 203.770077 
L 611.752633 204.989545 
L 612.274646 221.769911 
L 613.318671 214.172269 
L 613.840684 214.004518 
L 614.362697 226.716237 
L 614.884709 230.617849 
L 615.406722 226.723237 
L 615.928734 228.168344 
L 616.450747 201.016606 
L 616.97276 197.252537 
L 617.494772 199.364673 
L 618.016785 192.723062 
L 618.538798 206.265658 
L 619.06081 200.418804 
L 619.582823 179.381709 
L 620.104835 190.139243 
L 620.626848 185.821451 
L 621.148861 175.534579 
L 621.670873 196.638809 
L 622.192886 175.302206 
L 622.714899 188.128772 
L 623.236911 191.878698 
L 623.758924 186.521765 
L 624.280937 188.968356 
L 624.802949 178.233145 
L 625.324962 175.790596 
L 625.846974 167.999254 
L 626.368987 166.522326 
L 626.891 147.169379 
L 627.413012 172.554986 
L 627.935025 167.385458 
L 628.457038 170.713145 
L 629.501063 192.284536 
L 630.023075 199.044036 
L 630.545088 191.185311 
L 631.067101 202.070209 
L 631.589113 203.626995 
L 632.111126 199.622102 
L 632.633139 213.782024 
L 633.155151 199.194422 
L 633.677164 167.932462 
L 634.199177 176.035965 
L 634.721189 163.78056 
L 635.243202 167.227116 
L 635.765214 159.885564 
L 636.287227 161.695237 
L 636.80924 132.883874 
L 637.331252 136.544341 
L 637.853265 125.792531 
L 638.375278 117.423762 
L 638.89729 130.929018 
L 639.419303 158.278714 
L 639.941315 150.335624 
L 640.463328 138.968587 
L 641.507353 152.982617 
L 643.073391 115.560049 
L 643.595404 111.651029 
L 644.117416 121.342298 
L 644.639429 136.568202 
L 645.161442 161.728488 
L 645.683454 161.94867 
L 646.205467 136.84716 
L 646.72748 130.168042 
L 647.249492 130.674504 
L 647.771505 149.774098 
L 648.293518 157.833918 
L 648.81553 157.251415 
L 649.337543 159.581727 
L 649.859555 147.421293 
L 650.381568 148.93937 
L 650.903581 139.485726 
L 651.425593 140.435047 
L 651.947606 142.356748 
L 652.469619 125.63331 
L 652.991631 134.824298 
L 653.513644 137.951009 
L 654.035656 154.081286 
L 654.557669 152.320222 
L 655.079682 138.070131 
L 656.123707 118.773789 
L 656.64572 104.62494 
L 658.211758 79.802141 
L 658.73377 92.007707 
L 659.255783 84.631337 
L 659.777795 71.767908 
L 660.299808 82.904133 
L 660.821821 79.297069 
L 661.343833 64.629995 
L 661.865846 68.992429 
L 662.387859 85.753061 
L 662.909871 84.422863 
L 663.431884 63.110427 
L 663.953896 74.544453 
L 664.475909 75.392741 
L 664.475909 75.392741 
" style="fill:none;stroke:#2d9cdb;stroke-linecap:square;stroke-width:2;"/>
   </g>
   <g id="patch_3">
    <path d="M 64.84 310.64 
L 64.84 7.2 
" style="fill:none;"/>
   </g>
   <g id="patch_4">
    <path d="M 693.03 310.64 
L 693.03 7.2 
" style="fill:none;"/>
   </g>
   <g id="patch_5">
    <path d="M 64.84 310.64 
L 693.03 310.64 
" style="fill:none;"/>
   </g>
   <g id="patch_6">
    <path d="M 64.84 7.2 
L 693.03 7.2 
" style="fill:none;"/>
   </g>
   <g id="legend_1">
    <g id="line2d_24">
     <path d="M 79.24 263.8275 
L 111.24 263.8275 
" style="fill:none;stroke:#003559;stroke-linecap:square;stroke-width:2;"/>
    </g>
    <g id="line2d_25"/>
    <g id="text_16">
     <!-- Investment A -->
     <defs>
      <path d="M 9.8125 72.90625 
L 19.671875 72.90625 
L 19.671875 0 
L 9.8125 0 
z
" id="DejaVuSans-73"/>
      <path d="M 2.984375 54.6875 
L 12.5 54.6875 
L 29.59375 8.796875 
L 46.6875 54.6875 
L 56.203125 54.6875 
L 35.6875 0 
L 23.484375 0 
z
" id="DejaVuSans-118"/>
      <path d="M 56.203125 29.59375 
L 56.203125 25.203125 
L 14.890625 25.203125 
Q 15.484375 15.921875 20.484375 11.0625 
Q 25.484375 6.203125 34.421875 6.203125 
Q 39.59375 6.203125 44.453125 7.46875 
Q 49.3125 8.734375 54.109375 11.28125 
L 54.109375 2.78125 
Q 49.265625 0.734375 44.1875 -0.34375 
Q 39.109375 -1.421875 33.890625 -1.421875 
Q 20.796875 -1.421875 13.15625 6.1875 
Q 5.515625 13.8125 5.515625 26.8125 
Q 5.515625 40.234375 12.765625 48.109375 
Q 20.015625 56 32.328125 56 
Q 43.359375 56 49.78125 48.890625 
Q 56.203125 41.796875 56.203125 29.59375 
z
M 47.21875 32.234375 
Q 47.125 39.59375 43.09375 43.984375 
Q 39.0625 48.390625 32.421875 48.390625 
Q 24.90625 48.390625 20.390625 44.140625 
Q 15.875 39.890625 15.1875 32.171875 
z
" id="DejaVuSans-101"/>
      <path d="M 44.28125 53.078125 
L 44.28125 44.578125 
Q 40.484375 46.53125 36.375 47.5 
Q 32.28125 48.484375 27.875 48.484375 
Q 21.1875 48.484375 17.84375 46.4375 
Q 14.5 44.390625 14.5 40.28125 
Q 14.5 37.15625 16.890625 35.375 
Q 19.28125 33.59375 26.515625 31.984375 
L 29.59375 31.296875 
Q 39.15625 29.25 43.1875 25.515625 
Q 47.21875 21.78125 47.21875 15.09375 
Q 47.21875 7.46875 41.1875 3.015625 
Q 35.15625 -1.421875 24.609375 -1.421875 
Q 20.21875 -1.421875 15.453125 -0.5625 
Q 10.6875 0.296875 5.421875 2 
L 5.421875 11.28125 
Q 10.40625 8.6875 15.234375 7.390625 
Q 20.0625 6.109375 24.8125 6.109375 
Q 31.15625 6.109375 34.5625 8.28125 
Q 37.984375 10.453125 37.984375 14.40625 
Q 37.984375 18.0625 35.515625 20.015625 
Q 33.0625 21.96875 24.703125 23.78125 
L 21.578125 24.515625 
Q 13.234375 26.265625 9.515625 29.90625 
Q 5.8125 33.546875 5.8125 39.890625 
Q 5.8125 47.609375 11.28125 51.796875 
Q 16.75 56 26.8125 56 
Q 31.78125 56 36.171875 55.265625 
Q 40.578125 54.546875 44.28125 53.078125 
z
" id="DejaVuSans-115"/>
      <path d="M 18.3125 70.21875 
L 18.3125 54.6875 
L 36.8125 54.6875 
L 36.8125 47.703125 
L 18.3125 47.703125 
L 18.3125 18.015625 
Q 18.3125 11.328125 20.140625 9.421875 
Q 21.96875 7.515625 27.59375 7.515625 
L 36.8125 7.515625 
L 36.8125 0 
L 27.59375 0 
Q 17.1875 0 13.234375 3.875 
Q 9.28125 7.765625 9.28125 18.015625 
L 9.28125 47.703125 
L 2.6875 47.703125 
L 2.6875 54.6875 
L 9.28125 54.6875 
L 9.28125 70.21875 
z
" id="DejaVuSans-116"/>
      <path d="M 52 44.1875 
Q 55.375 50.25 60.0625 53.125 
Q 64.75 56 71.09375 56 
Q 79.640625 56 84.28125 50.015625 
Q 88.921875 44.046875 88.921875 33.015625 
L 88.921875 0 
L 79.890625 0 
L 79.890625 32.71875 
Q 79.890625 40.578125 77.09375 44.375 
Q 74.3125 48.1875 68.609375 48.1875 
Q 61.625 48.1875 57.5625 43.546875 
Q 53.515625 38.921875 53.515625 30.90625 
L 53.515625 0 
L 44.484375 0 
L 44.484375 32.71875 
Q 44.484375 40.625 41.703125 44.40625 
Q 38.921875 48.1875 33.109375 48.1875 
Q 26.21875 48.1875 22.15625 43.53125 
Q 18.109375 38.875 18.109375 30.90625 
L 18.109375 0 
L 9.078125 0 
L 9.078125 54.6875 
L 18.109375 54.6875 
L 18.109375 46.1875 
Q 21.1875 51.21875 25.484375 53.609375 
Q 29.78125 56 35.6875 56 
Q 41.65625 56 45.828125 52.96875 
Q 50 49.953125 52 44.1875 
z
" id="DejaVuSans-109"/>
      <path id="DejaVuSans-32"/>
      <path d="M 34.1875 63.1875 
L 20.796875 26.90625 
L 47.609375 26.90625 
z
M 28.609375 72.90625 
L 39.796875 72.90625 
L 67.578125 0 
L 57.328125 0 
L 50.6875 18.703125 
L 17.828125 18.703125 
L 11.1875 0 
L 0.78125 0 
z
" id="DejaVuSans-65"/>
     </defs>
     <g style="fill:#003559;" transform="translate(124.04 269.4275)scale(0.16 -0.16)">
      <use xlink:href="#DejaVuSans-73"/>
      <use x="29.492188" xlink:href="#DejaVuSans-110"/>
      <use x="92.871094" xlink:href="#DejaVuSans-118"/>
      <use x="152.050781" xlink:href="#DejaVuSans-101"/>
      <use x="213.574219" xlink:href="#DejaVuSans-115"/>
      <use x="265.673828" xlink:href="#DejaVuSans-116"/>
      <use x="304.882812" xlink:href="#DejaVuSans-109"/>
      <use x="402.294922" xlink:href="#DejaVuSans-101"/>
      <use x="463.818359" xlink:href="#DejaVuSans-110"/>
      <use x="527.197266" xlink:href="#DejaVuSans-116"/>
      <use x="566.40625" xlink:href="#DejaVuSans-32"/>
      <use x="598.193359" xlink:href="#DejaVuSans-65"/>
     </g>
    </g>
    <g id="line2d_26">
     <path d="M 79.24 287.3125 
L 111.24 287.3125 
" style="fill:none;stroke:#2d9cdb;stroke-linecap:square;stroke-width:2;"/>
    </g>
    <g id="line2d_27"/>
    <g id="text_17">
     <!-- Investment B -->
     <defs>
      <path d="M 19.671875 34.8125 
L 19.671875 8.109375 
L 35.5 8.109375 
Q 43.453125 8.109375 47.28125 11.40625 
Q 51.125 14.703125 51.125 21.484375 
Q 51.125 28.328125 47.28125 31.5625 
Q 43.453125 34.8125 35.5 34.8125 
z
M 19.671875 64.796875 
L 19.671875 42.828125 
L 34.28125 42.828125 
Q 41.5 42.828125 45.03125 45.53125 
Q 48.578125 48.25 48.578125 53.8125 
Q 48.578125 59.328125 45.03125 62.0625 
Q 41.5 64.796875 34.28125 64.796875 
z
M 9.8125 72.90625 
L 35.015625 72.90625 
Q 46.296875 72.90625 52.390625 68.21875 
Q 58.5 63.53125 58.5 54.890625 
Q 58.5 48.1875 55.375 44.234375 
Q 52.25 40.28125 46.1875 39.3125 
Q 53.46875 37.75 57.5 32.78125 
Q 61.53125 27.828125 61.53125 20.40625 
Q 61.53125 10.640625 54.890625 5.3125 
Q 48.25 0 35.984375 0 
L 9.8125 0 
z
" id="DejaVuSans-66"/>
     </defs>
     <g style="fill:#003559;" transform="translate(124.04 292.9125)scale(0.16 -0.16)">
      <use xlink:href="#DejaVuSans-73"/>
      <use x="29.492188" xlink:href="#DejaVuSans-110"/>
      <use x="92.871094" xlink:href="#DejaVuSans-118"/>
      <use x="152.050781" xlink:href="#DejaVuSans-101"/>
      <use x="213.574219" xlink:href="#DejaVuSans-115"/>
      <use x="265.673828" xlink:href="#DejaVuSans-116"/>
      <use x="304.882812" xlink:href="#DejaVuSans-109"/>
      <use x="402.294922" xlink:href="#DejaVuSans-101"/>
      <use x="463.818359" xlink:href="#DejaVuSans-110"/>
      <use x="527.197266" xlink:href="#DejaVuSans-116"/>
      <use x="566.40625" xlink:href="#DejaVuSans-32"/>
      <use x="598.193359" xlink:href="#DejaVuSans-66"/>
     </g>
    </g>
   </g>
   <g id="patch_7">
    <path clip-path="url(#p84f4b2a733)" d="M 283.928701 310.64 
L 283.928701 7.2 
L 378.412987 7.2 
L 378.412987 310.64 
z
" style="opacity:0.05;"/>
   </g>
  </g>
 </g>
 <defs>
  <clipPath id="p84f4b2a733">
   <rect height="303.44" width="628.19" x="64.84" y="7.2"/>
  </clipPath>
 </defs>
</svg>
