<?xml version="1.0" encoding="utf-8" standalone="no"?>
<!DOCTYPE svg PUBLIC "-//W3C//DTD SVG 1.1//EN"
  "http://www.w3.org/Graphics/SVG/1.1/DTD/svg11.dtd">
<!-- Created with matplotlib (https://matplotlib.org/) -->
<svg height="339.856816pt" version="1.1" viewBox="0 0 699.7775 339.856816" width="699.7775pt" xmlns="http://www.w3.org/2000/svg" xmlns:xlink="http://www.w3.org/1999/xlink">
 <defs>
  <style type="text/css">
*{stroke-linecap:butt;stroke-linejoin:round;}
  </style>
 </defs>
 <g id="figure_1">
  <g id="patch_1">
   <path d="M 0 339.856816 
L 699.7775 339.856816 
L 699.7775 0 
L 0 0 
z
" style="fill:none;"/>
  </g>
  <g id="axes_1">
   <g id="patch_2">
    <path d="M 49.7625 310.171816 
L 692.5775 310.171816 
L 692.5775 7.859753 
L 49.7625 7.859753 
z
" style="fill:none;"/>
   </g>
   <g id="matplotlib.axis_1">
    <g id="xtick_1">
     <g id="line2d_1">
      <defs>
       <path d="M 0 0 
L 0 3.5 
" id="m260b4e8de5" style="stroke:#003559;stroke-width:0.8;"/>
      </defs>
      <g>
       <use style="fill:#003559;stroke:#003559;stroke-width:0.8;" x="78.981364" xlink:href="#m260b4e8de5" y="310.171816"/>
      </g>
     </g>
     <g id="text_1">
      <!-- 2010 -->
      <defs>
       <path d="M 19.1875 8.296875 
L 53.609375 8.296875 
L 53.609375 0 
L 7.328125 0 
L 7.328125 8.296875 
Q 12.9375 14.109375 22.625 23.890625 
Q 32.328125 33.6875 34.8125 36.53125 
Q 39.546875 41.84375 41.421875 45.53125 
Q 43.3125 49.21875 43.3125 52.78125 
Q 43.3125 58.59375 39.234375 62.25 
Q 35.15625 65.921875 28.609375 65.921875 
Q 23.96875 65.921875 18.8125 64.3125 
Q 13.671875 62.703125 7.8125 59.421875 
L 7.8125 69.390625 
Q 13.765625 71.78125 18.9375 73 
Q 24.125 74.21875 28.421875 74.21875 
Q 39.75 74.21875 46.484375 68.546875 
Q 53.21875 62.890625 53.21875 53.421875 
Q 53.21875 48.921875 51.53125 44.890625 
Q 49.859375 40.875 45.40625 35.40625 
Q 44.1875 33.984375 37.640625 27.21875 
Q 31.109375 20.453125 19.1875 8.296875 
z
" id="DejaVuSans-50"/>
       <path d="M 31.78125 66.40625 
Q 24.171875 66.40625 20.328125 58.90625 
Q 16.5 51.421875 16.5 36.375 
Q 16.5 21.390625 20.328125 13.890625 
Q 24.171875 6.390625 31.78125 6.390625 
Q 39.453125 6.390625 43.28125 13.890625 
Q 47.125 21.390625 47.125 36.375 
Q 47.125 51.421875 43.28125 58.90625 
Q 39.453125 66.40625 31.78125 66.40625 
z
M 31.78125 74.21875 
Q 44.046875 74.21875 50.515625 64.515625 
Q 56.984375 54.828125 56.984375 36.375 
Q 56.984375 17.96875 50.515625 8.265625 
Q 44.046875 -1.421875 31.78125 -1.421875 
Q 19.53125 -1.421875 13.0625 8.265625 
Q 6.59375 17.96875 6.59375 36.375 
Q 6.59375 54.828125 13.0625 64.515625 
Q 19.53125 74.21875 31.78125 74.21875 
z
" id="DejaVuSans-48"/>
       <path d="M 12.40625 8.296875 
L 28.515625 8.296875 
L 28.515625 63.921875 
L 10.984375 60.40625 
L 10.984375 69.390625 
L 28.421875 72.90625 
L 38.28125 72.90625 
L 38.28125 8.296875 
L 54.390625 8.296875 
L 54.390625 0 
L 12.40625 0 
z
" id="DejaVuSans-49"/>
      </defs>
      <g style="fill:#003559;" transform="translate(58.621364 329.329316)scale(0.16 -0.16)">
       <use xlink:href="#DejaVuSans-50"/>
       <use x="63.623047" xlink:href="#DejaVuSans-48"/>
       <use x="127.246094" xlink:href="#DejaVuSans-49"/>
       <use x="190.869141" xlink:href="#DejaVuSans-48"/>
      </g>
     </g>
    </g>
    <g id="xtick_2">
     <g id="line2d_2">
      <g>
       <use style="fill:#003559;stroke:#003559;stroke-width:0.8;" x="175.665355" xlink:href="#m260b4e8de5" y="310.171816"/>
      </g>
     </g>
     <g id="text_2">
      <!-- Jul -->
      <defs>
       <path d="M 9.8125 72.90625 
L 19.671875 72.90625 
L 19.671875 5.078125 
Q 19.671875 -8.109375 14.671875 -14.0625 
Q 9.671875 -20.015625 -1.421875 -20.015625 
L -5.171875 -20.015625 
L -5.171875 -11.71875 
L -2.09375 -11.71875 
Q 4.4375 -11.71875 7.125 -8.046875 
Q 9.8125 -4.390625 9.8125 5.078125 
z
" id="DejaVuSans-74"/>
       <path d="M 8.5 21.578125 
L 8.5 54.6875 
L 17.484375 54.6875 
L 17.484375 21.921875 
Q 17.484375 14.15625 20.5 10.265625 
Q 23.53125 6.390625 29.59375 6.390625 
Q 36.859375 6.390625 41.078125 11.03125 
Q 45.3125 15.671875 45.3125 23.6875 
L 45.3125 54.6875 
L 54.296875 54.6875 
L 54.296875 0 
L 45.3125 0 
L 45.3125 8.40625 
Q 42.046875 3.421875 37.71875 1 
Q 33.40625 -1.421875 27.6875 -1.421875 
Q 18.265625 -1.421875 13.375 4.4375 
Q 8.5 10.296875 8.5 21.578125 
z
M 31.109375 56 
z
" id="DejaVuSans-117"/>
       <path d="M 9.421875 75.984375 
L 18.40625 75.984375 
L 18.40625 0 
L 9.421875 0 
z
" id="DejaVuSans-108"/>
      </defs>
      <g style="fill:#003559;" transform="translate(166.012855 329.329316)scale(0.16 -0.16)">
       <use xlink:href="#DejaVuSans-74"/>
       <use x="29.492188" xlink:href="#DejaVuSans-117"/>
       <use x="92.871094" xlink:href="#DejaVuSans-108"/>
      </g>
     </g>
    </g>
    <g id="xtick_3">
     <g id="line2d_3">
      <g>
       <use style="fill:#003559;stroke:#003559;stroke-width:0.8;" x="273.951843" xlink:href="#m260b4e8de5" y="310.171816"/>
      </g>
     </g>
     <g id="text_3">
      <!-- 2011 -->
      <g style="fill:#003559;" transform="translate(253.591843 329.329316)scale(0.16 -0.16)">
       <use xlink:href="#DejaVuSans-50"/>
       <use x="63.623047" xlink:href="#DejaVuSans-48"/>
       <use x="127.246094" xlink:href="#DejaVuSans-49"/>
       <use x="190.869141" xlink:href="#DejaVuSans-49"/>
      </g>
     </g>
    </g>
    <g id="xtick_4">
     <g id="line2d_4">
      <g>
       <use style="fill:#003559;stroke:#003559;stroke-width:0.8;" x="370.635834" xlink:href="#m260b4e8de5" y="310.171816"/>
      </g>
     </g>
     <g id="text_4">
      <!-- Jul -->
      <g style="fill:#003559;" transform="translate(360.983334 329.329316)scale(0.16 -0.16)">
       <use xlink:href="#DejaVuSans-74"/>
       <use x="29.492188" xlink:href="#DejaVuSans-117"/>
       <use x="92.871094" xlink:href="#DejaVuSans-108"/>
      </g>
     </g>
    </g>
    <g id="xtick_5">
     <g id="line2d_5">
      <g>
       <use style="fill:#003559;stroke:#003559;stroke-width:0.8;" x="468.922323" xlink:href="#m260b4e8de5" y="310.171816"/>
      </g>
     </g>
     <g id="text_5">
      <!-- 2012 -->
      <g style="fill:#003559;" transform="translate(448.562323 329.329316)scale(0.16 -0.16)">
       <use xlink:href="#DejaVuSans-50"/>
       <use x="63.623047" xlink:href="#DejaVuSans-48"/>
       <use x="127.246094" xlink:href="#DejaVuSans-49"/>
       <use x="190.869141" xlink:href="#DejaVuSans-50"/>
      </g>
     </g>
    </g>
    <g id="xtick_6">
     <g id="line2d_6">
      <g>
       <use style="fill:#003559;stroke:#003559;stroke-width:0.8;" x="566.140479" xlink:href="#m260b4e8de5" y="310.171816"/>
      </g>
     </g>
     <g id="text_6">
      <!-- Jul -->
      <g style="fill:#003559;" transform="translate(556.487979 329.329316)scale(0.16 -0.16)">
       <use xlink:href="#DejaVuSans-74"/>
       <use x="29.492188" xlink:href="#DejaVuSans-117"/>
       <use x="92.871094" xlink:href="#DejaVuSans-108"/>
      </g>
     </g>
    </g>
    <g id="xtick_7">
     <g id="line2d_7">
      <g>
       <use style="fill:#003559;stroke:#003559;stroke-width:0.8;" x="664.426968" xlink:href="#m260b4e8de5" y="310.171816"/>
      </g>
     </g>
     <g id="text_7">
      <!-- 2013 -->
      <defs>
       <path d="M 40.578125 39.3125 
Q 47.65625 37.796875 51.625 33 
Q 55.609375 28.21875 55.609375 21.1875 
Q 55.609375 10.40625 48.1875 4.484375 
Q 40.765625 -1.421875 27.09375 -1.421875 
Q 22.515625 -1.421875 17.65625 -0.515625 
Q 12.796875 0.390625 7.625 2.203125 
L 7.625 11.71875 
Q 11.71875 9.328125 16.59375 8.109375 
Q 21.484375 6.890625 26.8125 6.890625 
Q 36.078125 6.890625 40.9375 10.546875 
Q 45.796875 14.203125 45.796875 21.1875 
Q 45.796875 27.640625 41.28125 31.265625 
Q 36.765625 34.90625 28.71875 34.90625 
L 20.21875 34.90625 
L 20.21875 43.015625 
L 29.109375 43.015625 
Q 36.375 43.015625 40.234375 45.921875 
Q 44.09375 48.828125 44.09375 54.296875 
Q 44.09375 59.90625 40.109375 62.90625 
Q 36.140625 65.921875 28.71875 65.921875 
Q 24.65625 65.921875 20.015625 65.03125 
Q 15.375 64.15625 9.8125 62.3125 
L 9.8125 71.09375 
Q 15.4375 72.65625 20.34375 73.4375 
Q 25.25 74.21875 29.59375 74.21875 
Q 40.828125 74.21875 47.359375 69.109375 
Q 53.90625 64.015625 53.90625 55.328125 
Q 53.90625 49.265625 50.4375 45.09375 
Q 46.96875 40.921875 40.578125 39.3125 
z
" id="DejaVuSans-51"/>
      </defs>
      <g style="fill:#003559;" transform="translate(644.066968 329.329316)scale(0.16 -0.16)">
       <use xlink:href="#DejaVuSans-50"/>
       <use x="63.623047" xlink:href="#DejaVuSans-48"/>
       <use x="127.246094" xlink:href="#DejaVuSans-49"/>
       <use x="190.869141" xlink:href="#DejaVuSans-51"/>
      </g>
     </g>
    </g>
   </g>
   <g id="matplotlib.axis_2">
    <g id="ytick_1">
     <g id="line2d_8">
      <path clip-path="url(#p6eb2baa4a9)" d="M 49.7625 273.629846 
L 692.5775 273.629846 
" style="fill:none;stroke:#f0f0f0;stroke-linecap:square;"/>
     </g>
     <g id="line2d_9">
      <defs>
       <path d="M 0 0 
L -3.5 0 
" id="ma3fe5409e8" style="stroke:#003559;stroke-width:0.8;"/>
      </defs>
      <g>
       <use style="fill:#003559;stroke:#003559;stroke-width:0.8;" x="49.7625" xlink:href="#ma3fe5409e8" y="273.629846"/>
      </g>
     </g>
     <g id="text_8">
      <!-- 0% -->
      <defs>
       <path d="M 72.703125 32.078125 
Q 68.453125 32.078125 66.03125 28.46875 
Q 63.625 24.859375 63.625 18.40625 
Q 63.625 12.0625 66.03125 8.421875 
Q 68.453125 4.78125 72.703125 4.78125 
Q 76.859375 4.78125 79.265625 8.421875 
Q 81.6875 12.0625 81.6875 18.40625 
Q 81.6875 24.8125 79.265625 28.4375 
Q 76.859375 32.078125 72.703125 32.078125 
z
M 72.703125 38.28125 
Q 80.421875 38.28125 84.953125 32.90625 
Q 89.5 27.546875 89.5 18.40625 
Q 89.5 9.28125 84.9375 3.921875 
Q 80.375 -1.421875 72.703125 -1.421875 
Q 64.890625 -1.421875 60.34375 3.921875 
Q 55.8125 9.28125 55.8125 18.40625 
Q 55.8125 27.59375 60.375 32.9375 
Q 64.9375 38.28125 72.703125 38.28125 
z
M 22.3125 68.015625 
Q 18.109375 68.015625 15.6875 64.375 
Q 13.28125 60.75 13.28125 54.390625 
Q 13.28125 47.953125 15.671875 44.328125 
Q 18.0625 40.71875 22.3125 40.71875 
Q 26.5625 40.71875 28.96875 44.328125 
Q 31.390625 47.953125 31.390625 54.390625 
Q 31.390625 60.6875 28.953125 64.34375 
Q 26.515625 68.015625 22.3125 68.015625 
z
M 66.40625 74.21875 
L 74.21875 74.21875 
L 28.609375 -1.421875 
L 20.796875 -1.421875 
z
M 22.3125 74.21875 
Q 30.03125 74.21875 34.609375 68.875 
Q 39.203125 63.53125 39.203125 54.390625 
Q 39.203125 45.171875 34.640625 39.84375 
Q 30.078125 34.515625 22.3125 34.515625 
Q 14.546875 34.515625 10.03125 39.859375 
Q 5.515625 45.21875 5.515625 54.390625 
Q 5.515625 63.484375 10.046875 68.84375 
Q 14.59375 74.21875 22.3125 74.21875 
z
" id="DejaVuSans-37"/>
      </defs>
      <g style="fill:#003559;" transform="translate(17.38 279.708596)scale(0.16 -0.16)">
       <use xlink:href="#DejaVuSans-48"/>
       <use x="63.623047" xlink:href="#DejaVuSans-37"/>
      </g>
     </g>
    </g>
    <g id="ytick_2">
     <g id="line2d_10">
      <path clip-path="url(#p6eb2baa4a9)" d="M 49.7625 221.559626 
L 692.5775 221.559626 
" style="fill:none;stroke:#f0f0f0;stroke-linecap:square;"/>
     </g>
     <g id="line2d_11">
      <g>
       <use style="fill:#003559;stroke:#003559;stroke-width:0.8;" x="49.7625" xlink:href="#ma3fe5409e8" y="221.559626"/>
      </g>
     </g>
     <g id="text_9">
      <!-- 5% -->
      <defs>
       <path d="M 10.796875 72.90625 
L 49.515625 72.90625 
L 49.515625 64.59375 
L 19.828125 64.59375 
L 19.828125 46.734375 
Q 21.96875 47.46875 24.109375 47.828125 
Q 26.265625 48.1875 28.421875 48.1875 
Q 40.625 48.1875 47.75 41.5 
Q 54.890625 34.8125 54.890625 23.390625 
Q 54.890625 11.625 47.5625 5.09375 
Q 40.234375 -1.421875 26.90625 -1.421875 
Q 22.3125 -1.421875 17.546875 -0.640625 
Q 12.796875 0.140625 7.71875 1.703125 
L 7.71875 11.625 
Q 12.109375 9.234375 16.796875 8.0625 
Q 21.484375 6.890625 26.703125 6.890625 
Q 35.15625 6.890625 40.078125 11.328125 
Q 45.015625 15.765625 45.015625 23.390625 
Q 45.015625 31 40.078125 35.4375 
Q 35.15625 39.890625 26.703125 39.890625 
Q 22.75 39.890625 18.8125 39.015625 
Q 14.890625 38.140625 10.796875 36.28125 
z
" id="DejaVuSans-53"/>
      </defs>
      <g style="fill:#003559;" transform="translate(17.38 227.638376)scale(0.16 -0.16)">
       <use xlink:href="#DejaVuSans-53"/>
       <use x="63.623047" xlink:href="#DejaVuSans-37"/>
      </g>
     </g>
    </g>
    <g id="ytick_3">
     <g id="line2d_12">
      <path clip-path="url(#p6eb2baa4a9)" d="M 49.7625 169.489407 
L 692.5775 169.489407 
" style="fill:none;stroke:#f0f0f0;stroke-linecap:square;"/>
     </g>
     <g id="line2d_13">
      <g>
       <use style="fill:#003559;stroke:#003559;stroke-width:0.8;" x="49.7625" xlink:href="#ma3fe5409e8" y="169.489407"/>
      </g>
     </g>
     <g id="text_10">
      <!-- 10% -->
      <g style="fill:#003559;" transform="translate(7.2 175.568157)scale(0.16 -0.16)">
       <use xlink:href="#DejaVuSans-49"/>
       <use x="63.623047" xlink:href="#DejaVuSans-48"/>
       <use x="127.246094" xlink:href="#DejaVuSans-37"/>
      </g>
     </g>
    </g>
    <g id="ytick_4">
     <g id="line2d_14">
      <path clip-path="url(#p6eb2baa4a9)" d="M 49.7625 117.419188 
L 692.5775 117.419188 
" style="fill:none;stroke:#f0f0f0;stroke-linecap:square;"/>
     </g>
     <g id="line2d_15">
      <g>
       <use style="fill:#003559;stroke:#003559;stroke-width:0.8;" x="49.7625" xlink:href="#ma3fe5409e8" y="117.419188"/>
      </g>
     </g>
     <g id="text_11">
      <!-- 15% -->
      <g style="fill:#003559;" transform="translate(7.2 123.497938)scale(0.16 -0.16)">
       <use xlink:href="#DejaVuSans-49"/>
       <use x="63.623047" xlink:href="#DejaVuSans-53"/>
       <use x="127.246094" xlink:href="#DejaVuSans-37"/>
      </g>
     </g>
    </g>
    <g id="ytick_5">
     <g id="line2d_16">
      <path clip-path="url(#p6eb2baa4a9)" d="M 49.7625 65.348969 
L 692.5775 65.348969 
" style="fill:none;stroke:#f0f0f0;stroke-linecap:square;"/>
     </g>
     <g id="line2d_17">
      <g>
       <use style="fill:#003559;stroke:#003559;stroke-width:0.8;" x="49.7625" xlink:href="#ma3fe5409e8" y="65.348969"/>
      </g>
     </g>
     <g id="text_12">
      <!-- 20% -->
      <g style="fill:#003559;" transform="translate(7.2 71.427719)scale(0.16 -0.16)">
       <use xlink:href="#DejaVuSans-50"/>
       <use x="63.623047" xlink:href="#DejaVuSans-48"/>
       <use x="127.246094" xlink:href="#DejaVuSans-37"/>
      </g>
     </g>
    </g>
    <g id="ytick_6">
     <g id="line2d_18">
      <path clip-path="url(#p6eb2baa4a9)" d="M 49.7625 13.27875 
L 692.5775 13.27875 
" style="fill:none;stroke:#f0f0f0;stroke-linecap:square;"/>
     </g>
     <g id="line2d_19">
      <g>
       <use style="fill:#003559;stroke:#003559;stroke-width:0.8;" x="49.7625" xlink:href="#ma3fe5409e8" y="13.27875"/>
      </g>
     </g>
     <g id="text_13">
      <!-- 25% -->
      <g style="fill:#003559;" transform="translate(7.2 19.3575)scale(0.16 -0.16)">
       <use xlink:href="#DejaVuSans-50"/>
       <use x="63.623047" xlink:href="#DejaVuSans-53"/>
       <use x="127.246094" xlink:href="#DejaVuSans-37"/>
      </g>
     </g>
    </g>
   </g>
   <g id="line2d_20">
    <path clip-path="url(#p6eb2baa4a9)" d="M 78.981364 270.162305 
L 80.049695 272.374058 
L 80.583861 274.5271 
L 81.118026 272.641908 
L 81.652192 277.355701 
L 82.186358 273.650556 
L 82.720524 275.151635 
L 83.254689 274.403892 
L 83.788855 274.83862 
L 84.323021 271.712622 
L 84.857186 275.926906 
L 85.925518 277.226396 
L 86.459683 274.789078 
L 86.993849 276.993146 
L 87.528015 277.267054 
L 88.06218 279.005034 
L 88.596346 278.833661 
L 89.130512 277.541916 
L 89.664678 279.741661 
L 90.733009 275.33228 
L 91.267175 274.203189 
L 91.80134 272.243619 
L 92.335506 273.585137 
L 92.869672 273.756762 
L 93.403837 275.621224 
L 93.938003 276.093938 
L 94.472169 274.907783 
L 95.006335 276.262376 
L 95.5405 277.002523 
L 96.074666 278.34507 
L 97.142997 281.319229 
L 97.677163 281.261695 
L 98.211329 283.488063 
L 98.745494 282.920901 
L 99.27966 279.411106 
L 99.813826 277.790278 
L 100.347992 278.104236 
L 101.416323 281.324119 
L 101.950489 277.741388 
L 102.484654 277.551976 
L 103.01882 278.789698 
L 103.552986 278.310106 
L 104.087151 273.871375 
L 104.621317 273.536845 
L 105.155483 272.166867 
L 105.689648 271.456334 
L 106.223814 272.107018 
L 106.75798 274.405682 
L 107.292146 275.048478 
L 107.826311 275.398747 
L 108.360477 274.094802 
L 109.428808 270.237537 
L 109.962974 269.556161 
L 110.49714 267.620701 
L 111.031305 269.116208 
L 111.565471 266.410708 
L 112.099637 265.250043 
L 112.633803 265.790891 
L 113.167968 264.680768 
L 113.702134 264.754458 
L 114.2363 262.292345 
L 114.770465 259.007138 
L 115.304631 254.30556 
L 116.372962 260.151909 
L 116.907128 261.130782 
L 117.441294 260.708103 
L 117.97546 258.775182 
L 118.509625 258.022854 
L 119.043791 262.21223 
L 119.577957 262.771723 
L 120.112122 260.944011 
L 120.646288 260.373563 
L 121.180454 258.680823 
L 122.248785 259.403457 
L 122.782951 258.924085 
L 123.317117 257.972435 
L 123.851282 257.467598 
L 124.385448 257.13023 
L 124.919614 258.463547 
L 125.453779 257.580134 
L 125.987945 257.236854 
L 127.056276 252.133429 
L 127.590442 251.653743 
L 128.124608 252.365765 
L 128.658773 253.637221 
L 129.192939 252.652271 
L 129.727105 252.401903 
L 130.261271 253.046625 
L 130.795436 252.86802 
L 131.329602 254.099087 
L 131.863768 252.532032 
L 132.397933 253.396134 
L 132.932099 250.710188 
L 133.466265 249.7651 
L 134.00043 248.414186 
L 134.534596 250.663515 
L 135.068762 250.216744 
L 135.602928 248.553393 
L 136.137093 250.50123 
L 136.671259 250.981814 
L 137.205425 250.826233 
L 137.73959 253.662612 
L 138.273756 252.907653 
L 138.807922 251.024176 
L 139.342087 252.767073 
L 139.876253 251.936296 
L 140.410419 254.640372 
L 140.944585 254.636559 
L 141.47875 257.977404 
L 142.012916 255.520992 
L 142.547082 254.568715 
L 143.081247 254.535043 
L 143.615413 256.093274 
L 144.149579 253.309849 
L 144.683744 249.046824 
L 145.21791 252.921665 
L 145.752076 250.209757 
L 146.286241 246.657196 
L 146.820407 245.848425 
L 147.354573 248.326316 
L 147.888739 246.398053 
L 148.422904 246.698184 
L 148.95707 247.902043 
L 149.491236 250.44089 
L 150.025401 249.182475 
L 150.559567 247.406127 
L 151.093733 248.651061 
L 151.627898 247.454431 
L 152.162064 249.811323 
L 152.69623 248.016733 
L 153.230396 247.830943 
L 153.764561 248.14273 
L 154.298727 248.27343 
L 155.367058 244.642768 
L 155.901224 243.422611 
L 156.969555 242.787036 
L 157.503721 241.374086 
L 158.037887 240.787894 
L 158.572053 239.234438 
L 159.106218 239.81456 
L 159.640384 244.963453 
L 160.17455 242.65356 
L 160.708715 237.876163 
L 161.242881 236.838089 
L 162.311212 237.173629 
L 162.845378 237.342984 
L 163.379544 237.218182 
L 163.913709 239.549553 
L 164.447875 240.574708 
L 164.982041 242.630222 
L 165.516207 242.009745 
L 166.050372 242.559451 
L 166.584538 241.410392 
L 167.118704 241.698574 
L 167.652869 239.494311 
L 168.187035 238.947879 
L 168.721201 234.145967 
L 169.255366 238.157938 
L 169.789532 239.464024 
L 170.323698 237.437693 
L 170.857864 231.901392 
L 171.392029 232.352282 
L 171.926195 232.170041 
L 172.460361 232.572479 
L 172.994526 229.602311 
L 173.528692 230.138112 
L 174.062858 228.57464 
L 174.597023 229.181555 
L 175.131189 231.857239 
L 175.665355 231.090261 
L 176.199521 229.911628 
L 176.733686 227.017131 
L 177.267852 227.169353 
L 177.802018 228.424463 
L 178.336183 227.113459 
L 179.404515 225.802365 
L 179.93868 225.873425 
L 180.472846 223.257627 
L 181.007012 222.362401 
L 181.541177 218.111576 
L 182.075343 215.585254 
L 182.609509 214.04703 
L 183.143675 217.541443 
L 183.67784 216.130479 
L 184.212006 215.117784 
L 184.746172 213.244747 
L 185.280337 210.854007 
L 185.814503 211.649867 
L 186.348669 209.742118 
L 186.882834 210.895628 
L 187.417 206.489295 
L 187.951166 209.352575 
L 189.019497 216.705101 
L 189.553663 218.572397 
L 190.087829 220.937734 
L 190.621994 216.568849 
L 191.15616 217.197185 
L 191.690326 220.056353 
L 192.224491 217.527226 
L 192.758657 218.725771 
L 193.292823 221.348931 
L 193.826989 219.344573 
L 194.361154 217.889814 
L 194.89532 218.755381 
L 195.429486 215.580485 
L 195.963651 215.207562 
L 196.497817 211.561762 
L 197.031983 210.362875 
L 197.566148 206.829476 
L 198.100314 206.497245 
L 198.63448 209.111732 
L 199.168646 203.604544 
L 199.702811 204.727713 
L 200.236977 205.079335 
L 200.771143 206.544265 
L 201.305308 206.905414 
L 202.37364 205.740498 
L 202.907805 204.184129 
L 203.441971 200.112527 
L 203.976137 200.290851 
L 205.044468 205.48941 
L 205.578634 206.876921 
L 206.1128 210.49772 
L 206.646965 208.585716 
L 207.181131 209.598605 
L 207.715297 210.196627 
L 208.249462 210.11133 
L 208.783628 213.108162 
L 209.317794 214.917135 
L 210.386125 211.891418 
L 210.920291 212.779842 
L 211.454457 208.699235 
L 211.988622 211.49878 
L 212.522788 212.17082 
L 213.056954 212.590672 
L 213.591119 218.659826 
L 214.125285 214.322521 
L 214.659451 213.426927 
L 215.193616 215.639166 
L 215.727782 211.04003 
L 216.261948 209.657487 
L 216.796114 208.61839 
L 217.330279 209.871971 
L 217.864445 209.547681 
L 218.398611 212.83139 
L 218.932776 210.989567 
L 219.466942 211.726948 
L 220.001108 211.341802 
L 220.535273 208.59902 
L 222.13777 206.50611 
L 222.671936 208.042039 
L 223.206102 206.101486 
L 223.740268 202.588715 
L 224.808599 198.748153 
L 225.87693 202.460246 
L 226.411096 205.576305 
L 226.945262 202.752188 
L 227.479427 203.227548 
L 228.013593 200.024795 
L 228.547759 201.678172 
L 229.081925 202.562212 
L 229.61609 202.259802 
L 230.150256 200.11895 
L 230.684422 199.893195 
L 231.218587 199.332016 
L 231.752753 199.204779 
L 232.286919 198.71899 
L 232.821084 201.121249 
L 233.35525 200.850745 
L 233.889416 201.176278 
L 234.423582 201.21266 
L 234.957747 200.025705 
L 235.491913 201.453329 
L 236.026079 201.551357 
L 236.560244 202.123395 
L 237.09441 201.104425 
L 237.628576 199.265853 
L 238.162741 201.307557 
L 238.696907 199.912273 
L 239.231073 195.214762 
L 239.765238 198.418933 
L 240.83357 202.055607 
L 241.367736 202.58673 
L 241.901901 198.885968 
L 242.436067 198.765769 
L 242.970233 200.226295 
L 243.504398 198.749628 
L 244.038564 199.998329 
L 244.57273 197.402737 
L 245.106895 196.629872 
L 245.641061 193.432863 
L 246.175227 194.825558 
L 246.709393 187.944451 
L 247.777724 184.42488 
L 248.31189 184.449064 
L 249.380221 187.866249 
L 249.914387 188.081502 
L 250.448552 189.787205 
L 250.982718 189.059916 
L 251.516884 190.829056 
L 252.05105 189.341562 
L 252.585215 187.097798 
L 253.119381 188.598737 
L 253.653547 185.820543 
L 254.187712 186.266467 
L 254.721878 183.566949 
L 255.256044 182.483774 
L 255.790209 179.849866 
L 256.324375 182.021534 
L 256.858541 182.171773 
L 257.392706 178.791488 
L 257.926872 180.103947 
L 260.063535 199.137522 
L 260.597701 199.965843 
L 261.131866 197.024246 
L 261.666032 197.922536 
L 262.200198 197.109232 
L 262.734363 197.26462 
L 263.268529 197.154985 
L 264.336861 197.73932 
L 264.871026 196.618322 
L 265.405192 199.158221 
L 266.473523 194.66537 
L 267.007689 195.011708 
L 267.541855 193.116884 
L 268.07602 194.599725 
L 268.610186 195.712831 
L 269.144352 195.272363 
L 269.678518 195.607682 
L 270.212683 196.521682 
L 271.281015 199.090465 
L 271.81518 196.90397 
L 272.349346 201.159194 
L 272.883512 200.283716 
L 273.417677 200.720573 
L 273.951843 199.008304 
L 274.486009 197.76825 
L 275.020175 203.895429 
L 275.55434 202.506195 
L 276.088506 201.694567 
L 276.622672 201.55572 
L 277.156837 202.50926 
L 277.691003 200.520567 
L 278.225169 201.35096 
L 278.759334 197.174179 
L 279.2935 195.821845 
L 279.827666 190.945837 
L 280.361831 192.620821 
L 280.895997 196.47167 
L 281.964329 192.780795 
L 282.498494 192.610542 
L 283.03266 195.973997 
L 283.566826 196.885812 
L 284.100991 195.413258 
L 284.635157 195.735 
L 285.169323 195.903996 
L 285.703488 196.206085 
L 286.237654 198.205255 
L 286.77182 199.305392 
L 287.305986 202.398331 
L 287.840151 198.374032 
L 288.374317 199.345257 
L 288.908483 198.189173 
L 289.442648 200.3813 
L 289.976814 198.519782 
L 290.51098 202.612183 
L 291.045145 200.473867 
L 291.579311 200.462442 
L 292.113477 195.667335 
L 292.647643 198.501664 
L 293.181808 198.240677 
L 293.715974 197.329988 
L 294.25014 194.483436 
L 294.784305 195.340352 
L 295.318471 195.056045 
L 295.852637 199.764374 
L 296.386802 201.525777 
L 296.920968 200.429842 
L 297.455134 197.878139 
L 297.989299 198.417151 
L 299.057631 189.696053 
L 299.591797 189.741425 
L 300.125962 195.082087 
L 300.660128 198.972965 
L 301.194294 200.618855 
L 301.728459 198.041582 
L 302.262625 197.257977 
L 302.796791 201.849254 
L 303.330956 202.268418 
L 303.865122 198.587713 
L 304.399288 199.334195 
L 304.933454 200.91732 
L 305.467619 196.248909 
L 306.001785 196.038795 
L 306.535951 197.020521 
L 307.070116 196.146994 
L 307.604282 196.017969 
L 308.138448 196.887778 
L 309.206779 191.502712 
L 309.740945 189.522253 
L 310.275111 189.662703 
L 310.809276 186.990186 
L 311.343442 187.010963 
L 311.877608 185.866839 
L 312.945939 181.518772 
L 313.480105 177.369544 
L 314.01427 176.250589 
L 314.548436 179.993923 
L 315.082602 182.53568 
L 315.616767 179.385975 
L 316.150933 180.046445 
L 316.685099 179.077092 
L 317.219265 180.91953 
L 317.75343 178.557453 
L 318.287596 179.34012 
L 318.821762 175.936214 
L 319.355927 177.056497 
L 319.890093 174.419514 
L 320.424259 172.788688 
L 320.958424 174.346479 
L 321.49259 171.746876 
L 322.560922 175.500903 
L 323.095087 173.763788 
L 324.163419 176.360296 
L 324.697584 177.05126 
L 325.23175 179.23545 
L 325.765916 176.769659 
L 326.300081 175.292174 
L 327.368413 175.51267 
L 327.902579 174.39446 
L 328.436744 170.274861 
L 328.97091 168.18805 
L 329.505076 169.261415 
L 330.039241 167.387132 
L 330.573407 167.566803 
L 331.107573 167.930562 
L 331.641738 163.55559 
L 332.71007 165.436655 
L 333.244235 169.831825 
L 333.778401 172.95098 
L 334.312567 171.828047 
L 334.846733 173.324339 
L 335.380898 172.05497 
L 335.915064 174.510953 
L 336.44923 176.168856 
L 336.983395 174.540133 
L 337.517561 171.115491 
L 338.051727 169.667367 
L 338.585892 166.830697 
L 339.120058 162.823266 
L 339.654224 160.333148 
L 340.18839 162.360681 
L 340.722555 162.510186 
L 341.256721 160.964216 
L 341.790887 161.828277 
L 342.325052 160.69251 
L 342.859218 164.244796 
L 343.393384 166.05875 
L 343.927549 164.750359 
L 344.461715 169.803771 
L 344.995881 172.248195 
L 345.530047 172.196142 
L 346.064212 176.033566 
L 346.598378 175.811201 
L 347.132544 177.540666 
L 348.200875 178.60873 
L 348.735041 178.08646 
L 349.269206 179.276379 
L 349.803372 178.980674 
L 350.337538 180.254562 
L 350.871704 178.900619 
L 351.405869 174.959821 
L 352.474201 173.938712 
L 353.008366 176.502788 
L 353.542532 174.831744 
L 354.610863 178.217747 
L 355.145029 176.858268 
L 355.679195 176.353984 
L 356.21336 173.740328 
L 356.747526 170.354406 
L 357.281692 171.497228 
L 357.815858 171.111009 
L 358.350023 166.990808 
L 358.884189 164.678574 
L 359.418355 162.944891 
L 359.95252 159.841855 
L 360.486686 161.145166 
L 361.020852 159.582623 
L 362.089183 152.38192 
L 362.623349 154.162386 
L 363.157515 154.652695 
L 363.69168 153.670529 
L 364.225846 154.247736 
L 364.760012 155.063358 
L 365.294177 153.382573 
L 365.828343 154.109574 
L 366.362509 158.166819 
L 366.896674 157.23591 
L 367.43084 158.125098 
L 367.965006 159.724034 
L 368.499172 163.248297 
L 369.033337 160.819605 
L 369.567503 165.867261 
L 370.101669 169.67983 
L 370.635834 170.218955 
L 371.704166 164.213081 
L 372.238331 166.778237 
L 372.772497 167.093179 
L 373.306663 170.468041 
L 373.840828 168.06056 
L 374.374994 171.354828 
L 374.90916 171.589745 
L 375.443326 169.134823 
L 375.977491 169.551749 
L 376.511657 166.090895 
L 377.045823 167.997026 
L 377.579988 167.057182 
L 378.114154 165.005114 
L 378.64832 165.233323 
L 379.182485 161.952234 
L 379.716651 160.594773 
L 380.250817 164.281952 
L 380.784983 155.078015 
L 381.319148 153.479278 
L 381.853314 153.135838 
L 382.38748 156.292297 
L 382.921645 156.008959 
L 383.455811 156.981264 
L 383.989977 155.395087 
L 384.524142 154.439165 
L 385.058308 150.043985 
L 385.592474 149.618194 
L 386.12664 148.326916 
L 386.660805 147.363333 
L 387.729137 147.949207 
L 388.263302 145.284767 
L 388.797468 143.365161 
L 389.331634 144.745266 
L 389.865799 147.256573 
L 390.399965 147.319439 
L 390.934131 144.512408 
L 391.468296 144.48206 
L 392.002462 140.298674 
L 392.536628 142.024542 
L 393.070794 141.597253 
L 393.604959 147.407668 
L 394.139125 148.704142 
L 394.673291 149.33076 
L 395.207456 148.04515 
L 395.741622 143.957993 
L 396.275788 143.781309 
L 396.809953 140.280643 
L 397.344119 138.630879 
L 397.878285 136.214911 
L 398.412451 137.218467 
L 398.946616 133.860551 
L 399.480782 136.299606 
L 400.014948 135.036824 
L 400.549113 137.188122 
L 401.083279 138.313324 
L 401.617445 141.657354 
L 402.15161 142.774068 
L 402.685776 141.85593 
L 403.219942 141.922279 
L 403.754108 144.989431 
L 404.288273 141.453011 
L 404.822439 140.566454 
L 405.89077 136.159827 
L 406.424936 137.631945 
L 406.959102 142.116798 
L 407.493267 144.169242 
L 408.027433 141.205433 
L 408.561599 143.583735 
L 409.095765 141.576954 
L 409.62993 142.919187 
L 410.164096 141.902723 
L 410.698262 146.087111 
L 411.232427 143.263944 
L 411.766593 143.262012 
L 412.300759 141.091142 
L 412.834924 140.550295 
L 413.36909 138.580552 
L 413.903256 138.725112 
L 414.437421 136.881013 
L 414.971587 140.342615 
L 415.505753 142.786484 
L 416.039919 140.990678 
L 416.574084 140.98759 
L 417.642416 141.756186 
L 418.176581 140.483841 
L 418.710747 141.782543 
L 419.244913 140.490087 
L 419.779078 142.546241 
L 420.313244 143.406282 
L 421.381576 138.392955 
L 421.915741 140.879577 
L 422.449907 138.815113 
L 422.984073 141.164468 
L 423.518238 139.348453 
L 424.052404 143.718051 
L 424.58657 146.24017 
L 425.120735 147.335281 
L 425.654901 147.629524 
L 426.189067 144.211112 
L 426.723233 141.999445 
L 427.257398 138.208288 
L 427.791564 135.273047 
L 428.859895 136.377526 
L 429.394061 133.76217 
L 429.928227 133.571124 
L 430.462392 133.846406 
L 430.996558 136.904997 
L 431.530724 137.060432 
L 432.064889 143.540473 
L 432.599055 144.514276 
L 433.133221 146.713442 
L 433.667387 145.000526 
L 434.201552 146.025895 
L 434.735718 146.70055 
L 435.269884 143.458193 
L 435.804049 145.821437 
L 436.338215 144.986263 
L 436.872381 149.326612 
L 437.406546 149.02301 
L 437.940712 147.97183 
L 438.474878 145.870268 
L 439.009044 147.876997 
L 440.077375 146.198495 
L 440.611541 146.148793 
L 441.145706 145.703425 
L 442.214038 143.498435 
L 443.282369 148.439219 
L 443.816535 142.497812 
L 444.350701 137.9008 
L 444.884866 141.081887 
L 445.419032 139.929745 
L 446.487363 136.496516 
L 447.021529 136.070148 
L 447.555695 138.160166 
L 448.08986 138.494227 
L 448.624026 139.5546 
L 449.158192 139.143496 
L 449.692357 139.679416 
L 450.226523 139.89376 
L 451.294855 134.41105 
L 451.82902 137.104311 
L 452.363186 138.092446 
L 452.897352 139.85858 
L 453.431517 136.88723 
L 453.965683 136.931705 
L 454.499849 133.422178 
L 455.034014 134.455115 
L 455.56818 134.298114 
L 456.102346 137.387399 
L 456.636512 134.224173 
L 457.170677 134.984895 
L 457.704843 138.394443 
L 458.239009 139.693378 
L 458.773174 145.016297 
L 459.30734 144.995995 
L 459.841506 144.638008 
L 460.375671 143.86889 
L 460.909837 140.264977 
L 461.444003 140.876992 
L 461.978169 138.885741 
L 462.512334 138.056011 
L 463.0465 138.415763 
L 463.580666 143.20768 
L 464.114831 140.892164 
L 464.648997 141.980549 
L 465.183163 141.843421 
L 465.717328 144.729394 
L 466.251494 143.972234 
L 466.78566 143.624372 
L 467.319825 143.460584 
L 467.853991 143.681542 
L 468.922323 138.765095 
L 469.456488 136.962086 
L 469.990654 129.041738 
L 470.52482 130.369414 
L 471.058985 131.172675 
L 471.593151 133.479572 
L 472.127317 132.3536 
L 472.661482 133.883975 
L 473.195648 140.162659 
L 473.729814 142.918543 
L 474.26398 142.654243 
L 474.798145 140.191587 
L 475.332311 143.754764 
L 475.866477 145.094588 
L 476.400642 145.325905 
L 476.934808 146.935528 
L 477.468974 145.600024 
L 478.003139 145.495959 
L 478.537305 144.649776 
L 479.071471 146.252552 
L 479.605637 142.566146 
L 480.139802 142.472071 
L 480.673968 139.343575 
L 481.208134 140.280611 
L 481.742299 138.79917 
L 482.276465 140.302141 
L 482.810631 142.441131 
L 483.344796 143.998 
L 483.878962 144.010585 
L 484.413128 144.428032 
L 484.947294 140.729619 
L 486.015625 145.792585 
L 486.549791 141.722031 
L 487.083956 140.198422 
L 487.618122 144.523974 
L 488.152288 143.265061 
L 488.686453 142.613966 
L 489.220619 147.547395 
L 489.754785 148.315763 
L 490.28895 148.262005 
L 490.823116 146.460752 
L 491.357282 144.135317 
L 491.891448 143.816271 
L 492.425613 141.300626 
L 492.959779 141.548941 
L 494.02811 145.560459 
L 494.562276 144.196528 
L 495.096442 148.687103 
L 495.630607 147.011527 
L 496.164773 149.501938 
L 496.698939 150.244921 
L 497.233105 148.973262 
L 497.76727 146.03844 
L 498.301436 150.481063 
L 498.835602 152.264425 
L 499.369767 152.056162 
L 499.903933 153.348447 
L 500.438099 151.252496 
L 500.972264 156.014452 
L 502.040596 153.999882 
L 502.574762 153.791886 
L 503.108927 151.137914 
L 503.643093 153.905848 
L 504.177259 151.23732 
L 504.711424 152.779181 
L 505.24559 150.998505 
L 505.779756 151.659005 
L 506.848087 147.756572 
L 507.382253 151.079953 
L 507.916418 151.34533 
L 508.450584 151.466212 
L 508.98475 151.925547 
L 509.518916 153.589187 
L 510.053081 149.194439 
L 510.587247 148.612475 
L 511.121413 144.890402 
L 511.655578 146.127608 
L 512.189744 148.515225 
L 512.72391 148.112214 
L 513.258075 149.332216 
L 513.792241 143.665414 
L 514.326407 142.995588 
L 514.860573 140.198887 
L 515.394738 140.630622 
L 515.928904 141.301366 
L 516.46307 141.278874 
L 516.997235 140.348766 
L 517.531401 138.257637 
L 518.065567 138.449831 
L 518.599732 139.956702 
L 519.133898 142.371212 
L 519.668064 142.456081 
L 520.736395 139.847077 
L 521.270561 139.79378 
L 521.804727 141.109217 
L 522.338892 140.669562 
L 522.873058 139.23144 
L 523.407224 139.222797 
L 523.941389 138.863324 
L 524.475555 139.122108 
L 525.009721 136.873781 
L 525.543886 137.810907 
L 526.078052 137.278734 
L 526.612218 136.254273 
L 527.146384 134.448345 
L 527.680549 130.820693 
L 528.748881 127.607757 
L 529.283046 131.003189 
L 529.817212 129.471296 
L 530.351378 123.936589 
L 530.885543 125.817374 
L 531.419709 128.145924 
L 531.953875 128.559343 
L 532.488041 126.039884 
L 533.022206 124.695741 
L 533.556372 125.735219 
L 534.090538 125.724508 
L 534.624703 123.161469 
L 535.158869 121.46159 
L 535.693035 115.566844 
L 536.2272 113.057127 
L 536.761366 112.109824 
L 537.295532 110.533465 
L 537.829698 111.276621 
L 538.363863 113.533136 
L 538.898029 113.022618 
L 539.432195 111.745951 
L 539.96636 115.006357 
L 540.500526 116.162855 
L 541.034692 116.951144 
L 541.568857 116.217592 
L 542.103023 116.745007 
L 542.637189 115.581252 
L 543.171354 115.248751 
L 543.70552 112.607254 
L 544.239686 116.624982 
L 545.308017 109.049272 
L 545.842183 108.83024 
L 546.910514 105.600625 
L 547.44468 107.286083 
L 547.978846 106.790524 
L 548.513011 104.812225 
L 549.047177 103.964319 
L 549.581343 101.319793 
L 550.649674 100.696511 
L 551.18384 102.462913 
L 551.718006 103.248768 
L 552.252171 104.264788 
L 552.786337 100.036838 
L 553.320503 99.354013 
L 553.854668 101.685525 
L 554.388834 100.619983 
L 554.923 100.987976 
L 555.457166 108.304477 
L 555.991331 107.048644 
L 556.525497 110.70209 
L 557.059663 109.211229 
L 557.593828 111.431801 
L 558.127994 114.844811 
L 558.66216 113.561005 
L 559.196325 117.05417 
L 559.730491 118.027424 
L 560.264657 117.4412 
L 561.332988 113.994219 
L 561.867154 113.984102 
L 562.40132 115.886331 
L 562.935485 111.175338 
L 563.469651 112.536873 
L 564.003817 108.101866 
L 564.537982 109.096455 
L 565.606314 103.513188 
L 566.140479 105.948445 
L 566.674645 104.991387 
L 567.742977 101.267986 
L 568.277142 101.652615 
L 568.811308 100.821562 
L 569.345474 101.681702 
L 569.879639 104.427083 
L 570.413805 101.946536 
L 570.947971 103.206177 
L 571.482136 99.763977 
L 572.016302 98.201275 
L 572.550468 100.275132 
L 573.084634 100.568387 
L 573.618799 101.165642 
L 574.152965 103.181621 
L 574.687131 101.86816 
L 575.221296 102.931187 
L 575.755462 98.877467 
L 576.289628 96.685018 
L 576.823793 98.731103 
L 577.357959 98.67882 
L 577.892125 99.131954 
L 578.426291 102.83806 
L 580.028788 95.725464 
L 580.562953 96.741136 
L 581.097119 94.037794 
L 581.631285 94.451125 
L 582.16545 92.069424 
L 582.699616 87.537065 
L 583.233782 87.093686 
L 583.767947 90.4795 
L 584.302113 91.156453 
L 584.836279 89.488359 
L 585.370445 86.399083 
L 585.90461 89.085614 
L 586.438776 89.453534 
L 586.972942 88.782326 
L 587.507107 87.616182 
L 588.041273 85.281837 
L 588.575439 87.514936 
L 589.109604 88.455179 
L 589.64377 85.883142 
L 590.712102 83.61628 
L 591.246267 80.745065 
L 591.780433 80.38824 
L 592.314599 78.984456 
L 592.848764 79.661986 
L 593.917096 85.977229 
L 594.451261 85.695004 
L 594.985427 86.0861 
L 595.519593 87.595518 
L 596.053759 86.715426 
L 596.587924 88.803024 
L 597.12209 88.430666 
L 597.656256 88.37922 
L 598.190421 90.340631 
L 598.724587 95.870644 
L 599.258753 92.220418 
L 599.792918 91.34701 
L 600.327084 97.768022 
L 600.86125 98.707595 
L 601.395415 97.65114 
L 601.929581 98.108018 
L 602.463747 96.597025 
L 602.997913 98.87008 
L 603.532078 98.345521 
L 604.066244 98.377132 
L 605.134575 99.163222 
L 605.668741 98.57899 
L 606.202907 96.211246 
L 606.737072 97.404782 
L 607.271238 98.297906 
L 607.805404 97.808636 
L 608.33957 98.002557 
L 608.873735 96.965413 
L 609.407901 95.116912 
L 609.942067 91.867828 
L 610.476232 92.053629 
L 611.010398 97.524767 
L 611.544564 97.595702 
L 612.078729 96.635475 
L 613.147061 97.267025 
L 613.681227 103.092861 
L 614.215392 101.763415 
L 614.749558 102.451435 
L 615.283724 106.017843 
L 616.352055 110.017018 
L 617.420386 106.99928 
L 617.954552 103.241703 
L 618.488718 101.573264 
L 619.557049 108.068394 
L 620.091215 105.241152 
L 620.625381 101.352444 
L 621.159546 101.831253 
L 621.693712 100.377117 
L 622.227878 103.934601 
L 622.762043 108.545084 
L 623.296209 111.280268 
L 623.830375 112.042713 
L 624.36454 113.19971 
L 624.898706 113.655495 
L 625.432872 114.737989 
L 625.967038 113.010056 
L 626.501203 109.480817 
L 627.035369 109.295907 
L 627.569535 104.302968 
L 628.637866 106.913174 
L 629.172032 105.878472 
L 629.706197 106.638561 
L 630.240363 103.696008 
L 630.774529 105.151103 
L 631.308695 101.852508 
L 631.84286 101.283118 
L 632.377026 94.957179 
L 632.911192 95.990881 
L 633.445357 96.38634 
L 633.979523 95.93265 
L 634.513689 101.151709 
L 635.58202 98.323926 
L 636.116186 97.959372 
L 637.184517 105.275064 
L 637.718683 103.757756 
L 638.252849 100.812727 
L 638.787014 96.842325 
L 639.855346 101.333945 
L 640.389511 101.895756 
L 640.923677 106.591177 
L 641.457843 107.916689 
L 641.992008 105.762509 
L 642.526174 101.711217 
L 643.06034 100.935543 
L 643.594506 96.85363 
L 644.128671 95.753939 
L 644.662837 95.188541 
L 645.197003 95.508014 
L 645.731168 94.9533 
L 646.265334 95.476372 
L 646.7995 95.721303 
L 647.333665 97.236661 
L 647.867831 96.50714 
L 648.401997 96.373244 
L 648.936163 99.880762 
L 649.470328 100.367328 
L 650.004494 102.347668 
L 650.53866 107.217107 
L 651.072825 105.950404 
L 651.606991 102.083316 
L 652.141157 96.23635 
L 652.675322 92.329097 
L 653.209488 94.359542 
L 654.27782 88.55169 
L 654.811985 93.328438 
L 655.346151 91.125014 
L 655.880317 89.490679 
L 656.414482 88.992369 
L 656.948648 88.185364 
L 657.482814 87.942938 
L 658.016979 83.838491 
L 658.551145 84.728143 
L 659.085311 85.120478 
L 659.619476 85.002696 
L 660.153642 84.22493 
L 660.687808 88.4657 
L 661.221974 84.961474 
L 661.756139 84.305371 
L 662.290305 82.804823 
L 662.824471 82.218752 
L 663.358636 82.578606 
L 663.358636 82.578606 
" style="fill:none;stroke:#003559;stroke-linecap:square;stroke-width:2;"/>
   </g>
   <g id="line2d_21">
    <path clip-path="url(#p6eb2baa4a9)" d="M 78.981364 274.613187 
L 79.515529 274.186799 
L 80.049695 273.585568 
L 80.583861 269.849616 
L 81.118026 268.637565 
L 81.652192 268.929495 
L 82.186358 262.56795 
L 83.254689 270.568224 
L 83.788855 269.330234 
L 84.323021 269.869441 
L 84.857186 275.306711 
L 85.391352 276.154307 
L 85.925518 278.242962 
L 86.459683 274.59878 
L 86.993849 276.411506 
L 87.528015 273.011758 
L 88.06218 271.447865 
L 88.596346 271.967063 
L 89.130512 271.774101 
L 89.664678 270.305759 
L 90.198843 277.412666 
L 90.733009 276.268497 
L 91.267175 277.323757 
L 91.80134 271.600538 
L 92.335506 273.637662 
L 92.869672 269.941567 
L 93.403837 277.699598 
L 93.938003 275.038467 
L 94.472169 274.050691 
L 95.006335 274.695654 
L 95.5405 274.946571 
L 96.074666 275.63324 
L 96.608832 274.187964 
L 97.142997 274.480719 
L 97.677163 279.935023 
L 98.211329 280.386278 
L 98.745494 273.324139 
L 99.27966 273.051192 
L 99.813826 272.015624 
L 100.347992 273.259616 
L 101.416323 271.905954 
L 101.950489 272.596636 
L 102.484654 269.770307 
L 103.01882 272.537909 
L 103.552986 272.818451 
L 104.087151 271.112719 
L 104.621317 271.822098 
L 105.155483 275.525667 
L 105.689648 273.658427 
L 106.223814 276.600317 
L 106.75798 277.867669 
L 107.292146 280.318455 
L 107.826311 280.536476 
L 108.894643 283.089047 
L 109.428808 280.855488 
L 109.962974 275.261298 
L 110.49714 276.250188 
L 111.031305 274.49522 
L 111.565471 275.47828 
L 112.099637 275.043428 
L 112.633803 271.398537 
L 113.167968 271.114293 
L 114.2363 275.695697 
L 114.770465 277.492463 
L 115.304631 277.407834 
L 115.838797 274.610898 
L 116.372962 278.72568 
L 117.441294 284.564865 
L 117.97546 289.847811 
L 118.509625 285.645318 
L 119.043791 285.632611 
L 119.577957 279.637564 
L 120.112122 283.936036 
L 120.646288 279.807492 
L 121.180454 281.860829 
L 121.714619 282.99797 
L 122.782951 288.74204 
L 123.317117 292.693015 
L 123.851282 291.905323 
L 124.385448 295.814825 
L 124.919614 296.430359 
L 125.453779 296.334737 
L 125.987945 294.173758 
L 126.522111 293.742287 
L 127.056276 292.633718 
L 127.590442 290.931714 
L 128.124608 290.860306 
L 128.658773 289.619496 
L 129.192939 292.508788 
L 129.727105 294.763387 
L 130.261271 288.83152 
L 130.795436 288.742982 
L 131.329602 290.805851 
L 131.863768 286.441492 
L 132.397933 286.80052 
L 132.932099 288.669843 
L 133.466265 293.006741 
L 134.00043 290.492599 
L 134.534596 293.70702 
L 135.068762 295.234535 
L 135.602928 293.140092 
L 136.137093 292.45299 
L 136.671259 292.593903 
L 137.205425 293.126067 
L 137.73959 289.488829 
L 138.273756 282.502504 
L 138.807922 284.076911 
L 139.342087 282.192124 
L 139.876253 276.090216 
L 140.410419 272.600766 
L 140.944585 274.622061 
L 141.47875 275.839928 
L 142.012916 277.577904 
L 142.547082 280.294847 
L 143.081247 282.105885 
L 143.615413 281.16891 
L 144.149579 282.864043 
L 144.683744 280.025494 
L 145.21791 279.51705 
L 145.752076 280.624947 
L 146.286241 277.749549 
L 147.354573 275.679683 
L 147.888739 272.310517 
L 148.422904 270.390575 
L 148.95707 270.604953 
L 149.491236 267.540447 
L 150.025401 266.441172 
L 150.559567 257.136581 
L 151.627898 249.719765 
L 152.162064 245.46441 
L 152.69623 245.078297 
L 153.230396 240.734099 
L 153.764561 240.528316 
L 154.298727 243.077088 
L 154.832893 244.760575 
L 155.367058 242.935404 
L 155.901224 247.82619 
L 156.43539 247.029479 
L 156.969555 249.233382 
L 157.503721 246.807482 
L 158.037887 249.068963 
L 158.572053 242.952039 
L 159.106218 240.352311 
L 159.640384 244.312618 
L 160.17455 238.533123 
L 160.708715 239.136263 
L 161.242881 241.353633 
L 161.777047 244.520904 
L 162.311212 242.567459 
L 162.845378 237.596527 
L 163.379544 239.335298 
L 164.447875 245.961103 
L 165.516207 235.518363 
L 166.050372 236.515764 
L 166.584538 234.644972 
L 167.118704 234.523143 
L 167.652869 234.588419 
L 168.187035 231.332444 
L 168.721201 229.767202 
L 169.255366 228.562611 
L 169.789532 229.384263 
L 170.323698 226.596009 
L 170.857864 227.384624 
L 171.392029 227.089603 
L 171.926195 226.241102 
L 172.460361 230.032266 
L 173.528692 231.759048 
L 174.062858 231.29856 
L 175.131189 238.495758 
L 175.665355 233.121822 
L 176.199521 229.23688 
L 176.733686 226.209028 
L 177.267852 220.116032 
L 177.802018 218.604755 
L 178.336183 218.771145 
L 178.870349 217.052197 
L 179.404515 223.109085 
L 179.93868 226.573513 
L 180.472846 223.964047 
L 181.007012 223.724747 
L 181.541177 227.775065 
L 182.075343 225.494985 
L 182.609509 222.097601 
L 183.143675 219.774981 
L 183.67784 219.741478 
L 184.212006 222.355579 
L 184.746172 221.870141 
L 185.280337 220.337249 
L 185.814503 221.381904 
L 186.348669 219.270513 
L 187.417 216.874306 
L 187.951166 223.437064 
L 188.485332 219.764103 
L 189.019497 213.965026 
L 189.553663 215.160703 
L 190.087829 219.900297 
L 190.621994 217.668121 
L 191.15616 219.067811 
L 191.690326 222.114113 
L 192.224491 217.988746 
L 192.758657 222.408368 
L 193.292823 219.923993 
L 193.826989 223.890179 
L 194.361154 218.970992 
L 194.89532 217.139321 
L 195.429486 217.853727 
L 195.963651 217.228785 
L 196.497817 215.178368 
L 197.566148 209.434021 
L 198.100314 207.486318 
L 198.63448 208.937943 
L 199.168646 206.599967 
L 199.702811 210.825865 
L 200.771143 204.32998 
L 201.305308 199.549817 
L 201.839474 201.384632 
L 202.37364 200.627223 
L 202.907805 197.622406 
L 203.441971 196.421129 
L 203.976137 197.717067 
L 204.510302 196.551177 
L 205.044468 196.187026 
L 205.578634 192.708988 
L 206.1128 194.688666 
L 207.181131 192.289608 
L 207.715297 189.602359 
L 208.249462 189.711748 
L 208.783628 189.145234 
L 209.317794 189.248106 
L 210.386125 188.831265 
L 210.920291 189.798397 
L 211.454457 180.117567 
L 211.988622 182.853005 
L 212.522788 186.701006 
L 213.591119 191.518457 
L 214.125285 191.343425 
L 215.193616 180.529245 
L 215.727782 179.583689 
L 216.261948 187.955546 
L 216.796114 186.51902 
L 217.330279 190.819209 
L 217.864445 192.371329 
L 218.398611 196.107202 
L 218.932776 194.542553 
L 219.466942 196.512762 
L 220.001108 193.785987 
L 220.535273 192.044255 
L 221.069439 192.716622 
L 221.603605 192.30904 
L 222.13777 189.082622 
L 222.671936 190.202849 
L 223.206102 186.976455 
L 223.740268 186.904788 
L 224.274433 185.855998 
L 224.808599 183.011369 
L 225.342765 178.351876 
L 225.87693 176.437798 
L 226.411096 176.100096 
L 226.945262 173.499298 
L 227.479427 178.653172 
L 228.013593 172.92767 
L 228.547759 177.330485 
L 229.081925 174.107816 
L 229.61609 175.900226 
L 230.150256 174.028362 
L 230.684422 174.288765 
L 231.218587 173.111232 
L 231.752753 175.715824 
L 232.286919 182.96235 
L 232.821084 181.443736 
L 233.889416 185.412885 
L 234.423582 187.733681 
L 234.957747 180.885654 
L 235.491913 182.728756 
L 236.026079 181.481048 
L 236.560244 185.289617 
L 237.09441 179.990245 
L 237.628576 181.746526 
L 238.162741 190.450681 
L 238.696907 181.164625 
L 239.231073 184.762355 
L 239.765238 180.186702 
L 240.83357 175.189358 
L 241.367736 175.842461 
L 241.901901 175.057471 
L 242.436067 170.733212 
L 242.970233 171.627269 
L 243.504398 170.626321 
L 244.038564 167.300271 
L 244.57273 166.87372 
L 245.106895 168.198089 
L 245.641061 163.064258 
L 246.175227 161.743473 
L 246.709393 162.036453 
L 247.243558 164.580202 
L 247.777724 167.911126 
L 248.846055 161.280252 
L 249.380221 168.653494 
L 249.914387 170.630996 
L 250.448552 167.179311 
L 251.516884 151.091504 
L 252.05105 147.661274 
L 252.585215 142.709889 
L 253.119381 144.422396 
L 253.653547 141.560153 
L 254.187712 145.772942 
L 254.721878 147.601841 
L 255.256044 146.335886 
L 255.790209 138.59292 
L 256.324375 135.810202 
L 256.858541 134.69824 
L 257.392706 135.15712 
L 257.926872 139.69475 
L 258.461038 137.426264 
L 258.995204 138.516496 
L 259.529369 137.529852 
L 260.063535 140.528383 
L 260.597701 139.95846 
L 261.131866 145.234089 
L 261.666032 143.323574 
L 262.200198 138.542224 
L 262.734363 135.173537 
L 263.268529 127.548156 
L 263.802695 126.247692 
L 264.871026 122.317121 
L 265.405192 125.320037 
L 265.939358 117.490314 
L 266.473523 113.79324 
L 267.007689 114.522393 
L 267.541855 117.628136 
L 268.07602 115.393768 
L 268.610186 112.16179 
L 269.144352 111.518092 
L 269.678518 110.700058 
L 270.212683 111.233423 
L 270.746849 111.097108 
L 271.81518 100.902074 
L 272.349346 106.218821 
L 272.883512 105.568338 
L 273.951843 114.473475 
L 274.486009 112.217216 
L 275.020175 115.10786 
L 275.55434 126.313484 
L 276.088506 123.86836 
L 276.622672 119.141927 
L 277.156837 111.682177 
L 277.691003 112.966635 
L 278.225169 107.60804 
L 278.759334 116.955397 
L 279.2935 120.56008 
L 280.361831 116.717399 
L 280.895997 111.824991 
L 281.430163 108.225533 
L 281.964329 108.374249 
L 282.498494 102.691818 
L 283.03266 100.047787 
L 283.566826 93.641473 
L 284.100991 96.440113 
L 284.635157 95.194416 
L 285.169323 96.618345 
L 285.703488 93.52452 
L 286.77182 94.954802 
L 287.305986 99.661855 
L 287.840151 98.390464 
L 288.908483 90.330292 
L 289.442648 101.262754 
L 289.976814 107.012945 
L 290.51098 99.599438 
L 291.579311 100.53119 
L 292.113477 96.137743 
L 292.647643 95.270601 
L 293.181808 97.437256 
L 293.715974 98.05587 
L 294.25014 90.981622 
L 294.784305 95.905611 
L 295.318471 90.998431 
L 296.386802 92.843468 
L 296.920968 85.864491 
L 297.455134 88.085775 
L 297.989299 84.863005 
L 298.523465 86.053418 
L 299.057631 91.184071 
L 299.591797 91.644948 
L 300.125962 87.206176 
L 300.660128 87.741751 
L 301.194294 85.569756 
L 301.728459 84.724943 
L 302.262625 84.402634 
L 302.796791 85.794496 
L 303.330956 85.159192 
L 303.865122 92.510403 
L 304.399288 94.006143 
L 304.933454 100.46581 
L 305.467619 99.335562 
L 306.001785 97.894399 
L 306.535951 100.65331 
L 307.070116 97.586509 
L 307.604282 95.992905 
L 308.138448 94.771187 
L 308.672613 95.945974 
L 309.206779 94.068751 
L 309.740945 90.058977 
L 310.275111 92.337247 
L 310.809276 95.184975 
L 311.343442 90.685546 
L 312.945939 114.874796 
L 314.01427 113.379769 
L 314.548436 111.44391 
L 315.082602 111.023362 
L 316.685099 95.084091 
L 317.219265 99.165949 
L 317.75343 97.692057 
L 318.287596 100.70757 
L 318.821762 102.384132 
L 319.355927 105.959761 
L 319.890093 105.774027 
L 320.424259 103.653164 
L 320.958424 103.220028 
L 321.49259 107.411241 
L 322.026756 112.793165 
L 323.095087 118.048669 
L 323.629253 115.086969 
L 324.163419 116.090561 
L 325.23175 117.042151 
L 325.765916 112.954573 
L 326.300081 106.908323 
L 326.834247 105.213739 
L 327.368413 105.967987 
L 327.902579 100.733959 
L 328.436744 98.989976 
L 328.97091 100.378469 
L 329.505076 96.548416 
L 330.039241 95.642875 
L 330.573407 100.740678 
L 331.107573 98.309421 
L 331.641738 97.0672 
L 332.71007 111.37295 
L 333.244235 110.734549 
L 334.312567 105.769226 
L 334.846733 110.559681 
L 335.380898 111.667256 
L 335.915064 109.114615 
L 336.44923 114.524101 
L 336.983395 114.071115 
L 337.517561 113.156621 
L 338.051727 109.679892 
L 338.585892 118.406894 
L 339.120058 117.741041 
L 339.654224 110.346744 
L 340.18839 112.445482 
L 340.722555 113.440309 
L 341.256721 109.855407 
L 341.790887 112.468172 
L 342.325052 108.148141 
L 342.859218 106.044443 
L 343.393384 111.606692 
L 343.927549 111.09733 
L 344.461715 116.220643 
L 344.995881 112.64923 
L 346.064212 124.923391 
L 346.598378 128.839372 
L 347.132544 131.553075 
L 347.666709 126.740684 
L 348.200875 126.661417 
L 348.735041 125.479588 
L 349.269206 121.499126 
L 350.871704 128.653739 
L 351.405869 125.716031 
L 351.940035 119.744098 
L 352.474201 118.671078 
L 353.542532 122.482029 
L 354.076698 126.316637 
L 354.610863 123.564857 
L 355.145029 127.219459 
L 355.679195 127.982534 
L 356.21336 132.001185 
L 356.747526 138.598853 
L 357.281692 147.420221 
L 357.815858 150.395774 
L 358.350023 149.492347 
L 358.884189 150.462039 
L 359.418355 151.101675 
L 361.020852 161.369703 
L 361.555017 160.498478 
L 362.089183 153.265953 
L 362.623349 153.600122 
L 363.157515 158.230019 
L 363.69168 153.672963 
L 364.225846 157.01097 
L 364.760012 154.933387 
L 365.294177 156.333033 
L 365.828343 155.910421 
L 366.362509 143.832966 
L 366.896674 146.3172 
L 367.43084 148.232215 
L 367.965006 146.776996 
L 368.499172 146.711995 
L 369.033337 147.993333 
L 369.567503 150.261761 
L 370.101669 148.056892 
L 370.635834 144.143306 
L 371.704166 151.184577 
L 372.238331 144.653986 
L 372.772497 149.515733 
L 373.306663 146.872943 
L 373.840828 145.192121 
L 374.374994 148.92091 
L 374.90916 146.122284 
L 375.977491 153.516014 
L 376.511657 158.216877 
L 377.045823 155.181008 
L 377.579988 156.603635 
L 378.114154 152.691345 
L 378.64832 155.375126 
L 379.182485 153.095854 
L 379.716651 148.048729 
L 380.250817 148.208094 
L 380.784983 152.005971 
L 381.319148 153.059946 
L 381.853314 148.537901 
L 382.38748 145.809744 
L 382.921645 147.021628 
L 383.455811 152.992085 
L 383.989977 150.356469 
L 385.058308 138.585225 
L 385.592474 136.914843 
L 386.12664 137.446892 
L 386.660805 140.081018 
L 387.194971 141.956627 
L 387.729137 147.619977 
L 388.263302 140.002443 
L 388.797468 139.954753 
L 389.331634 131.406408 
L 389.865799 131.527153 
L 390.399965 137.129254 
L 390.934131 130.407922 
L 391.468296 133.319735 
L 392.002462 134.728629 
L 393.070794 123.412186 
L 393.604959 130.510845 
L 394.139125 130.363201 
L 394.673291 134.09151 
L 395.207456 132.037976 
L 395.741622 125.46287 
L 396.275788 127.165135 
L 396.809953 121.699573 
L 397.344119 124.879158 
L 397.878285 116.978562 
L 398.412451 119.800561 
L 398.946616 121.316756 
L 399.480782 120.108294 
L 400.014948 124.983955 
L 400.549113 119.307051 
L 401.083279 123.00014 
L 401.617445 120.659779 
L 402.15161 125.133799 
L 402.685776 124.597358 
L 403.219942 124.490336 
L 403.754108 125.732363 
L 404.288273 123.8424 
L 404.822439 127.688779 
L 405.356605 122.123599 
L 405.89077 121.254181 
L 406.424936 131.106271 
L 406.959102 123.839127 
L 407.493267 122.076611 
L 408.027433 116.371679 
L 408.561599 116.862327 
L 409.095765 124.84978 
L 409.62993 126.203822 
L 410.164096 130.432172 
L 410.698262 130.425026 
L 411.232427 131.996649 
L 411.766593 131.111126 
L 412.300759 137.234074 
L 412.834924 136.900961 
L 413.36909 138.382187 
L 413.903256 136.00299 
L 414.437421 141.845595 
L 414.971587 143.199142 
L 415.505753 137.226676 
L 416.039919 141.256791 
L 416.574084 138.515269 
L 417.10825 133.676249 
L 417.642416 133.568497 
L 418.710747 126.074661 
L 419.244913 120.3311 
L 419.779078 121.504319 
L 420.313244 121.761426 
L 420.84741 118.737855 
L 421.381576 121.268563 
L 421.915741 120.951461 
L 422.449907 123.308858 
L 422.984073 131.49082 
L 423.518238 130.157884 
L 424.052404 123.962439 
L 424.58657 125.147215 
L 425.120735 124.701755 
L 425.654901 126.175191 
L 426.189067 128.673472 
L 426.723233 128.044946 
L 427.257398 124.080079 
L 427.791564 116.018499 
L 428.32573 112.899968 
L 428.859895 116.220998 
L 429.394061 121.207543 
L 429.928227 116.38213 
L 430.462392 115.097625 
L 430.996558 117.149409 
L 431.530724 120.799408 
L 432.064889 123.548163 
L 432.599055 118.994597 
L 433.133221 118.929531 
L 433.667387 123.809555 
L 434.201552 120.546532 
L 434.735718 119.290185 
L 435.269884 120.189286 
L 435.804049 117.86576 
L 436.338215 120.69296 
L 436.872381 117.094179 
L 437.406546 122.069348 
L 437.940712 125.157754 
L 438.474878 129.92817 
L 439.009044 131.265204 
L 439.543209 133.811342 
L 440.077375 134.952944 
L 440.611541 134.79271 
L 441.145706 132.686879 
L 441.679872 132.023493 
L 442.214038 130.985923 
L 442.748203 125.143294 
L 443.282369 125.950031 
L 443.816535 131.007834 
L 444.350701 127.484616 
L 444.884866 120.799795 
L 445.419032 119.98372 
L 445.953198 116.828688 
L 446.487363 119.039822 
L 447.021529 118.228333 
L 447.555695 115.795759 
L 448.08986 114.288069 
L 448.624026 116.086322 
L 449.158192 110.075554 
L 449.692357 109.304468 
L 450.226523 105.793293 
L 450.760689 104.174342 
L 451.82902 97.306644 
L 452.363186 97.948369 
L 452.897352 94.756542 
L 453.965683 79.183723 
L 454.499849 76.200869 
L 455.034014 69.779692 
L 455.56818 74.514691 
L 456.102346 68.884384 
L 456.636512 68.453082 
L 457.170677 74.984328 
L 457.704843 74.21908 
L 458.239009 70.434136 
L 458.773174 72.881771 
L 459.30734 65.512237 
L 459.841506 60.302777 
L 460.375671 64.950129 
L 460.909837 61.013927 
L 461.444003 60.440341 
L 461.978169 62.364337 
L 462.512334 63.402069 
L 463.0465 64.920931 
L 463.580666 69.330498 
L 464.114831 70.854604 
L 464.648997 68.117973 
L 465.717328 57.00099 
L 466.251494 59.012085 
L 466.78566 59.301301 
L 467.319825 62.386178 
L 467.853991 58.363315 
L 468.922323 69.387072 
L 469.456488 71.611873 
L 469.990654 70.52276 
L 470.52482 71.570594 
L 471.593151 70.967747 
L 472.127317 69.945972 
L 472.661482 73.658713 
L 473.195648 74.77173 
L 473.729814 72.471891 
L 474.26398 71.276338 
L 474.798145 67.045821 
L 475.332311 69.688054 
L 475.866477 66.150942 
L 476.400642 60.504299 
L 476.934808 60.888551 
L 478.003139 58.73512 
L 478.537305 56.563618 
L 479.071471 54.946177 
L 479.605637 49.238051 
L 480.139802 47.134837 
L 480.673968 43.692509 
L 481.208134 42.273616 
L 481.742299 46.096774 
L 482.276465 44.292903 
L 482.810631 45.015178 
L 483.344796 47.280616 
L 483.878962 50.528135 
L 484.413128 50.641576 
L 484.947294 52.792198 
L 486.015625 38.676616 
L 486.549791 39.543661 
L 487.083956 36.675145 
L 487.618122 32.08281 
L 488.152288 32.592191 
L 488.686453 25.325645 
L 489.220619 21.601211 
L 489.754785 21.838747 
L 490.28895 28.662187 
L 490.823116 32.233652 
L 491.357282 30.851361 
L 491.891448 32.383793 
L 492.425613 32.307835 
L 492.959779 35.181733 
L 493.493945 34.078183 
L 494.02811 35.683768 
L 494.562276 41.487718 
L 495.096442 42.638304 
L 495.630607 44.667264 
L 496.164773 50.426465 
L 496.698939 44.873558 
L 497.233105 45.00905 
L 497.76727 46.100153 
L 498.301436 43.089475 
L 498.835602 43.25013 
L 499.369767 40.168139 
L 499.903933 45.676178 
L 500.438099 49.469639 
L 500.972264 47.245837 
L 501.50643 41.417596 
L 502.040596 41.148208 
L 502.574762 40.16632 
L 503.108927 43.160796 
L 503.643093 43.120513 
L 504.177259 45.671121 
L 504.711424 46.127121 
L 505.24559 43.223455 
L 505.779756 50.695105 
L 506.313921 49.733503 
L 507.382253 54.929138 
L 507.916418 50.473409 
L 508.450584 49.198987 
L 508.98475 45.49975 
L 509.518916 52.063046 
L 510.587247 55.027641 
L 511.121413 57.102632 
L 511.655578 55.288464 
L 512.189744 51.749531 
L 513.792241 63.838231 
L 514.326407 59.378594 
L 514.860573 61.165047 
L 515.394738 61.394083 
L 515.928904 62.491209 
L 516.46307 65.960115 
L 517.531401 62.820693 
L 518.065567 59.132352 
L 518.599732 59.829103 
L 519.133898 60.795338 
L 519.668064 62.846126 
L 520.20223 57.103712 
L 520.736395 53.148551 
L 521.270561 53.148142 
L 521.804727 50.538057 
L 522.338892 52.606838 
L 522.873058 44.672604 
L 523.407224 46.77279 
L 524.475555 49.319704 
L 525.009721 42.706113 
L 525.543886 41.988155 
L 526.078052 37.691961 
L 526.612218 37.958685 
L 527.146384 42.450729 
L 527.680549 39.335546 
L 528.214715 41.578084 
L 528.748881 46.460627 
L 529.283046 47.889989 
L 529.817212 45.334855 
L 530.351378 38.460278 
L 530.885543 43.618855 
L 531.419709 51.852152 
L 531.953875 48.173829 
L 532.488041 46.879562 
L 533.022206 48.86922 
L 533.556372 47.126261 
L 534.090538 44.197636 
L 534.624703 36.753475 
L 535.158869 37.098031 
L 535.693035 32.036279 
L 536.761366 35.422853 
L 537.295532 33.64061 
L 538.363863 42.604756 
L 538.898029 38.773396 
L 539.432195 46.134544 
L 539.96636 45.548916 
L 541.034692 47.896801 
L 541.568857 52.807511 
L 542.103023 60.363488 
L 542.637189 62.698739 
L 543.171354 66.924338 
L 543.70552 68.365627 
L 544.239686 67.884927 
L 544.773852 70.508681 
L 545.308017 74.361852 
L 545.842183 73.131597 
L 546.376349 75.819105 
L 546.910514 79.235765 
L 547.44468 80.19472 
L 547.978846 78.987104 
L 548.513011 71.017413 
L 549.047177 64.844397 
L 550.115509 74.228075 
L 550.649674 73.836438 
L 551.18384 71.61162 
L 551.718006 71.951867 
L 552.252171 63.699692 
L 552.786337 59.128955 
L 553.320503 52.797118 
L 553.854668 54.226137 
L 554.923 61.350469 
L 555.457166 61.626111 
L 555.991331 66.205525 
L 556.525497 68.428311 
L 557.059663 69.887875 
L 557.593828 66.209297 
L 558.127994 67.829207 
L 558.66216 72.942389 
L 559.196325 74.458909 
L 559.730491 73.606351 
L 560.264657 71.366525 
L 560.798823 74.654158 
L 561.332988 72.094504 
L 561.867154 66.77229 
L 562.40132 64.787517 
L 562.935485 63.739977 
L 563.469651 65.270129 
L 564.003817 67.408358 
L 564.537982 74.854633 
L 565.072148 72.442087 
L 565.606314 73.611177 
L 566.140479 72.892115 
L 566.674645 70.873256 
L 567.208811 73.657351 
L 567.742977 69.719125 
L 568.277142 69.14527 
L 568.811308 63.39865 
L 569.345474 62.612257 
L 569.879639 61.262956 
L 570.413805 62.138905 
L 570.947971 56.437328 
L 571.482136 64.226783 
L 572.016302 66.074246 
L 572.550468 67.065524 
L 573.084634 72.643673 
L 573.618799 75.454741 
L 574.152965 83.381714 
L 574.687131 82.52862 
L 575.221296 87.574749 
L 575.755462 86.063671 
L 576.289628 86.879543 
L 576.823793 89.79845 
L 577.357959 95.360859 
L 577.892125 97.711248 
L 578.426291 96.42898 
L 578.960456 96.739556 
L 579.494622 94.156515 
L 580.028788 96.895568 
L 580.562953 90.87862 
L 581.097119 91.603787 
L 581.631285 94.557279 
L 582.699616 84.472318 
L 583.233782 84.655707 
L 583.767947 86.293866 
L 584.302113 82.789863 
L 584.836279 85.945556 
L 585.370445 82.347947 
L 585.90461 87.328076 
L 586.438776 87.486083 
L 586.972942 87.293669 
L 587.507107 82.694826 
L 588.041273 89.30778 
L 588.575439 88.296814 
L 589.109604 88.592031 
L 589.64377 88.432343 
L 590.177936 91.536672 
L 590.712102 96.166638 
L 591.246267 97.712079 
L 591.780433 98.446747 
L 592.314599 92.914888 
L 592.848764 92.35806 
L 593.38293 92.225216 
L 593.917096 89.514837 
L 594.451261 95.292039 
L 594.985427 92.499831 
L 596.053759 85.508559 
L 596.587924 86.587471 
L 597.12209 90.990556 
L 597.656256 94.458647 
L 598.190421 93.404263 
L 598.724587 91.288676 
L 600.327084 77.320449 
L 600.86125 77.04411 
L 601.395415 75.909815 
L 601.929581 76.63403 
L 602.463747 72.564542 
L 602.997913 70.198515 
L 603.532078 69.241163 
L 604.066244 73.78248 
L 604.60041 69.734183 
L 605.134575 75.287199 
L 606.202907 66.72807 
L 606.737072 72.51987 
L 607.271238 72.549583 
L 607.805404 77.025886 
L 608.33957 77.412614 
L 608.873735 75.200997 
L 609.407901 75.558608 
L 609.942067 80.479481 
L 611.010398 78.251458 
L 611.544564 78.202265 
L 612.078729 81.93 
L 612.612895 83.074154 
L 613.147061 81.932052 
L 613.681227 82.355833 
L 614.215392 74.393537 
L 614.749558 73.289717 
L 615.283724 73.909104 
L 615.817889 71.96144 
L 616.352055 75.932831 
L 616.886221 74.21823 
L 617.420386 68.049064 
L 617.954552 71.20373 
L 618.488718 69.93753 
L 619.022883 66.920886 
L 619.557049 73.10974 
L 620.091215 66.852743 
L 620.625381 70.614156 
L 621.159546 71.713829 
L 621.693712 70.142898 
L 622.227878 70.860366 
L 622.762043 67.712246 
L 623.296209 66.995964 
L 623.830375 64.711139 
L 624.36454 64.278027 
L 624.898706 58.602741 
L 625.432872 66.047115 
L 625.967038 64.531142 
L 626.501203 65.506992 
L 627.569535 71.832842 
L 628.1037 73.815077 
L 628.637866 71.510492 
L 629.172032 74.702508 
L 629.706197 75.159038 
L 630.240363 73.984596 
L 630.774529 78.137018 
L 631.308695 73.859178 
L 631.84286 64.691552 
L 632.377026 67.067919 
L 632.911192 63.473999 
L 633.445357 64.484708 
L 633.979523 62.331785 
L 634.513689 62.862475 
L 635.047854 54.41349 
L 635.58202 55.486929 
L 636.116186 52.333941 
L 636.650352 49.879785 
L 637.184517 53.840226 
L 637.718683 61.860573 
L 638.252849 59.531248 
L 638.787014 56.197844 
L 639.855346 60.307483 
L 641.457843 49.333248 
L 641.992008 48.186921 
L 642.526174 51.028903 
L 643.06034 55.493926 
L 643.594506 62.872226 
L 644.128671 62.936794 
L 644.662837 55.575731 
L 645.197003 53.617068 
L 645.731168 53.765589 
L 646.265334 59.366579 
L 646.7995 61.730136 
L 647.333665 61.559316 
L 647.867831 62.242684 
L 648.401997 58.676615 
L 648.936163 59.121794 
L 649.470328 56.349496 
L 650.004494 56.627886 
L 650.53866 57.191428 
L 651.072825 52.28725 
L 651.606991 54.982523 
L 652.141157 55.899437 
L 652.675322 60.62967 
L 653.209488 60.113235 
L 653.743654 55.93437 
L 654.811985 50.275683 
L 655.346151 46.126507 
L 656.948648 38.847177 
L 657.482814 42.426481 
L 658.016979 40.263347 
L 658.551145 36.491124 
L 659.085311 39.756842 
L 659.619476 38.699064 
L 660.153642 34.397918 
L 660.687808 35.677209 
L 661.221974 40.592295 
L 661.756139 40.202212 
L 662.290305 33.952302 
L 662.824471 37.30535 
L 663.358636 37.554112 
L 663.358636 37.554112 
" style="fill:none;stroke:#2d9cdb;stroke-linecap:square;stroke-width:2;"/>
   </g>
   <g id="patch_3">
    <path d="M 49.7625 310.171816 
L 49.7625 7.859753 
" style="fill:none;"/>
   </g>
   <g id="patch_4">
    <path d="M 692.5775 310.171816 
L 692.5775 7.859753 
" style="fill:none;"/>
   </g>
   <g id="patch_5">
    <path d="M 49.7625 310.171816 
L 692.5775 310.171816 
" style="fill:none;"/>
   </g>
   <g id="patch_6">
    <path d="M 49.7625 7.859753 
L 692.5775 7.859753 
" style="fill:none;"/>
   </g>
   <g id="legend_1">
    <g id="line2d_22">
     <path d="M 64.1625 28.817253 
L 96.1625 28.817253 
" style="fill:none;stroke:#003559;stroke-linecap:square;stroke-width:2;"/>
    </g>
    <g id="line2d_23"/>
    <g id="text_14">
     <!-- Investment A -->
     <defs>
      <path d="M 9.8125 72.90625 
L 19.671875 72.90625 
L 19.671875 0 
L 9.8125 0 
z
" id="DejaVuSans-73"/>
      <path d="M 54.890625 33.015625 
L 54.890625 0 
L 45.90625 0 
L 45.90625 32.71875 
Q 45.90625 40.484375 42.875 44.328125 
Q 39.84375 48.1875 33.796875 48.1875 
Q 26.515625 48.1875 22.3125 43.546875 
Q 18.109375 38.921875 18.109375 30.90625 
L 18.109375 0 
L 9.078125 0 
L 9.078125 54.6875 
L 18.109375 54.6875 
L 18.109375 46.1875 
Q 21.34375 51.125 25.703125 53.5625 
Q 30.078125 56 35.796875 56 
Q 45.21875 56 50.046875 50.171875 
Q 54.890625 44.34375 54.890625 33.015625 
z
" id="DejaVuSans-110"/>
      <path d="M 2.984375 54.6875 
L 12.5 54.6875 
L 29.59375 8.796875 
L 46.6875 54.6875 
L 56.203125 54.6875 
L 35.6875 0 
L 23.484375 0 
z
" id="DejaVuSans-118"/>
      <path d="M 56.203125 29.59375 
L 56.203125 25.203125 
L 14.890625 25.203125 
Q 15.484375 15.921875 20.484375 11.0625 
Q 25.484375 6.203125 34.421875 6.203125 
Q 39.59375 6.203125 44.453125 7.46875 
Q 49.3125 8.734375 54.109375 11.28125 
L 54.109375 2.78125 
Q 49.265625 0.734375 44.1875 -0.34375 
Q 39.109375 -1.421875 33.890625 -1.421875 
Q 20.796875 -1.421875 13.15625 6.1875 
Q 5.515625 13.8125 5.515625 26.8125 
Q 5.515625 40.234375 12.765625 48.109375 
Q 20.015625 56 32.328125 56 
Q 43.359375 56 49.78125 48.890625 
Q 56.203125 41.796875 56.203125 29.59375 
z
M 47.21875 32.234375 
Q 47.125 39.59375 43.09375 43.984375 
Q 39.0625 48.390625 32.421875 48.390625 
Q 24.90625 48.390625 20.390625 44.140625 
Q 15.875 39.890625 15.1875 32.171875 
z
" id="DejaVuSans-101"/>
      <path d="M 44.28125 53.078125 
L 44.28125 44.578125 
Q 40.484375 46.53125 36.375 47.5 
Q 32.28125 48.484375 27.875 48.484375 
Q 21.1875 48.484375 17.84375 46.4375 
Q 14.5 44.390625 14.5 40.28125 
Q 14.5 37.15625 16.890625 35.375 
Q 19.28125 33.59375 26.515625 31.984375 
L 29.59375 31.296875 
Q 39.15625 29.25 43.1875 25.515625 
Q 47.21875 21.78125 47.21875 15.09375 
Q 47.21875 7.46875 41.1875 3.015625 
Q 35.15625 -1.421875 24.609375 -1.421875 
Q 20.21875 -1.421875 15.453125 -0.5625 
Q 10.6875 0.296875 5.421875 2 
L 5.421875 11.28125 
Q 10.40625 8.6875 15.234375 7.390625 
Q 20.0625 6.109375 24.8125 6.109375 
Q 31.15625 6.109375 34.5625 8.28125 
Q 37.984375 10.453125 37.984375 14.40625 
Q 37.984375 18.0625 35.515625 20.015625 
Q 33.0625 21.96875 24.703125 23.78125 
L 21.578125 24.515625 
Q 13.234375 26.265625 9.515625 29.90625 
Q 5.8125 33.546875 5.8125 39.890625 
Q 5.8125 47.609375 11.28125 51.796875 
Q 16.75 56 26.8125 56 
Q 31.78125 56 36.171875 55.265625 
Q 40.578125 54.546875 44.28125 53.078125 
z
" id="DejaVuSans-115"/>
      <path d="M 18.3125 70.21875 
L 18.3125 54.6875 
L 36.8125 54.6875 
L 36.8125 47.703125 
L 18.3125 47.703125 
L 18.3125 18.015625 
Q 18.3125 11.328125 20.140625 9.421875 
Q 21.96875 7.515625 27.59375 7.515625 
L 36.8125 7.515625 
L 36.8125 0 
L 27.59375 0 
Q 17.1875 0 13.234375 3.875 
Q 9.28125 7.765625 9.28125 18.015625 
L 9.28125 47.703125 
L 2.6875 47.703125 
L 2.6875 54.6875 
L 9.28125 54.6875 
L 9.28125 70.21875 
z
" id="DejaVuSans-116"/>
      <path d="M 52 44.1875 
Q 55.375 50.25 60.0625 53.125 
Q 64.75 56 71.09375 56 
Q 79.640625 56 84.28125 50.015625 
Q 88.921875 44.046875 88.921875 33.015625 
L 88.921875 0 
L 79.890625 0 
L 79.890625 32.71875 
Q 79.890625 40.578125 77.09375 44.375 
Q 74.3125 48.1875 68.609375 48.1875 
Q 61.625 48.1875 57.5625 43.546875 
Q 53.515625 38.921875 53.515625 30.90625 
L 53.515625 0 
L 44.484375 0 
L 44.484375 32.71875 
Q 44.484375 40.625 41.703125 44.40625 
Q 38.921875 48.1875 33.109375 48.1875 
Q 26.21875 48.1875 22.15625 43.53125 
Q 18.109375 38.875 18.109375 30.90625 
L 18.109375 0 
L 9.078125 0 
L 9.078125 54.6875 
L 18.109375 54.6875 
L 18.109375 46.1875 
Q 21.1875 51.21875 25.484375 53.609375 
Q 29.78125 56 35.6875 56 
Q 41.65625 56 45.828125 52.96875 
Q 50 49.953125 52 44.1875 
z
" id="DejaVuSans-109"/>
      <path id="DejaVuSans-32"/>
      <path d="M 34.1875 63.1875 
L 20.796875 26.90625 
L 47.609375 26.90625 
z
M 28.609375 72.90625 
L 39.796875 72.90625 
L 67.578125 0 
L 57.328125 0 
L 50.6875 18.703125 
L 17.828125 18.703125 
L 11.1875 0 
L 0.78125 0 
z
" id="DejaVuSans-65"/>
     </defs>
     <g style="fill:#003559;" transform="translate(108.9625 34.417253)scale(0.16 -0.16)">
      <use xlink:href="#DejaVuSans-73"/>
      <use x="29.492188" xlink:href="#DejaVuSans-110"/>
      <use x="92.871094" xlink:href="#DejaVuSans-118"/>
      <use x="152.050781" xlink:href="#DejaVuSans-101"/>
      <use x="213.574219" xlink:href="#DejaVuSans-115"/>
      <use x="265.673828" xlink:href="#DejaVuSans-116"/>
      <use x="304.882812" xlink:href="#DejaVuSans-109"/>
      <use x="402.294922" xlink:href="#DejaVuSans-101"/>
      <use x="463.818359" xlink:href="#DejaVuSans-110"/>
      <use x="527.197266" xlink:href="#DejaVuSans-116"/>
      <use x="566.40625" xlink:href="#DejaVuSans-32"/>
      <use x="598.193359" xlink:href="#DejaVuSans-65"/>
     </g>
    </g>
    <g id="line2d_24">
     <path d="M 64.1625 52.302253 
L 96.1625 52.302253 
" style="fill:none;stroke:#2d9cdb;stroke-linecap:square;stroke-width:2;"/>
    </g>
    <g id="line2d_25"/>
    <g id="text_15">
     <!-- Investment B -->
     <defs>
      <path d="M 19.671875 34.8125 
L 19.671875 8.109375 
L 35.5 8.109375 
Q 43.453125 8.109375 47.28125 11.40625 
Q 51.125 14.703125 51.125 21.484375 
Q 51.125 28.328125 47.28125 31.5625 
Q 43.453125 34.8125 35.5 34.8125 
z
M 19.671875 64.796875 
L 19.671875 42.828125 
L 34.28125 42.828125 
Q 41.5 42.828125 45.03125 45.53125 
Q 48.578125 48.25 48.578125 53.8125 
Q 48.578125 59.328125 45.03125 62.0625 
Q 41.5 64.796875 34.28125 64.796875 
z
M 9.8125 72.90625 
L 35.015625 72.90625 
Q 46.296875 72.90625 52.390625 68.21875 
Q 58.5 63.53125 58.5 54.890625 
Q 58.5 48.1875 55.375 44.234375 
Q 52.25 40.28125 46.1875 39.3125 
Q 53.46875 37.75 57.5 32.78125 
Q 61.53125 27.828125 61.53125 20.40625 
Q 61.53125 10.640625 54.890625 5.3125 
Q 48.25 0 35.984375 0 
L 9.8125 0 
z
" id="DejaVuSans-66"/>
     </defs>
     <g style="fill:#003559;" transform="translate(108.9625 57.902253)scale(0.16 -0.16)">
      <use xlink:href="#DejaVuSans-73"/>
      <use x="29.492188" xlink:href="#DejaVuSans-110"/>
      <use x="92.871094" xlink:href="#DejaVuSans-118"/>
      <use x="152.050781" xlink:href="#DejaVuSans-101"/>
      <use x="213.574219" xlink:href="#DejaVuSans-115"/>
      <use x="265.673828" xlink:href="#DejaVuSans-116"/>
      <use x="304.882812" xlink:href="#DejaVuSans-109"/>
      <use x="402.294922" xlink:href="#DejaVuSans-101"/>
      <use x="463.818359" xlink:href="#DejaVuSans-110"/>
      <use x="527.197266" xlink:href="#DejaVuSans-116"/>
      <use x="566.40625" xlink:href="#DejaVuSans-32"/>
      <use x="598.193359" xlink:href="#DejaVuSans-66"/>
     </g>
    </g>
   </g>
  </g>
 </g>
 <defs>
  <clipPath id="p6eb2baa4a9">
   <rect height="302.312063" width="642.815" x="49.7625" y="7.859753"/>
  </clipPath>
 </defs>
</svg>
