<?xml version="1.0" encoding="utf-8" standalone="no"?>
<!DOCTYPE svg PUBLIC "-//W3C//DTD SVG 1.1//EN"
  "http://www.w3.org/Graphics/SVG/1.1/DTD/svg11.dtd">
<!-- Created with matplotlib (https://matplotlib.org/) -->
<svg height="340.325pt" version="1.1" viewBox="0 0 699.6525 340.325" width="699.6525pt" xmlns="http://www.w3.org/2000/svg" xmlns:xlink="http://www.w3.org/1999/xlink">
 <defs>
  <style type="text/css">
*{stroke-linecap:butt;stroke-linejoin:round;}
  </style>
 </defs>
 <g id="figure_1">
  <g id="patch_1">
   <path d="M 0 340.325 
L 699.6525 340.325 
L 699.6525 0 
L 0 0 
z
" style="fill:none;"/>
  </g>
  <g id="axes_1">
   <g id="patch_2">
    <path d="M 49.7625 310.64 
L 692.4525 310.64 
L 692.4525 7.2 
L 49.7625 7.2 
z
" style="fill:none;"/>
   </g>
   <g id="matplotlib.axis_1">
    <g id="xtick_1">
     <g id="line2d_1">
      <defs>
       <path d="M 0 0 
L 0 3.5 
" id="m3df7e9f4fa" style="stroke:#003559;stroke-width:0.8;"/>
      </defs>
      <g>
       <use style="fill:#003559;stroke:#003559;stroke-width:0.8;" x="78.975682" xlink:href="#m3df7e9f4fa" y="310.64"/>
      </g>
     </g>
     <g id="text_1">
      <!-- 2010 -->
      <defs>
       <path d="M 19.1875 8.296875 
L 53.609375 8.296875 
L 53.609375 0 
L 7.328125 0 
L 7.328125 8.296875 
Q 12.9375 14.109375 22.625 23.890625 
Q 32.328125 33.6875 34.8125 36.53125 
Q 39.546875 41.84375 41.421875 45.53125 
Q 43.3125 49.21875 43.3125 52.78125 
Q 43.3125 58.59375 39.234375 62.25 
Q 35.15625 65.921875 28.609375 65.921875 
Q 23.96875 65.921875 18.8125 64.3125 
Q 13.671875 62.703125 7.8125 59.421875 
L 7.8125 69.390625 
Q 13.765625 71.78125 18.9375 73 
Q 24.125 74.21875 28.421875 74.21875 
Q 39.75 74.21875 46.484375 68.546875 
Q 53.21875 62.890625 53.21875 53.421875 
Q 53.21875 48.921875 51.53125 44.890625 
Q 49.859375 40.875 45.40625 35.40625 
Q 44.1875 33.984375 37.640625 27.21875 
Q 31.109375 20.453125 19.1875 8.296875 
z
" id="DejaVuSans-50"/>
       <path d="M 31.78125 66.40625 
Q 24.171875 66.40625 20.328125 58.90625 
Q 16.5 51.421875 16.5 36.375 
Q 16.5 21.390625 20.328125 13.890625 
Q 24.171875 6.390625 31.78125 6.390625 
Q 39.453125 6.390625 43.28125 13.890625 
Q 47.125 21.390625 47.125 36.375 
Q 47.125 51.421875 43.28125 58.90625 
Q 39.453125 66.40625 31.78125 66.40625 
z
M 31.78125 74.21875 
Q 44.046875 74.21875 50.515625 64.515625 
Q 56.984375 54.828125 56.984375 36.375 
Q 56.984375 17.96875 50.515625 8.265625 
Q 44.046875 -1.421875 31.78125 -1.421875 
Q 19.53125 -1.421875 13.0625 8.265625 
Q 6.59375 17.96875 6.59375 36.375 
Q 6.59375 54.828125 13.0625 64.515625 
Q 19.53125 74.21875 31.78125 74.21875 
z
" id="DejaVuSans-48"/>
       <path d="M 12.40625 8.296875 
L 28.515625 8.296875 
L 28.515625 63.921875 
L 10.984375 60.40625 
L 10.984375 69.390625 
L 28.421875 72.90625 
L 38.28125 72.90625 
L 38.28125 8.296875 
L 54.390625 8.296875 
L 54.390625 0 
L 12.40625 0 
z
" id="DejaVuSans-49"/>
      </defs>
      <g style="fill:#003559;" transform="translate(58.615682 329.7975)scale(0.16 -0.16)">
       <use xlink:href="#DejaVuSans-50"/>
       <use x="63.623047" xlink:href="#DejaVuSans-48"/>
       <use x="127.246094" xlink:href="#DejaVuSans-49"/>
       <use x="190.869141" xlink:href="#DejaVuSans-48"/>
      </g>
     </g>
    </g>
    <g id="xtick_2">
     <g id="line2d_2">
      <g>
       <use style="fill:#003559;stroke:#003559;stroke-width:0.8;" x="173.677755" xlink:href="#m3df7e9f4fa" y="310.64"/>
      </g>
     </g>
     <g id="text_2">
      <!-- Mar -->
      <defs>
       <path d="M 9.8125 72.90625 
L 24.515625 72.90625 
L 43.109375 23.296875 
L 61.8125 72.90625 
L 76.515625 72.90625 
L 76.515625 0 
L 66.890625 0 
L 66.890625 64.015625 
L 48.09375 14.015625 
L 38.1875 14.015625 
L 19.390625 64.015625 
L 19.390625 0 
L 9.8125 0 
z
" id="DejaVuSans-77"/>
       <path d="M 34.28125 27.484375 
Q 23.390625 27.484375 19.1875 25 
Q 14.984375 22.515625 14.984375 16.5 
Q 14.984375 11.71875 18.140625 8.90625 
Q 21.296875 6.109375 26.703125 6.109375 
Q 34.1875 6.109375 38.703125 11.40625 
Q 43.21875 16.703125 43.21875 25.484375 
L 43.21875 27.484375 
z
M 52.203125 31.203125 
L 52.203125 0 
L 43.21875 0 
L 43.21875 8.296875 
Q 40.140625 3.328125 35.546875 0.953125 
Q 30.953125 -1.421875 24.3125 -1.421875 
Q 15.921875 -1.421875 10.953125 3.296875 
Q 6 8.015625 6 15.921875 
Q 6 25.140625 12.171875 29.828125 
Q 18.359375 34.515625 30.609375 34.515625 
L 43.21875 34.515625 
L 43.21875 35.40625 
Q 43.21875 41.609375 39.140625 45 
Q 35.0625 48.390625 27.6875 48.390625 
Q 23 48.390625 18.546875 47.265625 
Q 14.109375 46.140625 10.015625 43.890625 
L 10.015625 52.203125 
Q 14.9375 54.109375 19.578125 55.046875 
Q 24.21875 56 28.609375 56 
Q 40.484375 56 46.34375 49.84375 
Q 52.203125 43.703125 52.203125 31.203125 
z
" id="DejaVuSans-97"/>
       <path d="M 41.109375 46.296875 
Q 39.59375 47.171875 37.8125 47.578125 
Q 36.03125 48 33.890625 48 
Q 26.265625 48 22.1875 43.046875 
Q 18.109375 38.09375 18.109375 28.8125 
L 18.109375 0 
L 9.078125 0 
L 9.078125 54.6875 
L 18.109375 54.6875 
L 18.109375 46.1875 
Q 20.953125 51.171875 25.484375 53.578125 
Q 30.03125 56 36.53125 56 
Q 37.453125 56 38.578125 55.875 
Q 39.703125 55.765625 41.0625 55.515625 
z
" id="DejaVuSans-114"/>
      </defs>
      <g style="fill:#003559;" transform="translate(158.584005 329.7975)scale(0.16 -0.16)">
       <use xlink:href="#DejaVuSans-77"/>
       <use x="86.279297" xlink:href="#DejaVuSans-97"/>
       <use x="147.558594" xlink:href="#DejaVuSans-114"/>
      </g>
     </g>
    </g>
    <g id="xtick_3">
     <g id="line2d_3">
      <g>
       <use style="fill:#003559;stroke:#003559;stroke-width:0.8;" x="271.590067" xlink:href="#m3df7e9f4fa" y="310.64"/>
      </g>
     </g>
     <g id="text_3">
      <!-- May -->
      <defs>
       <path d="M 32.171875 -5.078125 
Q 28.375 -14.84375 24.75 -17.8125 
Q 21.140625 -20.796875 15.09375 -20.796875 
L 7.90625 -20.796875 
L 7.90625 -13.28125 
L 13.1875 -13.28125 
Q 16.890625 -13.28125 18.9375 -11.515625 
Q 21 -9.765625 23.484375 -3.21875 
L 25.09375 0.875 
L 2.984375 54.6875 
L 12.5 54.6875 
L 29.59375 11.921875 
L 46.6875 54.6875 
L 56.203125 54.6875 
z
" id="DejaVuSans-121"/>
      </defs>
      <g style="fill:#003559;" transform="translate(255.050067 329.7975)scale(0.16 -0.16)">
       <use xlink:href="#DejaVuSans-77"/>
       <use x="86.279297" xlink:href="#DejaVuSans-97"/>
       <use x="147.558594" xlink:href="#DejaVuSans-121"/>
      </g>
     </g>
    </g>
    <g id="xtick_4">
     <g id="line2d_4">
      <g>
       <use style="fill:#003559;stroke:#003559;stroke-width:0.8;" x="369.50238" xlink:href="#m3df7e9f4fa" y="310.64"/>
      </g>
     </g>
     <g id="text_4">
      <!-- Jul -->
      <defs>
       <path d="M 9.8125 72.90625 
L 19.671875 72.90625 
L 19.671875 5.078125 
Q 19.671875 -8.109375 14.671875 -14.0625 
Q 9.671875 -20.015625 -1.421875 -20.015625 
L -5.171875 -20.015625 
L -5.171875 -11.71875 
L -2.09375 -11.71875 
Q 4.4375 -11.71875 7.125 -8.046875 
Q 9.8125 -4.390625 9.8125 5.078125 
z
" id="DejaVuSans-74"/>
       <path d="M 8.5 21.578125 
L 8.5 54.6875 
L 17.484375 54.6875 
L 17.484375 21.921875 
Q 17.484375 14.15625 20.5 10.265625 
Q 23.53125 6.390625 29.59375 6.390625 
Q 36.859375 6.390625 41.078125 11.03125 
Q 45.3125 15.671875 45.3125 23.6875 
L 45.3125 54.6875 
L 54.296875 54.6875 
L 54.296875 0 
L 45.3125 0 
L 45.3125 8.40625 
Q 42.046875 3.421875 37.71875 1 
Q 33.40625 -1.421875 27.6875 -1.421875 
Q 18.265625 -1.421875 13.375 4.4375 
Q 8.5 10.296875 8.5 21.578125 
z
M 31.109375 56 
z
" id="DejaVuSans-117"/>
       <path d="M 9.421875 75.984375 
L 18.40625 75.984375 
L 18.40625 0 
L 9.421875 0 
z
" id="DejaVuSans-108"/>
      </defs>
      <g style="fill:#003559;" transform="translate(359.84988 329.7975)scale(0.16 -0.16)">
       <use xlink:href="#DejaVuSans-74"/>
       <use x="29.492188" xlink:href="#DejaVuSans-117"/>
       <use x="92.871094" xlink:href="#DejaVuSans-108"/>
      </g>
     </g>
    </g>
    <g id="xtick_5">
     <g id="line2d_5">
      <g>
       <use style="fill:#003559;stroke:#003559;stroke-width:0.8;" x="469.019813" xlink:href="#m3df7e9f4fa" y="310.64"/>
      </g>
     </g>
     <g id="text_5">
      <!-- Sep -->
      <defs>
       <path d="M 53.515625 70.515625 
L 53.515625 60.890625 
Q 47.90625 63.578125 42.921875 64.890625 
Q 37.9375 66.21875 33.296875 66.21875 
Q 25.25 66.21875 20.875 63.09375 
Q 16.5 59.96875 16.5 54.203125 
Q 16.5 49.359375 19.40625 46.890625 
Q 22.3125 44.4375 30.421875 42.921875 
L 36.375 41.703125 
Q 47.40625 39.59375 52.65625 34.296875 
Q 57.90625 29 57.90625 20.125 
Q 57.90625 9.515625 50.796875 4.046875 
Q 43.703125 -1.421875 29.984375 -1.421875 
Q 24.8125 -1.421875 18.96875 -0.25 
Q 13.140625 0.921875 6.890625 3.21875 
L 6.890625 13.375 
Q 12.890625 10.015625 18.65625 8.296875 
Q 24.421875 6.59375 29.984375 6.59375 
Q 38.421875 6.59375 43.015625 9.90625 
Q 47.609375 13.234375 47.609375 19.390625 
Q 47.609375 24.75 44.3125 27.78125 
Q 41.015625 30.8125 33.5 32.328125 
L 27.484375 33.5 
Q 16.453125 35.6875 11.515625 40.375 
Q 6.59375 45.0625 6.59375 53.421875 
Q 6.59375 63.09375 13.40625 68.65625 
Q 20.21875 74.21875 32.171875 74.21875 
Q 37.3125 74.21875 42.625 73.28125 
Q 47.953125 72.359375 53.515625 70.515625 
z
" id="DejaVuSans-83"/>
       <path d="M 56.203125 29.59375 
L 56.203125 25.203125 
L 14.890625 25.203125 
Q 15.484375 15.921875 20.484375 11.0625 
Q 25.484375 6.203125 34.421875 6.203125 
Q 39.59375 6.203125 44.453125 7.46875 
Q 49.3125 8.734375 54.109375 11.28125 
L 54.109375 2.78125 
Q 49.265625 0.734375 44.1875 -0.34375 
Q 39.109375 -1.421875 33.890625 -1.421875 
Q 20.796875 -1.421875 13.15625 6.1875 
Q 5.515625 13.8125 5.515625 26.8125 
Q 5.515625 40.234375 12.765625 48.109375 
Q 20.015625 56 32.328125 56 
Q 43.359375 56 49.78125 48.890625 
Q 56.203125 41.796875 56.203125 29.59375 
z
M 47.21875 32.234375 
Q 47.125 39.59375 43.09375 43.984375 
Q 39.0625 48.390625 32.421875 48.390625 
Q 24.90625 48.390625 20.390625 44.140625 
Q 15.875 39.890625 15.1875 32.171875 
z
" id="DejaVuSans-101"/>
       <path d="M 18.109375 8.203125 
L 18.109375 -20.796875 
L 9.078125 -20.796875 
L 9.078125 54.6875 
L 18.109375 54.6875 
L 18.109375 46.390625 
Q 20.953125 51.265625 25.265625 53.625 
Q 29.59375 56 35.59375 56 
Q 45.5625 56 51.78125 48.09375 
Q 58.015625 40.1875 58.015625 27.296875 
Q 58.015625 14.40625 51.78125 6.484375 
Q 45.5625 -1.421875 35.59375 -1.421875 
Q 29.59375 -1.421875 25.265625 0.953125 
Q 20.953125 3.328125 18.109375 8.203125 
z
M 48.6875 27.296875 
Q 48.6875 37.203125 44.609375 42.84375 
Q 40.53125 48.484375 33.40625 48.484375 
Q 26.265625 48.484375 22.1875 42.84375 
Q 18.109375 37.203125 18.109375 27.296875 
Q 18.109375 17.390625 22.1875 11.75 
Q 26.265625 6.109375 33.40625 6.109375 
Q 40.53125 6.109375 44.609375 11.75 
Q 48.6875 17.390625 48.6875 27.296875 
z
" id="DejaVuSans-112"/>
      </defs>
      <g style="fill:#003559;" transform="translate(453.939813 329.7975)scale(0.16 -0.16)">
       <use xlink:href="#DejaVuSans-83"/>
       <use x="63.476562" xlink:href="#DejaVuSans-101"/>
       <use x="125" xlink:href="#DejaVuSans-112"/>
      </g>
     </g>
    </g>
    <g id="xtick_6">
     <g id="line2d_6">
      <g>
       <use style="fill:#003559;stroke:#003559;stroke-width:0.8;" x="566.932125" xlink:href="#m3df7e9f4fa" y="310.64"/>
      </g>
     </g>
     <g id="text_6">
      <!-- Nov -->
      <defs>
       <path d="M 9.8125 72.90625 
L 23.09375 72.90625 
L 55.421875 11.921875 
L 55.421875 72.90625 
L 64.984375 72.90625 
L 64.984375 0 
L 51.703125 0 
L 19.390625 60.984375 
L 19.390625 0 
L 9.8125 0 
z
" id="DejaVuSans-78"/>
       <path d="M 30.609375 48.390625 
Q 23.390625 48.390625 19.1875 42.75 
Q 14.984375 37.109375 14.984375 27.296875 
Q 14.984375 17.484375 19.15625 11.84375 
Q 23.34375 6.203125 30.609375 6.203125 
Q 37.796875 6.203125 41.984375 11.859375 
Q 46.1875 17.53125 46.1875 27.296875 
Q 46.1875 37.015625 41.984375 42.703125 
Q 37.796875 48.390625 30.609375 48.390625 
z
M 30.609375 56 
Q 42.328125 56 49.015625 48.375 
Q 55.71875 40.765625 55.71875 27.296875 
Q 55.71875 13.875 49.015625 6.21875 
Q 42.328125 -1.421875 30.609375 -1.421875 
Q 18.84375 -1.421875 12.171875 6.21875 
Q 5.515625 13.875 5.515625 27.296875 
Q 5.515625 40.765625 12.171875 48.375 
Q 18.84375 56 30.609375 56 
z
" id="DejaVuSans-111"/>
       <path d="M 2.984375 54.6875 
L 12.5 54.6875 
L 29.59375 8.796875 
L 46.6875 54.6875 
L 56.203125 54.6875 
L 35.6875 0 
L 23.484375 0 
z
" id="DejaVuSans-118"/>
      </defs>
      <g style="fill:#003559;" transform="translate(551.317125 329.7975)scale(0.16 -0.16)">
       <use xlink:href="#DejaVuSans-78"/>
       <use x="74.804688" xlink:href="#DejaVuSans-111"/>
       <use x="135.986328" xlink:href="#DejaVuSans-118"/>
      </g>
     </g>
    </g>
    <g id="xtick_7">
     <g id="line2d_7">
      <g>
       <use style="fill:#003559;stroke:#003559;stroke-width:0.8;" x="664.844438" xlink:href="#m3df7e9f4fa" y="310.64"/>
      </g>
     </g>
     <g id="text_7">
      <!-- 2011 -->
      <g style="fill:#003559;" transform="translate(644.484438 329.7975)scale(0.16 -0.16)">
       <use xlink:href="#DejaVuSans-50"/>
       <use x="63.623047" xlink:href="#DejaVuSans-48"/>
       <use x="127.246094" xlink:href="#DejaVuSans-49"/>
       <use x="190.869141" xlink:href="#DejaVuSans-49"/>
      </g>
     </g>
    </g>
   </g>
   <g id="matplotlib.axis_2">
    <g id="ytick_1">
     <g id="line2d_8">
      <path clip-path="url(#p925654435e)" d="M 49.7625 289.415427 
L 692.4525 289.415427 
" style="fill:none;stroke:#f0f0f0;stroke-linecap:square;"/>
     </g>
     <g id="line2d_9">
      <defs>
       <path d="M 0 0 
L -3.5 0 
" id="mf6e63ccc9b" style="stroke:#003559;stroke-width:0.8;"/>
      </defs>
      <g>
       <use style="fill:#003559;stroke:#003559;stroke-width:0.8;" x="49.7625" xlink:href="#mf6e63ccc9b" y="289.415427"/>
      </g>
     </g>
     <g id="text_8">
      <!-- 0% -->
      <defs>
       <path d="M 72.703125 32.078125 
Q 68.453125 32.078125 66.03125 28.46875 
Q 63.625 24.859375 63.625 18.40625 
Q 63.625 12.0625 66.03125 8.421875 
Q 68.453125 4.78125 72.703125 4.78125 
Q 76.859375 4.78125 79.265625 8.421875 
Q 81.6875 12.0625 81.6875 18.40625 
Q 81.6875 24.8125 79.265625 28.4375 
Q 76.859375 32.078125 72.703125 32.078125 
z
M 72.703125 38.28125 
Q 80.421875 38.28125 84.953125 32.90625 
Q 89.5 27.546875 89.5 18.40625 
Q 89.5 9.28125 84.9375 3.921875 
Q 80.375 -1.421875 72.703125 -1.421875 
Q 64.890625 -1.421875 60.34375 3.921875 
Q 55.8125 9.28125 55.8125 18.40625 
Q 55.8125 27.59375 60.375 32.9375 
Q 64.9375 38.28125 72.703125 38.28125 
z
M 22.3125 68.015625 
Q 18.109375 68.015625 15.6875 64.375 
Q 13.28125 60.75 13.28125 54.390625 
Q 13.28125 47.953125 15.671875 44.328125 
Q 18.0625 40.71875 22.3125 40.71875 
Q 26.5625 40.71875 28.96875 44.328125 
Q 31.390625 47.953125 31.390625 54.390625 
Q 31.390625 60.6875 28.953125 64.34375 
Q 26.515625 68.015625 22.3125 68.015625 
z
M 66.40625 74.21875 
L 74.21875 74.21875 
L 28.609375 -1.421875 
L 20.796875 -1.421875 
z
M 22.3125 74.21875 
Q 30.03125 74.21875 34.609375 68.875 
Q 39.203125 63.53125 39.203125 54.390625 
Q 39.203125 45.171875 34.640625 39.84375 
Q 30.078125 34.515625 22.3125 34.515625 
Q 14.546875 34.515625 10.03125 39.859375 
Q 5.515625 45.21875 5.515625 54.390625 
Q 5.515625 63.484375 10.046875 68.84375 
Q 14.59375 74.21875 22.3125 74.21875 
z
" id="DejaVuSans-37"/>
      </defs>
      <g style="fill:#003559;" transform="translate(17.38 295.494177)scale(0.16 -0.16)">
       <use xlink:href="#DejaVuSans-48"/>
       <use x="63.623047" xlink:href="#DejaVuSans-37"/>
      </g>
     </g>
    </g>
    <g id="ytick_2">
     <g id="line2d_10">
      <path clip-path="url(#p925654435e)" d="M 49.7625 250.641802 
L 692.4525 250.641802 
" style="fill:none;stroke:#f0f0f0;stroke-linecap:square;"/>
     </g>
     <g id="line2d_11">
      <g>
       <use style="fill:#003559;stroke:#003559;stroke-width:0.8;" x="49.7625" xlink:href="#mf6e63ccc9b" y="250.641802"/>
      </g>
     </g>
     <g id="text_9">
      <!-- 2% -->
      <g style="fill:#003559;" transform="translate(17.38 256.720552)scale(0.16 -0.16)">
       <use xlink:href="#DejaVuSans-50"/>
       <use x="63.623047" xlink:href="#DejaVuSans-37"/>
      </g>
     </g>
    </g>
    <g id="ytick_3">
     <g id="line2d_12">
      <path clip-path="url(#p925654435e)" d="M 49.7625 211.868176 
L 692.4525 211.868176 
" style="fill:none;stroke:#f0f0f0;stroke-linecap:square;"/>
     </g>
     <g id="line2d_13">
      <g>
       <use style="fill:#003559;stroke:#003559;stroke-width:0.8;" x="49.7625" xlink:href="#mf6e63ccc9b" y="211.868176"/>
      </g>
     </g>
     <g id="text_10">
      <!-- 5% -->
      <defs>
       <path d="M 10.796875 72.90625 
L 49.515625 72.90625 
L 49.515625 64.59375 
L 19.828125 64.59375 
L 19.828125 46.734375 
Q 21.96875 47.46875 24.109375 47.828125 
Q 26.265625 48.1875 28.421875 48.1875 
Q 40.625 48.1875 47.75 41.5 
Q 54.890625 34.8125 54.890625 23.390625 
Q 54.890625 11.625 47.5625 5.09375 
Q 40.234375 -1.421875 26.90625 -1.421875 
Q 22.3125 -1.421875 17.546875 -0.640625 
Q 12.796875 0.140625 7.71875 1.703125 
L 7.71875 11.625 
Q 12.109375 9.234375 16.796875 8.0625 
Q 21.484375 6.890625 26.703125 6.890625 
Q 35.15625 6.890625 40.078125 11.328125 
Q 45.015625 15.765625 45.015625 23.390625 
Q 45.015625 31 40.078125 35.4375 
Q 35.15625 39.890625 26.703125 39.890625 
Q 22.75 39.890625 18.8125 39.015625 
Q 14.890625 38.140625 10.796875 36.28125 
z
" id="DejaVuSans-53"/>
      </defs>
      <g style="fill:#003559;" transform="translate(17.38 217.946926)scale(0.16 -0.16)">
       <use xlink:href="#DejaVuSans-53"/>
       <use x="63.623047" xlink:href="#DejaVuSans-37"/>
      </g>
     </g>
    </g>
    <g id="ytick_4">
     <g id="line2d_14">
      <path clip-path="url(#p925654435e)" d="M 49.7625 173.094551 
L 692.4525 173.094551 
" style="fill:none;stroke:#f0f0f0;stroke-linecap:square;"/>
     </g>
     <g id="line2d_15">
      <g>
       <use style="fill:#003559;stroke:#003559;stroke-width:0.8;" x="49.7625" xlink:href="#mf6e63ccc9b" y="173.094551"/>
      </g>
     </g>
     <g id="text_11">
      <!-- 8% -->
      <defs>
       <path d="M 31.78125 34.625 
Q 24.75 34.625 20.71875 30.859375 
Q 16.703125 27.09375 16.703125 20.515625 
Q 16.703125 13.921875 20.71875 10.15625 
Q 24.75 6.390625 31.78125 6.390625 
Q 38.8125 6.390625 42.859375 10.171875 
Q 46.921875 13.96875 46.921875 20.515625 
Q 46.921875 27.09375 42.890625 30.859375 
Q 38.875 34.625 31.78125 34.625 
z
M 21.921875 38.8125 
Q 15.578125 40.375 12.03125 44.71875 
Q 8.5 49.078125 8.5 55.328125 
Q 8.5 64.0625 14.71875 69.140625 
Q 20.953125 74.21875 31.78125 74.21875 
Q 42.671875 74.21875 48.875 69.140625 
Q 55.078125 64.0625 55.078125 55.328125 
Q 55.078125 49.078125 51.53125 44.71875 
Q 48 40.375 41.703125 38.8125 
Q 48.828125 37.15625 52.796875 32.3125 
Q 56.78125 27.484375 56.78125 20.515625 
Q 56.78125 9.90625 50.3125 4.234375 
Q 43.84375 -1.421875 31.78125 -1.421875 
Q 19.734375 -1.421875 13.25 4.234375 
Q 6.78125 9.90625 6.78125 20.515625 
Q 6.78125 27.484375 10.78125 32.3125 
Q 14.796875 37.15625 21.921875 38.8125 
z
M 18.3125 54.390625 
Q 18.3125 48.734375 21.84375 45.5625 
Q 25.390625 42.390625 31.78125 42.390625 
Q 38.140625 42.390625 41.71875 45.5625 
Q 45.3125 48.734375 45.3125 54.390625 
Q 45.3125 60.0625 41.71875 63.234375 
Q 38.140625 66.40625 31.78125 66.40625 
Q 25.390625 66.40625 21.84375 63.234375 
Q 18.3125 60.0625 18.3125 54.390625 
z
" id="DejaVuSans-56"/>
      </defs>
      <g style="fill:#003559;" transform="translate(17.38 179.173301)scale(0.16 -0.16)">
       <use xlink:href="#DejaVuSans-56"/>
       <use x="63.623047" xlink:href="#DejaVuSans-37"/>
      </g>
     </g>
    </g>
    <g id="ytick_5">
     <g id="line2d_16">
      <path clip-path="url(#p925654435e)" d="M 49.7625 134.320926 
L 692.4525 134.320926 
" style="fill:none;stroke:#f0f0f0;stroke-linecap:square;"/>
     </g>
     <g id="line2d_17">
      <g>
       <use style="fill:#003559;stroke:#003559;stroke-width:0.8;" x="49.7625" xlink:href="#mf6e63ccc9b" y="134.320926"/>
      </g>
     </g>
     <g id="text_12">
      <!-- 10% -->
      <g style="fill:#003559;" transform="translate(7.2 140.399676)scale(0.16 -0.16)">
       <use xlink:href="#DejaVuSans-49"/>
       <use x="63.623047" xlink:href="#DejaVuSans-48"/>
       <use x="127.246094" xlink:href="#DejaVuSans-37"/>
      </g>
     </g>
    </g>
    <g id="ytick_6">
     <g id="line2d_18">
      <path clip-path="url(#p925654435e)" d="M 49.7625 95.5473 
L 692.4525 95.5473 
" style="fill:none;stroke:#f0f0f0;stroke-linecap:square;"/>
     </g>
     <g id="line2d_19">
      <g>
       <use style="fill:#003559;stroke:#003559;stroke-width:0.8;" x="49.7625" xlink:href="#mf6e63ccc9b" y="95.5473"/>
      </g>
     </g>
     <g id="text_13">
      <!-- 12% -->
      <g style="fill:#003559;" transform="translate(7.2 101.62605)scale(0.16 -0.16)">
       <use xlink:href="#DejaVuSans-49"/>
       <use x="63.623047" xlink:href="#DejaVuSans-50"/>
       <use x="127.246094" xlink:href="#DejaVuSans-37"/>
      </g>
     </g>
    </g>
    <g id="ytick_7">
     <g id="line2d_20">
      <path clip-path="url(#p925654435e)" d="M 49.7625 56.773675 
L 692.4525 56.773675 
" style="fill:none;stroke:#f0f0f0;stroke-linecap:square;"/>
     </g>
     <g id="line2d_21">
      <g>
       <use style="fill:#003559;stroke:#003559;stroke-width:0.8;" x="49.7625" xlink:href="#mf6e63ccc9b" y="56.773675"/>
      </g>
     </g>
     <g id="text_14">
      <!-- 15% -->
      <g style="fill:#003559;" transform="translate(7.2 62.852425)scale(0.16 -0.16)">
       <use xlink:href="#DejaVuSans-49"/>
       <use x="63.623047" xlink:href="#DejaVuSans-53"/>
       <use x="127.246094" xlink:href="#DejaVuSans-37"/>
      </g>
     </g>
    </g>
    <g id="ytick_8">
     <g id="line2d_22">
      <path clip-path="url(#p925654435e)" d="M 49.7625 18.00005 
L 692.4525 18.00005 
" style="fill:none;stroke:#f0f0f0;stroke-linecap:square;"/>
     </g>
     <g id="line2d_23">
      <g>
       <use style="fill:#003559;stroke:#003559;stroke-width:0.8;" x="49.7625" xlink:href="#mf6e63ccc9b" y="18.00005"/>
      </g>
     </g>
     <g id="text_15">
      <!-- 18% -->
      <g style="fill:#003559;" transform="translate(7.2 24.0788)scale(0.16 -0.16)">
       <use xlink:href="#DejaVuSans-49"/>
       <use x="63.623047" xlink:href="#DejaVuSans-56"/>
       <use x="127.246094" xlink:href="#DejaVuSans-37"/>
      </g>
     </g>
    </g>
   </g>
   <g id="line2d_24">
    <path clip-path="url(#p925654435e)" d="M 78.975682 290.16575 
L 80.580802 287.687066 
L 82.185922 286.793545 
L 83.791041 289.368029 
L 85.396161 296.847273 
L 87.001281 293.80948 
L 88.606401 290.102923 
L 90.211521 294.574413 
L 91.816641 289.281493 
L 93.421761 290.398056 
L 95.026881 282.00215 
L 96.632 279.907385 
L 98.23712 280.737478 
L 99.84224 276.653506 
L 104.6576 275.007917 
L 106.26272 275.274929 
L 107.86784 273.069555 
L 109.47296 270.307162 
L 111.078079 268.973177 
L 112.683199 263.045995 
L 114.288319 267.099659 
L 115.893439 268.338269 
L 117.498559 265.523446 
L 119.103679 269.005017 
L 120.708799 263.860411 
L 122.313919 261.391138 
L 123.919038 261.742179 
L 125.524158 259.833954 
L 127.129278 261.466679 
L 128.734398 265.91925 
L 130.339518 262.997275 
L 131.944638 259.798513 
L 133.549758 259.215893 
L 135.154878 259.064487 
L 136.759998 265.557558 
L 138.365117 267.963826 
L 139.970237 269.207652 
L 141.575357 268.253536 
L 143.180477 263.672459 
L 144.785597 265.090192 
L 146.390717 267.326493 
L 147.995837 264.097071 
L 149.600957 264.276451 
L 151.206076 268.365112 
L 152.811196 264.309444 
L 154.416316 266.790301 
L 156.021436 268.336795 
L 157.626556 271.363755 
L 159.231676 270.018223 
L 160.836796 266.422696 
L 162.441916 267.384619 
L 164.047035 265.917291 
L 165.652155 267.181419 
L 167.257275 259.591646 
L 168.862395 254.611927 
L 170.467515 256.278075 
L 172.072635 254.381828 
L 173.677755 251.176002 
L 175.282875 249.598373 
L 176.887995 251.786787 
L 178.493114 252.080754 
L 180.098234 249.548154 
L 181.703354 247.912227 
L 183.308474 250.416737 
L 184.913594 248.772645 
L 186.518714 251.777318 
L 188.123834 258.316697 
L 189.728954 257.545434 
L 191.334073 254.309916 
L 192.939193 252.685825 
L 194.544313 247.791911 
L 196.149433 241.98648 
L 197.754553 240.63252 
L 199.359673 242.466371 
L 200.964793 242.394158 
L 202.569913 246.795937 
L 204.175032 246.688709 
L 205.780152 246.755687 
L 207.385272 245.971048 
L 208.990392 242.253538 
L 210.595512 248.813504 
L 212.200632 246.197139 
L 213.805752 247.697415 
L 215.410872 244.945929 
L 217.015992 244.168818 
L 218.621111 247.248413 
L 220.226231 244.237454 
L 221.831351 246.373995 
L 223.436471 244.483114 
L 225.041591 246.14848 
L 226.646711 247.447725 
L 228.251831 246.866644 
L 229.856951 240.561256 
L 231.46207 238.114939 
L 233.06719 237.953901 
L 234.67231 232.391367 
L 236.27743 232.068322 
L 237.88255 232.800464 
L 239.48767 235.686029 
L 241.09279 234.925556 
L 242.69791 234.326827 
L 244.303029 236.292771 
L 245.908149 242.19828 
L 247.513269 242.422229 
L 249.118389 241.831658 
L 250.723509 242.870914 
L 252.328629 245.691133 
L 253.933749 248.886816 
L 255.538869 250.20596 
L 257.143989 245.642772 
L 258.749108 244.932899 
L 260.354228 249.911743 
L 261.959348 247.641718 
L 263.564468 248.845557 
L 265.169588 241.159562 
L 266.774708 241.938152 
L 268.379828 241.905495 
L 269.984948 241.061284 
L 271.590067 239.919899 
L 274.800307 239.141652 
L 276.405427 239.62116 
L 278.010547 241.168082 
L 279.615667 242.140346 
L 281.220787 245.699079 
L 282.825907 247.160205 
L 284.431026 249.050852 
L 287.641266 251.402071 
L 289.246386 251.631267 
L 290.851506 249.971024 
L 292.456626 250.733051 
L 294.061746 250.222286 
L 295.666866 249.140308 
L 297.271986 249.918731 
L 298.877105 250.157733 
L 300.482225 248.804839 
L 302.087345 253.981965 
L 303.692465 251.673406 
L 305.297585 252.951921 
L 306.902705 264.404525 
L 308.507825 262.500647 
L 310.112945 266.067366 
L 311.718064 263.037133 
L 313.323184 265.920665 
L 314.928304 266.363947 
L 316.533424 264.045347 
L 318.138544 266.333804 
L 319.743664 269.244906 
L 321.348784 269.384083 
L 322.953904 264.853105 
L 324.559023 261.163724 
L 326.164143 256.512742 
L 327.769263 255.072241 
L 329.374383 253.3017 
L 330.979503 249.678625 
L 332.584623 247.64639 
L 334.189743 249.986382 
L 335.794863 247.272598 
L 337.399983 248.621646 
L 339.005102 251.007633 
L 340.610222 250.344587 
L 342.215342 250.376047 
L 343.820462 247.376105 
L 345.425582 246.265888 
L 347.030702 247.405919 
L 348.635822 247.374887 
L 350.240942 248.962797 
L 351.846061 249.770469 
L 353.451181 245.514934 
L 355.056301 243.972304 
L 356.661421 244.941158 
L 358.266541 245.739732 
L 359.871661 247.40799 
L 361.476781 247.783324 
L 363.081901 252.288899 
L 364.68702 250.122159 
L 366.29214 250.758163 
L 367.89726 248.332725 
L 369.50238 245.046047 
L 371.1075 243.817442 
L 372.71262 246.831526 
L 374.31774 250.501152 
L 377.52798 244.770686 
L 379.133099 248.940126 
L 380.738219 251.72457 
L 382.343339 248.031092 
L 383.948459 247.572657 
L 385.553579 240.866983 
L 387.158699 238.988948 
L 388.763819 235.787203 
L 390.368939 235.833216 
L 391.974058 237.048131 
L 393.579178 241.467476 
L 395.184298 249.878152 
L 396.789418 246.10256 
L 398.394538 243.345505 
L 399.999658 244.732498 
L 401.604778 241.146793 
L 403.209898 245.609463 
L 404.815017 240.357494 
L 406.420137 238.621605 
L 408.025257 233.016104 
L 409.630377 238.219888 
L 411.235497 233.413834 
L 412.840617 230.201899 
L 414.445737 228.883274 
L 416.050857 231.456195 
L 417.655977 230.089107 
L 419.261096 229.017464 
L 420.866216 230.754206 
L 422.471336 234.937662 
L 424.076456 238.141428 
L 425.681576 239.61757 
L 428.891816 231.710715 
L 430.496936 226.035938 
L 432.102055 224.226513 
L 433.707175 228.667024 
L 435.312295 230.835767 
L 436.917415 234.322116 
L 438.522535 234.925364 
L 440.127655 230.273643 
L 441.732775 230.62508 
L 443.337895 231.786237 
L 444.943014 229.858315 
L 446.548134 227.269136 
L 448.153254 223.921572 
L 451.363494 229.32377 
L 452.968614 230.566674 
L 454.573734 227.947315 
L 456.178854 227.098541 
L 457.783974 230.004601 
L 459.389093 223.657938 
L 460.994213 225.188137 
L 464.204453 225.448831 
L 465.809573 227.869969 
L 467.414693 227.75949 
L 469.019813 227.352473 
L 470.624933 226.281658 
L 472.230052 225.037031 
L 473.835172 226.531991 
L 475.440292 229.290793 
L 477.045412 225.536653 
L 478.650532 226.015164 
L 480.255652 222.241036 
L 481.860772 220.54678 
L 483.465892 211.604699 
L 485.071011 211.689637 
L 486.676131 216.842214 
L 488.281251 217.639332 
L 489.886371 213.475033 
L 491.491491 207.04916 
L 493.096611 201.090972 
L 494.701731 198.667141 
L 496.306851 193.163001 
L 497.911971 196.158254 
L 499.51709 197.740502 
L 501.12221 200.50168 
L 502.72733 198.233073 
L 504.33245 193.620891 
L 505.93757 193.159106 
L 507.54269 191.43967 
L 509.14781 192.6 
L 510.75293 193.457203 
L 512.358049 192.686524 
L 513.963169 187.226544 
L 517.173409 183.202279 
L 518.778529 179.258657 
L 520.383649 176.739611 
L 521.988769 178.754298 
L 523.593889 172.57993 
L 525.199008 172.651587 
L 526.804128 172.21457 
L 528.409248 172.091312 
L 530.014368 169.699321 
L 531.619488 170.045992 
L 533.224608 168.439268 
L 534.829728 162.328152 
L 536.434848 164.599984 
L 538.039968 170.455313 
L 539.645087 165.818493 
L 541.250207 164.570755 
L 544.460447 159.232434 
L 546.065567 160.127791 
L 547.670687 159.187687 
L 549.275807 164.639602 
L 550.880927 164.621212 
L 552.486046 164.047246 
L 554.091166 167.684491 
L 555.696286 169.726643 
L 557.301406 169.87712 
L 558.906526 168.551215 
L 560.511646 168.880765 
L 562.116766 163.982969 
L 563.721886 161.2526 
L 565.327005 158.281093 
L 566.932125 163.945329 
L 568.537245 165.05121 
L 570.142365 164.138637 
L 571.747485 165.170117 
L 573.352605 164.169684 
L 574.957725 165.839713 
L 576.562845 168.400321 
L 578.167965 168.331099 
L 579.773084 167.804929 
L 581.378204 168.552245 
L 582.983324 168.455993 
L 584.588444 164.98412 
L 586.193564 163.056069 
L 587.798684 160.080728 
L 589.403804 157.81263 
L 591.008924 157.175415 
L 592.614043 158.008085 
L 594.219163 151.55594 
L 595.824283 150.798071 
L 597.429403 147.837347 
L 599.034523 149.591101 
L 600.639643 154.043505 
L 602.244763 157.808841 
L 603.849883 158.500164 
L 605.455002 162.104452 
L 607.060122 159.088256 
L 608.665242 160.110324 
L 610.270362 161.320798 
L 611.875482 155.505309 
L 613.480602 156.330094 
L 615.085722 157.493859 
L 616.690842 148.096804 
L 618.295962 146.284283 
L 619.901081 145.539602 
L 621.506201 146.609179 
L 624.716441 137.514579 
L 626.321561 145.254448 
L 627.926681 144.936628 
L 629.531801 143.597596 
L 631.136921 141.251008 
L 632.74204 145.156146 
L 634.34716 144.81007 
L 635.95228 138.533895 
L 637.5574 134.190505 
L 639.16252 137.116359 
L 640.76764 135.528394 
L 642.37276 137.554228 
L 643.97788 134.252663 
L 645.583 143.66053 
L 647.188119 140.087668 
L 648.793239 138.672106 
L 650.398359 134.533115 
L 652.003479 137.970286 
L 653.608599 138.274201 
L 655.213719 141.413779 
L 656.818839 139.17431 
L 658.423959 137.820358 
L 660.029078 130.604973 
L 661.634198 127.367137 
L 663.239318 134.320926 
L 663.239318 134.320926 
" style="fill:none;stroke:#003559;stroke-linecap:square;stroke-width:2;"/>
   </g>
   <g id="line2d_25">
    <path clip-path="url(#p925654435e)" d="M 78.975682 290.907932 
L 80.580802 286.95343 
L 82.185922 288.480108 
L 83.791041 284.760778 
L 85.396161 279.434255 
L 87.001281 278.864842 
L 88.606401 279.099495 
L 90.211521 278.508214 
L 91.816641 280.849803 
L 93.421761 280.229044 
L 95.026881 278.002291 
L 96.632 280.735886 
L 98.23712 281.565538 
L 99.84224 280.241118 
L 101.44736 282.863616 
L 103.05248 282.408884 
L 104.6576 282.755252 
L 106.26272 280.315573 
L 107.86784 278.4298 
L 109.47296 275.531043 
L 111.078079 272.357699 
L 112.683199 271.779707 
L 114.288319 268.976834 
L 115.893439 269.774348 
L 117.498559 271.10434 
L 119.103679 272.75316 
L 120.708799 273.504271 
L 122.313919 272.160575 
L 123.919038 271.208252 
L 125.524158 269.744491 
L 127.129278 269.775567 
L 128.734398 273.272766 
L 130.339518 274.401716 
L 131.944638 277.109862 
L 133.549758 275.557978 
L 135.154878 273.062814 
L 136.759998 271.451068 
L 138.365117 272.219094 
L 139.970237 270.049702 
L 141.575357 271.966877 
L 143.180477 267.561788 
L 144.785597 262.713728 
L 146.390717 260.807808 
L 147.995837 259.469793 
L 151.206076 259.291968 
L 152.811196 258.513502 
L 154.416316 258.806225 
L 156.021436 256.206287 
L 157.626556 257.70568 
L 159.231676 260.030893 
L 160.836796 257.044092 
L 162.441916 260.690201 
L 164.047035 252.133373 
L 165.652155 249.386747 
L 167.257275 246.134551 
L 168.862395 245.974319 
L 170.467515 246.686708 
L 172.072635 246.858694 
L 173.677755 248.065261 
L 176.887995 246.882727 
L 178.493114 242.310003 
L 180.098234 246.816596 
L 181.703354 244.64239 
L 183.308474 242.732214 
L 184.913594 242.699574 
L 186.518714 241.855783 
L 188.123834 241.138437 
L 189.728954 240.749163 
L 191.334073 238.421347 
L 192.939193 236.7473 
L 194.544313 239.713121 
L 196.149433 236.947841 
L 199.359673 237.274717 
L 200.964793 235.910863 
L 202.569913 232.702964 
L 204.175032 230.33478 
L 205.780152 228.786049 
L 207.385272 225.01221 
L 210.595512 215.804975 
L 212.200632 216.618133 
L 213.805752 212.911313 
L 215.410872 210.832104 
L 217.015992 208.051509 
L 218.621111 206.714745 
L 220.226231 203.632424 
L 221.831351 202.49172 
L 223.436471 201.002087 
L 225.041591 197.597799 
L 226.646711 196.00882 
L 228.251831 193.098821 
L 229.856951 190.585406 
L 231.46207 187.179511 
L 233.06719 190.30052 
L 234.67231 190.142516 
L 236.27743 181.03259 
L 237.88255 180.431935 
L 239.48767 184.992776 
L 241.09279 185.997425 
L 242.69791 184.054965 
L 244.303029 181.543193 
L 245.908149 177.605383 
L 247.513269 177.536542 
L 249.118389 173.799833 
L 250.723509 173.05798 
L 252.328629 171.249077 
L 253.933749 165.407796 
L 255.538869 160.383322 
L 257.143989 163.025492 
L 258.749108 161.690523 
L 260.354228 166.045311 
L 261.959348 164.330839 
L 265.169588 156.052105 
L 266.774708 153.083466 
L 268.379828 153.588745 
L 269.984948 146.440187 
L 271.590067 140.861625 
L 273.195187 138.129367 
L 274.800307 134.852877 
L 276.405427 130.865623 
L 279.615667 129.008767 
L 281.220787 124.527484 
L 282.825907 128.937137 
L 284.431026 127.800988 
L 286.036146 126.480421 
L 287.641266 122.486711 
L 289.246386 122.535973 
L 290.851506 123.241789 
L 292.456626 122.760268 
L 294.061746 118.352486 
L 295.666866 111.550898 
L 297.271986 105.244341 
L 298.877105 102.67879 
L 300.482225 96.852828 
L 302.087345 96.502553 
L 303.692465 96.754091 
L 305.297585 90.380955 
L 306.902705 88.554233 
L 308.507825 87.734464 
L 310.112945 81.926699 
L 311.718064 79.714732 
L 313.323184 81.036168 
L 314.928304 81.531504 
L 316.533424 77.881499 
L 318.138544 79.269078 
L 319.743664 81.769176 
L 321.348784 84.784926 
L 322.953904 91.991275 
L 324.559023 86.948664 
L 327.769263 93.348477 
L 329.374383 92.04674 
L 330.979503 91.588601 
L 332.584623 88.763727 
L 334.189743 81.832731 
L 335.794863 83.654878 
L 337.399983 80.793676 
L 339.005102 79.397064 
L 340.610222 80.508382 
L 342.215342 83.199475 
L 343.820462 80.053147 
L 345.425582 82.691816 
L 347.030702 82.248184 
L 348.635822 83.117919 
L 350.240942 89.035261 
L 351.846061 88.93443 
L 353.451181 90.166893 
L 355.056301 83.565264 
L 356.661421 86.476526 
L 358.266541 84.109075 
L 359.871661 79.929635 
L 361.476781 85.499058 
L 363.081901 87.584341 
L 364.68702 82.062766 
L 366.29214 74.660292 
L 367.89726 68.544647 
L 369.50238 61.749393 
L 371.1075 61.998628 
L 372.71262 58.347671 
L 374.31774 63.259583 
L 375.92286 63.647475 
L 377.52798 62.586412 
L 379.133099 61.18234 
L 380.738219 58.721774 
L 382.343339 54.38832 
L 383.948459 47.777445 
L 385.553579 46.745862 
L 387.158699 44.742651 
L 388.763819 43.068564 
L 390.368939 39.283878 
L 391.974058 37.784392 
L 393.579178 35.028002 
L 395.184298 29.767311 
L 396.789418 31.395368 
L 398.394538 26.153922 
L 399.999658 22.718283 
L 401.604778 23.59763 
L 403.209898 20.992727 
L 404.815017 29.766139 
L 406.420137 34.988533 
L 408.025257 43.194409 
L 409.630377 45.394319 
L 411.235497 45.700498 
L 412.840617 46.940715 
L 414.445737 43.686987 
L 416.050857 47.001036 
L 417.655977 41.12959 
L 419.261096 42.988243 
L 420.866216 40.834042 
L 424.076456 46.192202 
L 425.681576 52.010552 
L 427.286696 50.820398 
L 428.891816 48.01498 
L 430.496936 45.652397 
L 432.102055 45.811381 
L 433.707175 48.636176 
L 435.312295 52.68633 
L 436.917415 56.128529 
L 438.522535 57.218975 
L 440.127655 58.650668 
L 441.732775 58.089983 
L 443.337895 54.9668 
L 444.943014 50.80394 
L 446.548134 51.967389 
L 448.153254 45.321892 
L 449.758374 52.711142 
L 451.363494 49.540062 
L 452.968614 54.473079 
L 454.573734 54.138238 
L 456.178854 58.087129 
L 459.389093 61.412354 
L 460.994213 63.793622 
L 462.599333 65.647545 
L 464.204453 67.093894 
L 465.809573 67.901137 
L 467.414693 63.15902 
L 469.019813 64.083561 
L 470.624933 70.623072 
L 472.230052 68.727571 
L 473.835172 72.145652 
L 475.440292 69.768795 
L 477.045412 73.317023 
L 478.650532 74.781694 
L 480.255652 80.291529 
L 481.860772 79.7848 
L 483.465892 80.641957 
L 485.071011 79.146722 
L 486.676131 78.288112 
L 488.281251 80.131554 
L 489.886371 81.523962 
L 491.491491 77.968729 
L 493.096611 80.060155 
L 494.701731 76.595703 
L 496.306851 79.772873 
L 497.911971 78.574916 
L 499.51709 81.778535 
L 501.12221 81.648594 
L 502.72733 81.995273 
L 504.33245 87.71501 
L 505.93757 89.125472 
L 507.54269 101.760027 
L 509.14781 101.3379 
L 510.75293 110.927266 
L 512.358049 111.978712 
L 513.963169 119.075741 
L 515.568289 118.522674 
L 517.173409 116.592742 
L 518.778529 115.75311 
L 520.383649 119.228122 
L 521.988769 112.954034 
L 523.593889 110.143302 
L 525.199008 111.380682 
L 526.804128 112.964879 
L 530.014368 108.925466 
L 533.224608 99.030232 
L 536.434848 108.80215 
L 538.039968 109.494674 
L 539.645087 110.341411 
L 541.250207 107.232185 
L 542.855327 111.761028 
L 544.460447 109.325245 
L 546.065567 109.634273 
L 547.670687 108.814063 
L 549.275807 110.487395 
L 550.880927 119.587067 
L 552.486046 121.081543 
L 554.091166 121.486643 
L 555.696286 127.051504 
L 557.301406 129.787012 
L 558.906526 130.141965 
L 560.511646 133.852777 
L 562.116766 137.258267 
L 563.721886 138.827354 
L 565.327005 140.113439 
L 566.932125 142.401342 
L 568.537245 146.079247 
L 570.142365 146.71564 
L 571.747485 142.285542 
L 573.352605 143.510421 
L 574.957725 145.201865 
L 576.562845 143.992067 
L 578.167965 145.300803 
L 579.773084 143.309231 
L 581.378204 147.209638 
L 582.983324 139.032807 
L 584.588444 139.123812 
L 586.193564 135.168544 
L 587.798684 135.051714 
L 589.403804 137.966899 
L 591.008924 138.471359 
L 592.614043 132.467665 
L 594.219163 122.930865 
L 595.824283 123.774091 
L 597.429403 123.846235 
L 599.034523 121.101615 
L 600.639643 122.017279 
L 602.244763 117.584041 
L 603.849883 119.954067 
L 605.455002 122.037523 
L 607.060122 122.111352 
L 608.665242 123.96332 
L 610.270362 126.287093 
L 611.875482 126.253702 
L 613.480602 129.022747 
L 615.085722 132.151273 
L 616.690842 136.591003 
L 618.295962 130.676602 
L 621.506201 133.047477 
L 623.111321 132.11747 
L 624.716441 131.366562 
L 626.321561 132.405483 
L 627.926681 134.10716 
L 629.531801 134.088435 
L 631.136921 137.151187 
L 632.74204 136.803477 
L 634.34716 136.219984 
L 635.95228 140.707599 
L 637.5574 144.502712 
L 639.16252 136.321077 
L 640.76764 139.972896 
L 642.37276 141.019247 
L 643.97788 141.107866 
L 645.583 139.350743 
L 647.188119 145.294296 
L 648.793239 142.007739 
L 650.398359 143.230319 
L 652.003479 142.522311 
L 653.608599 141.214749 
L 655.213719 137.324308 
L 656.818839 133.920311 
L 658.423959 127.194965 
L 660.029078 125.401191 
L 661.634198 127.367137 
L 663.239318 134.320926 
L 663.239318 134.320926 
" style="fill:none;stroke:#2d9cdb;stroke-linecap:square;stroke-width:2;"/>
   </g>
   <g id="patch_3">
    <path d="M 49.7625 310.64 
L 49.7625 7.2 
" style="fill:none;"/>
   </g>
   <g id="patch_4">
    <path d="M 692.4525 310.64 
L 692.4525 7.2 
" style="fill:none;"/>
   </g>
   <g id="patch_5">
    <path d="M 49.7625 310.64 
L 692.4525 310.64 
" style="fill:none;"/>
   </g>
   <g id="patch_6">
    <path d="M 49.7625 7.2 
L 692.4525 7.2 
" style="fill:none;"/>
   </g>
   <g id="legend_1">
    <g id="line2d_26">
     <path d="M 529.2375 28.1575 
L 561.2375 28.1575 
" style="fill:none;stroke:#003559;stroke-linecap:square;stroke-width:2;"/>
    </g>
    <g id="line2d_27"/>
    <g id="text_16">
     <!-- Fountain LLC -->
     <defs>
      <path d="M 9.8125 72.90625 
L 51.703125 72.90625 
L 51.703125 64.59375 
L 19.671875 64.59375 
L 19.671875 43.109375 
L 48.578125 43.109375 
L 48.578125 34.8125 
L 19.671875 34.8125 
L 19.671875 0 
L 9.8125 0 
z
" id="DejaVuSans-70"/>
      <path d="M 54.890625 33.015625 
L 54.890625 0 
L 45.90625 0 
L 45.90625 32.71875 
Q 45.90625 40.484375 42.875 44.328125 
Q 39.84375 48.1875 33.796875 48.1875 
Q 26.515625 48.1875 22.3125 43.546875 
Q 18.109375 38.921875 18.109375 30.90625 
L 18.109375 0 
L 9.078125 0 
L 9.078125 54.6875 
L 18.109375 54.6875 
L 18.109375 46.1875 
Q 21.34375 51.125 25.703125 53.5625 
Q 30.078125 56 35.796875 56 
Q 45.21875 56 50.046875 50.171875 
Q 54.890625 44.34375 54.890625 33.015625 
z
" id="DejaVuSans-110"/>
      <path d="M 18.3125 70.21875 
L 18.3125 54.6875 
L 36.8125 54.6875 
L 36.8125 47.703125 
L 18.3125 47.703125 
L 18.3125 18.015625 
Q 18.3125 11.328125 20.140625 9.421875 
Q 21.96875 7.515625 27.59375 7.515625 
L 36.8125 7.515625 
L 36.8125 0 
L 27.59375 0 
Q 17.1875 0 13.234375 3.875 
Q 9.28125 7.765625 9.28125 18.015625 
L 9.28125 47.703125 
L 2.6875 47.703125 
L 2.6875 54.6875 
L 9.28125 54.6875 
L 9.28125 70.21875 
z
" id="DejaVuSans-116"/>
      <path d="M 9.421875 54.6875 
L 18.40625 54.6875 
L 18.40625 0 
L 9.421875 0 
z
M 9.421875 75.984375 
L 18.40625 75.984375 
L 18.40625 64.59375 
L 9.421875 64.59375 
z
" id="DejaVuSans-105"/>
      <path id="DejaVuSans-32"/>
      <path d="M 9.8125 72.90625 
L 19.671875 72.90625 
L 19.671875 8.296875 
L 55.171875 8.296875 
L 55.171875 0 
L 9.8125 0 
z
" id="DejaVuSans-76"/>
      <path d="M 64.40625 67.28125 
L 64.40625 56.890625 
Q 59.421875 61.53125 53.78125 63.8125 
Q 48.140625 66.109375 41.796875 66.109375 
Q 29.296875 66.109375 22.65625 58.46875 
Q 16.015625 50.828125 16.015625 36.375 
Q 16.015625 21.96875 22.65625 14.328125 
Q 29.296875 6.6875 41.796875 6.6875 
Q 48.140625 6.6875 53.78125 8.984375 
Q 59.421875 11.28125 64.40625 15.921875 
L 64.40625 5.609375 
Q 59.234375 2.09375 53.4375 0.328125 
Q 47.65625 -1.421875 41.21875 -1.421875 
Q 24.65625 -1.421875 15.125 8.703125 
Q 5.609375 18.84375 5.609375 36.375 
Q 5.609375 53.953125 15.125 64.078125 
Q 24.65625 74.21875 41.21875 74.21875 
Q 47.75 74.21875 53.53125 72.484375 
Q 59.328125 70.75 64.40625 67.28125 
z
" id="DejaVuSans-67"/>
     </defs>
     <g style="fill:#003559;" transform="translate(574.0375 33.7575)scale(0.16 -0.16)">
      <use xlink:href="#DejaVuSans-70"/>
      <use x="57.472656" xlink:href="#DejaVuSans-111"/>
      <use x="118.654297" xlink:href="#DejaVuSans-117"/>
      <use x="182.033203" xlink:href="#DejaVuSans-110"/>
      <use x="245.412109" xlink:href="#DejaVuSans-116"/>
      <use x="284.621094" xlink:href="#DejaVuSans-97"/>
      <use x="345.900391" xlink:href="#DejaVuSans-105"/>
      <use x="373.683594" xlink:href="#DejaVuSans-110"/>
      <use x="437.0625" xlink:href="#DejaVuSans-32"/>
      <use x="468.849609" xlink:href="#DejaVuSans-76"/>
      <use x="524.5625" xlink:href="#DejaVuSans-76"/>
      <use x="580.275391" xlink:href="#DejaVuSans-67"/>
     </g>
    </g>
    <g id="line2d_28">
     <path d="M 529.2375 51.6425 
L 561.2375 51.6425 
" style="fill:none;stroke:#2d9cdb;stroke-linecap:square;stroke-width:2;"/>
    </g>
    <g id="line2d_29"/>
    <g id="text_17">
     <!-- Extreme LLC -->
     <defs>
      <path d="M 9.8125 72.90625 
L 55.90625 72.90625 
L 55.90625 64.59375 
L 19.671875 64.59375 
L 19.671875 43.015625 
L 54.390625 43.015625 
L 54.390625 34.71875 
L 19.671875 34.71875 
L 19.671875 8.296875 
L 56.78125 8.296875 
L 56.78125 0 
L 9.8125 0 
z
" id="DejaVuSans-69"/>
      <path d="M 54.890625 54.6875 
L 35.109375 28.078125 
L 55.90625 0 
L 45.3125 0 
L 29.390625 21.484375 
L 13.484375 0 
L 2.875 0 
L 24.125 28.609375 
L 4.6875 54.6875 
L 15.28125 54.6875 
L 29.78125 35.203125 
L 44.28125 54.6875 
z
" id="DejaVuSans-120"/>
      <path d="M 52 44.1875 
Q 55.375 50.25 60.0625 53.125 
Q 64.75 56 71.09375 56 
Q 79.640625 56 84.28125 50.015625 
Q 88.921875 44.046875 88.921875 33.015625 
L 88.921875 0 
L 79.890625 0 
L 79.890625 32.71875 
Q 79.890625 40.578125 77.09375 44.375 
Q 74.3125 48.1875 68.609375 48.1875 
Q 61.625 48.1875 57.5625 43.546875 
Q 53.515625 38.921875 53.515625 30.90625 
L 53.515625 0 
L 44.484375 0 
L 44.484375 32.71875 
Q 44.484375 40.625 41.703125 44.40625 
Q 38.921875 48.1875 33.109375 48.1875 
Q 26.21875 48.1875 22.15625 43.53125 
Q 18.109375 38.875 18.109375 30.90625 
L 18.109375 0 
L 9.078125 0 
L 9.078125 54.6875 
L 18.109375 54.6875 
L 18.109375 46.1875 
Q 21.1875 51.21875 25.484375 53.609375 
Q 29.78125 56 35.6875 56 
Q 41.65625 56 45.828125 52.96875 
Q 50 49.953125 52 44.1875 
z
" id="DejaVuSans-109"/>
     </defs>
     <g style="fill:#003559;" transform="translate(574.0375 57.2425)scale(0.16 -0.16)">
      <use xlink:href="#DejaVuSans-69"/>
      <use x="63.183594" xlink:href="#DejaVuSans-120"/>
      <use x="122.363281" xlink:href="#DejaVuSans-116"/>
      <use x="161.572266" xlink:href="#DejaVuSans-114"/>
      <use x="202.654297" xlink:href="#DejaVuSans-101"/>
      <use x="264.177734" xlink:href="#DejaVuSans-109"/>
      <use x="361.589844" xlink:href="#DejaVuSans-101"/>
      <use x="423.113281" xlink:href="#DejaVuSans-32"/>
      <use x="454.900391" xlink:href="#DejaVuSans-76"/>
      <use x="510.613281" xlink:href="#DejaVuSans-76"/>
      <use x="566.326172" xlink:href="#DejaVuSans-67"/>
     </g>
    </g>
   </g>
  </g>
 </g>
 <defs>
  <clipPath id="p925654435e">
   <rect height="303.44" width="642.69" x="49.7625" y="7.2"/>
  </clipPath>
 </defs>
</svg>
