<?xml version="1.0" encoding="utf-8" standalone="no"?>
<!DOCTYPE svg PUBLIC "-//W3C//DTD SVG 1.1//EN"
  "http://www.w3.org/Graphics/SVG/1.1/DTD/svg11.dtd">
<!-- Created with matplotlib (https://matplotlib.org/) -->
<svg height="340.325pt" version="1.1" viewBox="0 0 699.7775 340.325" width="699.7775pt" xmlns="http://www.w3.org/2000/svg" xmlns:xlink="http://www.w3.org/1999/xlink">
 <defs>
  <style type="text/css">
*{stroke-linecap:butt;stroke-linejoin:round;}
  </style>
 </defs>
 <g id="figure_1">
  <g id="patch_1">
   <path d="M 0 340.325 
L 699.7775 340.325 
L 699.7775 0 
L 0 0 
z
" style="fill:none;"/>
  </g>
  <g id="axes_1">
   <g id="patch_2">
    <path d="M 49.7625 310.64 
L 692.5775 310.64 
L 692.5775 7.2 
L 49.7625 7.2 
z
" style="fill:none;"/>
   </g>
   <g id="matplotlib.axis_1">
    <g id="xtick_1">
     <g id="line2d_1">
      <defs>
       <path d="M 0 0 
L 0 3.5 
" id="me142d503b4" style="stroke:#003559;stroke-width:0.8;"/>
      </defs>
      <g>
       <use style="fill:#003559;stroke:#003559;stroke-width:0.8;" x="78.981364" xlink:href="#me142d503b4" y="310.64"/>
      </g>
     </g>
     <g id="text_1">
      <!-- 2010 -->
      <defs>
       <path d="M 19.1875 8.296875 
L 53.609375 8.296875 
L 53.609375 0 
L 7.328125 0 
L 7.328125 8.296875 
Q 12.9375 14.109375 22.625 23.890625 
Q 32.328125 33.6875 34.8125 36.53125 
Q 39.546875 41.84375 41.421875 45.53125 
Q 43.3125 49.21875 43.3125 52.78125 
Q 43.3125 58.59375 39.234375 62.25 
Q 35.15625 65.921875 28.609375 65.921875 
Q 23.96875 65.921875 18.8125 64.3125 
Q 13.671875 62.703125 7.8125 59.421875 
L 7.8125 69.390625 
Q 13.765625 71.78125 18.9375 73 
Q 24.125 74.21875 28.421875 74.21875 
Q 39.75 74.21875 46.484375 68.546875 
Q 53.21875 62.890625 53.21875 53.421875 
Q 53.21875 48.921875 51.53125 44.890625 
Q 49.859375 40.875 45.40625 35.40625 
Q 44.1875 33.984375 37.640625 27.21875 
Q 31.109375 20.453125 19.1875 8.296875 
z
" id="DejaVuSans-50"/>
       <path d="M 31.78125 66.40625 
Q 24.171875 66.40625 20.328125 58.90625 
Q 16.5 51.421875 16.5 36.375 
Q 16.5 21.390625 20.328125 13.890625 
Q 24.171875 6.390625 31.78125 6.390625 
Q 39.453125 6.390625 43.28125 13.890625 
Q 47.125 21.390625 47.125 36.375 
Q 47.125 51.421875 43.28125 58.90625 
Q 39.453125 66.40625 31.78125 66.40625 
z
M 31.78125 74.21875 
Q 44.046875 74.21875 50.515625 64.515625 
Q 56.984375 54.828125 56.984375 36.375 
Q 56.984375 17.96875 50.515625 8.265625 
Q 44.046875 -1.421875 31.78125 -1.421875 
Q 19.53125 -1.421875 13.0625 8.265625 
Q 6.59375 17.96875 6.59375 36.375 
Q 6.59375 54.828125 13.0625 64.515625 
Q 19.53125 74.21875 31.78125 74.21875 
z
" id="DejaVuSans-48"/>
       <path d="M 12.40625 8.296875 
L 28.515625 8.296875 
L 28.515625 63.921875 
L 10.984375 60.40625 
L 10.984375 69.390625 
L 28.421875 72.90625 
L 38.28125 72.90625 
L 38.28125 8.296875 
L 54.390625 8.296875 
L 54.390625 0 
L 12.40625 0 
z
" id="DejaVuSans-49"/>
      </defs>
      <g style="fill:#003559;" transform="translate(58.621364 329.7975)scale(0.16 -0.16)">
       <use xlink:href="#DejaVuSans-50"/>
       <use x="63.623047" xlink:href="#DejaVuSans-48"/>
       <use x="127.246094" xlink:href="#DejaVuSans-49"/>
       <use x="190.869141" xlink:href="#DejaVuSans-48"/>
      </g>
     </g>
    </g>
    <g id="xtick_2">
     <g id="line2d_2">
      <g>
       <use style="fill:#003559;stroke:#003559;stroke-width:0.8;" x="175.665355" xlink:href="#me142d503b4" y="310.64"/>
      </g>
     </g>
     <g id="text_2">
      <!-- Jul -->
      <defs>
       <path d="M 9.8125 72.90625 
L 19.671875 72.90625 
L 19.671875 5.078125 
Q 19.671875 -8.109375 14.671875 -14.0625 
Q 9.671875 -20.015625 -1.421875 -20.015625 
L -5.171875 -20.015625 
L -5.171875 -11.71875 
L -2.09375 -11.71875 
Q 4.4375 -11.71875 7.125 -8.046875 
Q 9.8125 -4.390625 9.8125 5.078125 
z
" id="DejaVuSans-74"/>
       <path d="M 8.5 21.578125 
L 8.5 54.6875 
L 17.484375 54.6875 
L 17.484375 21.921875 
Q 17.484375 14.15625 20.5 10.265625 
Q 23.53125 6.390625 29.59375 6.390625 
Q 36.859375 6.390625 41.078125 11.03125 
Q 45.3125 15.671875 45.3125 23.6875 
L 45.3125 54.6875 
L 54.296875 54.6875 
L 54.296875 0 
L 45.3125 0 
L 45.3125 8.40625 
Q 42.046875 3.421875 37.71875 1 
Q 33.40625 -1.421875 27.6875 -1.421875 
Q 18.265625 -1.421875 13.375 4.4375 
Q 8.5 10.296875 8.5 21.578125 
z
M 31.109375 56 
z
" id="DejaVuSans-117"/>
       <path d="M 9.421875 75.984375 
L 18.40625 75.984375 
L 18.40625 0 
L 9.421875 0 
z
" id="DejaVuSans-108"/>
      </defs>
      <g style="fill:#003559;" transform="translate(166.012855 329.7975)scale(0.16 -0.16)">
       <use xlink:href="#DejaVuSans-74"/>
       <use x="29.492188" xlink:href="#DejaVuSans-117"/>
       <use x="92.871094" xlink:href="#DejaVuSans-108"/>
      </g>
     </g>
    </g>
    <g id="xtick_3">
     <g id="line2d_3">
      <g>
       <use style="fill:#003559;stroke:#003559;stroke-width:0.8;" x="273.951843" xlink:href="#me142d503b4" y="310.64"/>
      </g>
     </g>
     <g id="text_3">
      <!-- 2011 -->
      <g style="fill:#003559;" transform="translate(253.591843 329.7975)scale(0.16 -0.16)">
       <use xlink:href="#DejaVuSans-50"/>
       <use x="63.623047" xlink:href="#DejaVuSans-48"/>
       <use x="127.246094" xlink:href="#DejaVuSans-49"/>
       <use x="190.869141" xlink:href="#DejaVuSans-49"/>
      </g>
     </g>
    </g>
    <g id="xtick_4">
     <g id="line2d_4">
      <g>
       <use style="fill:#003559;stroke:#003559;stroke-width:0.8;" x="370.635834" xlink:href="#me142d503b4" y="310.64"/>
      </g>
     </g>
     <g id="text_4">
      <!-- Jul -->
      <g style="fill:#003559;" transform="translate(360.983334 329.7975)scale(0.16 -0.16)">
       <use xlink:href="#DejaVuSans-74"/>
       <use x="29.492188" xlink:href="#DejaVuSans-117"/>
       <use x="92.871094" xlink:href="#DejaVuSans-108"/>
      </g>
     </g>
    </g>
    <g id="xtick_5">
     <g id="line2d_5">
      <g>
       <use style="fill:#003559;stroke:#003559;stroke-width:0.8;" x="468.922323" xlink:href="#me142d503b4" y="310.64"/>
      </g>
     </g>
     <g id="text_5">
      <!-- 2012 -->
      <g style="fill:#003559;" transform="translate(448.562323 329.7975)scale(0.16 -0.16)">
       <use xlink:href="#DejaVuSans-50"/>
       <use x="63.623047" xlink:href="#DejaVuSans-48"/>
       <use x="127.246094" xlink:href="#DejaVuSans-49"/>
       <use x="190.869141" xlink:href="#DejaVuSans-50"/>
      </g>
     </g>
    </g>
    <g id="xtick_6">
     <g id="line2d_6">
      <g>
       <use style="fill:#003559;stroke:#003559;stroke-width:0.8;" x="566.140479" xlink:href="#me142d503b4" y="310.64"/>
      </g>
     </g>
     <g id="text_6">
      <!-- Jul -->
      <g style="fill:#003559;" transform="translate(556.487979 329.7975)scale(0.16 -0.16)">
       <use xlink:href="#DejaVuSans-74"/>
       <use x="29.492188" xlink:href="#DejaVuSans-117"/>
       <use x="92.871094" xlink:href="#DejaVuSans-108"/>
      </g>
     </g>
    </g>
    <g id="xtick_7">
     <g id="line2d_7">
      <g>
       <use style="fill:#003559;stroke:#003559;stroke-width:0.8;" x="664.426968" xlink:href="#me142d503b4" y="310.64"/>
      </g>
     </g>
     <g id="text_7">
      <!-- 2013 -->
      <defs>
       <path d="M 40.578125 39.3125 
Q 47.65625 37.796875 51.625 33 
Q 55.609375 28.21875 55.609375 21.1875 
Q 55.609375 10.40625 48.1875 4.484375 
Q 40.765625 -1.421875 27.09375 -1.421875 
Q 22.515625 -1.421875 17.65625 -0.515625 
Q 12.796875 0.390625 7.625 2.203125 
L 7.625 11.71875 
Q 11.71875 9.328125 16.59375 8.109375 
Q 21.484375 6.890625 26.8125 6.890625 
Q 36.078125 6.890625 40.9375 10.546875 
Q 45.796875 14.203125 45.796875 21.1875 
Q 45.796875 27.640625 41.28125 31.265625 
Q 36.765625 34.90625 28.71875 34.90625 
L 20.21875 34.90625 
L 20.21875 43.015625 
L 29.109375 43.015625 
Q 36.375 43.015625 40.234375 45.921875 
Q 44.09375 48.828125 44.09375 54.296875 
Q 44.09375 59.90625 40.109375 62.90625 
Q 36.140625 65.921875 28.71875 65.921875 
Q 24.65625 65.921875 20.015625 65.03125 
Q 15.375 64.15625 9.8125 62.3125 
L 9.8125 71.09375 
Q 15.4375 72.65625 20.34375 73.4375 
Q 25.25 74.21875 29.59375 74.21875 
Q 40.828125 74.21875 47.359375 69.109375 
Q 53.90625 64.015625 53.90625 55.328125 
Q 53.90625 49.265625 50.4375 45.09375 
Q 46.96875 40.921875 40.578125 39.3125 
z
" id="DejaVuSans-51"/>
      </defs>
      <g style="fill:#003559;" transform="translate(644.066968 329.7975)scale(0.16 -0.16)">
       <use xlink:href="#DejaVuSans-50"/>
       <use x="63.623047" xlink:href="#DejaVuSans-48"/>
       <use x="127.246094" xlink:href="#DejaVuSans-49"/>
       <use x="190.869141" xlink:href="#DejaVuSans-51"/>
      </g>
     </g>
    </g>
   </g>
   <g id="matplotlib.axis_2">
    <g id="ytick_1">
     <g id="line2d_8">
      <path clip-path="url(#p754b87a8dd)" d="M 49.7625 278.389434 
L 692.5775 278.389434 
" style="fill:none;stroke:#f0f0f0;stroke-linecap:square;"/>
     </g>
     <g id="line2d_9">
      <defs>
       <path d="M 0 0 
L -3.5 0 
" id="m14cf3d4391" style="stroke:#003559;stroke-width:0.8;"/>
      </defs>
      <g>
       <use style="fill:#003559;stroke:#003559;stroke-width:0.8;" x="49.7625" xlink:href="#m14cf3d4391" y="278.389434"/>
      </g>
     </g>
     <g id="text_8">
      <!-- -5% -->
      <defs>
       <path d="M 4.890625 31.390625 
L 31.203125 31.390625 
L 31.203125 23.390625 
L 4.890625 23.390625 
z
" id="DejaVuSans-45"/>
       <path d="M 10.796875 72.90625 
L 49.515625 72.90625 
L 49.515625 64.59375 
L 19.828125 64.59375 
L 19.828125 46.734375 
Q 21.96875 47.46875 24.109375 47.828125 
Q 26.265625 48.1875 28.421875 48.1875 
Q 40.625 48.1875 47.75 41.5 
Q 54.890625 34.8125 54.890625 23.390625 
Q 54.890625 11.625 47.5625 5.09375 
Q 40.234375 -1.421875 26.90625 -1.421875 
Q 22.3125 -1.421875 17.546875 -0.640625 
Q 12.796875 0.140625 7.71875 1.703125 
L 7.71875 11.625 
Q 12.109375 9.234375 16.796875 8.0625 
Q 21.484375 6.890625 26.703125 6.890625 
Q 35.15625 6.890625 40.078125 11.328125 
Q 45.015625 15.765625 45.015625 23.390625 
Q 45.015625 31 40.078125 35.4375 
Q 35.15625 39.890625 26.703125 39.890625 
Q 22.75 39.890625 18.8125 39.015625 
Q 14.890625 38.140625 10.796875 36.28125 
z
" id="DejaVuSans-53"/>
       <path d="M 72.703125 32.078125 
Q 68.453125 32.078125 66.03125 28.46875 
Q 63.625 24.859375 63.625 18.40625 
Q 63.625 12.0625 66.03125 8.421875 
Q 68.453125 4.78125 72.703125 4.78125 
Q 76.859375 4.78125 79.265625 8.421875 
Q 81.6875 12.0625 81.6875 18.40625 
Q 81.6875 24.8125 79.265625 28.4375 
Q 76.859375 32.078125 72.703125 32.078125 
z
M 72.703125 38.28125 
Q 80.421875 38.28125 84.953125 32.90625 
Q 89.5 27.546875 89.5 18.40625 
Q 89.5 9.28125 84.9375 3.921875 
Q 80.375 -1.421875 72.703125 -1.421875 
Q 64.890625 -1.421875 60.34375 3.921875 
Q 55.8125 9.28125 55.8125 18.40625 
Q 55.8125 27.59375 60.375 32.9375 
Q 64.9375 38.28125 72.703125 38.28125 
z
M 22.3125 68.015625 
Q 18.109375 68.015625 15.6875 64.375 
Q 13.28125 60.75 13.28125 54.390625 
Q 13.28125 47.953125 15.671875 44.328125 
Q 18.0625 40.71875 22.3125 40.71875 
Q 26.5625 40.71875 28.96875 44.328125 
Q 31.390625 47.953125 31.390625 54.390625 
Q 31.390625 60.6875 28.953125 64.34375 
Q 26.515625 68.015625 22.3125 68.015625 
z
M 66.40625 74.21875 
L 74.21875 74.21875 
L 28.609375 -1.421875 
L 20.796875 -1.421875 
z
M 22.3125 74.21875 
Q 30.03125 74.21875 34.609375 68.875 
Q 39.203125 63.53125 39.203125 54.390625 
Q 39.203125 45.171875 34.640625 39.84375 
Q 30.078125 34.515625 22.3125 34.515625 
Q 14.546875 34.515625 10.03125 39.859375 
Q 5.515625 45.21875 5.515625 54.390625 
Q 5.515625 63.484375 10.046875 68.84375 
Q 14.59375 74.21875 22.3125 74.21875 
z
" id="DejaVuSans-37"/>
      </defs>
      <g style="fill:#003559;" transform="translate(11.6075 284.468184)scale(0.16 -0.16)">
       <use xlink:href="#DejaVuSans-45"/>
       <use x="36.083984" xlink:href="#DejaVuSans-53"/>
       <use x="99.707031" xlink:href="#DejaVuSans-37"/>
      </g>
     </g>
    </g>
    <g id="ytick_2">
     <g id="line2d_10">
      <path clip-path="url(#p754b87a8dd)" d="M 49.7625 237.021981 
L 692.5775 237.021981 
" style="fill:none;stroke:#f0f0f0;stroke-linecap:square;"/>
     </g>
     <g id="line2d_11">
      <g>
       <use style="fill:#003559;stroke:#003559;stroke-width:0.8;" x="49.7625" xlink:href="#m14cf3d4391" y="237.021981"/>
      </g>
     </g>
     <g id="text_9">
      <!-- -2% -->
      <g style="fill:#003559;" transform="translate(11.6075 243.100731)scale(0.16 -0.16)">
       <use xlink:href="#DejaVuSans-45"/>
       <use x="36.083984" xlink:href="#DejaVuSans-50"/>
       <use x="99.707031" xlink:href="#DejaVuSans-37"/>
      </g>
     </g>
    </g>
    <g id="ytick_3">
     <g id="line2d_12">
      <path clip-path="url(#p754b87a8dd)" d="M 49.7625 195.654529 
L 692.5775 195.654529 
" style="fill:none;stroke:#f0f0f0;stroke-linecap:square;"/>
     </g>
     <g id="line2d_13">
      <g>
       <use style="fill:#003559;stroke:#003559;stroke-width:0.8;" x="49.7625" xlink:href="#m14cf3d4391" y="195.654529"/>
      </g>
     </g>
     <g id="text_10">
      <!-- 0% -->
      <g style="fill:#003559;" transform="translate(17.38 201.733279)scale(0.16 -0.16)">
       <use xlink:href="#DejaVuSans-48"/>
       <use x="63.623047" xlink:href="#DejaVuSans-37"/>
      </g>
     </g>
    </g>
    <g id="ytick_4">
     <g id="line2d_14">
      <path clip-path="url(#p754b87a8dd)" d="M 49.7625 154.287077 
L 692.5775 154.287077 
" style="fill:none;stroke:#f0f0f0;stroke-linecap:square;"/>
     </g>
     <g id="line2d_15">
      <g>
       <use style="fill:#003559;stroke:#003559;stroke-width:0.8;" x="49.7625" xlink:href="#m14cf3d4391" y="154.287077"/>
      </g>
     </g>
     <g id="text_11">
      <!-- 2% -->
      <g style="fill:#003559;" transform="translate(17.38 160.365827)scale(0.16 -0.16)">
       <use xlink:href="#DejaVuSans-50"/>
       <use x="63.623047" xlink:href="#DejaVuSans-37"/>
      </g>
     </g>
    </g>
    <g id="ytick_5">
     <g id="line2d_16">
      <path clip-path="url(#p754b87a8dd)" d="M 49.7625 112.919625 
L 692.5775 112.919625 
" style="fill:none;stroke:#f0f0f0;stroke-linecap:square;"/>
     </g>
     <g id="line2d_17">
      <g>
       <use style="fill:#003559;stroke:#003559;stroke-width:0.8;" x="49.7625" xlink:href="#m14cf3d4391" y="112.919625"/>
      </g>
     </g>
     <g id="text_12">
      <!-- 5% -->
      <g style="fill:#003559;" transform="translate(17.38 118.998375)scale(0.16 -0.16)">
       <use xlink:href="#DejaVuSans-53"/>
       <use x="63.623047" xlink:href="#DejaVuSans-37"/>
      </g>
     </g>
    </g>
    <g id="ytick_6">
     <g id="line2d_18">
      <path clip-path="url(#p754b87a8dd)" d="M 49.7625 71.552172 
L 692.5775 71.552172 
" style="fill:none;stroke:#f0f0f0;stroke-linecap:square;"/>
     </g>
     <g id="line2d_19">
      <g>
       <use style="fill:#003559;stroke:#003559;stroke-width:0.8;" x="49.7625" xlink:href="#m14cf3d4391" y="71.552172"/>
      </g>
     </g>
     <g id="text_13">
      <!-- 8% -->
      <defs>
       <path d="M 31.78125 34.625 
Q 24.75 34.625 20.71875 30.859375 
Q 16.703125 27.09375 16.703125 20.515625 
Q 16.703125 13.921875 20.71875 10.15625 
Q 24.75 6.390625 31.78125 6.390625 
Q 38.8125 6.390625 42.859375 10.171875 
Q 46.921875 13.96875 46.921875 20.515625 
Q 46.921875 27.09375 42.890625 30.859375 
Q 38.875 34.625 31.78125 34.625 
z
M 21.921875 38.8125 
Q 15.578125 40.375 12.03125 44.71875 
Q 8.5 49.078125 8.5 55.328125 
Q 8.5 64.0625 14.71875 69.140625 
Q 20.953125 74.21875 31.78125 74.21875 
Q 42.671875 74.21875 48.875 69.140625 
Q 55.078125 64.0625 55.078125 55.328125 
Q 55.078125 49.078125 51.53125 44.71875 
Q 48 40.375 41.703125 38.8125 
Q 48.828125 37.15625 52.796875 32.3125 
Q 56.78125 27.484375 56.78125 20.515625 
Q 56.78125 9.90625 50.3125 4.234375 
Q 43.84375 -1.421875 31.78125 -1.421875 
Q 19.734375 -1.421875 13.25 4.234375 
Q 6.78125 9.90625 6.78125 20.515625 
Q 6.78125 27.484375 10.78125 32.3125 
Q 14.796875 37.15625 21.921875 38.8125 
z
M 18.3125 54.390625 
Q 18.3125 48.734375 21.84375 45.5625 
Q 25.390625 42.390625 31.78125 42.390625 
Q 38.140625 42.390625 41.71875 45.5625 
Q 45.3125 48.734375 45.3125 54.390625 
Q 45.3125 60.0625 41.71875 63.234375 
Q 38.140625 66.40625 31.78125 66.40625 
Q 25.390625 66.40625 21.84375 63.234375 
Q 18.3125 60.0625 18.3125 54.390625 
z
" id="DejaVuSans-56"/>
      </defs>
      <g style="fill:#003559;" transform="translate(17.38 77.630922)scale(0.16 -0.16)">
       <use xlink:href="#DejaVuSans-56"/>
       <use x="63.623047" xlink:href="#DejaVuSans-37"/>
      </g>
     </g>
    </g>
    <g id="ytick_7">
     <g id="line2d_20">
      <path clip-path="url(#p754b87a8dd)" d="M 49.7625 30.18472 
L 692.5775 30.18472 
" style="fill:none;stroke:#f0f0f0;stroke-linecap:square;"/>
     </g>
     <g id="line2d_21">
      <g>
       <use style="fill:#003559;stroke:#003559;stroke-width:0.8;" x="49.7625" xlink:href="#m14cf3d4391" y="30.18472"/>
      </g>
     </g>
     <g id="text_14">
      <!-- 10% -->
      <g style="fill:#003559;" transform="translate(7.2 36.26347)scale(0.16 -0.16)">
       <use xlink:href="#DejaVuSans-49"/>
       <use x="63.623047" xlink:href="#DejaVuSans-48"/>
       <use x="127.246094" xlink:href="#DejaVuSans-37"/>
      </g>
     </g>
    </g>
   </g>
   <g id="line2d_22">
    <path clip-path="url(#p754b87a8dd)" d="M 78.981364 189.644057 
L 79.515529 188.112927 
L 80.049695 187.711407 
L 80.583861 193.816124 
L 81.118026 194.654528 
L 81.652192 195.748564 
L 82.186358 195.942064 
L 82.720524 197.935208 
L 83.254689 197.999827 
L 83.788855 199.496026 
L 84.323021 203.748429 
L 85.391352 197.762146 
L 85.925518 192.021551 
L 86.459683 191.77511 
L 86.993849 193.036517 
L 87.528015 194.762856 
L 88.06218 199.795511 
L 88.596346 196.469155 
L 89.664678 203.854027 
L 90.198843 204.451219 
L 90.733009 199.47172 
L 91.267175 198.609797 
L 91.80134 201.9084 
L 92.335506 204.177498 
L 92.869672 202.037695 
L 93.403837 202.486795 
L 93.938003 204.938877 
L 94.472169 205.615877 
L 95.006335 203.083268 
L 95.5405 196.479753 
L 96.074666 200.509817 
L 96.608832 202.495533 
L 97.142997 205.062545 
L 97.677163 212.924045 
L 98.745494 219.131655 
L 99.27966 215.381275 
L 99.813826 215.733244 
L 100.347992 220.952475 
L 100.882157 218.764547 
L 101.416323 219.847581 
L 101.950489 225.44323 
L 103.01882 229.13315 
L 103.552986 231.885643 
L 104.087151 231.710909 
L 104.621317 238.894616 
L 105.155483 239.679196 
L 107.292146 226.12303 
L 107.826311 221.204552 
L 108.360477 224.765348 
L 108.894643 221.934044 
L 109.428808 227.904659 
L 109.962974 229.781135 
L 110.49714 235.896002 
L 111.031305 232.429559 
L 111.565471 228.029299 
L 112.099637 228.591012 
L 112.633803 222.745697 
L 113.167968 224.861716 
L 114.2363 223.716667 
L 114.770465 227.096328 
L 115.304631 225.595059 
L 115.838797 219.202929 
L 116.372962 222.464137 
L 116.907128 219.454312 
L 117.441294 219.87908 
L 117.97546 214.018786 
L 118.509625 212.355252 
L 119.577957 207.867853 
L 120.112122 206.969656 
L 120.646288 211.471274 
L 121.180454 206.823622 
L 121.714619 211.243377 
L 122.248785 210.381543 
L 122.782951 208.286482 
L 123.317117 210.956434 
L 123.851282 210.401149 
L 124.385448 206.486357 
L 124.919614 206.48583 
L 125.453779 209.325268 
L 125.987945 218.787853 
L 126.522111 221.876987 
L 127.590442 225.322339 
L 128.124608 228.360679 
L 128.658773 227.057502 
L 129.192939 228.843583 
L 129.727105 229.119831 
L 130.261271 226.837682 
L 130.795436 229.534282 
L 131.329602 230.428536 
L 131.863768 223.342392 
L 132.397933 220.415862 
L 132.932099 224.54828 
L 133.466265 224.728656 
L 134.00043 222.813356 
L 134.534596 218.714173 
L 135.068762 218.148709 
L 135.602928 219.800699 
L 136.137093 222.102266 
L 136.671259 219.921143 
L 137.205425 218.820801 
L 137.73959 220.426687 
L 138.273756 220.963845 
L 138.807922 222.240568 
L 139.342087 219.800081 
L 139.876253 221.969541 
L 140.410419 220.305528 
L 140.944585 217.447889 
L 141.47875 215.779795 
L 142.012916 218.425578 
L 142.547082 213.950397 
L 143.081247 216.089242 
L 143.615413 214.615453 
L 144.149579 216.998849 
L 144.683744 222.60743 
L 145.752076 220.779048 
L 146.286241 220.952348 
L 146.820407 219.973327 
L 147.888739 224.328263 
L 148.422904 224.795923 
L 148.95707 218.49759 
L 149.491236 215.756779 
L 150.025401 217.376602 
L 150.559567 215.471514 
L 151.627898 218.369535 
L 152.162064 215.483112 
L 152.69623 217.12043 
L 153.230396 222.505673 
L 153.764561 225.375411 
L 154.832893 224.514099 
L 155.367058 220.392646 
L 155.901224 222.646173 
L 156.43539 220.184097 
L 156.969555 218.71553 
L 157.503721 219.122569 
L 158.037887 216.314084 
L 158.572053 214.62563 
L 159.106218 217.364955 
L 159.640384 213.781688 
L 160.17455 217.693768 
L 160.708715 217.41985 
L 161.242881 217.332619 
L 161.777047 215.865834 
L 162.311212 218.156329 
L 162.845378 218.191188 
L 163.379544 218.570965 
L 163.913709 215.234308 
L 164.447875 217.755839 
L 164.982041 217.439051 
L 165.516207 218.212789 
L 166.050372 222.365477 
L 166.584538 213.549333 
L 167.118704 213.703035 
L 167.652869 218.482893 
L 168.187035 213.7996 
L 168.721201 217.220738 
L 169.255366 215.929613 
L 169.789532 213.027256 
L 170.323698 215.069911 
L 170.857864 216.399264 
L 171.392029 218.084652 
L 171.926195 218.427707 
L 172.460361 223.635652 
L 172.994526 227.572 
L 173.528692 227.950134 
L 174.062858 224.496532 
L 174.597023 222.361979 
L 175.131189 216.641998 
L 175.665355 214.293266 
L 176.199521 215.885568 
L 176.733686 216.207784 
L 177.267852 222.751258 
L 178.336183 229.030136 
L 178.870349 228.073733 
L 179.404515 225.891617 
L 180.472846 229.462623 
L 181.007012 234.390051 
L 181.541177 234.724512 
L 182.075343 233.843971 
L 182.609509 232.323591 
L 183.143675 234.7761 
L 183.67784 228.259475 
L 184.212006 224.298936 
L 184.746172 224.529731 
L 185.280337 226.164236 
L 185.814503 227.129756 
L 186.348669 226.560245 
L 186.882834 226.541938 
L 187.417 224.891979 
L 187.951166 222.311204 
L 189.019497 213.947589 
L 189.553663 214.22891 
L 190.087829 212.878501 
L 190.621994 214.066426 
L 191.15616 215.907702 
L 191.690326 209.569844 
L 192.224491 210.99861 
L 192.758657 204.378675 
L 193.292823 205.447455 
L 193.826989 204.53563 
L 194.361154 200.865736 
L 194.89532 200.706761 
L 195.429486 199.329094 
L 195.963651 200.045879 
L 196.497817 201.534642 
L 197.031983 202.001232 
L 197.566148 204.061874 
L 198.100314 198.601484 
L 198.63448 199.07525 
L 199.168646 193.295814 
L 199.702811 202.09073 
L 200.236977 201.95001 
L 200.771143 200.016235 
L 201.305308 200.905713 
L 201.839474 197.210389 
L 202.37364 195.013699 
L 202.907805 195.842272 
L 203.441971 194.321826 
L 203.976137 184.901653 
L 205.044468 182.901822 
L 205.578634 184.287653 
L 206.1128 183.761887 
L 206.646965 187.973021 
L 207.181131 188.551513 
L 207.715297 180.282317 
L 208.249462 176.632637 
L 208.783628 174.40281 
L 209.317794 170.616973 
L 209.851959 164.201534 
L 210.386125 162.11666 
L 210.920291 155.027625 
L 211.454457 151.313978 
L 211.988622 150.665555 
L 212.522788 144.727577 
L 213.056954 152.674106 
L 213.591119 154.530636 
L 214.125285 153.546598 
L 214.659451 156.556862 
L 215.193616 157.003266 
L 216.261948 161.213368 
L 216.796114 151.944414 
L 217.330279 149.729134 
L 217.864445 149.83009 
L 218.398611 145.268515 
L 218.932776 145.994973 
L 219.466942 142.891569 
L 220.001108 141.610217 
L 220.535273 135.959178 
L 221.069439 140.737743 
L 221.603605 138.034465 
L 222.13777 137.532632 
L 222.671936 141.409894 
L 223.206102 137.681414 
L 223.740268 140.584022 
L 224.274433 134.954754 
L 224.808599 133.110198 
L 225.342765 130.636452 
L 225.87693 130.276229 
L 226.411096 127.078069 
L 226.945262 133.412826 
L 227.479427 133.072864 
L 228.013593 135.146037 
L 228.547759 134.092834 
L 229.081925 134.17141 
L 229.61609 131.970395 
L 230.150256 134.763472 
L 230.684422 128.357828 
L 231.218587 120.279578 
L 231.752753 120.916193 
L 232.286919 120.884054 
L 232.821084 119.805143 
L 233.35525 115.34029 
L 233.889416 108.660973 
L 234.423582 112.771864 
L 234.957747 114.823929 
L 236.026079 122.189139 
L 236.560244 127.762211 
L 237.09441 126.428174 
L 237.628576 130.336259 
L 238.162741 125.073482 
L 238.696907 121.852545 
L 239.765238 128.791949 
L 240.299404 130.815725 
L 240.83357 125.91071 
L 241.367736 128.754872 
L 241.901901 133.806481 
L 242.436067 133.892853 
L 242.970233 132.527193 
L 243.504398 134.700559 
L 244.038564 129.051259 
L 244.57273 128.139686 
L 245.106895 126.494868 
L 245.641061 129.358462 
L 246.175227 129.411692 
L 246.709393 129.866834 
L 247.243558 137.584705 
L 247.777724 136.515871 
L 248.31189 142.573979 
L 248.846055 142.58942 
L 249.380221 147.533663 
L 249.914387 140.55858 
L 250.448552 139.359502 
L 251.516884 133.089587 
L 252.05105 137.549439 
L 252.585215 145.265407 
L 253.119381 146.306261 
L 253.653547 143.1631 
L 254.187712 142.769379 
L 255.256044 136.711785 
L 255.790209 141.736108 
L 256.324375 140.669774 
L 256.858541 133.849139 
L 257.392706 135.723455 
L 257.926872 142.584693 
L 258.461038 143.293747 
L 258.995204 144.796676 
L 259.529369 143.286093 
L 260.063535 146.247472 
L 260.597701 145.855545 
L 261.131866 153.315617 
L 261.666032 150.332227 
L 262.734363 140.329665 
L 263.268529 145.42119 
L 263.802695 144.249633 
L 264.336861 154.318926 
L 264.871026 153.275711 
L 265.405192 153.411796 
L 265.939358 156.705851 
L 266.473523 155.458667 
L 267.007689 154.908484 
L 267.541855 151.637304 
L 268.07602 151.122266 
L 268.610186 150.240845 
L 269.144352 156.759491 
L 269.678518 160.601135 
L 270.212683 162.126746 
L 270.746849 161.042188 
L 271.281015 160.981487 
L 271.81518 155.820513 
L 272.349346 158.68488 
L 272.883512 159.413383 
L 273.417677 158.468406 
L 273.951843 159.169488 
L 274.486009 157.410267 
L 275.020175 159.258959 
L 275.55434 154.365962 
L 276.088506 155.367402 
L 276.622672 151.497713 
L 277.156837 151.51823 
L 277.691003 146.360273 
L 278.225169 151.035911 
L 278.759334 149.196043 
L 279.2935 150.58468 
L 279.827666 149.715313 
L 280.361831 145.570682 
L 281.964329 157.07883 
L 282.498494 156.134897 
L 283.03266 162.434362 
L 283.566826 162.026314 
L 284.635157 170.048428 
L 285.169323 171.207146 
L 285.703488 169.84695 
L 286.237654 171.869563 
L 286.77182 173.439148 
L 287.305986 173.498105 
L 287.840151 174.331196 
L 288.374317 183.198136 
L 288.908483 184.550769 
L 289.442648 184.186822 
L 289.976814 180.4436 
L 290.51098 173.513842 
L 291.045145 171.194 
L 291.579311 170.846859 
L 292.113477 174.003035 
L 292.647643 173.62307 
L 293.181808 170.927536 
L 293.715974 166.592697 
L 294.25014 169.473656 
L 294.784305 168.597117 
L 295.318471 165.769834 
L 295.852637 159.406712 
L 296.386802 158.460006 
L 296.920968 160.209327 
L 297.455134 162.456854 
L 297.989299 163.581211 
L 298.523465 165.697305 
L 299.057631 162.828253 
L 299.591797 159.13336 
L 300.125962 156.597604 
L 300.660128 152.471847 
L 301.194294 153.929713 
L 301.728459 152.556412 
L 302.262625 153.779737 
L 302.796791 153.549247 
L 303.330956 149.304482 
L 303.865122 149.323093 
L 304.399288 155.573211 
L 304.933454 156.347722 
L 305.467619 158.679049 
L 306.001785 163.694693 
L 306.535951 166.277015 
L 307.070116 162.956488 
L 307.604282 157.192051 
L 308.138448 158.765083 
L 309.206779 151.206175 
L 309.740945 155.060651 
L 310.809276 155.180312 
L 311.343442 154.513468 
L 311.877608 159.828314 
L 312.411773 160.926383 
L 313.480105 152.904403 
L 314.01427 146.593038 
L 314.548436 147.660089 
L 315.082602 141.198837 
L 315.616767 138.837995 
L 316.150933 143.401426 
L 316.685099 140.71642 
L 317.219265 141.837625 
L 317.75343 139.980003 
L 318.287596 140.247687 
L 318.821762 136.027067 
L 319.355927 135.063946 
L 319.890093 135.94963 
L 320.424259 132.554393 
L 320.958424 131.590484 
L 321.49259 132.926101 
L 322.026756 128.449682 
L 322.560922 129.771872 
L 323.629253 133.649745 
L 324.163419 138.59087 
L 324.697584 140.400759 
L 325.23175 133.941584 
L 325.765916 136.973583 
L 326.300081 136.861581 
L 326.834247 140.572127 
L 327.368413 142.578533 
L 327.902579 137.300349 
L 328.436744 134.143302 
L 328.97091 136.153471 
L 329.505076 136.048954 
L 331.641738 147.411633 
L 332.175904 146.218428 
L 333.244235 142.35055 
L 333.778401 142.846386 
L 334.312567 147.395193 
L 334.846733 147.541116 
L 335.380898 150.603518 
L 335.915064 147.522259 
L 336.44923 145.543416 
L 336.983395 142.912039 
L 337.517561 144.018455 
L 338.051727 150.105173 
L 338.585892 146.762057 
L 339.120058 142.49575 
L 339.654224 147.472189 
L 340.18839 146.91975 
L 340.722555 142.766778 
L 341.256721 146.353917 
L 341.790887 140.236008 
L 342.325052 141.346428 
L 342.859218 144.935414 
L 343.393384 140.1675 
L 343.927549 139.076748 
L 344.461715 141.227747 
L 344.995881 138.134674 
L 345.530047 144.73622 
L 346.064212 138.449457 
L 346.598378 141.158915 
L 347.132544 140.098034 
L 347.666709 141.378027 
L 348.200875 139.803347 
L 348.735041 136.679805 
L 349.269206 139.418193 
L 349.803372 136.642082 
L 350.337538 137.566442 
L 350.871704 139.838126 
L 351.405869 140.521439 
L 351.940035 143.870599 
L 352.474201 146.501339 
L 353.008366 143.181055 
L 353.542532 143.613114 
L 354.076698 139.629045 
L 354.610863 138.068078 
L 355.145029 141.495047 
L 355.679195 147.886518 
L 356.21336 150.142414 
L 356.747526 149.16148 
L 357.281692 149.048933 
L 357.815858 151.788651 
L 358.350023 148.261911 
L 358.884189 154.111992 
L 359.418355 158.294444 
L 359.95252 157.78147 
L 360.486686 150.256452 
L 361.020852 148.765838 
L 361.555017 152.100993 
L 362.623349 147.596077 
L 363.157515 144.316404 
L 363.69168 145.631591 
L 364.225846 148.273434 
L 364.760012 147.788333 
L 365.294177 146.290986 
L 365.828343 140.752324 
L 366.362509 133.509128 
L 366.896674 135.941219 
L 367.43084 137.650344 
L 367.965006 137.784985 
L 368.499172 138.557204 
L 369.567503 135.061382 
L 370.101669 134.093129 
L 370.635834 129.389857 
L 371.17 129.85186 
L 371.704166 133.380573 
L 372.238331 138.64817 
L 373.306663 145.562694 
L 373.840828 151.889875 
L 374.374994 149.553044 
L 374.90916 148.840149 
L 375.443326 150.195809 
L 375.977491 153.136656 
L 376.511657 158.412485 
L 377.045823 161.439885 
L 377.579988 155.104155 
L 378.114154 162.501381 
L 378.64832 161.940667 
L 379.182485 159.345606 
L 379.716651 158.803054 
L 380.250817 159.792457 
L 380.784983 157.11134 
L 381.319148 160.761629 
L 381.853314 158.80121 
L 382.38748 153.871755 
L 382.921645 157.319261 
L 383.455811 160.010967 
L 383.989977 159.469278 
L 384.524142 156.037237 
L 385.058308 151.410829 
L 385.592474 149.014 
L 386.12664 151.20812 
L 386.660805 154.908722 
L 387.194971 154.002288 
L 387.729137 152.56819 
L 388.263302 156.218867 
L 388.797468 155.934042 
L 389.331634 154.725483 
L 389.865799 151.095236 
L 390.399965 154.376043 
L 390.934131 152.403394 
L 391.468296 156.287286 
L 392.002462 157.649855 
L 392.536628 157.832697 
L 393.070794 152.604294 
L 393.604959 141.230263 
L 394.139125 140.280375 
L 394.673291 138.502494 
L 395.207456 134.96625 
L 395.741622 139.548406 
L 396.275788 136.843445 
L 396.809953 141.010678 
L 397.878285 130.307138 
L 398.412451 128.497371 
L 398.946616 131.189739 
L 399.480782 125.361237 
L 400.014948 124.381325 
L 400.549113 123.916947 
L 401.083279 121.830816 
L 401.617445 127.656748 
L 402.15161 126.096092 
L 402.685776 122.573729 
L 403.219942 121.317987 
L 403.754108 120.731664 
L 404.288273 123.943674 
L 404.822439 121.636274 
L 405.356605 120.859097 
L 405.89077 120.74381 
L 406.424936 122.607117 
L 406.959102 119.562099 
L 407.493267 115.155274 
L 408.027433 113.723454 
L 408.561599 110.521587 
L 409.62993 100.18174 
L 410.164096 99.306733 
L 410.698262 99.968725 
L 411.232427 101.335874 
L 411.766593 101.202903 
L 412.300759 99.185911 
L 412.834924 95.811856 
L 413.36909 97.223613 
L 413.903256 96.612989 
L 414.437421 100.02005 
L 414.971587 95.504578 
L 415.505753 96.792852 
L 416.039919 95.451968 
L 416.574084 97.889955 
L 417.10825 98.85008 
L 417.642416 101.166595 
L 418.176581 95.106628 
L 418.710747 93.759386 
L 419.244913 94.258819 
L 419.779078 97.498902 
L 420.313244 99.552165 
L 420.84741 97.47459 
L 421.381576 91.53917 
L 421.915741 96.480195 
L 422.449907 99.609051 
L 422.984073 100.139528 
L 423.518238 102.252518 
L 424.052404 107.959181 
L 424.58657 107.807327 
L 425.120735 105.103214 
L 425.654901 110.515015 
L 426.189067 109.696318 
L 427.257398 102.742363 
L 427.791564 104.124546 
L 428.32573 95.971594 
L 428.859895 93.937515 
L 429.394061 96.699242 
L 429.928227 93.158329 
L 430.462392 97.014027 
L 430.996558 93.786551 
L 431.530724 98.129691 
L 432.064889 95.271915 
L 432.599055 97.23404 
L 433.133221 93.174197 
L 433.667387 90.48386 
L 434.201552 88.823617 
L 434.735718 88.531541 
L 435.269884 84.61143 
L 435.804049 90.883045 
L 436.872381 87.732478 
L 437.406546 85.664012 
L 437.940712 82.659745 
L 438.474878 69.435118 
L 439.009044 68.93266 
L 439.543209 65.977457 
L 440.077375 65.346985 
L 440.611541 59.636803 
L 441.145706 66.773038 
L 441.679872 60.61904 
L 442.214038 62.978291 
L 442.748203 70.960617 
L 443.282369 74.707343 
L 443.816535 75.24086 
L 444.350701 74.464931 
L 444.884866 74.541742 
L 445.419032 71.552021 
L 446.487363 71.729341 
L 447.021529 79.252085 
L 447.555695 77.438936 
L 448.08986 73.766957 
L 448.624026 75.174904 
L 449.158192 81.740899 
L 449.692357 86.376502 
L 450.226523 80.37647 
L 451.294855 84.697934 
L 451.82902 87.503751 
L 452.363186 85.015855 
L 452.897352 87.004546 
L 453.431517 89.981268 
L 453.965683 95.191628 
L 454.499849 95.484835 
L 455.034014 91.882919 
L 455.56818 92.317798 
L 456.102346 89.127645 
L 457.704843 87.100963 
L 458.239009 86.893923 
L 458.773174 83.185108 
L 459.30734 81.374186 
L 459.841506 83.332584 
L 460.375671 82.7922 
L 460.909837 82.974955 
L 461.444003 81.174153 
L 461.978169 80.450122 
L 462.512334 78.896023 
L 463.0465 84.036605 
L 463.580666 82.609354 
L 464.114831 77.872974 
L 464.648997 82.567112 
L 465.183163 76.811763 
L 465.717328 75.671586 
L 466.251494 76.322717 
L 466.78566 82.627825 
L 467.319825 78.692519 
L 467.853991 82.038802 
L 468.388157 83.760039 
L 468.922323 81.744377 
L 470.52482 92.643833 
L 471.058985 92.949983 
L 471.593151 90.794786 
L 472.661482 87.769484 
L 473.195648 88.896879 
L 473.729814 88.316439 
L 474.26398 90.66112 
L 474.798145 83.530731 
L 475.332311 82.756722 
L 475.866477 89.569028 
L 476.400642 93.245374 
L 476.934808 87.523485 
L 477.468974 92.249356 
L 478.003139 93.702461 
L 478.537305 92.19851 
L 479.071471 95.965213 
L 479.605637 92.133419 
L 480.139802 86.133486 
L 480.673968 88.955651 
L 481.208134 84.887203 
L 482.276465 91.37444 
L 483.344796 89.501377 
L 483.878962 91.513832 
L 484.413128 88.463865 
L 484.947294 93.54808 
L 485.481459 96.466872 
L 486.015625 100.158785 
L 487.618122 92.082312 
L 488.152288 96.547337 
L 488.686453 95.99644 
L 489.220619 94.304712 
L 489.754785 99.88958 
L 490.28895 102.679093 
L 491.357282 97.785598 
L 491.891448 96.805641 
L 492.425613 94.818306 
L 492.959779 93.594761 
L 493.493945 92.982658 
L 494.02811 93.281358 
L 494.562276 96.255904 
L 495.096442 97.032038 
L 495.630607 98.359325 
L 496.164773 90.1336 
L 496.698939 89.131731 
L 497.233105 89.083932 
L 497.76727 89.815456 
L 498.301436 90.135635 
L 498.835602 91.008493 
L 499.369767 89.005326 
L 499.903933 89.023574 
L 500.438099 86.078481 
L 500.972264 88.444237 
L 501.50643 87.124075 
L 502.040596 83.942385 
L 502.574762 87.929944 
L 503.108927 87.252921 
L 503.643093 86.29589 
L 504.177259 87.390967 
L 504.711424 89.022349 
L 505.24559 95.4593 
L 505.779756 91.337184 
L 506.313921 94.530972 
L 506.848087 98.796312 
L 507.382253 96.404934 
L 507.916418 102.73579 
L 508.450584 99.28071 
L 508.98475 97.674297 
L 509.518916 95.491365 
L 510.053081 95.981731 
L 510.587247 100.162956 
L 511.121413 106.677254 
L 511.655578 101.504562 
L 512.72391 104.789631 
L 513.258075 99.172371 
L 513.792241 101.297495 
L 514.860573 102.788554 
L 515.394738 103.18414 
L 515.928904 106.727912 
L 516.46307 108.595898 
L 516.997235 104.027372 
L 517.531401 101.282235 
L 518.065567 111.581316 
L 518.599732 118.294817 
L 519.133898 117.054561 
L 519.668064 117.361984 
L 520.20223 118.575559 
L 520.736395 114.875987 
L 521.270561 120.974106 
L 521.804727 116.735898 
L 522.338892 116.195426 
L 522.873058 114.208085 
L 523.407224 113.24379 
L 523.941389 110.217178 
L 524.475555 111.003774 
L 525.009721 112.804783 
L 525.543886 110.002168 
L 526.078052 109.30809 
L 526.612218 113.585878 
L 528.214715 99.374755 
L 528.748881 99.010647 
L 529.283046 97.697358 
L 529.817212 98.949279 
L 530.351378 102.268768 
L 530.885543 101.955005 
L 531.419709 101.2528 
L 531.953875 103.484964 
L 532.488041 96.995696 
L 533.022206 102.568283 
L 534.090538 107.588338 
L 534.624703 102.997193 
L 535.158869 103.808915 
L 535.693035 104.858878 
L 536.761366 110.440601 
L 537.295532 114.890312 
L 537.829698 111.277482 
L 538.363863 109.073877 
L 538.898029 105.537938 
L 539.432195 107.763233 
L 539.96636 98.901731 
L 540.500526 102.250968 
L 541.034692 109.332301 
L 541.568857 110.264699 
L 542.103023 109.702963 
L 542.637189 106.98332 
L 543.171354 110.442792 
L 543.70552 108.300968 
L 544.239686 102.255628 
L 545.308017 107.643897 
L 545.842183 113.484694 
L 546.376349 112.563195 
L 547.978846 103.744999 
L 548.513011 98.706076 
L 549.047177 98.17452 
L 549.581343 94.747288 
L 550.649674 100.685194 
L 551.18384 99.757166 
L 551.718006 102.534056 
L 552.252171 100.449526 
L 552.786337 95.545331 
L 553.320503 94.043271 
L 554.388834 99.084981 
L 554.923 94.210979 
L 555.457166 96.926931 
L 555.991331 96.52857 
L 556.525497 97.351376 
L 557.059663 97.08039 
L 557.593828 93.146429 
L 558.127994 94.953764 
L 558.66216 99.81344 
L 559.196325 94.63821 
L 559.730491 93.769693 
L 560.264657 91.132863 
L 560.798823 91.115669 
L 561.332988 88.291984 
L 562.40132 78.823422 
L 562.935485 79.706094 
L 563.469651 80.866859 
L 564.003817 79.382938 
L 564.537982 78.563014 
L 565.072148 76.470852 
L 565.606314 78.905337 
L 566.140479 87.036812 
L 566.674645 85.363391 
L 567.742977 80.156808 
L 568.277142 74.185775 
L 568.811308 71.069447 
L 569.345474 72.364537 
L 569.879639 68.770474 
L 570.413805 68.986638 
L 570.947971 64.422107 
L 571.482136 63.485131 
L 572.016302 61.776872 
L 572.550468 60.875244 
L 573.084634 60.593308 
L 573.618799 65.85571 
L 574.152965 65.563011 
L 574.687131 73.570421 
L 575.221296 71.71425 
L 575.755462 68.095728 
L 576.289628 60.682676 
L 576.823793 59.256309 
L 577.357959 61.7343 
L 577.892125 67.325035 
L 578.426291 60.278764 
L 578.960456 65.29112 
L 579.494622 62.00434 
L 580.028788 70.147781 
L 580.562953 70.244709 
L 581.097119 67.724115 
L 581.631285 66.47762 
L 582.16545 66.539254 
L 583.233782 72.532927 
L 583.767947 68.856534 
L 584.302113 67.216823 
L 584.836279 67.702923 
L 585.370445 66.878822 
L 585.90461 70.094866 
L 586.438776 66.364686 
L 586.972942 61.773085 
L 587.507107 64.473895 
L 588.041273 64.022776 
L 588.575439 60.186943 
L 589.109604 62.396661 
L 589.64377 55.019246 
L 590.177936 49.499486 
L 590.712102 50.416288 
L 591.246267 46.801858 
L 591.780433 40.70835 
L 592.314599 45.11787 
L 592.848764 42.793077 
L 593.38293 43.227148 
L 593.917096 43.921933 
L 594.451261 41.266078 
L 594.985427 42.90369 
L 596.053759 52.901441 
L 596.587924 52.885157 
L 597.12209 50.535533 
L 597.656256 50.534136 
L 598.190421 50.99602 
L 598.724587 51.019526 
L 599.258753 46.286183 
L 599.792918 44.283575 
L 600.327084 46.888381 
L 600.86125 47.842233 
L 601.395415 43.40638 
L 601.929581 45.414722 
L 602.463747 46.751581 
L 602.997913 46.754465 
L 603.532078 50.504376 
L 604.066244 47.165686 
L 604.60041 54.957357 
L 605.134575 49.650827 
L 605.668741 51.130013 
L 606.202907 55.558977 
L 606.737072 54.45833 
L 607.271238 60.507319 
L 607.805404 58.495781 
L 608.33957 55.634094 
L 608.873735 57.613099 
L 609.407901 58.919998 
L 609.942067 55.430441 
L 610.476232 57.749704 
L 611.010398 57.582026 
L 611.544564 56.248134 
L 612.078729 50.55459 
L 612.612895 52.277289 
L 613.147061 52.065298 
L 613.681227 47.901866 
L 614.215392 57.008061 
L 614.749558 57.885482 
L 615.817889 71.104927 
L 616.352055 64.040725 
L 616.886221 63.199014 
L 617.420386 57.801713 
L 617.954552 58.580032 
L 618.488718 56.555198 
L 619.022883 58.016195 
L 619.557049 59.888877 
L 620.091215 60.069253 
L 620.625381 59.522785 
L 621.159546 53.93553 
L 621.693712 54.555414 
L 622.227878 53.10345 
L 622.762043 53.939546 
L 623.296209 53.331778 
L 623.830375 57.951046 
L 624.36454 53.947062 
L 624.898706 55.730407 
L 625.432872 55.494225 
L 625.967038 56.175732 
L 626.501203 52.551741 
L 627.035369 50.587725 
L 627.569535 50.453609 
L 628.1037 49.736151 
L 628.637866 48.411475 
L 629.172032 45.595332 
L 629.706197 43.67685 
L 630.240363 38.939067 
L 630.774529 32.978101 
L 631.308695 30.655176 
L 631.84286 35.374233 
L 632.377026 28.930152 
L 632.911192 20.992727 
L 633.979523 23.660073 
L 634.513689 31.078259 
L 635.047854 28.152306 
L 635.58202 31.733393 
L 636.116186 24.978395 
L 636.650352 33.911834 
L 637.184517 33.560639 
L 637.718683 31.019908 
L 638.252849 32.394885 
L 638.787014 35.196729 
L 639.32118 34.203573 
L 639.855346 36.030881 
L 640.389511 37.188049 
L 640.923677 37.24286 
L 641.457843 39.174787 
L 641.992008 39.912672 
L 642.526174 36.973327 
L 643.06034 38.30303 
L 643.594506 37.613597 
L 644.128671 40.263743 
L 644.662837 36.866524 
L 645.197003 41.440682 
L 645.731168 37.889181 
L 646.265334 48.741431 
L 646.7995 51.934335 
L 647.333665 57.556555 
L 647.867831 53.83078 
L 648.401997 52.778469 
L 648.936163 57.402651 
L 649.470328 59.375484 
L 650.004494 54.493768 
L 650.53866 54.648804 
L 651.072825 52.582058 
L 652.141157 63.30689 
L 652.675322 61.23416 
L 653.209488 52.939216 
L 653.743654 54.860289 
L 654.27782 52.723644 
L 654.811985 56.109022 
L 655.346151 51.609238 
L 656.414482 54.810698 
L 656.948648 61.59943 
L 657.482814 63.094841 
L 658.016979 62.443503 
L 658.551145 57.525827 
L 659.085311 61.752573 
L 659.619476 58.262581 
L 660.687808 60.579728 
L 661.221974 64.004936 
L 661.756139 70.113407 
L 662.290305 74.475381 
L 662.824471 68.744239 
L 663.358636 73.04223 
L 663.358636 73.04223 
" style="fill:none;stroke:#003559;stroke-linecap:square;stroke-width:2;"/>
   </g>
   <g id="line2d_23">
    <path clip-path="url(#p754b87a8dd)" d="M 78.981364 198.277895 
L 79.515529 190.708598 
L 80.049695 204.44817 
L 80.583861 201.302462 
L 81.118026 204.469798 
L 81.652192 203.047097 
L 82.186358 197.144239 
L 82.720524 197.964997 
L 83.254689 199.081424 
L 84.323021 189.676887 
L 84.857186 194.264362 
L 85.391352 195.322419 
L 85.925518 204.011738 
L 86.459683 195.298054 
L 86.993849 203.109624 
L 87.528015 201.694966 
L 88.06218 189.951459 
L 88.596346 184.395124 
L 89.130512 186.126519 
L 90.198843 194.690245 
L 90.733009 188.358521 
L 91.267175 185.844218 
L 91.80134 185.6103 
L 92.335506 167.882049 
L 92.869672 173.192596 
L 93.403837 176.16989 
L 93.938003 178.369306 
L 94.472169 176.598213 
L 95.006335 174.201972 
L 95.5405 175.701768 
L 96.074666 170.428528 
L 96.608832 166.468301 
L 97.142997 168.181214 
L 97.677163 184.3036 
L 98.211329 178.734948 
L 98.745494 184.815661 
L 99.27966 188.929506 
L 99.813826 189.68347 
L 100.347992 197.70655 
L 100.882157 202.891629 
L 101.416323 202.352 
L 101.950489 204.5687 
L 102.484654 202.459795 
L 103.01882 208.114085 
L 103.552986 209.66741 
L 104.087151 216.657675 
L 104.621317 218.572517 
L 105.155483 216.751492 
L 105.689648 218.412957 
L 106.223814 227.794793 
L 106.75798 229.083181 
L 107.292146 228.177892 
L 107.826311 220.863896 
L 108.360477 221.174979 
L 108.894643 223.888121 
L 109.428808 231.519682 
L 109.962974 218.606523 
L 111.031305 232.159248 
L 111.565471 233.15579 
L 112.099637 244.920778 
L 112.633803 238.026073 
L 113.167968 236.856472 
L 113.702134 233.699091 
L 114.2363 240.013532 
L 114.770465 243.273976 
L 115.838797 231.863468 
L 116.372962 213.362306 
L 116.907128 206.100046 
L 117.441294 218.434525 
L 117.97546 217.786217 
L 118.509625 220.067509 
L 119.043791 212.8185 
L 119.577957 213.297863 
L 120.112122 209.973593 
L 120.646288 211.940375 
L 121.180454 207.807531 
L 121.714619 198.030471 
L 122.248785 201.9259 
L 122.782951 215.151742 
L 123.317117 221.743982 
L 123.851282 211.373533 
L 124.385448 209.751272 
L 124.919614 211.518385 
L 125.453779 217.649079 
L 125.987945 210.604048 
L 126.522111 208.53505 
L 127.056276 209.093915 
L 127.590442 212.462158 
L 128.124608 213.296686 
L 128.658773 215.205267 
L 129.192939 211.271298 
L 129.727105 202.710992 
L 130.261271 215.383301 
L 130.795436 224.665357 
L 131.329602 225.111185 
L 131.863768 224.404784 
L 132.397933 234.279979 
L 132.932099 238.108386 
L 134.00043 243.196605 
L 134.534596 246.001311 
L 135.068762 246.379354 
L 136.137093 235.570792 
L 136.671259 231.560528 
L 137.205425 229.599709 
L 137.73959 234.060469 
L 138.273756 237.007813 
L 138.807922 232.353333 
L 139.342087 231.434531 
L 139.876253 226.070127 
L 140.410419 224.164596 
L 140.944585 223.586197 
L 141.47875 220.529795 
L 142.012916 230.356204 
L 142.547082 231.206647 
L 143.081247 234.8301 
L 143.615413 229.176952 
L 144.149579 233.346804 
L 144.683744 231.664929 
L 145.21791 234.280194 
L 145.752076 231.049802 
L 146.286241 226.239915 
L 146.820407 227.455976 
L 147.354573 226.642112 
L 147.888739 225.370466 
L 148.422904 220.205932 
L 148.95707 222.225276 
L 149.491236 221.85871 
L 150.025401 224.536695 
L 150.559567 230.682208 
L 151.093733 229.463857 
L 151.627898 226.626827 
L 152.162064 231.811164 
L 152.69623 221.51854 
L 153.230396 226.330168 
L 153.764561 221.422449 
L 154.298727 218.928945 
L 154.832893 229.976979 
L 155.367058 230.106483 
L 155.901224 240.243451 
L 156.43539 240.900896 
L 156.969555 236.515193 
L 157.503721 224.514056 
L 158.037887 219.373503 
L 158.572053 229.282474 
L 159.106218 231.537782 
L 159.640384 221.756963 
L 160.17455 220.55718 
L 160.708715 208.969509 
L 161.242881 213.710462 
L 161.777047 217.344707 
L 162.311212 226.13642 
L 162.845378 228.62101 
L 163.379544 220.431013 
L 163.913709 226.474269 
L 164.447875 221.030997 
L 164.982041 218.029664 
L 165.516207 212.862735 
L 166.050372 214.556389 
L 166.584538 214.400971 
L 167.118704 200.335932 
L 167.652869 208.56004 
L 168.187035 203.554218 
L 168.721201 193.490733 
L 169.255366 190.429387 
L 169.789532 179.386631 
L 170.323698 199.119901 
L 170.857864 201.149582 
L 171.392029 208.881502 
L 171.926195 211.65633 
L 172.460361 212.408935 
L 172.994526 209.2957 
L 173.528692 214.964586 
L 174.062858 209.294447 
L 174.597023 219.67944 
L 175.131189 213.465001 
L 175.665355 215.201407 
L 177.267852 250.180297 
L 177.802018 256.697403 
L 178.336183 256.118969 
L 178.870349 247.848287 
L 179.404515 242.98255 
L 179.93868 251.736167 
L 180.472846 266.605475 
L 181.007012 268.740537 
L 181.541177 277.982664 
L 182.075343 279.342771 
L 182.609509 283.918228 
L 183.143675 267.987382 
L 183.67784 279.151087 
L 184.212006 277.466308 
L 184.746172 266.037095 
L 185.280337 268.957418 
L 185.814503 274.232621 
L 186.348669 263.928944 
L 187.417 288.819434 
L 187.951166 296.847273 
L 188.485332 294.727406 
L 189.019497 290.261464 
L 189.553663 291.420657 
L 190.087829 278.071044 
L 190.621994 279.714449 
L 191.15616 280.066695 
L 191.690326 282.322945 
L 192.224491 274.871032 
L 192.758657 275.082203 
L 193.292823 277.836562 
L 193.826989 267.386574 
L 194.361154 259.363004 
L 194.89532 253.100262 
L 195.963651 268.368399 
L 197.031983 271.785795 
L 197.566148 274.601901 
L 198.100314 276.086034 
L 198.63448 272.023033 
L 199.168646 278.476862 
L 199.702811 276.936662 
L 201.305308 284.244864 
L 201.839474 279.532002 
L 202.37364 277.696348 
L 202.907805 282.57393 
L 203.441971 280.377116 
L 203.976137 279.386173 
L 204.510302 276.604418 
L 205.044468 278.083183 
L 205.578634 271.53908 
L 206.1128 268.862872 
L 207.181131 283.672347 
L 207.715297 292.220686 
L 208.249462 289.399432 
L 208.783628 293.403066 
L 209.317794 295.245806 
L 209.851959 295.3238 
L 210.386125 287.247788 
L 210.920291 273.058928 
L 211.454457 273.357106 
L 211.988622 260.239696 
L 212.522788 256.28095 
L 213.056954 248.079468 
L 213.591119 249.410879 
L 214.125285 256.906876 
L 214.659451 253.32801 
L 215.193616 244.533004 
L 215.727782 254.095104 
L 216.261948 253.999139 
L 216.796114 252.106748 
L 217.330279 247.778037 
L 217.864445 254.26992 
L 218.398611 257.360044 
L 218.932776 250.909271 
L 219.466942 238.763127 
L 220.001108 237.600183 
L 220.535273 230.742122 
L 221.069439 229.12837 
L 221.603605 225.80634 
L 222.13777 227.823532 
L 222.671936 228.808849 
L 223.206102 232.044193 
L 223.740268 230.894239 
L 224.274433 223.193117 
L 224.808599 221.443177 
L 225.342765 216.639617 
L 225.87693 220.330571 
L 226.411096 215.123299 
L 226.945262 235.227236 
L 227.479427 243.949887 
L 228.013593 245.632434 
L 228.547759 256.859452 
L 229.081925 252.753555 
L 229.61609 250.945592 
L 230.150256 256.348863 
L 230.684422 255.270012 
L 231.218587 264.466145 
L 231.752753 269.765812 
L 232.286919 271.748159 
L 232.821084 281.450681 
L 233.35525 274.378026 
L 233.889416 278.081833 
L 234.423582 271.139147 
L 234.957747 271.600313 
L 235.491913 269.153226 
L 236.026079 274.465414 
L 236.560244 275.935371 
L 237.09441 278.1264 
L 237.628576 276.166281 
L 238.162741 266.968379 
L 238.696907 270.058745 
L 239.231073 270.611381 
L 239.765238 267.840537 
L 240.299404 261.874868 
L 240.83357 262.090923 
L 241.367736 264.038055 
L 241.901901 267.256428 
L 242.436067 266.710903 
L 242.970233 264.672258 
L 243.504398 268.520359 
L 244.038564 269.966204 
L 244.57273 264.642075 
L 245.106895 264.296926 
L 245.641061 267.433554 
L 247.777724 248.149722 
L 248.31189 250.172287 
L 248.846055 248.343376 
L 249.380221 245.801531 
L 249.914387 244.495879 
L 250.448552 255.235322 
L 250.982718 254.835958 
L 251.516884 252.06832 
L 252.05105 248.37649 
L 252.585215 249.765915 
L 253.119381 249.036042 
L 254.187712 269.040183 
L 254.721878 287.212605 
L 255.256044 288.136017 
L 256.324375 265.847141 
L 256.858541 272.470708 
L 257.392706 267.835275 
L 257.926872 259.31565 
L 258.461038 260.731126 
L 258.995204 272.67616 
L 259.529369 263.140214 
L 260.597701 266.85896 
L 261.131866 255.443056 
L 261.666032 251.90471 
L 262.200198 245.95062 
L 262.734363 235.069446 
L 263.268529 235.466146 
L 263.802695 241.191824 
L 264.336861 235.512909 
L 264.871026 234.891014 
L 265.405192 229.432867 
L 265.939358 226.158488 
L 266.473523 230.417622 
L 267.007689 229.531326 
L 267.541855 230.982006 
L 268.07602 231.769992 
L 268.610186 231.288731 
L 269.144352 228.255529 
L 269.678518 226.135031 
L 270.212683 233.62795 
L 270.746849 228.746886 
L 271.281015 237.253866 
L 271.81518 222.070071 
L 272.349346 226.237344 
L 272.883512 225.818561 
L 273.417677 216.265886 
L 273.951843 216.750677 
L 275.020175 232.688618 
L 275.55434 230.042103 
L 276.088506 226.546383 
L 276.622672 220.321916 
L 277.156837 217.719227 
L 277.691003 220.038967 
L 278.225169 216.124066 
L 278.759334 205.83627 
L 279.2935 210.272258 
L 279.827666 185.774251 
L 280.361831 187.715042 
L 280.895997 178.506246 
L 281.430163 164.968553 
L 281.964329 157.939273 
L 282.498494 155.026651 
L 283.03266 149.248812 
L 283.566826 139.261047 
L 284.100991 156.414152 
L 284.635157 152.442392 
L 285.169323 154.353958 
L 285.703488 158.225922 
L 286.237654 156.600265 
L 286.77182 154.563304 
L 287.305986 150.388936 
L 287.840151 153.570952 
L 288.374317 145.097321 
L 288.908483 158.562351 
L 289.442648 164.377687 
L 289.976814 171.873499 
L 290.51098 170.487973 
L 291.045145 173.194615 
L 291.579311 168.992399 
L 292.113477 173.655264 
L 292.647643 164.379956 
L 293.181808 158.759862 
L 293.715974 161.654693 
L 294.25014 172.499148 
L 294.784305 179.923809 
L 295.318471 189.721194 
L 295.852637 180.904285 
L 296.386802 175.292919 
L 296.920968 183.248066 
L 297.455134 170.063425 
L 297.989299 171.507554 
L 298.523465 186.064098 
L 299.591797 168.943152 
L 300.125962 168.34824 
L 300.660128 173.836273 
L 301.194294 164.967555 
L 301.728459 167.823363 
L 302.262625 167.390581 
L 302.796791 163.664279 
L 303.330956 161.042379 
L 303.865122 163.595963 
L 304.399288 170.073664 
L 304.933454 164.440869 
L 305.467619 178.756336 
L 306.535951 173.619483 
L 307.070116 169.521264 
L 307.604282 171.439706 
L 308.138448 169.396496 
L 308.672613 163.477893 
L 309.206779 169.957523 
L 309.740945 169.029602 
L 310.275111 165.897675 
L 310.809276 173.813753 
L 311.343442 179.598873 
L 311.877608 168.413564 
L 312.411773 160.833104 
L 312.945939 165.29056 
L 313.480105 159.835361 
L 314.01427 156.489161 
L 315.082602 137.948536 
L 315.616767 153.950991 
L 316.150933 155.403129 
L 317.219265 133.639885 
L 317.75343 137.288789 
L 318.287596 145.138555 
L 318.821762 142.798202 
L 319.355927 146.600748 
L 319.890093 146.125719 
L 320.424259 153.511296 
L 320.958424 147.712001 
L 322.026756 139.49347 
L 322.560922 146.420396 
L 323.095087 157.322942 
L 323.629253 165.392767 
L 324.163419 161.463086 
L 324.697584 173.017482 
L 325.23175 168.019208 
L 325.765916 155.452206 
L 326.300081 159.136848 
L 326.834247 159.822054 
L 327.902579 145.750898 
L 328.436744 149.379208 
L 328.97091 149.985056 
L 329.505076 148.564883 
L 330.039241 149.780752 
L 330.573407 145.239534 
L 331.107573 142.380811 
L 331.641738 132.811319 
L 332.175904 143.903266 
L 332.71007 135.178755 
L 333.244235 128.939841 
L 333.778401 129.233649 
L 334.312567 125.733463 
L 334.846733 118.347947 
L 335.380898 115.627049 
L 335.915064 116.713482 
L 336.44923 114.119297 
L 336.983395 118.316921 
L 337.517561 126.748941 
L 338.585892 136.809827 
L 339.120058 134.873728 
L 339.654224 128.777697 
L 340.18839 126.4497 
L 340.722555 115.72645 
L 341.256721 115.689779 
L 342.325052 123.86522 
L 342.859218 129.420691 
L 343.393384 130.857269 
L 343.927549 120.703204 
L 344.461715 130.187377 
L 344.995881 125.702611 
L 345.530047 125.099045 
L 346.064212 118.591306 
L 346.598378 121.107761 
L 347.132544 115.32444 
L 347.666709 118.004472 
L 348.200875 112.835057 
L 348.735041 125.583946 
L 349.269206 121.368564 
L 349.803372 115.384436 
L 350.337538 125.570254 
L 350.871704 118.848761 
L 351.405869 125.831849 
L 351.940035 118.115851 
L 352.474201 117.245124 
L 353.008366 111.559427 
L 353.542532 108.030551 
L 354.076698 115.417763 
L 355.145029 94.171323 
L 355.679195 100.339433 
L 356.747526 91.098804 
L 357.281692 94.834325 
L 357.815858 101.088366 
L 358.350023 91.037031 
L 358.884189 92.769201 
L 359.418355 85.303423 
L 359.95252 70.715138 
L 360.486686 66.143861 
L 361.020852 71.343319 
L 361.555017 63.200057 
L 362.089183 71.871127 
L 362.623349 77.194467 
L 363.157515 55.155397 
L 363.69168 59.718386 
L 364.225846 56.062609 
L 364.760012 62.502542 
L 365.294177 62.23003 
L 365.828343 59.647238 
L 366.362509 77.391382 
L 366.896674 80.914474 
L 367.43084 75.095685 
L 367.965006 67.798232 
L 368.499172 64.268214 
L 369.033337 69.910023 
L 369.567503 65.984926 
L 370.101669 68.394085 
L 370.635834 72.798999 
L 371.17 71.718231 
L 371.704166 54.34586 
L 372.238331 59.733603 
L 372.772497 51.180162 
L 373.306663 48.268356 
L 373.840828 57.867911 
L 374.374994 63.332648 
L 374.90916 63.488756 
L 375.443326 65.811245 
L 375.977491 62.889624 
L 377.045823 75.10328 
L 377.579988 66.911599 
L 378.114154 66.103244 
L 378.64832 71.135725 
L 379.182485 70.108528 
L 379.716651 55.953281 
L 380.250817 59.097202 
L 380.784983 68.717996 
L 381.319148 61.016556 
L 381.853314 45.87763 
L 382.38748 35.742244 
L 382.921645 44.26083 
L 383.455811 58.113525 
L 383.989977 48.071792 
L 384.524142 48.413886 
L 385.058308 43.829979 
L 385.592474 44.251556 
L 386.12664 31.153681 
L 386.660805 29.718611 
L 387.194971 31.130383 
L 387.729137 29.22425 
L 388.263302 37.085867 
L 388.797468 35.049498 
L 389.331634 34.868585 
L 389.865799 49.368915 
L 390.934131 65.024548 
L 391.468296 75.469228 
L 392.002462 72.2085 
L 392.536628 63.453994 
L 393.070794 60.448973 
L 393.604959 70.360321 
L 394.139125 82.346485 
L 394.673291 76.164309 
L 395.207456 77.726702 
L 395.741622 77.824401 
L 396.275788 86.405202 
L 396.809953 100.088729 
L 397.344119 83.939223 
L 397.878285 87.670301 
L 398.412451 88.490572 
L 398.946616 96.016981 
L 399.480782 84.734596 
L 400.014948 86.735765 
L 400.549113 87.383176 
L 401.083279 86.595059 
L 401.617445 86.22563 
L 402.15161 75.742227 
L 402.685776 88.180632 
L 403.219942 83.317474 
L 403.754108 87.284488 
L 404.288273 89.756611 
L 404.822439 93.705188 
L 405.356605 90.322399 
L 405.89077 98.956609 
L 406.424936 102.365137 
L 406.959102 98.078078 
L 408.027433 104.72011 
L 408.561599 101.749169 
L 409.095765 100.792839 
L 409.62993 102.803356 
L 410.164096 102.099147 
L 410.698262 107.958767 
L 411.232427 101.663754 
L 411.766593 108.979524 
L 412.300759 119.823179 
L 412.834924 116.586177 
L 413.36909 125.404919 
L 413.903256 131.723 
L 414.437421 132.954036 
L 414.971587 127.847213 
L 416.574084 136.451494 
L 417.10825 133.673429 
L 417.642416 136.986214 
L 418.176581 135.171114 
L 418.710747 125.667926 
L 419.244913 127.064257 
L 419.779078 129.481666 
L 421.381576 149.157472 
L 421.915741 156.508944 
L 422.449907 160.337197 
L 422.984073 157.974649 
L 423.518238 154.605431 
L 424.052404 157.442422 
L 424.58657 155.194782 
L 425.120735 163.897177 
L 426.189067 132.87773 
L 426.723233 133.619023 
L 427.257398 130.080308 
L 427.791564 129.328289 
L 428.32573 123.894547 
L 428.859895 128.168467 
L 429.394061 138.512595 
L 429.928227 132.905637 
L 430.462392 140.296815 
L 430.996558 137.818358 
L 432.064889 149.20426 
L 432.599055 142.430711 
L 433.133221 131.317369 
L 433.667387 132.296422 
L 434.201552 135.107296 
L 434.735718 132.975155 
L 435.269884 136.634995 
L 435.804049 148.361873 
L 436.338215 148.420568 
L 436.872381 163.483906 
L 437.406546 160.51102 
L 437.940712 163.831513 
L 438.474878 162.47439 
L 439.009044 172.287806 
L 439.543209 177.232744 
L 440.077375 173.364363 
L 440.611541 164.136116 
L 441.145706 158.410491 
L 441.679872 155.737691 
L 442.214038 163.183818 
L 442.748203 159.265901 
L 443.282369 158.304634 
L 443.816535 160.377787 
L 444.350701 151.500696 
L 444.884866 156.645035 
L 445.419032 144.639111 
L 446.487363 153.501019 
L 447.021529 154.103303 
L 447.555695 162.959539 
L 448.08986 166.057887 
L 448.624026 165.467 
L 449.158192 176.789291 
L 449.692357 182.272605 
L 450.226523 191.46162 
L 450.760689 194.319413 
L 451.294855 186.713065 
L 451.82902 189.550557 
L 452.363186 190.751715 
L 452.897352 189.214167 
L 453.431517 196.524907 
L 453.965683 194.980737 
L 454.499849 198.371249 
L 455.034014 202.591942 
L 455.56818 213.780501 
L 456.102346 217.86903 
L 457.170677 203.09574 
L 457.704843 204.998555 
L 458.239009 204.495104 
L 458.773174 207.222814 
L 459.30734 214.38221 
L 459.841506 226.054635 
L 460.375671 214.892854 
L 460.909837 221.262501 
L 461.444003 219.811926 
L 461.978169 209.583706 
L 462.512334 211.985185 
L 463.0465 212.938899 
L 463.580666 211.054691 
L 464.114831 213.225503 
L 464.648997 211.401772 
L 465.183163 213.405182 
L 465.717328 205.762542 
L 466.251494 202.310455 
L 467.319825 218.257078 
L 468.922323 230.290643 
L 469.456488 223.946959 
L 469.990654 228.281127 
L 470.52482 230.879937 
L 471.058985 229.594398 
L 471.593151 242.036369 
L 472.127317 238.880752 
L 472.661482 234.749485 
L 473.195648 225.290962 
L 473.729814 231.236235 
L 474.26398 233.812203 
L 474.798145 232.015895 
L 475.332311 233.999429 
L 475.866477 242.922357 
L 476.400642 236.637544 
L 476.934808 237.996947 
L 477.468974 235.274383 
L 478.003139 241.703711 
L 478.537305 235.052663 
L 479.071471 236.808698 
L 479.605637 240.936255 
L 480.139802 235.35774 
L 480.673968 227.701413 
L 481.208134 233.232122 
L 481.742299 226.278456 
L 482.276465 215.217021 
L 482.810631 212.978124 
L 483.344796 221.643853 
L 483.878962 217.406642 
L 484.413128 209.901168 
L 484.947294 216.025678 
L 485.481459 204.525404 
L 486.015625 205.256384 
L 486.549791 205.479432 
L 487.083956 197.694926 
L 487.618122 195.742079 
L 488.152288 186.887754 
L 488.686453 186.38321 
L 489.220619 183.210645 
L 489.754785 182.46981 
L 490.28895 180.289203 
L 491.357282 171.96995 
L 491.891448 173.402579 
L 492.425613 166.515445 
L 492.959779 166.504163 
L 493.493945 157.793684 
L 494.02811 153.009785 
L 494.562276 153.008743 
L 495.096442 157.363996 
L 495.630607 156.477501 
L 496.164773 146.453312 
L 496.698939 144.541113 
L 497.233105 137.28434 
L 497.76727 137.254784 
L 498.301436 138.789092 
L 498.835602 142.935946 
L 499.369767 155.533022 
L 499.903933 152.81273 
L 500.438099 151.96851 
L 500.972264 151.722625 
L 501.50643 145.830306 
L 502.040596 151.945796 
L 502.574762 139.807664 
L 503.108927 149.210539 
L 503.643093 146.933408 
L 504.177259 154.455107 
L 504.711424 155.743286 
L 505.24559 147.330926 
L 505.779756 156.90386 
L 506.313921 155.144628 
L 506.848087 153.866051 
L 507.382253 152.114743 
L 507.916418 149.851093 
L 508.450584 143.855128 
L 509.518916 136.837359 
L 510.053081 130.179953 
L 510.587247 125.082324 
L 511.121413 125.436573 
L 511.655578 133.359087 
L 512.189744 127.372234 
L 512.72391 129.221895 
L 513.258075 117.345559 
L 513.792241 120.703368 
L 514.326407 128.506879 
L 514.860573 120.179649 
L 515.394738 124.815941 
L 515.928904 134.609032 
L 516.46307 126.011188 
L 516.997235 135.509167 
L 517.531401 125.965537 
L 518.065567 132.041486 
L 518.599732 128.75084 
L 519.133898 126.729881 
L 519.668064 138.713928 
L 520.20223 138.342401 
L 520.736395 140.742648 
L 521.270561 139.409033 
L 521.804727 135.297353 
L 522.338892 123.968101 
L 522.873058 125.135549 
L 523.407224 125.351965 
L 523.941389 109.957661 
L 525.009721 98.629333 
L 526.078052 118.071611 
L 526.612218 121.428873 
L 527.146384 122.258583 
L 527.680549 118.406354 
L 528.214715 98.883662 
L 528.748881 107.164841 
L 529.283046 109.55655 
L 529.817212 104.711068 
L 530.351378 102.354533 
L 530.885543 94.02887 
L 531.419709 95.590371 
L 531.953875 101.420061 
L 532.488041 86.279337 
L 533.022206 82.712947 
L 533.556372 90.698783 
L 534.090538 92.681011 
L 534.624703 92.677883 
L 535.158869 102.708793 
L 535.693035 96.877375 
L 536.2272 95.416389 
L 536.761366 97.594147 
L 537.295532 101.789138 
L 537.829698 89.871139 
L 538.363863 90.07432 
L 538.898029 95.184923 
L 539.432195 109.17144 
L 539.96636 116.25481 
L 540.500526 111.138861 
L 541.034692 100.436901 
L 541.568857 108.2758 
L 542.103023 122.192837 
L 542.637189 121.691271 
L 543.171354 121.75133 
L 543.70552 115.517161 
L 544.239686 120.182728 
L 544.773852 119.179748 
L 545.308017 131.74217 
L 545.842183 139.971827 
L 546.910514 146.252553 
L 547.44468 142.381344 
L 547.978846 133.761657 
L 548.513011 143.2482 
L 549.047177 131.460046 
L 549.581343 136.34858 
L 550.115509 138.979897 
L 550.649674 130.984041 
L 551.18384 147.151783 
L 551.718006 156.749132 
L 552.252171 162.079584 
L 552.786337 161.254487 
L 553.854668 145.879512 
L 554.388834 151.798249 
L 554.923 146.387851 
L 555.457166 148.933616 
L 555.991331 138.450395 
L 556.525497 140.021975 
L 557.059663 132.419898 
L 557.593828 139.134473 
L 558.127994 133.46722 
L 558.66216 142.485542 
L 559.196325 141.392526 
L 559.730491 152.074662 
L 560.264657 152.691968 
L 560.798823 157.674469 
L 561.332988 163.904747 
L 561.867154 161.905478 
L 562.40132 156.197059 
L 562.935485 155.01713 
L 563.469651 152.517694 
L 564.003817 147.195535 
L 565.072148 131.029536 
L 565.606314 127.819776 
L 566.140479 113.56214 
L 566.674645 116.657148 
L 567.208811 110.659235 
L 567.742977 118.169854 
L 568.277142 101.068883 
L 568.811308 102.366894 
L 569.345474 100.830747 
L 569.879639 90.696682 
L 570.413805 91.615617 
L 570.947971 97.115093 
L 571.482136 109.652597 
L 572.016302 111.132545 
L 572.550468 96.429616 
L 573.084634 94.843212 
L 573.618799 82.220581 
L 574.152965 75.947413 
L 574.687131 78.740264 
L 575.221296 88.361046 
L 575.755462 89.347824 
L 576.289628 84.610157 
L 576.823793 85.79912 
L 577.357959 84.230198 
L 577.892125 79.791981 
L 578.426291 82.036396 
L 578.960456 91.974821 
L 579.494622 93.996915 
L 580.028788 89.703336 
L 580.562953 95.245844 
L 581.631285 109.201999 
L 582.16545 110.630094 
L 582.699616 111.303411 
L 583.233782 111.514872 
L 583.767947 120.167578 
L 584.302113 119.804944 
L 584.836279 124.016062 
L 585.370445 130.401288 
L 585.90461 142.974806 
L 586.438776 150.45463 
L 586.972942 154.532072 
L 587.507107 153.474566 
L 588.041273 150.613401 
L 588.575439 150.319035 
L 589.109604 148.671441 
L 589.64377 156.279797 
L 591.246267 140.369964 
L 591.780433 143.668411 
L 592.314599 144.145938 
L 592.848764 147.230992 
L 593.38293 156.090692 
L 593.917096 158.283326 
L 594.985427 180.364707 
L 596.053759 172.682626 
L 596.587924 166.916705 
L 597.12209 169.726643 
L 597.656256 169.391386 
L 598.190421 165.642486 
L 598.724587 167.984161 
L 599.258753 181.466208 
L 599.792918 166.240991 
L 600.86125 148.911099 
L 601.395415 148.051745 
L 601.929581 153.220243 
L 602.463747 152.374273 
L 602.997913 150.102615 
L 603.532078 159.069473 
L 604.066244 161.930467 
L 604.60041 157.777723 
L 605.134575 147.152657 
L 605.668741 142.594156 
L 606.202907 144.924101 
L 606.737072 153.225259 
L 607.271238 138.926555 
L 607.805404 137.60839 
L 608.33957 131.857448 
L 608.873735 131.13446 
L 609.407901 139.817906 
L 609.942067 124.381926 
L 610.476232 119.235276 
L 611.010398 110.220121 
L 611.544564 115.164564 
L 612.078729 114.843816 
L 612.612895 104.80487 
L 613.147061 106.742115 
L 613.681227 111.231843 
L 614.215392 118.530271 
L 614.749558 127.389849 
L 615.283724 121.146098 
L 615.817889 121.036695 
L 616.352055 132.942544 
L 617.420386 112.52943 
L 617.954552 103.94666 
L 618.488718 116.297086 
L 619.022883 115.04255 
L 619.557049 105.475142 
L 620.091215 112.168372 
L 620.625381 117.207363 
L 621.159546 118.343505 
L 621.693712 131.772831 
L 622.227878 129.759912 
L 622.762043 122.391381 
L 623.296209 117.256983 
L 623.830375 106.316842 
L 624.36454 105.120872 
L 624.898706 104.792883 
L 625.432872 105.571446 
L 625.967038 109.921436 
L 626.501203 116.858079 
L 627.035369 121.47763 
L 627.569535 121.535802 
L 628.1037 124.744793 
L 629.172032 122.418354 
L 629.706197 117.464362 
L 630.240363 120.51612 
L 630.774529 134.281233 
L 631.308695 140.366868 
L 631.84286 126.698348 
L 632.377026 120.973005 
L 632.911192 123.270061 
L 633.445357 124.158312 
L 633.979523 124.224594 
L 634.513689 126.939564 
L 635.047854 125.051038 
L 635.58202 119.761186 
L 636.116186 110.744061 
L 636.650352 112.721266 
L 637.718683 115.953184 
L 638.252849 115.200886 
L 638.787014 107.24867 
L 639.32118 111.960022 
L 639.855346 95.974851 
L 640.389511 91.504882 
L 640.923677 83.095342 
L 641.457843 88.895628 
L 641.992008 90.966322 
L 642.526174 94.082981 
L 643.06034 93.18026 
L 643.594506 106.875831 
L 644.128671 102.817924 
L 644.662837 113.970435 
L 645.197003 110.748914 
L 645.731168 103.014431 
L 646.265334 102.783392 
L 647.333665 103.836039 
L 647.867831 104.694767 
L 648.401997 102.147988 
L 648.936163 95.037832 
L 649.470328 89.712719 
L 650.004494 78.28778 
L 650.53866 76.77776 
L 651.606991 81.920195 
L 652.141157 89.722213 
L 652.675322 91.485418 
L 653.209488 94.650511 
L 653.743654 81.04141 
L 654.27782 76.276499 
L 654.811985 62.396411 
L 655.346151 74.893376 
L 655.880317 71.643706 
L 656.414482 63.179723 
L 656.948648 59.71048 
L 657.482814 61.843549 
L 658.551145 57.530467 
L 659.085311 55.380827 
L 659.619476 52.260162 
L 660.153642 44.210266 
L 661.221974 37.973108 
L 661.756139 36.552737 
L 662.290305 31.928328 
L 662.824471 35.736477 
L 663.358636 30.18472 
L 663.358636 30.18472 
" style="fill:none;stroke:#2d9cdb;stroke-linecap:square;stroke-width:2;"/>
   </g>
   <g id="patch_3">
    <path d="M 49.7625 310.64 
L 49.7625 7.2 
" style="fill:none;"/>
   </g>
   <g id="patch_4">
    <path d="M 692.5775 310.64 
L 692.5775 7.2 
" style="fill:none;"/>
   </g>
   <g id="patch_5">
    <path d="M 49.7625 310.64 
L 692.5775 310.64 
" style="fill:none;"/>
   </g>
   <g id="patch_6">
    <path d="M 49.7625 7.2 
L 692.5775 7.2 
" style="fill:none;"/>
   </g>
   <g id="legend_1">
    <g id="line2d_24">
     <path d="M 64.1625 28.1575 
L 96.1625 28.1575 
" style="fill:none;stroke:#003559;stroke-linecap:square;stroke-width:2;"/>
    </g>
    <g id="line2d_25"/>
    <g id="text_15">
     <!-- Calm Corp -->
     <defs>
      <path d="M 64.40625 67.28125 
L 64.40625 56.890625 
Q 59.421875 61.53125 53.78125 63.8125 
Q 48.140625 66.109375 41.796875 66.109375 
Q 29.296875 66.109375 22.65625 58.46875 
Q 16.015625 50.828125 16.015625 36.375 
Q 16.015625 21.96875 22.65625 14.328125 
Q 29.296875 6.6875 41.796875 6.6875 
Q 48.140625 6.6875 53.78125 8.984375 
Q 59.421875 11.28125 64.40625 15.921875 
L 64.40625 5.609375 
Q 59.234375 2.09375 53.4375 0.328125 
Q 47.65625 -1.421875 41.21875 -1.421875 
Q 24.65625 -1.421875 15.125 8.703125 
Q 5.609375 18.84375 5.609375 36.375 
Q 5.609375 53.953125 15.125 64.078125 
Q 24.65625 74.21875 41.21875 74.21875 
Q 47.75 74.21875 53.53125 72.484375 
Q 59.328125 70.75 64.40625 67.28125 
z
" id="DejaVuSans-67"/>
      <path d="M 34.28125 27.484375 
Q 23.390625 27.484375 19.1875 25 
Q 14.984375 22.515625 14.984375 16.5 
Q 14.984375 11.71875 18.140625 8.90625 
Q 21.296875 6.109375 26.703125 6.109375 
Q 34.1875 6.109375 38.703125 11.40625 
Q 43.21875 16.703125 43.21875 25.484375 
L 43.21875 27.484375 
z
M 52.203125 31.203125 
L 52.203125 0 
L 43.21875 0 
L 43.21875 8.296875 
Q 40.140625 3.328125 35.546875 0.953125 
Q 30.953125 -1.421875 24.3125 -1.421875 
Q 15.921875 -1.421875 10.953125 3.296875 
Q 6 8.015625 6 15.921875 
Q 6 25.140625 12.171875 29.828125 
Q 18.359375 34.515625 30.609375 34.515625 
L 43.21875 34.515625 
L 43.21875 35.40625 
Q 43.21875 41.609375 39.140625 45 
Q 35.0625 48.390625 27.6875 48.390625 
Q 23 48.390625 18.546875 47.265625 
Q 14.109375 46.140625 10.015625 43.890625 
L 10.015625 52.203125 
Q 14.9375 54.109375 19.578125 55.046875 
Q 24.21875 56 28.609375 56 
Q 40.484375 56 46.34375 49.84375 
Q 52.203125 43.703125 52.203125 31.203125 
z
" id="DejaVuSans-97"/>
      <path d="M 52 44.1875 
Q 55.375 50.25 60.0625 53.125 
Q 64.75 56 71.09375 56 
Q 79.640625 56 84.28125 50.015625 
Q 88.921875 44.046875 88.921875 33.015625 
L 88.921875 0 
L 79.890625 0 
L 79.890625 32.71875 
Q 79.890625 40.578125 77.09375 44.375 
Q 74.3125 48.1875 68.609375 48.1875 
Q 61.625 48.1875 57.5625 43.546875 
Q 53.515625 38.921875 53.515625 30.90625 
L 53.515625 0 
L 44.484375 0 
L 44.484375 32.71875 
Q 44.484375 40.625 41.703125 44.40625 
Q 38.921875 48.1875 33.109375 48.1875 
Q 26.21875 48.1875 22.15625 43.53125 
Q 18.109375 38.875 18.109375 30.90625 
L 18.109375 0 
L 9.078125 0 
L 9.078125 54.6875 
L 18.109375 54.6875 
L 18.109375 46.1875 
Q 21.1875 51.21875 25.484375 53.609375 
Q 29.78125 56 35.6875 56 
Q 41.65625 56 45.828125 52.96875 
Q 50 49.953125 52 44.1875 
z
" id="DejaVuSans-109"/>
      <path id="DejaVuSans-32"/>
      <path d="M 30.609375 48.390625 
Q 23.390625 48.390625 19.1875 42.75 
Q 14.984375 37.109375 14.984375 27.296875 
Q 14.984375 17.484375 19.15625 11.84375 
Q 23.34375 6.203125 30.609375 6.203125 
Q 37.796875 6.203125 41.984375 11.859375 
Q 46.1875 17.53125 46.1875 27.296875 
Q 46.1875 37.015625 41.984375 42.703125 
Q 37.796875 48.390625 30.609375 48.390625 
z
M 30.609375 56 
Q 42.328125 56 49.015625 48.375 
Q 55.71875 40.765625 55.71875 27.296875 
Q 55.71875 13.875 49.015625 6.21875 
Q 42.328125 -1.421875 30.609375 -1.421875 
Q 18.84375 -1.421875 12.171875 6.21875 
Q 5.515625 13.875 5.515625 27.296875 
Q 5.515625 40.765625 12.171875 48.375 
Q 18.84375 56 30.609375 56 
z
" id="DejaVuSans-111"/>
      <path d="M 41.109375 46.296875 
Q 39.59375 47.171875 37.8125 47.578125 
Q 36.03125 48 33.890625 48 
Q 26.265625 48 22.1875 43.046875 
Q 18.109375 38.09375 18.109375 28.8125 
L 18.109375 0 
L 9.078125 0 
L 9.078125 54.6875 
L 18.109375 54.6875 
L 18.109375 46.1875 
Q 20.953125 51.171875 25.484375 53.578125 
Q 30.03125 56 36.53125 56 
Q 37.453125 56 38.578125 55.875 
Q 39.703125 55.765625 41.0625 55.515625 
z
" id="DejaVuSans-114"/>
      <path d="M 18.109375 8.203125 
L 18.109375 -20.796875 
L 9.078125 -20.796875 
L 9.078125 54.6875 
L 18.109375 54.6875 
L 18.109375 46.390625 
Q 20.953125 51.265625 25.265625 53.625 
Q 29.59375 56 35.59375 56 
Q 45.5625 56 51.78125 48.09375 
Q 58.015625 40.1875 58.015625 27.296875 
Q 58.015625 14.40625 51.78125 6.484375 
Q 45.5625 -1.421875 35.59375 -1.421875 
Q 29.59375 -1.421875 25.265625 0.953125 
Q 20.953125 3.328125 18.109375 8.203125 
z
M 48.6875 27.296875 
Q 48.6875 37.203125 44.609375 42.84375 
Q 40.53125 48.484375 33.40625 48.484375 
Q 26.265625 48.484375 22.1875 42.84375 
Q 18.109375 37.203125 18.109375 27.296875 
Q 18.109375 17.390625 22.1875 11.75 
Q 26.265625 6.109375 33.40625 6.109375 
Q 40.53125 6.109375 44.609375 11.75 
Q 48.6875 17.390625 48.6875 27.296875 
z
" id="DejaVuSans-112"/>
     </defs>
     <g style="fill:#003559;" transform="translate(108.9625 33.7575)scale(0.16 -0.16)">
      <use xlink:href="#DejaVuSans-67"/>
      <use x="69.824219" xlink:href="#DejaVuSans-97"/>
      <use x="131.103516" xlink:href="#DejaVuSans-108"/>
      <use x="158.886719" xlink:href="#DejaVuSans-109"/>
      <use x="256.298828" xlink:href="#DejaVuSans-32"/>
      <use x="288.085938" xlink:href="#DejaVuSans-67"/>
      <use x="357.910156" xlink:href="#DejaVuSans-111"/>
      <use x="419.091797" xlink:href="#DejaVuSans-114"/>
      <use x="460.205078" xlink:href="#DejaVuSans-112"/>
     </g>
    </g>
    <g id="line2d_26">
     <path d="M 64.1625 51.6425 
L 96.1625 51.6425 
" style="fill:none;stroke:#2d9cdb;stroke-linecap:square;stroke-width:2;"/>
    </g>
    <g id="line2d_27"/>
    <g id="text_16">
     <!-- Crazy Corp -->
     <defs>
      <path d="M 5.515625 54.6875 
L 48.1875 54.6875 
L 48.1875 46.484375 
L 14.40625 7.171875 
L 48.1875 7.171875 
L 48.1875 0 
L 4.296875 0 
L 4.296875 8.203125 
L 38.09375 47.515625 
L 5.515625 47.515625 
z
" id="DejaVuSans-122"/>
      <path d="M 32.171875 -5.078125 
Q 28.375 -14.84375 24.75 -17.8125 
Q 21.140625 -20.796875 15.09375 -20.796875 
L 7.90625 -20.796875 
L 7.90625 -13.28125 
L 13.1875 -13.28125 
Q 16.890625 -13.28125 18.9375 -11.515625 
Q 21 -9.765625 23.484375 -3.21875 
L 25.09375 0.875 
L 2.984375 54.6875 
L 12.5 54.6875 
L 29.59375 11.921875 
L 46.6875 54.6875 
L 56.203125 54.6875 
z
" id="DejaVuSans-121"/>
     </defs>
     <g style="fill:#003559;" transform="translate(108.9625 57.2425)scale(0.16 -0.16)">
      <use xlink:href="#DejaVuSans-67"/>
      <use x="69.824219" xlink:href="#DejaVuSans-114"/>
      <use x="110.9375" xlink:href="#DejaVuSans-97"/>
      <use x="172.216797" xlink:href="#DejaVuSans-122"/>
      <use x="224.707031" xlink:href="#DejaVuSans-121"/>
      <use x="283.886719" xlink:href="#DejaVuSans-32"/>
      <use x="315.673828" xlink:href="#DejaVuSans-67"/>
      <use x="385.498047" xlink:href="#DejaVuSans-111"/>
      <use x="446.679688" xlink:href="#DejaVuSans-114"/>
      <use x="487.792969" xlink:href="#DejaVuSans-112"/>
     </g>
    </g>
   </g>
  </g>
 </g>
 <defs>
  <clipPath id="p754b87a8dd">
   <rect height="303.44" width="642.815" x="49.7625" y="7.2"/>
  </clipPath>
 </defs>
</svg>
