<?xml version="1.0" encoding="utf-8" standalone="no"?>
<!DOCTYPE svg PUBLIC "-//W3C//DTD SVG 1.1//EN"
  "http://www.w3.org/Graphics/SVG/1.1/DTD/svg11.dtd">
<!-- Created with matplotlib (https://matplotlib.org/) -->
<svg height="340.325pt" version="1.1" viewBox="0 0 699.7775 340.325" width="699.7775pt" xmlns="http://www.w3.org/2000/svg" xmlns:xlink="http://www.w3.org/1999/xlink">
 <defs>
  <style type="text/css">
*{stroke-linecap:butt;stroke-linejoin:round;}
  </style>
 </defs>
 <g id="figure_1">
  <g id="patch_1">
   <path d="M 0 340.325 
L 699.7775 340.325 
L 699.7775 0 
L 0 0 
z
" style="fill:none;"/>
  </g>
  <g id="axes_1">
   <g id="patch_2">
    <path d="M 49.7625 310.64 
L 692.5775 310.64 
L 692.5775 7.2 
L 49.7625 7.2 
z
" style="fill:none;"/>
   </g>
   <g id="matplotlib.axis_1">
    <g id="xtick_1">
     <g id="line2d_1">
      <defs>
       <path d="M 0 0 
L 0 3.5 
" id="m97a3e28a4e" style="stroke:#003559;stroke-width:0.8;"/>
      </defs>
      <g>
       <use style="fill:#003559;stroke:#003559;stroke-width:0.8;" x="78.981364" xlink:href="#m97a3e28a4e" y="310.64"/>
      </g>
     </g>
     <g id="text_1">
      <!-- 2010 -->
      <defs>
       <path d="M 19.1875 8.296875 
L 53.609375 8.296875 
L 53.609375 0 
L 7.328125 0 
L 7.328125 8.296875 
Q 12.9375 14.109375 22.625 23.890625 
Q 32.328125 33.6875 34.8125 36.53125 
Q 39.546875 41.84375 41.421875 45.53125 
Q 43.3125 49.21875 43.3125 52.78125 
Q 43.3125 58.59375 39.234375 62.25 
Q 35.15625 65.921875 28.609375 65.921875 
Q 23.96875 65.921875 18.8125 64.3125 
Q 13.671875 62.703125 7.8125 59.421875 
L 7.8125 69.390625 
Q 13.765625 71.78125 18.9375 73 
Q 24.125 74.21875 28.421875 74.21875 
Q 39.75 74.21875 46.484375 68.546875 
Q 53.21875 62.890625 53.21875 53.421875 
Q 53.21875 48.921875 51.53125 44.890625 
Q 49.859375 40.875 45.40625 35.40625 
Q 44.1875 33.984375 37.640625 27.21875 
Q 31.109375 20.453125 19.1875 8.296875 
z
" id="DejaVuSans-50"/>
       <path d="M 31.78125 66.40625 
Q 24.171875 66.40625 20.328125 58.90625 
Q 16.5 51.421875 16.5 36.375 
Q 16.5 21.390625 20.328125 13.890625 
Q 24.171875 6.390625 31.78125 6.390625 
Q 39.453125 6.390625 43.28125 13.890625 
Q 47.125 21.390625 47.125 36.375 
Q 47.125 51.421875 43.28125 58.90625 
Q 39.453125 66.40625 31.78125 66.40625 
z
M 31.78125 74.21875 
Q 44.046875 74.21875 50.515625 64.515625 
Q 56.984375 54.828125 56.984375 36.375 
Q 56.984375 17.96875 50.515625 8.265625 
Q 44.046875 -1.421875 31.78125 -1.421875 
Q 19.53125 -1.421875 13.0625 8.265625 
Q 6.59375 17.96875 6.59375 36.375 
Q 6.59375 54.828125 13.0625 64.515625 
Q 19.53125 74.21875 31.78125 74.21875 
z
" id="DejaVuSans-48"/>
       <path d="M 12.40625 8.296875 
L 28.515625 8.296875 
L 28.515625 63.921875 
L 10.984375 60.40625 
L 10.984375 69.390625 
L 28.421875 72.90625 
L 38.28125 72.90625 
L 38.28125 8.296875 
L 54.390625 8.296875 
L 54.390625 0 
L 12.40625 0 
z
" id="DejaVuSans-49"/>
      </defs>
      <g style="fill:#003559;" transform="translate(58.621364 329.7975)scale(0.16 -0.16)">
       <use xlink:href="#DejaVuSans-50"/>
       <use x="63.623047" xlink:href="#DejaVuSans-48"/>
       <use x="127.246094" xlink:href="#DejaVuSans-49"/>
       <use x="190.869141" xlink:href="#DejaVuSans-48"/>
      </g>
     </g>
    </g>
    <g id="xtick_2">
     <g id="line2d_2">
      <g>
       <use style="fill:#003559;stroke:#003559;stroke-width:0.8;" x="175.665355" xlink:href="#m97a3e28a4e" y="310.64"/>
      </g>
     </g>
     <g id="text_2">
      <!-- Jul -->
      <defs>
       <path d="M 9.8125 72.90625 
L 19.671875 72.90625 
L 19.671875 5.078125 
Q 19.671875 -8.109375 14.671875 -14.0625 
Q 9.671875 -20.015625 -1.421875 -20.015625 
L -5.171875 -20.015625 
L -5.171875 -11.71875 
L -2.09375 -11.71875 
Q 4.4375 -11.71875 7.125 -8.046875 
Q 9.8125 -4.390625 9.8125 5.078125 
z
" id="DejaVuSans-74"/>
       <path d="M 8.5 21.578125 
L 8.5 54.6875 
L 17.484375 54.6875 
L 17.484375 21.921875 
Q 17.484375 14.15625 20.5 10.265625 
Q 23.53125 6.390625 29.59375 6.390625 
Q 36.859375 6.390625 41.078125 11.03125 
Q 45.3125 15.671875 45.3125 23.6875 
L 45.3125 54.6875 
L 54.296875 54.6875 
L 54.296875 0 
L 45.3125 0 
L 45.3125 8.40625 
Q 42.046875 3.421875 37.71875 1 
Q 33.40625 -1.421875 27.6875 -1.421875 
Q 18.265625 -1.421875 13.375 4.4375 
Q 8.5 10.296875 8.5 21.578125 
z
M 31.109375 56 
z
" id="DejaVuSans-117"/>
       <path d="M 9.421875 75.984375 
L 18.40625 75.984375 
L 18.40625 0 
L 9.421875 0 
z
" id="DejaVuSans-108"/>
      </defs>
      <g style="fill:#003559;" transform="translate(166.012855 329.7975)scale(0.16 -0.16)">
       <use xlink:href="#DejaVuSans-74"/>
       <use x="29.492188" xlink:href="#DejaVuSans-117"/>
       <use x="92.871094" xlink:href="#DejaVuSans-108"/>
      </g>
     </g>
    </g>
    <g id="xtick_3">
     <g id="line2d_3">
      <g>
       <use style="fill:#003559;stroke:#003559;stroke-width:0.8;" x="273.951843" xlink:href="#m97a3e28a4e" y="310.64"/>
      </g>
     </g>
     <g id="text_3">
      <!-- 2011 -->
      <g style="fill:#003559;" transform="translate(253.591843 329.7975)scale(0.16 -0.16)">
       <use xlink:href="#DejaVuSans-50"/>
       <use x="63.623047" xlink:href="#DejaVuSans-48"/>
       <use x="127.246094" xlink:href="#DejaVuSans-49"/>
       <use x="190.869141" xlink:href="#DejaVuSans-49"/>
      </g>
     </g>
    </g>
    <g id="xtick_4">
     <g id="line2d_4">
      <g>
       <use style="fill:#003559;stroke:#003559;stroke-width:0.8;" x="370.635834" xlink:href="#m97a3e28a4e" y="310.64"/>
      </g>
     </g>
     <g id="text_4">
      <!-- Jul -->
      <g style="fill:#003559;" transform="translate(360.983334 329.7975)scale(0.16 -0.16)">
       <use xlink:href="#DejaVuSans-74"/>
       <use x="29.492188" xlink:href="#DejaVuSans-117"/>
       <use x="92.871094" xlink:href="#DejaVuSans-108"/>
      </g>
     </g>
    </g>
    <g id="xtick_5">
     <g id="line2d_5">
      <g>
       <use style="fill:#003559;stroke:#003559;stroke-width:0.8;" x="468.922323" xlink:href="#m97a3e28a4e" y="310.64"/>
      </g>
     </g>
     <g id="text_5">
      <!-- 2012 -->
      <g style="fill:#003559;" transform="translate(448.562323 329.7975)scale(0.16 -0.16)">
       <use xlink:href="#DejaVuSans-50"/>
       <use x="63.623047" xlink:href="#DejaVuSans-48"/>
       <use x="127.246094" xlink:href="#DejaVuSans-49"/>
       <use x="190.869141" xlink:href="#DejaVuSans-50"/>
      </g>
     </g>
    </g>
    <g id="xtick_6">
     <g id="line2d_6">
      <g>
       <use style="fill:#003559;stroke:#003559;stroke-width:0.8;" x="566.140479" xlink:href="#m97a3e28a4e" y="310.64"/>
      </g>
     </g>
     <g id="text_6">
      <!-- Jul -->
      <g style="fill:#003559;" transform="translate(556.487979 329.7975)scale(0.16 -0.16)">
       <use xlink:href="#DejaVuSans-74"/>
       <use x="29.492188" xlink:href="#DejaVuSans-117"/>
       <use x="92.871094" xlink:href="#DejaVuSans-108"/>
      </g>
     </g>
    </g>
    <g id="xtick_7">
     <g id="line2d_7">
      <g>
       <use style="fill:#003559;stroke:#003559;stroke-width:0.8;" x="664.426968" xlink:href="#m97a3e28a4e" y="310.64"/>
      </g>
     </g>
     <g id="text_7">
      <!-- 2013 -->
      <defs>
       <path d="M 40.578125 39.3125 
Q 47.65625 37.796875 51.625 33 
Q 55.609375 28.21875 55.609375 21.1875 
Q 55.609375 10.40625 48.1875 4.484375 
Q 40.765625 -1.421875 27.09375 -1.421875 
Q 22.515625 -1.421875 17.65625 -0.515625 
Q 12.796875 0.390625 7.625 2.203125 
L 7.625 11.71875 
Q 11.71875 9.328125 16.59375 8.109375 
Q 21.484375 6.890625 26.8125 6.890625 
Q 36.078125 6.890625 40.9375 10.546875 
Q 45.796875 14.203125 45.796875 21.1875 
Q 45.796875 27.640625 41.28125 31.265625 
Q 36.765625 34.90625 28.71875 34.90625 
L 20.21875 34.90625 
L 20.21875 43.015625 
L 29.109375 43.015625 
Q 36.375 43.015625 40.234375 45.921875 
Q 44.09375 48.828125 44.09375 54.296875 
Q 44.09375 59.90625 40.109375 62.90625 
Q 36.140625 65.921875 28.71875 65.921875 
Q 24.65625 65.921875 20.015625 65.03125 
Q 15.375 64.15625 9.8125 62.3125 
L 9.8125 71.09375 
Q 15.4375 72.65625 20.34375 73.4375 
Q 25.25 74.21875 29.59375 74.21875 
Q 40.828125 74.21875 47.359375 69.109375 
Q 53.90625 64.015625 53.90625 55.328125 
Q 53.90625 49.265625 50.4375 45.09375 
Q 46.96875 40.921875 40.578125 39.3125 
z
" id="DejaVuSans-51"/>
      </defs>
      <g style="fill:#003559;" transform="translate(644.066968 329.7975)scale(0.16 -0.16)">
       <use xlink:href="#DejaVuSans-50"/>
       <use x="63.623047" xlink:href="#DejaVuSans-48"/>
       <use x="127.246094" xlink:href="#DejaVuSans-49"/>
       <use x="190.869141" xlink:href="#DejaVuSans-51"/>
      </g>
     </g>
    </g>
   </g>
   <g id="matplotlib.axis_2">
    <g id="ytick_1">
     <g id="line2d_8">
      <path clip-path="url(#p19796cb8a6)" d="M 49.7625 280.817803 
L 692.5775 280.817803 
" style="fill:none;stroke:#f0f0f0;stroke-linecap:square;"/>
     </g>
     <g id="line2d_9">
      <defs>
       <path d="M 0 0 
L -3.5 0 
" id="m29f02fc534" style="stroke:#003559;stroke-width:0.8;"/>
      </defs>
      <g>
       <use style="fill:#003559;stroke:#003559;stroke-width:0.8;" x="49.7625" xlink:href="#m29f02fc534" y="280.817803"/>
      </g>
     </g>
     <g id="text_8">
      <!-- -5% -->
      <defs>
       <path d="M 4.890625 31.390625 
L 31.203125 31.390625 
L 31.203125 23.390625 
L 4.890625 23.390625 
z
" id="DejaVuSans-45"/>
       <path d="M 10.796875 72.90625 
L 49.515625 72.90625 
L 49.515625 64.59375 
L 19.828125 64.59375 
L 19.828125 46.734375 
Q 21.96875 47.46875 24.109375 47.828125 
Q 26.265625 48.1875 28.421875 48.1875 
Q 40.625 48.1875 47.75 41.5 
Q 54.890625 34.8125 54.890625 23.390625 
Q 54.890625 11.625 47.5625 5.09375 
Q 40.234375 -1.421875 26.90625 -1.421875 
Q 22.3125 -1.421875 17.546875 -0.640625 
Q 12.796875 0.140625 7.71875 1.703125 
L 7.71875 11.625 
Q 12.109375 9.234375 16.796875 8.0625 
Q 21.484375 6.890625 26.703125 6.890625 
Q 35.15625 6.890625 40.078125 11.328125 
Q 45.015625 15.765625 45.015625 23.390625 
Q 45.015625 31 40.078125 35.4375 
Q 35.15625 39.890625 26.703125 39.890625 
Q 22.75 39.890625 18.8125 39.015625 
Q 14.890625 38.140625 10.796875 36.28125 
z
" id="DejaVuSans-53"/>
       <path d="M 72.703125 32.078125 
Q 68.453125 32.078125 66.03125 28.46875 
Q 63.625 24.859375 63.625 18.40625 
Q 63.625 12.0625 66.03125 8.421875 
Q 68.453125 4.78125 72.703125 4.78125 
Q 76.859375 4.78125 79.265625 8.421875 
Q 81.6875 12.0625 81.6875 18.40625 
Q 81.6875 24.8125 79.265625 28.4375 
Q 76.859375 32.078125 72.703125 32.078125 
z
M 72.703125 38.28125 
Q 80.421875 38.28125 84.953125 32.90625 
Q 89.5 27.546875 89.5 18.40625 
Q 89.5 9.28125 84.9375 3.921875 
Q 80.375 -1.421875 72.703125 -1.421875 
Q 64.890625 -1.421875 60.34375 3.921875 
Q 55.8125 9.28125 55.8125 18.40625 
Q 55.8125 27.59375 60.375 32.9375 
Q 64.9375 38.28125 72.703125 38.28125 
z
M 22.3125 68.015625 
Q 18.109375 68.015625 15.6875 64.375 
Q 13.28125 60.75 13.28125 54.390625 
Q 13.28125 47.953125 15.671875 44.328125 
Q 18.0625 40.71875 22.3125 40.71875 
Q 26.5625 40.71875 28.96875 44.328125 
Q 31.390625 47.953125 31.390625 54.390625 
Q 31.390625 60.6875 28.953125 64.34375 
Q 26.515625 68.015625 22.3125 68.015625 
z
M 66.40625 74.21875 
L 74.21875 74.21875 
L 28.609375 -1.421875 
L 20.796875 -1.421875 
z
M 22.3125 74.21875 
Q 30.03125 74.21875 34.609375 68.875 
Q 39.203125 63.53125 39.203125 54.390625 
Q 39.203125 45.171875 34.640625 39.84375 
Q 30.078125 34.515625 22.3125 34.515625 
Q 14.546875 34.515625 10.03125 39.859375 
Q 5.515625 45.21875 5.515625 54.390625 
Q 5.515625 63.484375 10.046875 68.84375 
Q 14.59375 74.21875 22.3125 74.21875 
z
" id="DejaVuSans-37"/>
      </defs>
      <g style="fill:#003559;" transform="translate(11.6075 286.896553)scale(0.16 -0.16)">
       <use xlink:href="#DejaVuSans-45"/>
       <use x="36.083984" xlink:href="#DejaVuSans-53"/>
       <use x="99.707031" xlink:href="#DejaVuSans-37"/>
      </g>
     </g>
    </g>
    <g id="ytick_2">
     <g id="line2d_10">
      <path clip-path="url(#p19796cb8a6)" d="M 49.7625 244.892777 
L 692.5775 244.892777 
" style="fill:none;stroke:#f0f0f0;stroke-linecap:square;"/>
     </g>
     <g id="line2d_11">
      <g>
       <use style="fill:#003559;stroke:#003559;stroke-width:0.8;" x="49.7625" xlink:href="#m29f02fc534" y="244.892777"/>
      </g>
     </g>
     <g id="text_9">
      <!-- -2% -->
      <g style="fill:#003559;" transform="translate(11.6075 250.971527)scale(0.16 -0.16)">
       <use xlink:href="#DejaVuSans-45"/>
       <use x="36.083984" xlink:href="#DejaVuSans-50"/>
       <use x="99.707031" xlink:href="#DejaVuSans-37"/>
      </g>
     </g>
    </g>
    <g id="ytick_3">
     <g id="line2d_12">
      <path clip-path="url(#p19796cb8a6)" d="M 49.7625 208.967752 
L 692.5775 208.967752 
" style="fill:none;stroke:#f0f0f0;stroke-linecap:square;"/>
     </g>
     <g id="line2d_13">
      <g>
       <use style="fill:#003559;stroke:#003559;stroke-width:0.8;" x="49.7625" xlink:href="#m29f02fc534" y="208.967752"/>
      </g>
     </g>
     <g id="text_10">
      <!-- 0% -->
      <g style="fill:#003559;" transform="translate(17.38 215.046502)scale(0.16 -0.16)">
       <use xlink:href="#DejaVuSans-48"/>
       <use x="63.623047" xlink:href="#DejaVuSans-37"/>
      </g>
     </g>
    </g>
    <g id="ytick_4">
     <g id="line2d_14">
      <path clip-path="url(#p19796cb8a6)" d="M 49.7625 173.042727 
L 692.5775 173.042727 
" style="fill:none;stroke:#f0f0f0;stroke-linecap:square;"/>
     </g>
     <g id="line2d_15">
      <g>
       <use style="fill:#003559;stroke:#003559;stroke-width:0.8;" x="49.7625" xlink:href="#m29f02fc534" y="173.042727"/>
      </g>
     </g>
     <g id="text_11">
      <!-- 2% -->
      <g style="fill:#003559;" transform="translate(17.38 179.121477)scale(0.16 -0.16)">
       <use xlink:href="#DejaVuSans-50"/>
       <use x="63.623047" xlink:href="#DejaVuSans-37"/>
      </g>
     </g>
    </g>
    <g id="ytick_5">
     <g id="line2d_16">
      <path clip-path="url(#p19796cb8a6)" d="M 49.7625 137.117701 
L 692.5775 137.117701 
" style="fill:none;stroke:#f0f0f0;stroke-linecap:square;"/>
     </g>
     <g id="line2d_17">
      <g>
       <use style="fill:#003559;stroke:#003559;stroke-width:0.8;" x="49.7625" xlink:href="#m29f02fc534" y="137.117701"/>
      </g>
     </g>
     <g id="text_12">
      <!-- 5% -->
      <g style="fill:#003559;" transform="translate(17.38 143.196451)scale(0.16 -0.16)">
       <use xlink:href="#DejaVuSans-53"/>
       <use x="63.623047" xlink:href="#DejaVuSans-37"/>
      </g>
     </g>
    </g>
    <g id="ytick_6">
     <g id="line2d_18">
      <path clip-path="url(#p19796cb8a6)" d="M 49.7625 101.192676 
L 692.5775 101.192676 
" style="fill:none;stroke:#f0f0f0;stroke-linecap:square;"/>
     </g>
     <g id="line2d_19">
      <g>
       <use style="fill:#003559;stroke:#003559;stroke-width:0.8;" x="49.7625" xlink:href="#m29f02fc534" y="101.192676"/>
      </g>
     </g>
     <g id="text_13">
      <!-- 8% -->
      <defs>
       <path d="M 31.78125 34.625 
Q 24.75 34.625 20.71875 30.859375 
Q 16.703125 27.09375 16.703125 20.515625 
Q 16.703125 13.921875 20.71875 10.15625 
Q 24.75 6.390625 31.78125 6.390625 
Q 38.8125 6.390625 42.859375 10.171875 
Q 46.921875 13.96875 46.921875 20.515625 
Q 46.921875 27.09375 42.890625 30.859375 
Q 38.875 34.625 31.78125 34.625 
z
M 21.921875 38.8125 
Q 15.578125 40.375 12.03125 44.71875 
Q 8.5 49.078125 8.5 55.328125 
Q 8.5 64.0625 14.71875 69.140625 
Q 20.953125 74.21875 31.78125 74.21875 
Q 42.671875 74.21875 48.875 69.140625 
Q 55.078125 64.0625 55.078125 55.328125 
Q 55.078125 49.078125 51.53125 44.71875 
Q 48 40.375 41.703125 38.8125 
Q 48.828125 37.15625 52.796875 32.3125 
Q 56.78125 27.484375 56.78125 20.515625 
Q 56.78125 9.90625 50.3125 4.234375 
Q 43.84375 -1.421875 31.78125 -1.421875 
Q 19.734375 -1.421875 13.25 4.234375 
Q 6.78125 9.90625 6.78125 20.515625 
Q 6.78125 27.484375 10.78125 32.3125 
Q 14.796875 37.15625 21.921875 38.8125 
z
M 18.3125 54.390625 
Q 18.3125 48.734375 21.84375 45.5625 
Q 25.390625 42.390625 31.78125 42.390625 
Q 38.140625 42.390625 41.71875 45.5625 
Q 45.3125 48.734375 45.3125 54.390625 
Q 45.3125 60.0625 41.71875 63.234375 
Q 38.140625 66.40625 31.78125 66.40625 
Q 25.390625 66.40625 21.84375 63.234375 
Q 18.3125 60.0625 18.3125 54.390625 
z
" id="DejaVuSans-56"/>
      </defs>
      <g style="fill:#003559;" transform="translate(17.38 107.271426)scale(0.16 -0.16)">
       <use xlink:href="#DejaVuSans-56"/>
       <use x="63.623047" xlink:href="#DejaVuSans-37"/>
      </g>
     </g>
    </g>
    <g id="ytick_7">
     <g id="line2d_20">
      <path clip-path="url(#p19796cb8a6)" d="M 49.7625 65.267651 
L 692.5775 65.267651 
" style="fill:none;stroke:#f0f0f0;stroke-linecap:square;"/>
     </g>
     <g id="line2d_21">
      <g>
       <use style="fill:#003559;stroke:#003559;stroke-width:0.8;" x="49.7625" xlink:href="#m29f02fc534" y="65.267651"/>
      </g>
     </g>
     <g id="text_14">
      <!-- 10% -->
      <g style="fill:#003559;" transform="translate(7.2 71.346401)scale(0.16 -0.16)">
       <use xlink:href="#DejaVuSans-49"/>
       <use x="63.623047" xlink:href="#DejaVuSans-48"/>
       <use x="127.246094" xlink:href="#DejaVuSans-37"/>
      </g>
     </g>
    </g>
    <g id="ytick_8">
     <g id="line2d_22">
      <path clip-path="url(#p19796cb8a6)" d="M 49.7625 29.342625 
L 692.5775 29.342625 
" style="fill:none;stroke:#f0f0f0;stroke-linecap:square;"/>
     </g>
     <g id="line2d_23">
      <g>
       <use style="fill:#003559;stroke:#003559;stroke-width:0.8;" x="49.7625" xlink:href="#m29f02fc534" y="29.342625"/>
      </g>
     </g>
     <g id="text_15">
      <!-- 12% -->
      <g style="fill:#003559;" transform="translate(7.2 35.421375)scale(0.16 -0.16)">
       <use xlink:href="#DejaVuSans-49"/>
       <use x="63.623047" xlink:href="#DejaVuSans-50"/>
       <use x="127.246094" xlink:href="#DejaVuSans-37"/>
      </g>
     </g>
    </g>
   </g>
   <g id="line2d_24">
    <path clip-path="url(#p19796cb8a6)" d="M 78.981364 203.716652 
L 79.515529 202.35552 
L 80.049695 201.975389 
L 80.583861 207.24599 
L 81.118026 207.942863 
L 81.652192 208.861796 
L 82.186358 208.998592 
L 82.720524 210.698544 
L 83.254689 210.723441 
L 83.788855 211.991846 
L 84.323021 215.65447 
L 85.391352 210.39204 
L 85.925518 205.373937 
L 86.459683 205.1285 
L 86.993849 206.192981 
L 87.528015 207.661422 
L 88.06218 212.002379 
L 88.596346 209.081251 
L 89.664678 215.434942 
L 90.198843 215.922685 
L 90.733009 211.56502 
L 91.267175 210.784891 
L 91.80134 213.619848 
L 92.335506 215.560363 
L 92.869672 213.66986 
L 93.403837 214.028945 
L 93.938003 216.128608 
L 94.472169 216.68581 
L 95.006335 214.453813 
L 95.5405 208.68393 
L 96.074666 212.155025 
L 96.608832 213.84957 
L 97.142997 216.049393 
L 97.677163 222.850845 
L 98.745494 228.184286 
L 99.27966 224.8937 
L 99.813826 225.168707 
L 100.347992 229.674407 
L 100.882157 227.741773 
L 101.416323 228.652339 
L 101.950489 233.485621 
L 103.01882 236.63182 
L 103.552986 238.993965 
L 104.087151 238.811444 
L 104.621317 245.026076 
L 105.155483 245.67769 
L 107.292146 233.769285 
L 107.826311 229.462051 
L 108.360477 232.527324 
L 108.894643 230.034706 
L 109.428808 235.195546 
L 109.962974 236.796542 
L 110.49714 242.083191 
L 111.031305 239.038257 
L 111.565471 235.181133 
L 112.099637 235.638915 
L 112.633803 230.524864 
L 113.167968 232.334293 
L 114.2363 231.276916 
L 114.770465 234.1855 
L 115.304631 232.849062 
L 115.838797 227.258688 
L 116.372962 230.064349 
L 116.907128 227.415596 
L 117.441294 227.754198 
L 117.97546 222.625839 
L 118.509625 221.147832 
L 119.577957 217.182264 
L 120.112122 216.36982 
L 120.646288 220.254809 
L 121.180454 216.180559 
L 121.714619 219.994496 
L 122.248785 219.213681 
L 122.782951 217.359916 
L 123.317117 219.651757 
L 123.851282 219.137596 
L 124.385448 215.700429 
L 124.919614 215.668847 
L 125.453779 218.108322 
L 125.987945 226.31084 
L 126.522111 228.967925 
L 127.590442 231.904323 
L 128.124608 234.517503 
L 128.658773 233.352745 
L 129.192939 234.876314 
L 129.727105 235.086014 
L 130.261271 233.069222 
L 130.795436 235.385303 
L 131.329602 236.132886 
L 131.863768 229.934932 
L 132.397933 227.357019 
L 132.932099 230.922868 
L 133.466265 231.049074 
L 134.00043 229.351198 
L 134.534596 225.752347 
L 135.068762 225.229238 
L 135.602928 226.636315 
L 136.137093 228.608898 
L 136.671259 226.67939 
L 137.205425 225.690638 
L 137.73959 227.057716 
L 138.273756 227.494465 
L 138.807922 228.575081 
L 139.342087 226.419565 
L 139.876253 228.277434 
L 140.410419 226.797842 
L 140.944585 224.278954 
L 141.47875 222.795659 
L 142.012916 225.068343 
L 142.547082 221.140849 
L 143.081247 222.972193 
L 143.615413 221.657933 
L 144.149579 223.702316 
L 144.683744 228.555225 
L 145.752076 226.901344 
L 146.286241 227.02138 
L 146.820407 226.137914 
L 147.888739 229.868822 
L 148.422904 230.2453 
L 148.95707 224.729054 
L 149.491236 222.311007 
L 150.025401 223.690849 
L 150.559567 222.000583 
L 151.627898 224.462872 
L 152.162064 221.917724 
L 152.69623 223.312951 
L 153.230396 227.973007 
L 153.764561 230.441995 
L 154.832893 229.630063 
L 155.367058 226.008788 
L 155.901224 227.941119 
L 156.43539 225.765301 
L 156.969555 224.454952 
L 157.503721 224.778647 
L 158.037887 222.300808 
L 158.572053 220.798719 
L 159.106218 223.154467 
L 159.640384 220.001355 
L 160.17455 223.37905 
L 160.708715 223.109414 
L 161.242881 223.002442 
L 161.777047 221.693335 
L 162.311212 223.6583 
L 162.845378 223.657727 
L 163.379544 223.957732 
L 163.913709 221.019005 
L 164.447875 223.185474 
L 164.982041 222.878431 
L 165.516207 223.521795 
L 166.050372 227.110082 
L 166.584538 219.395402 
L 167.118704 219.498323 
L 167.652869 223.633399 
L 168.187035 219.520408 
L 168.721201 222.471357 
L 169.255366 221.314965 
L 169.789532 218.754053 
L 170.323698 220.503565 
L 170.857864 221.63136 
L 171.392029 223.069571 
L 171.926195 223.337666 
L 172.460361 227.846835 
L 172.994526 231.247638 
L 173.528692 231.546513 
L 174.062858 228.504794 
L 174.597023 226.61295 
L 175.131189 221.595017 
L 175.665355 219.516202 
L 176.199521 220.873493 
L 176.733686 221.123429 
L 177.267852 226.79794 
L 178.336183 232.211219 
L 178.870349 231.346475 
L 179.404515 229.412852 
L 180.472846 232.465311 
L 181.007012 236.731629 
L 181.541177 236.992643 
L 182.075343 236.194055 
L 182.609509 234.837408 
L 183.143675 236.945654 
L 183.67784 231.231402 
L 184.212006 227.746287 
L 184.746172 227.916726 
L 185.280337 229.311525 
L 185.814503 230.122866 
L 186.348669 229.595294 
L 186.882834 229.548504 
L 187.417 228.078421 
L 187.951166 225.796307 
L 189.019497 218.438436 
L 189.553663 218.65279 
L 190.087829 217.44364 
L 190.621994 218.448917 
L 191.15616 220.024244 
L 191.690326 214.463735 
L 192.224491 215.679142 
L 192.758657 209.872188 
L 193.292823 210.773459 
L 193.826989 209.946634 
L 194.361154 206.713229 
L 194.89532 206.543194 
L 195.429486 205.30974 
L 195.963651 205.90386 
L 196.497817 207.171653 
L 197.031983 207.54751 
L 197.566148 209.314452 
L 198.100314 204.518014 
L 198.63448 204.900102 
L 199.168646 199.824924 
L 199.702811 207.469107 
L 200.236977 207.31499 
L 200.771143 205.595933 
L 201.305308 206.340921 
L 201.839474 203.084266 
L 202.37364 201.135526 
L 202.907805 201.827306 
L 203.441971 200.468729 
L 203.976137 192.214507 
L 205.044468 190.40553 
L 205.578634 191.583612 
L 206.1128 191.092989 
L 206.646965 194.737583 
L 207.181131 195.211029 
L 207.715297 187.960267 
L 208.249462 184.742219 
L 208.783628 182.763649 
L 209.317794 179.426473 
L 209.851959 173.793252 
L 210.386125 171.940877 
L 210.920291 165.719108 
L 211.454457 162.444307 
L 211.988622 161.845838 
L 212.522788 156.628541 
L 213.056954 163.535139 
L 213.591119 165.12406 
L 214.125285 164.232525 
L 214.659451 166.829052 
L 215.193616 167.186705 
L 216.261948 170.799138 
L 216.796114 162.672041 
L 217.330279 160.705017 
L 217.864445 160.76087 
L 218.398611 156.744461 
L 218.932776 157.346559 
L 219.466942 154.603527 
L 220.001108 153.451866 
L 220.535273 148.483328 
L 221.069439 152.624806 
L 221.603605 150.230952 
L 222.13777 149.760036 
L 222.671936 153.114476 
L 223.206102 149.82489 
L 223.740268 152.328029 
L 224.274433 147.377734 
L 224.808599 145.733664 
L 225.342765 143.539831 
L 225.87693 143.192423 
L 226.411096 140.365529 
L 226.945262 145.867484 
L 227.479427 145.537807 
L 228.013593 147.316581 
L 228.547759 146.363719 
L 229.081925 146.399745 
L 229.61609 144.443863 
L 230.150256 146.851837 
L 230.684422 141.221711 
L 231.218587 134.12972 
L 231.752753 134.653144 
L 232.286919 134.592171 
L 232.821084 133.616406 
L 233.35525 129.681506 
L 233.889416 123.811099 
L 234.423582 127.370781 
L 234.957747 129.131223 
L 236.026079 135.502621 
L 236.560244 140.340888 
L 237.09441 139.142086 
L 237.628576 142.525302 
L 238.162741 137.892362 
L 238.696907 135.044045 
L 239.765238 141.044456 
L 240.299404 142.780857 
L 240.83357 138.460178 
L 241.367736 140.913797 
L 241.901901 145.297359 
L 242.436067 145.340215 
L 242.970233 144.113595 
L 243.504398 145.981079 
L 244.038564 141.009171 
L 244.57273 140.179403 
L 245.106895 138.708484 
L 245.641061 141.179532 
L 246.175227 141.193331 
L 246.709393 141.558567 
L 247.243558 148.274561 
L 247.777724 147.307331 
L 248.31189 152.572337 
L 248.846055 152.553343 
L 249.380221 156.844611 
L 249.914387 150.712328 
L 250.448552 149.631144 
L 251.516884 144.08247 
L 252.05105 147.950377 
L 252.585215 154.666315 
L 253.119381 155.544234 
L 253.653547 152.762612 
L 254.187712 152.385741 
L 255.256044 147.022072 
L 255.790209 151.384398 
L 256.324375 150.419097 
L 256.858541 144.420054 
L 257.392706 146.027014 
L 257.926872 151.996652 
L 258.461038 152.584443 
L 258.995204 153.866781 
L 259.529369 152.512753 
L 260.063535 155.071123 
L 260.597701 154.695782 
L 261.131866 161.190327 
L 261.666032 158.547721 
L 262.734363 149.730933 
L 263.268529 154.153459 
L 263.802695 153.095862 
L 264.336861 161.874393 
L 264.871026 160.929226 
L 265.405192 161.015995 
L 265.939358 163.866293 
L 266.473523 162.742613 
L 267.007689 162.228854 
L 267.541855 159.333786 
L 268.07602 158.850689 
L 268.610186 158.046917 
L 269.144352 163.719721 
L 269.678518 167.049784 
L 270.212683 168.352889 
L 270.746849 167.371458 
L 271.281015 167.286152 
L 271.81518 162.736549 
L 272.349346 165.211522 
L 272.883512 165.81699 
L 273.417677 164.957584 
L 273.951843 165.539071 
L 274.486009 163.966833 
L 275.020175 165.552964 
L 275.55434 161.237233 
L 276.088506 162.081643 
L 276.622672 158.661532 
L 277.156837 158.64713 
L 277.691003 154.098899 
L 278.225169 158.160112 
L 278.759334 156.516836 
L 279.2935 157.700275 
L 279.827666 156.90668 
L 280.361831 153.245198 
L 281.964329 163.225052 
L 282.498494 162.366199 
L 283.03266 167.850387 
L 283.566826 167.460885 
L 284.635157 174.422002 
L 285.169323 175.404763 
L 285.703488 174.181503 
L 286.237654 175.92092 
L 286.77182 177.263633 
L 287.305986 177.283311 
L 287.840151 177.981037 
L 288.374317 185.715606 
L 288.908483 186.868621 
L 289.442648 186.518076 
L 289.976814 183.207432 
L 290.51098 177.10533 
L 291.045145 175.041206 
L 291.579311 174.705099 
L 292.113477 177.437985 
L 292.647643 177.073162 
L 293.181808 174.679729 
L 293.715974 170.85002 
L 294.25014 173.341945 
L 294.784305 172.541942 
L 295.318471 170.032774 
L 295.852637 164.425528 
L 296.386802 163.563804 
L 296.920968 165.064301 
L 297.455134 167.001403 
L 297.989299 167.954426 
L 298.523465 169.776507 
L 299.057631 167.2303 
L 299.591797 163.960303 
L 300.125962 161.705932 
L 300.660128 158.058092 
L 301.194294 159.30332 
L 301.728459 158.067447 
L 302.262625 159.107181 
L 302.796791 158.872822 
L 303.330956 155.120225 
L 303.865122 155.104095 
L 304.399288 160.549679 
L 304.933454 161.196203 
L 305.467619 163.207315 
L 306.001785 167.571385 
L 306.535951 169.802732 
L 307.070116 166.85996 
L 307.604282 161.774773 
L 308.138448 163.121397 
L 309.206779 156.430426 
L 309.740945 159.777071 
L 310.809276 159.817296 
L 311.343442 159.200324 
L 311.877608 163.82768 
L 312.411773 164.758165 
L 313.480105 157.660094 
L 314.01427 152.093833 
L 314.548436 152.996949 
L 315.082602 147.298918 
L 315.616767 145.196159 
L 316.150933 149.165116 
L 316.685099 146.778045 
L 317.219265 147.728636 
L 317.75343 146.067002 
L 318.287596 146.269112 
L 318.821762 142.535067 
L 319.355927 141.657693 
L 319.890093 142.401722 
L 320.424259 139.391245 
L 320.958424 138.513056 
L 321.49259 139.651693 
L 322.026756 135.692661 
L 322.560922 136.819511 
L 323.629253 140.155323 
L 324.163419 144.45678 
L 324.697584 146.011727 
L 325.23175 140.313024 
L 325.765916 142.940023 
L 326.300081 142.809062 
L 326.834247 146.031499 
L 327.368413 147.759056 
L 327.902579 143.095866 
L 328.436744 140.293402 
L 328.97091 142.02425 
L 329.505076 141.899824 
L 331.641738 151.73898 
L 332.175904 150.659475 
L 333.244235 147.200342 
L 333.778401 147.602832 
L 334.312567 151.56197 
L 334.846733 151.657506 
L 335.380898 154.312475 
L 335.915064 151.575922 
L 336.44923 149.806746 
L 336.983395 147.464809 
L 337.517561 148.403248 
L 338.051727 153.712789 
L 338.585892 150.7461 
L 339.120058 146.968992 
L 339.654224 151.304328 
L 340.18839 150.786902 
L 340.722555 147.109031 
L 341.256721 150.22515 
L 341.790887 144.822279 
L 342.325052 145.764366 
L 342.859218 148.882282 
L 343.393384 144.664139 
L 343.927549 143.673921 
L 344.461715 145.52959 
L 344.995881 142.781474 
L 345.530047 148.544508 
L 346.064212 142.992419 
L 346.598378 145.338551 
L 347.132544 144.374449 
L 347.666709 145.465625 
L 348.200875 144.050353 
L 348.735041 141.275038 
L 349.269206 143.646794 
L 349.803372 141.176427 
L 350.337538 141.955371 
L 350.871704 143.917473 
L 351.405869 144.484837 
L 351.940035 147.393285 
L 352.474201 149.670953 
L 353.008366 146.722504 
L 353.542532 147.069323 
L 354.076698 143.537725 
L 354.610863 142.134094 
L 355.145029 145.111212 
L 355.679195 150.692184 
L 356.21336 152.641043 
L 356.747526 151.746955 
L 357.281692 151.615584 
L 357.815858 153.98957 
L 358.350023 150.85923 
L 358.884189 155.965495 
L 359.418355 159.60708 
L 359.95252 159.124113 
L 360.486686 152.481237 
L 361.020852 151.139246 
L 361.555017 154.036687 
L 362.623349 150.013967 
L 363.157515 147.099999 
L 363.69168 148.222889 
L 364.225846 150.511437 
L 364.760012 150.052673 
L 365.294177 148.704485 
L 365.828343 143.805284 
L 366.362509 137.408125 
L 366.896674 139.51238 
L 367.43084 140.981443 
L 367.965006 141.067008 
L 368.499172 141.712855 
L 369.567503 138.575268 
L 370.101669 137.69155 
L 370.635834 133.525326 
L 371.17 133.898448 
L 371.704166 136.966838 
L 372.238331 141.563655 
L 373.306663 147.575573 
L 373.840828 153.104245 
L 374.374994 151.017756 
L 374.90916 150.358598 
L 375.443326 151.517689 
L 375.977491 154.070253 
L 376.511657 158.675485 
L 377.045823 161.304403 
L 377.579988 155.702454 
L 378.114154 162.172952 
L 378.64832 161.647728 
L 379.182485 159.334002 
L 379.716651 158.824661 
L 380.250817 159.662163 
L 380.784983 157.272585 
L 381.319148 160.449591 
L 381.853314 158.693592 
L 382.38748 154.326972 
L 382.921645 157.325821 
L 383.455811 159.660231 
L 383.989977 159.151573 
L 384.524142 156.101312 
L 385.058308 152.00065 
L 385.592474 149.860437 
L 386.12664 151.75737 
L 386.660805 154.9792 
L 387.194971 154.14961 
L 387.729137 152.855933 
L 388.263302 156.034093 
L 388.797468 155.751171 
L 389.331634 154.655809 
L 389.865799 151.430467 
L 390.399965 154.283557 
L 390.934131 152.516029 
L 391.468296 155.899731 
L 392.002462 157.065823 
L 392.536628 157.194256 
L 393.070794 152.56275 
L 393.604959 142.524992 
L 394.139125 141.656681 
L 394.673291 140.05995 
L 395.207456 136.916292 
L 395.741622 140.914536 
L 396.275788 138.502084 
L 396.809953 142.135502 
L 397.878285 132.652954 
L 398.412451 131.027736 
L 398.946616 133.363649 
L 399.480782 128.202416 
L 400.014948 127.307176 
L 400.549113 126.86552 
L 401.083279 124.996821 
L 401.617445 130.090227 
L 402.15161 128.683918 
L 402.685776 125.551279 
L 403.219942 124.413137 
L 403.754108 123.86405 
L 404.288273 126.657629 
L 404.822439 124.593917 
L 405.356605 123.876834 
L 405.89077 123.742248 
L 406.424936 125.349053 
L 406.959102 122.63593 
L 407.493267 118.724087 
L 408.027433 117.430602 
L 408.561599 114.579074 
L 409.62993 105.410953 
L 410.164096 104.607203 
L 410.698262 105.156394 
L 411.232427 106.326354 
L 411.766593 106.175794 
L 412.300759 104.366672 
L 412.834924 101.362784 
L 413.36909 102.572037 
L 413.903256 102.000866 
L 414.437421 104.966864 
L 414.971587 100.957799 
L 415.505753 102.058431 
L 416.039919 100.844236 
L 416.574084 102.957216 
L 417.10825 103.769031 
L 417.642416 105.77521 
L 418.176581 100.405655 
L 418.710747 99.185698 
L 419.244913 99.591829 
L 419.779078 102.411385 
L 420.313244 104.185933 
L 420.84741 102.322797 
L 421.381576 97.062153 
L 421.915741 101.379878 
L 422.449907 104.101828 
L 422.984073 104.535473 
L 423.518238 106.362906 
L 424.052404 111.355547 
L 424.58657 111.188404 
L 425.120735 108.773256 
L 425.654901 113.506561 
L 426.189067 112.752083 
L 427.257398 106.559859 
L 427.791564 107.743904 
L 428.32573 100.528468 
L 428.859895 98.702972 
L 429.394061 101.102223 
L 429.928227 97.9492 
L 430.462392 101.312308 
L 430.996558 98.435291 
L 431.530724 102.228002 
L 432.064889 99.676601 
L 432.599055 101.371697 
L 433.133221 97.761056 
L 433.667387 95.356923 
L 434.201552 93.860317 
L 434.735718 93.569184 
L 435.269884 90.081186 
L 435.804049 95.5737 
L 436.872381 92.729913 
L 437.406546 90.873321 
L 437.940712 88.191975 
L 438.474878 76.50364 
L 439.009044 76.026678 
L 439.543209 73.388076 
L 440.077375 72.798206 
L 440.611541 67.731335 
L 441.145706 73.986609 
L 441.679872 68.528374 
L 442.214038 70.573497 
L 442.748203 77.575006 
L 443.282369 80.843393 
L 443.816535 81.279609 
L 444.350701 80.561595 
L 444.884866 80.59524 
L 445.419032 77.925687 
L 446.487363 78.01376 
L 447.021529 84.6115 
L 447.555695 82.979064 
L 448.08986 79.707788 
L 448.624026 80.914997 
L 449.158192 86.669858 
L 449.692357 90.723002 
L 450.226523 85.398992 
L 451.294855 89.14143 
L 451.82902 91.581574 
L 452.363186 89.354006 
L 452.897352 91.073733 
L 453.431517 93.664785 
L 453.965683 98.225627 
L 454.499849 98.45051 
L 455.034014 95.24044 
L 455.56818 95.590208 
L 456.102346 92.743072 
L 457.704843 90.854224 
L 458.239009 90.637779 
L 458.773174 87.332772 
L 459.30734 85.701592 
L 459.841506 87.395016 
L 460.375671 86.884452 
L 460.909837 87.01173 
L 461.444003 85.389331 
L 461.978169 84.716696 
L 462.512334 83.311803 
L 463.0465 87.812564 
L 463.580666 86.519581 
L 464.114831 82.307266 
L 464.648997 86.414445 
L 465.183163 81.302984 
L 465.717328 80.263019 
L 466.251494 80.803419 
L 466.78566 86.33226 
L 467.319825 82.826186 
L 467.853991 85.744673 
L 468.388157 87.229443 
L 468.922323 85.416981 
L 470.52482 94.932991 
L 471.058985 95.169398 
L 471.593151 93.233782 
L 472.661482 90.496388 
L 473.195648 91.457483 
L 473.729814 90.911398 
L 474.26398 92.946866 
L 474.798145 86.619984 
L 475.332311 85.902918 
L 475.866477 91.881587 
L 476.400642 95.092624 
L 476.934808 90.008453 
L 477.468974 94.145974 
L 478.003139 95.394843 
L 478.537305 94.033553 
L 479.071471 97.324751 
L 479.605637 93.908552 
L 480.139802 88.578248 
L 480.673968 91.035721 
L 481.208134 87.410246 
L 482.276465 93.069618 
L 483.344796 91.348343 
L 483.878962 93.091309 
L 484.413128 90.364645 
L 484.947294 94.81984 
L 485.481459 97.363253 
L 486.015625 100.589425 
L 487.618122 93.35674 
L 488.152288 97.265808 
L 488.686453 96.745625 
L 489.220619 95.217963 
L 489.754785 100.116274 
L 490.28895 102.546138 
L 491.357282 98.157186 
L 491.891448 97.258019 
L 492.425613 95.469091 
L 492.959779 94.354685 
L 493.493945 93.780284 
L 494.02811 94.010338 
L 494.562276 96.603934 
L 495.096442 97.25578 
L 495.630607 98.394502 
L 496.164773 91.094704 
L 496.698939 90.175857 
L 497.233105 90.099778 
L 497.76727 90.712148 
L 498.301436 90.961156 
L 498.835602 91.698434 
L 499.369767 89.894902 
L 499.903933 89.877162 
L 500.438099 87.241326 
L 500.972264 89.297586 
L 501.50643 88.097305 
L 502.040596 85.252214 
L 502.574762 88.741547 
L 503.108927 88.10945 
L 503.643093 87.229907 
L 504.177259 88.163631 
L 504.711424 89.5713 
L 505.24559 95.22556 
L 505.779756 91.549154 
L 506.313921 94.3377 
L 506.848087 98.073327 
L 507.382253 95.926275 
L 507.916418 101.48753 
L 508.450584 98.400379 
L 508.98475 96.94695 
L 509.518916 94.983919 
L 510.053081 95.383575 
L 510.587247 99.045453 
L 511.121413 104.769646 
L 511.655578 100.163972 
L 512.72391 103.000491 
L 513.258075 98.001501 
L 513.792241 99.846375 
L 514.860573 101.097202 
L 515.394738 101.413296 
L 515.928904 104.512567 
L 516.46307 106.130459 
L 516.997235 102.057957 
L 517.531401 99.597357 
L 518.065567 108.66943 
L 518.599732 114.571712 
L 519.133898 113.441793 
L 519.668064 113.680264 
L 520.20223 114.719972 
L 520.736395 111.415393 
L 521.270561 116.774233 
L 521.804727 112.993261 
L 522.338892 112.481971 
L 522.873058 110.691191 
L 523.407224 109.805035 
L 523.941389 107.095049 
L 524.475555 107.757197 
L 525.009721 109.316501 
L 525.543886 106.804432 
L 526.078052 106.157084 
L 526.612218 109.907013 
L 528.214715 97.237062 
L 528.748881 96.881303 
L 529.283046 95.685945 
L 529.817212 96.759601 
L 530.351378 99.662217 
L 530.885543 99.351016 
L 531.419709 98.696183 
L 531.953875 100.637152 
L 532.488041 94.862799 
L 533.022206 99.758938 
L 534.090538 104.132924 
L 534.624703 100.037465 
L 535.158869 100.721992 
L 535.693035 101.617337 
L 536.761366 106.488851 
L 537.295532 110.392556 
L 537.829698 107.162358 
L 538.363863 105.178989 
L 538.898029 102.016578 
L 539.432195 103.952143 
L 539.96636 96.076878 
L 540.500526 99.007018 
L 541.034692 105.240034 
L 541.568857 106.031657 
L 542.103023 105.501013 
L 542.637189 103.060566 
L 543.171354 106.088744 
L 543.70552 104.159606 
L 544.239686 98.775488 
L 545.308017 103.477371 
L 545.842183 108.613674 
L 546.376349 107.764555 
L 547.978846 99.858201 
L 548.513011 95.363967 
L 549.047177 94.859667 
L 549.581343 91.791903 
L 550.649674 96.981115 
L 551.18384 96.125803 
L 551.718006 98.550577 
L 552.252171 96.671341 
L 552.786337 92.295546 
L 553.320503 90.931813 
L 554.388834 95.328261 
L 554.923 90.978793 
L 555.457166 93.34987 
L 555.991331 92.963337 
L 556.525497 93.658151 
L 557.059663 93.384404 
L 557.593828 89.866882 
L 558.127994 91.433548 
L 558.66216 95.703416 
L 559.196325 91.086434 
L 559.730491 90.283413 
L 560.264657 87.914249 
L 560.798823 87.865117 
L 561.332988 85.330304 
L 562.40132 76.875813 
L 562.935485 77.623493 
L 563.469651 78.617532 
L 564.003817 77.268988 
L 564.537982 76.508561 
L 565.072148 74.62112 
L 565.606314 76.743499 
L 566.140479 83.912724 
L 566.674645 82.396279 
L 567.742977 77.71561 
L 568.277142 72.391507 
L 568.811308 69.596325 
L 569.345474 70.709445 
L 569.879639 67.490834 
L 570.413805 67.64801 
L 570.947971 63.569325 
L 571.482136 62.704678 
L 572.016302 61.15658 
L 572.550468 60.323166 
L 573.084634 60.038834 
L 573.618799 64.667511 
L 574.152965 64.373725 
L 574.687131 71.435246 
L 575.221296 69.756062 
L 575.755462 66.514992 
L 576.289628 59.910959 
L 576.823793 58.61233 
L 577.357959 60.773952 
L 577.892125 65.694454 
L 578.426291 59.414911 
L 578.960456 63.822966 
L 579.494622 60.875318 
L 580.028788 68.05888 
L 580.562953 68.110459 
L 581.097119 65.841862 
L 581.631285 64.702557 
L 582.16545 64.722783 
L 583.233782 69.967235 
L 583.767947 66.673821 
L 584.302113 65.18582 
L 584.836279 65.582368 
L 585.370445 64.817365 
L 585.90461 67.634228 
L 586.438776 64.29272 
L 586.972942 60.18732 
L 587.507107 62.547443 
L 588.041273 62.113001 
L 588.575439 58.677406 
L 589.109604 60.602205 
L 589.64377 54.026069 
L 590.177936 49.096886 
L 590.712102 49.875111 
L 591.246267 46.635214 
L 591.780433 41.196758 
L 592.314599 45.072234 
L 592.848764 42.975708 
L 593.38293 43.32578 
L 593.917096 43.907087 
L 594.451261 41.516786 
L 594.985427 42.934278 
L 596.053759 51.731947 
L 596.587924 51.682813 
L 597.12209 49.564047 
L 597.656256 49.528069 
L 598.190421 49.90303 
L 598.724587 49.889149 
L 599.258753 45.655664 
L 599.792918 43.844371 
L 600.327084 46.120225 
L 600.86125 46.931589 
L 601.395415 42.961587 
L 601.929581 44.708417 
L 602.463747 45.8596 
L 602.997913 45.827339 
L 603.532078 49.11949 
L 604.066244 46.122548 
L 604.60041 53.000909 
L 605.134575 48.257914 
L 605.668741 49.535614 
L 606.202907 53.430739 
L 606.737072 52.419448 
L 607.271238 57.752332 
L 607.805404 55.932798 
L 608.33957 53.358773 
L 608.873735 55.080299 
L 609.407901 56.205456 
L 609.942067 53.074072 
L 610.476232 55.097673 
L 611.010398 54.914243 
L 611.544564 53.695788 
L 612.078729 48.607993 
L 612.612895 50.1022 
L 613.147061 49.879318 
L 613.681227 46.149207 
L 614.215392 54.197048 
L 614.749558 54.941225 
L 615.817889 66.60632 
L 616.352055 60.301224 
L 616.886221 59.519536 
L 617.420386 54.693746 
L 617.954552 55.35006 
L 618.488718 53.517893 
L 619.022883 54.780275 
L 619.557049 56.408203 
L 620.091215 56.533753 
L 620.625381 56.013995 
L 621.159546 51.018749 
L 621.693712 51.534418 
L 622.227878 50.210539 
L 622.762043 50.918191 
L 623.296209 50.343828 
L 623.830375 54.410772 
L 624.36454 50.820735 
L 624.898706 52.369609 
L 625.432872 52.125201 
L 625.967038 52.695712 
L 626.501203 49.442779 
L 627.035369 47.663868 
L 627.569535 47.509982 
L 628.1037 46.838022 
L 628.637866 45.626752 
L 629.172032 43.090797 
L 629.706197 41.351999 
L 630.240363 37.109082 
L 630.774529 31.779551 
L 631.308695 29.681162 
L 631.84286 33.837633 
L 632.377026 28.078556 
L 632.911192 20.992727 
L 633.979523 23.291447 
L 634.513689 29.845962 
L 635.047854 27.211515 
L 635.58202 30.357629 
L 636.116186 24.321388 
L 636.650352 32.222666 
L 637.184517 31.875538 
L 637.718683 29.583102 
L 638.252849 30.769554 
L 638.787014 33.223811 
L 639.32118 32.30629 
L 639.855346 33.894789 
L 640.389511 34.887907 
L 640.923677 34.901552 
L 641.457843 36.583175 
L 641.992008 37.203843 
L 642.526174 34.556863 
L 643.06034 35.703429 
L 643.594506 35.055716 
L 644.128671 37.375798 
L 644.662837 34.321682 
L 645.197003 38.351759 
L 645.731168 35.160417 
L 646.265334 44.770401 
L 646.7995 47.573342 
L 647.333665 52.535577 
L 647.867831 49.18937 
L 648.401997 48.21929 
L 648.936163 52.294753 
L 649.470328 54.013677 
L 650.004494 49.639704 
L 650.53866 49.742781 
L 651.072825 47.870847 
L 652.141157 57.335369 
L 652.675322 55.458161 
L 653.209488 48.049258 
L 653.743654 49.722377 
L 654.27782 47.78806 
L 654.811985 50.763116 
L 655.346151 46.727699 
L 656.414482 49.504601 
L 656.948648 55.506035 
L 657.482814 56.801094 
L 658.016979 56.187353 
L 658.551145 51.77994 
L 659.085311 55.503772 
L 659.619476 52.365712 
L 660.687808 54.356952 
L 661.221974 57.368358 
L 661.756139 62.766175 
L 662.290305 66.611 
L 662.824471 61.47959 
L 663.358636 65.267651 
L 663.358636 65.267651 
" style="fill:none;stroke:#003559;stroke-linecap:square;stroke-width:2;"/>
   </g>
   <g id="line2d_25">
    <path clip-path="url(#p19796cb8a6)" d="M 78.981364 211.24598 
L 79.515529 204.672523 
L 80.049695 216.604475 
L 80.583861 213.872625 
L 81.118026 216.623257 
L 81.652192 215.387731 
L 82.186358 210.261471 
L 82.720524 210.974248 
L 83.254689 211.943795 
L 84.323021 203.776546 
L 84.857186 207.76048 
L 85.391352 208.679335 
L 85.925518 216.225461 
L 86.459683 208.658176 
L 86.993849 215.442032 
L 87.528015 214.213491 
L 88.06218 204.014995 
L 88.596346 199.189668 
L 89.130512 200.693275 
L 90.198843 208.130332 
L 90.733009 202.631629 
L 91.267175 200.448115 
L 91.80134 200.244972 
L 92.335506 184.849104 
L 92.869672 189.460979 
L 93.403837 192.046571 
L 93.938003 193.956625 
L 94.472169 192.418542 
L 95.006335 190.337558 
L 95.5405 191.640037 
L 96.074666 187.06056 
L 96.608832 183.621352 
L 97.142997 185.10891 
L 97.677163 199.110185 
L 98.211329 194.274162 
L 98.745494 199.554878 
L 99.27966 203.127493 
L 99.813826 203.782263 
L 100.347992 210.749803 
L 100.882157 215.252717 
L 101.416323 214.784083 
L 101.950489 216.709147 
L 102.484654 214.877696 
L 103.01882 219.788091 
L 103.552986 221.137056 
L 104.087151 227.20766 
L 104.621317 228.87058 
L 105.155483 227.289135 
L 105.689648 228.732012 
L 106.223814 236.879546 
L 106.75798 237.99843 
L 107.292146 237.212243 
L 107.826311 230.860498 
L 108.360477 231.130654 
L 108.894643 233.486848 
L 109.428808 240.114377 
L 109.962974 228.900112 
L 111.031305 240.6698 
L 111.565471 241.535233 
L 112.099637 251.752384 
L 112.633803 245.764768 
L 113.167968 244.749043 
L 113.702134 242.007057 
L 114.2363 247.490751 
L 114.770465 250.32224 
L 115.838797 240.412934 
L 116.372962 224.345841 
L 116.907128 218.039025 
L 117.441294 228.750743 
L 117.97546 228.187728 
L 118.509625 230.168886 
L 119.043791 223.873579 
L 119.577957 224.289875 
L 120.112122 221.402956 
L 120.646288 223.110983 
L 121.180454 219.521868 
L 121.714619 211.031108 
L 122.248785 214.414043 
L 122.782951 225.899853 
L 123.317117 231.624798 
L 123.851282 222.618716 
L 124.385448 221.209885 
L 124.919614 222.744511 
L 125.453779 228.068633 
L 125.987945 221.950467 
L 126.522111 220.153673 
L 127.056276 220.639012 
L 127.590442 223.564118 
L 128.124608 224.288853 
L 128.658773 225.946336 
L 129.192939 222.529932 
L 129.727105 215.095845 
L 130.261271 226.100947 
L 130.795436 234.161828 
L 131.329602 234.549001 
L 131.863768 233.935537 
L 132.397933 242.511521 
L 132.932099 245.836251 
L 134.00043 250.255049 
L 134.534596 252.690759 
L 135.068762 253.019066 
L 136.137093 243.632511 
L 136.671259 240.149849 
L 137.205425 238.447001 
L 137.73959 242.32089 
L 138.273756 244.880473 
L 138.807922 240.838351 
L 139.342087 240.040429 
L 139.876253 235.381782 
L 140.410419 233.726948 
L 140.944585 233.224645 
L 141.47875 230.570353 
L 142.012916 239.10397 
L 142.547082 239.842526 
L 143.081247 242.989267 
L 143.615413 238.079864 
L 144.149579 241.701118 
L 144.683744 240.240515 
L 145.21791 242.511708 
L 145.752076 239.706316 
L 146.286241 235.529232 
L 146.820407 236.585304 
L 147.354573 235.878515 
L 147.888739 234.77417 
L 148.422904 230.289098 
L 148.95707 232.042771 
L 149.491236 231.724432 
L 150.025401 234.050093 
L 150.559567 239.387084 
L 151.093733 238.329023 
L 151.627898 235.865241 
L 152.162064 240.367511 
L 152.69623 231.429016 
L 153.230396 235.607611 
L 153.764561 231.345567 
L 154.298727 229.180115 
L 154.832893 238.774637 
L 155.367058 238.887103 
L 155.901224 247.69042 
L 156.43539 248.26137 
L 156.969555 244.452663 
L 157.503721 234.030432 
L 158.037887 229.566186 
L 158.572053 238.171503 
L 159.106218 240.130096 
L 159.640384 231.63607 
L 160.17455 230.594135 
L 160.708715 220.530973 
L 161.242881 224.648192 
L 161.777047 227.804304 
L 162.311212 235.439353 
L 162.845378 237.597063 
L 163.379544 230.484566 
L 163.913709 235.732754 
L 164.447875 231.005615 
L 164.982041 228.399146 
L 165.516207 223.911994 
L 166.050372 225.382826 
L 166.584538 225.247855 
L 167.118704 213.033256 
L 167.652869 220.175374 
L 168.187035 215.828134 
L 168.721201 207.088631 
L 169.255366 204.430045 
L 169.789532 194.840108 
L 170.323698 211.977209 
L 170.857864 213.739859 
L 171.392029 220.454544 
L 171.926195 222.864308 
L 172.460361 223.517898 
L 172.994526 220.814249 
L 173.528692 225.737319 
L 174.062858 220.813161 
L 174.597023 229.831873 
L 175.131189 224.435025 
L 175.665355 225.942984 
L 177.267852 256.319945 
L 177.802018 261.979641 
L 178.336183 261.477308 
L 178.870349 254.294742 
L 179.404515 250.069155 
L 179.93868 257.67112 
L 180.472846 270.584177 
L 181.007012 272.438344 
L 181.541177 280.464548 
L 182.075343 281.645716 
L 182.609509 285.619212 
L 183.143675 271.784276 
L 183.67784 281.479251 
L 184.212006 280.016126 
L 184.746172 270.090575 
L 185.280337 272.626691 
L 185.814503 277.207873 
L 186.348669 268.259778 
L 187.417 289.8756 
L 187.951166 296.847273 
L 188.485332 295.006302 
L 189.019497 291.127913 
L 189.553663 292.134599 
L 190.087829 280.541302 
L 190.621994 281.968495 
L 191.15616 282.274399 
L 191.690326 284.23381 
L 192.224491 277.762293 
L 192.758657 277.945681 
L 193.292823 280.337668 
L 193.826989 271.262512 
L 194.361154 264.294548 
L 194.89532 258.855751 
L 195.963651 272.115166 
L 197.031983 275.082958 
L 197.566148 277.52857 
L 198.100314 278.817445 
L 198.63448 275.288985 
L 199.168646 280.893729 
L 199.702811 279.556162 
L 201.305308 285.902875 
L 201.839474 281.810052 
L 202.37364 280.215902 
L 202.907805 284.451774 
L 203.441971 282.543979 
L 203.976137 281.683408 
L 204.510302 279.267629 
L 205.044468 280.551844 
L 205.578634 274.868703 
L 206.1128 272.544584 
L 207.181131 285.40568 
L 207.715297 292.829374 
L 208.249462 290.379293 
L 208.783628 293.856196 
L 209.317794 295.456499 
L 209.851959 295.524233 
L 210.386125 288.510725 
L 210.920291 276.188595 
L 211.454457 276.447543 
L 211.988622 265.055899 
L 212.522788 261.617978 
L 213.056954 254.495508 
L 213.591119 255.651754 
L 214.125285 262.161555 
L 214.659451 259.053536 
L 215.193616 251.415627 
L 215.727782 259.719708 
L 216.261948 259.636369 
L 216.796114 257.992946 
L 217.330279 254.233734 
L 217.864445 259.871525 
L 218.398611 262.555103 
L 218.932776 256.953013 
L 219.466942 246.404853 
L 220.001108 245.394909 
L 220.535273 239.439115 
L 221.069439 238.037673 
L 221.603605 235.1527 
L 222.13777 236.904504 
L 222.671936 237.760189 
L 223.206102 240.569882 
L 223.740268 239.571219 
L 224.274433 232.88328 
L 224.808599 231.363568 
L 225.342765 227.191978 
L 225.87693 230.39734 
L 226.411096 225.875151 
L 226.945262 243.334154 
L 227.479427 250.909226 
L 228.013593 252.370413 
L 228.547759 262.120371 
L 229.081925 258.554658 
L 229.61609 256.984556 
L 230.150256 261.676956 
L 230.684422 260.740042 
L 231.218587 268.726304 
L 231.752753 273.328731 
L 232.286919 275.050274 
L 232.821084 283.476303 
L 233.35525 277.334148 
L 233.889416 280.550671 
L 234.423582 274.521386 
L 234.957747 274.921879 
L 235.491913 272.796739 
L 236.026079 277.410039 
L 236.560244 278.686604 
L 237.09441 280.589375 
L 237.628576 278.887135 
L 238.162741 270.899337 
L 238.696907 273.583125 
L 239.231073 274.063054 
L 239.765238 271.656751 
L 240.299404 266.475943 
L 240.83357 266.663573 
L 241.367736 268.354535 
L 241.901901 271.149489 
L 242.436067 270.675735 
L 242.970233 268.9053 
L 243.504398 272.247133 
L 244.038564 273.502759 
L 244.57273 268.879088 
L 245.106895 268.579348 
L 245.641061 271.303312 
L 247.777724 254.556519 
L 248.31189 256.312989 
L 248.846055 254.724695 
L 249.380221 252.517263 
L 249.914387 251.383387 
L 250.448552 260.709915 
L 250.982718 260.363094 
L 251.516884 257.959574 
L 252.05105 254.753452 
L 252.585215 255.960081 
L 253.119381 255.326232 
L 254.187712 272.698568 
L 254.721878 288.480171 
L 255.256044 289.282096 
L 256.324375 269.925612 
L 256.858541 275.677763 
L 257.392706 271.652181 
L 257.926872 264.253423 
L 258.461038 265.482675 
L 258.995204 275.856185 
L 259.529369 267.574816 
L 260.597701 270.804313 
L 261.131866 260.89032 
L 261.666032 257.817489 
L 262.200198 252.646737 
L 262.734363 243.197123 
L 263.268529 243.541632 
L 263.802695 248.514023 
L 264.336861 243.582243 
L 264.871026 243.042167 
L 265.405192 238.30211 
L 265.939358 235.458518 
L 266.473523 239.157308 
L 267.007689 238.387615 
L 267.541855 239.64744 
L 268.07602 240.331756 
L 268.610186 239.913811 
L 269.144352 237.279666 
L 269.678518 235.438147 
L 270.212683 241.945275 
L 270.746849 237.706378 
L 271.281015 245.094155 
L 271.81518 231.907985 
L 272.349346 235.527 
L 272.883512 235.163313 
L 273.417677 226.867416 
L 273.951843 227.288427 
L 275.020175 241.129524 
L 275.55434 238.831193 
L 276.088506 235.79538 
L 276.622672 230.389823 
L 277.156837 228.129552 
L 277.691003 230.144099 
L 278.225169 226.744255 
L 278.759334 217.809952 
L 279.2935 221.662329 
L 279.827666 200.387353 
L 280.361831 202.072807 
L 280.895997 194.075549 
L 281.430163 182.318916 
L 281.964329 176.214428 
L 282.498494 173.685 
L 283.03266 168.667312 
L 283.566826 159.993567 
L 284.100991 174.889957 
L 284.635157 171.440734 
L 285.169323 173.100808 
L 285.703488 176.463366 
L 286.237654 175.051585 
L 286.77182 173.282612 
L 287.305986 169.657437 
L 287.840151 172.420817 
L 288.374317 165.062003 
L 288.908483 176.755533 
L 289.442648 181.805786 
L 289.976814 188.315426 
L 290.51098 187.112184 
L 291.045145 189.462732 
L 291.579311 185.813372 
L 292.113477 189.862777 
L 292.647643 181.807756 
L 293.181808 176.927059 
L 293.715974 179.441037 
L 294.25014 188.858763 
L 294.784305 195.306613 
L 295.318471 203.815024 
L 295.852637 196.158095 
L 296.386802 191.284977 
L 296.920968 198.193521 
L 297.455134 186.743491 
L 297.989299 187.997626 
L 298.523465 200.639067 
L 299.591797 185.770604 
L 300.125962 185.253961 
L 300.660128 190.019972 
L 301.194294 182.318049 
L 301.728459 184.798138 
L 302.262625 184.422294 
L 302.796791 181.186235 
L 303.330956 178.909281 
L 303.865122 181.126908 
L 304.399288 186.752383 
L 304.933454 181.860655 
L 305.467619 194.292736 
L 306.535951 189.831703 
L 307.070116 186.272658 
L 307.604282 187.938704 
L 308.138448 186.164305 
L 308.672613 181.024371 
L 309.206779 186.651522 
L 309.740945 185.845681 
L 310.275111 183.1258 
L 310.809276 190.000414 
L 311.343442 195.024426 
L 311.877608 185.310691 
L 312.411773 178.727539 
L 312.945939 182.598559 
L 313.480105 177.861062 
L 314.01427 174.955098 
L 315.082602 158.853733 
L 315.616767 172.750857 
L 316.150933 174.011947 
L 317.219265 155.111942 
L 317.75343 158.280785 
L 318.287596 165.097812 
L 318.821762 163.065363 
L 319.355927 166.367634 
L 319.890093 165.955102 
L 320.424259 172.36901 
L 320.958424 167.332688 
L 322.026756 160.195411 
L 322.560922 166.21101 
L 323.095087 175.679184 
L 323.629253 182.687319 
L 324.163419 179.274638 
L 324.697584 189.308903 
L 325.23175 184.968217 
L 325.765916 174.054568 
L 326.300081 177.254447 
L 326.834247 177.849505 
L 327.902579 165.629593 
L 328.436744 168.780552 
L 328.97091 169.306692 
L 329.505076 168.073362 
L 330.039241 169.129267 
L 330.573407 165.185505 
L 331.107573 162.702885 
L 331.641738 154.392384 
L 332.175904 164.025041 
L 332.71007 156.448353 
L 333.244235 151.03025 
L 333.778401 151.285403 
L 334.312567 148.245713 
L 334.846733 141.831857 
L 335.380898 139.468929 
L 335.915064 140.412428 
L 336.44923 138.159541 
L 336.983395 141.804913 
L 337.517561 149.127591 
L 338.585892 157.864837 
L 339.120058 156.183457 
L 339.654224 150.889438 
L 340.18839 148.86772 
L 340.722555 139.555252 
L 341.256721 139.523406 
L 342.325052 146.623261 
L 342.859218 151.447838 
L 343.393384 152.695415 
L 343.927549 143.877249 
L 344.461715 152.113656 
L 344.995881 148.218919 
L 345.530047 147.69476 
L 346.064212 142.043199 
L 346.598378 144.228582 
L 347.132544 139.206132 
L 347.666709 141.533571 
L 348.200875 137.044259 
L 348.735041 148.115866 
L 349.269206 144.455073 
L 349.803372 139.258235 
L 350.337538 148.103976 
L 350.871704 142.266782 
L 351.405869 148.331155 
L 351.940035 141.630297 
L 352.474201 140.874125 
L 353.008366 135.936455 
L 353.542532 132.871849 
L 354.076698 139.287177 
L 355.145029 120.835983 
L 355.679195 126.192597 
L 356.747526 118.167694 
L 357.281692 121.411758 
L 357.815858 126.842998 
L 358.350023 118.114048 
L 358.884189 119.618328 
L 359.418355 113.134771 
L 359.95252 100.465764 
L 360.486686 96.495898 
L 361.020852 101.0113 
L 361.555017 93.93939 
L 362.089183 101.469668 
L 362.623349 106.092653 
L 363.157515 86.95311 
L 363.69168 90.915778 
L 364.225846 87.740966 
L 364.760012 93.333642 
L 365.294177 93.096983 
L 365.828343 90.853991 
L 366.362509 106.263661 
L 366.896674 109.323245 
L 367.43084 104.269994 
L 367.965006 97.932615 
L 368.499172 94.867017 
L 369.033337 99.766573 
L 369.567503 96.357874 
L 370.101669 98.450076 
L 370.635834 102.275467 
L 371.17 101.336888 
L 371.704166 86.250078 
L 372.238331 90.928993 
L 372.772497 83.500869 
L 373.306663 80.972149 
L 373.840828 89.308757 
L 374.374994 94.054537 
L 374.90916 94.190107 
L 375.443326 96.207042 
L 375.977491 93.669799 
L 377.045823 104.276589 
L 377.579988 97.162631 
L 378.114154 96.460625 
L 378.64832 100.831018 
L 379.182485 99.938962 
L 379.716651 87.646021 
L 380.250817 90.376319 
L 380.784983 98.731372 
L 381.319148 92.043157 
L 381.853314 78.895954 
L 382.38748 70.09401 
L 382.921645 77.491865 
L 383.455811 89.522057 
L 383.989977 80.801445 
L 384.524142 81.098532 
L 385.058308 77.117698 
L 385.592474 77.483811 
L 386.12664 66.109132 
L 386.660805 64.862864 
L 387.194971 66.0889 
L 387.729137 64.433543 
L 388.263302 71.260862 
L 388.797468 69.492404 
L 389.331634 69.335292 
L 389.865799 81.927915 
L 390.934131 95.523846 
L 391.468296 104.594392 
L 392.002462 101.762655 
L 392.536628 94.159919 
L 393.070794 91.550247 
L 393.604959 100.157628 
L 394.139125 110.566856 
L 394.673291 105.198026 
L 395.207456 106.554866 
L 395.741622 106.639711 
L 396.275788 114.091596 
L 396.809953 125.974877 
L 397.344119 111.950049 
L 397.878285 115.190255 
L 398.412451 115.902609 
L 398.946616 122.43882 
L 399.480782 112.64078 
L 400.014948 114.378669 
L 400.549113 114.940905 
L 401.083279 114.256475 
L 401.617445 113.935649 
L 402.15161 104.831474 
L 402.685776 115.633445 
L 403.219942 111.410099 
L 403.754108 114.855201 
L 404.288273 117.002084 
L 404.822439 120.431174 
L 405.356605 117.493435 
L 405.89077 124.991702 
L 406.424936 127.951794 
L 406.959102 124.228754 
L 408.027433 129.996939 
L 408.561599 127.416864 
L 409.095765 126.586353 
L 409.62993 128.332359 
L 410.164096 127.720798 
L 410.698262 132.809509 
L 411.232427 127.342687 
L 411.766593 133.695972 
L 412.300759 143.113003 
L 412.834924 140.301871 
L 413.36909 147.960393 
L 413.903256 153.447248 
L 414.437421 154.516325 
L 414.971587 150.081371 
L 416.574084 157.553647 
L 417.10825 155.141072 
L 417.642416 158.018017 
L 418.176581 156.441718 
L 418.710747 148.188797 
L 419.244913 149.401423 
L 419.779078 151.500791 
L 421.381576 168.587988 
L 421.915741 174.972278 
L 422.449907 178.296875 
L 422.984073 176.245151 
L 423.518238 173.319197 
L 424.052404 175.782945 
L 424.58657 173.831011 
L 425.120735 181.388493 
L 426.189067 154.450058 
L 426.723233 155.093824 
L 427.257398 152.020673 
L 427.791564 151.367592 
L 428.32573 146.648729 
L 428.859895 150.36036 
L 429.394061 159.343584 
L 429.928227 154.474293 
L 430.462392 160.893066 
L 430.996558 158.740682 
L 432.064889 168.62862 
L 432.599055 162.74622 
L 433.133221 153.094983 
L 433.667387 153.945229 
L 434.201552 156.386296 
L 434.735718 154.534665 
L 435.269884 157.713006 
L 435.804049 167.897061 
L 436.338215 167.948034 
L 436.872381 181.029593 
L 437.406546 178.447829 
L 437.940712 181.331468 
L 438.474878 180.152892 
L 439.009044 188.675226 
L 439.543209 192.969593 
L 440.077375 189.610148 
L 440.611541 181.595996 
L 441.145706 176.623652 
L 441.679872 174.302494 
L 442.214038 180.768986 
L 442.748203 177.366522 
L 443.282369 176.531722 
L 443.816535 178.332124 
L 444.350701 170.622931 
L 444.884866 175.090464 
L 445.419032 164.664076 
L 446.487363 172.360085 
L 447.021529 172.88313 
L 447.555695 180.574214 
L 448.08986 183.264933 
L 448.624026 182.751786 
L 449.158192 192.584481 
L 449.692357 197.346394 
L 450.226523 205.326475 
L 450.760689 207.808287 
L 451.294855 201.202654 
L 451.82902 203.666837 
L 452.363186 204.709967 
L 452.897352 203.374703 
L 453.431517 209.72362 
L 453.965683 208.382606 
L 454.499849 211.327052 
L 455.034014 214.992458 
L 455.56818 224.709016 
L 456.102346 228.259646 
L 457.170677 215.429975 
L 457.704843 217.082449 
L 458.239009 216.645234 
L 458.773174 219.014078 
L 459.30734 225.231563 
L 459.841506 235.368328 
L 460.375671 225.675025 
L 460.909837 231.206662 
L 461.444003 229.946928 
L 461.978169 221.064365 
L 462.512334 223.149897 
L 463.0465 223.978138 
L 463.580666 222.341822 
L 464.114831 224.227035 
L 464.648997 222.64324 
L 465.183163 224.383076 
L 465.717328 217.745924 
L 466.251494 214.748005 
L 467.319825 228.596641 
L 468.922323 239.047034 
L 469.456488 233.537944 
L 469.990654 237.301896 
L 470.52482 239.558799 
L 471.058985 238.442389 
L 471.593151 249.247457 
L 472.127317 246.507002 
L 472.661482 242.919257 
L 473.195648 234.705126 
L 473.729814 239.868221 
L 474.26398 242.105287 
L 474.798145 240.545306 
L 475.332311 242.267881 
L 475.866477 250.016882 
L 476.400642 244.558918 
L 476.934808 245.739474 
L 477.468974 243.375098 
L 478.003139 248.958565 
L 478.537305 243.182548 
L 479.071471 244.707554 
L 479.605637 248.292077 
L 480.139802 243.447489 
L 480.673968 236.798451 
L 481.208134 241.601524 
L 481.742299 235.562703 
L 482.276465 225.956543 
L 482.810631 224.012202 
L 483.344796 231.537842 
L 483.878962 227.858091 
L 484.413128 221.34006 
L 484.947294 226.658811 
L 485.481459 216.671547 
L 486.015625 217.306358 
L 486.549791 217.500061 
L 487.083956 210.739708 
L 487.618122 209.043783 
L 488.152288 201.35436 
L 488.686453 200.916195 
L 489.220619 198.161023 
L 489.754785 197.517654 
L 490.28895 195.623935 
L 491.357282 188.399188 
L 491.891448 189.643335 
L 492.425613 183.662293 
L 492.959779 183.652496 
L 493.493945 176.087994 
L 494.02811 171.933479 
L 494.562276 171.932574 
L 495.096442 175.714837 
L 495.630607 174.944972 
L 496.164773 166.239595 
L 496.698939 164.578971 
L 497.233105 158.276921 
L 497.76727 158.251254 
L 498.301436 159.583704 
L 498.835602 163.184985 
L 499.369767 174.124751 
L 499.903933 171.762349 
L 500.438099 171.029198 
L 500.972264 170.815662 
L 501.50643 165.698554 
L 502.040596 171.009471 
L 502.574762 160.468269 
L 503.108927 168.634074 
L 503.643093 166.656528 
L 504.177259 173.18865 
L 504.711424 174.307353 
L 505.24559 167.001748 
L 505.779756 175.315238 
L 506.313921 173.787456 
L 506.848087 172.677092 
L 507.382253 171.156192 
L 507.916418 169.190354 
L 508.450584 163.983236 
L 509.518916 157.888746 
L 510.053081 152.107209 
L 510.587247 147.680239 
L 511.121413 147.987882 
L 511.655578 154.868086 
L 512.189744 149.668882 
L 512.72391 151.275196 
L 513.258075 140.961346 
L 513.792241 143.877392 
L 514.326407 150.65425 
L 514.860573 143.422575 
L 515.394738 147.448902 
L 515.928904 155.953584 
L 516.46307 148.486899 
L 516.997235 156.735295 
L 517.531401 148.447254 
L 518.065567 153.723833 
L 518.599732 150.866114 
L 519.133898 149.111039 
L 519.668064 159.518428 
L 520.20223 159.195781 
L 520.736395 161.280244 
L 521.270561 160.122084 
L 521.804727 156.551348 
L 522.338892 146.712607 
L 522.873058 147.726462 
L 523.407224 147.914406 
L 523.941389 134.545422 
L 525.009721 124.707484 
L 526.078052 141.591877 
L 526.612218 144.507447 
L 527.146384 145.227998 
L 527.680549 141.88258 
L 528.214715 124.928352 
L 528.748881 132.120035 
L 529.283046 134.197083 
L 529.817212 129.989087 
L 530.351378 127.942585 
L 530.885543 120.712271 
L 531.419709 122.068336 
L 531.953875 127.131055 
L 532.488041 113.98229 
L 533.022206 110.885105 
L 533.556372 117.8203 
L 534.090538 119.541741 
L 534.624703 119.539024 
L 535.158869 128.250237 
L 535.693035 123.186018 
L 536.2272 121.917244 
L 536.761366 123.808489 
L 537.295532 127.451575 
L 537.829698 117.101544 
L 538.363863 117.277994 
L 538.898029 121.716231 
L 539.432195 133.862639 
L 539.96636 140.0141 
L 540.500526 135.571221 
L 541.034692 126.277242 
L 541.568857 133.084832 
L 542.103023 145.170902 
L 542.637189 144.735323 
L 543.171354 144.78748 
L 543.70552 139.373498 
L 544.239686 143.425249 
L 544.773852 142.554224 
L 545.308017 153.463896 
L 545.842183 160.610834 
L 546.910514 166.065249 
L 547.44468 162.703348 
L 547.978846 155.217693 
L 548.513011 163.456158 
L 549.047177 153.218889 
L 549.581343 157.464273 
L 550.115509 159.749405 
L 550.649674 152.805508 
L 551.18384 166.846174 
L 551.718006 175.180866 
L 552.252171 179.810028 
L 552.786337 179.093483 
L 553.854668 165.741287 
L 554.388834 170.881337 
L 554.923 166.182747 
L 555.457166 168.393583 
L 555.991331 159.289566 
L 556.525497 160.654385 
L 557.059663 154.05246 
L 557.593828 159.883645 
L 558.127994 154.961993 
L 558.66216 162.793837 
L 559.196325 161.844622 
L 559.730491 171.121383 
L 560.264657 171.657475 
L 560.798823 175.984463 
L 561.332988 181.395067 
L 561.867154 179.658828 
L 562.40132 174.701426 
L 562.935485 173.676731 
L 563.469651 171.506129 
L 564.003817 166.884169 
L 565.072148 152.845018 
L 565.606314 150.057544 
L 566.140479 137.675685 
L 566.674645 140.363505 
L 567.208811 135.154696 
L 567.742977 141.677195 
L 568.277142 126.826079 
L 568.811308 127.95332 
L 569.345474 126.619273 
L 569.879639 117.818476 
L 570.413805 118.616514 
L 570.947971 123.392461 
L 571.482136 134.280494 
L 572.016302 135.565735 
L 572.550468 122.797168 
L 573.084634 121.419476 
L 573.618799 110.457517 
L 574.152965 105.009666 
L 574.687131 107.435081 
L 575.221296 115.790123 
L 575.755462 116.647078 
L 576.289628 112.532713 
L 576.823793 113.565252 
L 577.357959 112.202742 
L 577.892125 108.348431 
L 578.426291 110.297563 
L 578.960456 118.928459 
L 579.494622 120.68452 
L 580.028788 116.955818 
L 580.562953 121.769136 
L 581.631285 133.889178 
L 582.16545 135.129388 
L 582.699616 135.714122 
L 583.233782 135.897762 
L 583.767947 143.412092 
L 584.302113 143.097167 
L 584.836279 146.754258 
L 585.370445 152.299424 
L 585.90461 163.218732 
L 586.438776 169.714488 
L 586.972942 173.255489 
L 587.507107 172.337112 
L 588.041273 169.852371 
L 588.575439 169.596732 
L 589.109604 168.165901 
L 589.64377 174.773279 
L 591.246267 160.956591 
L 591.780433 163.821084 
L 592.314599 164.235787 
L 592.848764 166.914962 
L 593.38293 174.609053 
L 593.917096 176.513217 
L 594.985427 195.689505 
L 596.053759 189.018102 
L 596.587924 184.010763 
L 597.12209 186.451017 
L 597.656256 186.159867 
L 598.190421 182.904183 
L 598.724587 184.937781 
L 599.258753 196.646089 
L 599.792918 183.423948 
L 600.86125 168.374028 
L 601.395415 167.627734 
L 601.929581 172.116249 
L 602.463747 171.381577 
L 602.997913 169.408785 
L 603.532078 177.195936 
L 604.066244 179.680529 
L 604.60041 176.074133 
L 605.134575 166.846932 
L 605.668741 162.888162 
L 606.202907 164.911572 
L 606.737072 172.120605 
L 607.271238 159.703082 
L 607.805404 158.558339 
L 608.33957 153.564007 
L 608.873735 152.936138 
L 609.407901 160.477164 
L 609.942067 147.071988 
L 610.476232 142.602446 
L 611.010398 134.773352 
L 611.544564 139.067289 
L 612.078729 138.788741 
L 612.612895 130.070548 
L 613.147061 131.752923 
L 613.681227 135.651969 
L 614.215392 141.990194 
L 614.749558 149.684179 
L 615.283724 144.261875 
L 615.817889 144.166865 
L 616.352055 154.506345 
L 617.420386 136.778842 
L 617.954552 129.325247 
L 618.488718 140.050813 
L 619.022883 138.961329 
L 619.557049 130.652638 
L 620.091215 136.465286 
L 620.625381 140.841332 
L 621.159546 141.827999 
L 621.693712 153.490522 
L 622.227878 151.74243 
L 622.762043 145.343324 
L 623.296209 140.884424 
L 623.830375 131.3836 
L 624.36454 130.344976 
L 624.898706 130.060138 
L 625.432872 130.736271 
L 625.967038 134.513964 
L 626.501203 140.538001 
L 627.035369 144.549789 
L 627.569535 144.600308 
L 628.1037 147.387114 
L 629.172032 145.366749 
L 629.706197 141.064519 
L 630.240363 143.714779 
L 630.774529 155.668912 
L 631.308695 160.953902 
L 631.84286 149.083654 
L 632.377026 144.111554 
L 632.911192 146.106403 
L 633.445357 146.877793 
L 633.979523 146.935354 
L 634.513689 149.293135 
L 635.047854 147.653069 
L 635.58202 143.059166 
L 636.116186 135.228362 
L 636.650352 136.945439 
L 637.718683 139.752156 
L 638.252849 139.098833 
L 638.787014 132.192834 
L 639.32118 136.284347 
L 639.855346 122.402233 
L 640.389511 118.520347 
L 640.923677 111.217191 
L 641.457843 116.254374 
L 641.992008 118.052642 
L 642.526174 120.759263 
L 643.06034 119.975307 
L 643.594506 131.869047 
L 644.128671 128.345011 
L 644.662837 138.030264 
L 645.197003 135.232576 
L 645.731168 128.515665 
L 646.265334 128.315022 
L 647.333665 129.229179 
L 647.867831 129.974931 
L 648.401997 127.763214 
L 648.936163 121.588491 
L 649.470328 116.963966 
L 650.004494 107.042127 
L 650.53866 105.73077 
L 651.606991 110.196651 
L 652.141157 116.972212 
L 652.675322 118.503444 
L 653.209488 121.252127 
L 653.743654 109.433481 
L 654.27782 105.295456 
L 654.811985 93.241474 
L 655.346151 104.094301 
L 655.880317 101.272167 
L 656.414482 93.921732 
L 656.948648 90.908912 
L 657.482814 92.761348 
L 658.551145 89.015709 
L 659.085311 87.148882 
L 659.619476 84.438781 
L 660.153642 77.447953 
L 661.221974 72.031374 
L 661.756139 70.797872 
L 662.290305 66.781864 
L 662.824471 70.089001 
L 663.358636 65.267651 
L 663.358636 65.267651 
" style="fill:none;stroke:#2d9cdb;stroke-linecap:square;stroke-width:2;"/>
   </g>
   <g id="patch_3">
    <path d="M 49.7625 310.64 
L 49.7625 7.2 
" style="fill:none;"/>
   </g>
   <g id="patch_4">
    <path d="M 692.5775 310.64 
L 692.5775 7.2 
" style="fill:none;"/>
   </g>
   <g id="patch_5">
    <path d="M 49.7625 310.64 
L 692.5775 310.64 
" style="fill:none;"/>
   </g>
   <g id="patch_6">
    <path d="M 49.7625 7.2 
L 692.5775 7.2 
" style="fill:none;"/>
   </g>
   <g id="legend_1">
    <g id="line2d_26">
     <path d="M 64.1625 28.1575 
L 96.1625 28.1575 
" style="fill:none;stroke:#003559;stroke-linecap:square;stroke-width:2;"/>
    </g>
    <g id="line2d_27"/>
    <g id="text_16">
     <!-- Imaginary Corp. -->
     <defs>
      <path d="M 9.8125 72.90625 
L 19.671875 72.90625 
L 19.671875 0 
L 9.8125 0 
z
" id="DejaVuSans-73"/>
      <path d="M 52 44.1875 
Q 55.375 50.25 60.0625 53.125 
Q 64.75 56 71.09375 56 
Q 79.640625 56 84.28125 50.015625 
Q 88.921875 44.046875 88.921875 33.015625 
L 88.921875 0 
L 79.890625 0 
L 79.890625 32.71875 
Q 79.890625 40.578125 77.09375 44.375 
Q 74.3125 48.1875 68.609375 48.1875 
Q 61.625 48.1875 57.5625 43.546875 
Q 53.515625 38.921875 53.515625 30.90625 
L 53.515625 0 
L 44.484375 0 
L 44.484375 32.71875 
Q 44.484375 40.625 41.703125 44.40625 
Q 38.921875 48.1875 33.109375 48.1875 
Q 26.21875 48.1875 22.15625 43.53125 
Q 18.109375 38.875 18.109375 30.90625 
L 18.109375 0 
L 9.078125 0 
L 9.078125 54.6875 
L 18.109375 54.6875 
L 18.109375 46.1875 
Q 21.1875 51.21875 25.484375 53.609375 
Q 29.78125 56 35.6875 56 
Q 41.65625 56 45.828125 52.96875 
Q 50 49.953125 52 44.1875 
z
" id="DejaVuSans-109"/>
      <path d="M 34.28125 27.484375 
Q 23.390625 27.484375 19.1875 25 
Q 14.984375 22.515625 14.984375 16.5 
Q 14.984375 11.71875 18.140625 8.90625 
Q 21.296875 6.109375 26.703125 6.109375 
Q 34.1875 6.109375 38.703125 11.40625 
Q 43.21875 16.703125 43.21875 25.484375 
L 43.21875 27.484375 
z
M 52.203125 31.203125 
L 52.203125 0 
L 43.21875 0 
L 43.21875 8.296875 
Q 40.140625 3.328125 35.546875 0.953125 
Q 30.953125 -1.421875 24.3125 -1.421875 
Q 15.921875 -1.421875 10.953125 3.296875 
Q 6 8.015625 6 15.921875 
Q 6 25.140625 12.171875 29.828125 
Q 18.359375 34.515625 30.609375 34.515625 
L 43.21875 34.515625 
L 43.21875 35.40625 
Q 43.21875 41.609375 39.140625 45 
Q 35.0625 48.390625 27.6875 48.390625 
Q 23 48.390625 18.546875 47.265625 
Q 14.109375 46.140625 10.015625 43.890625 
L 10.015625 52.203125 
Q 14.9375 54.109375 19.578125 55.046875 
Q 24.21875 56 28.609375 56 
Q 40.484375 56 46.34375 49.84375 
Q 52.203125 43.703125 52.203125 31.203125 
z
" id="DejaVuSans-97"/>
      <path d="M 45.40625 27.984375 
Q 45.40625 37.75 41.375 43.109375 
Q 37.359375 48.484375 30.078125 48.484375 
Q 22.859375 48.484375 18.828125 43.109375 
Q 14.796875 37.75 14.796875 27.984375 
Q 14.796875 18.265625 18.828125 12.890625 
Q 22.859375 7.515625 30.078125 7.515625 
Q 37.359375 7.515625 41.375 12.890625 
Q 45.40625 18.265625 45.40625 27.984375 
z
M 54.390625 6.78125 
Q 54.390625 -7.171875 48.1875 -13.984375 
Q 42 -20.796875 29.203125 -20.796875 
Q 24.46875 -20.796875 20.265625 -20.09375 
Q 16.0625 -19.390625 12.109375 -17.921875 
L 12.109375 -9.1875 
Q 16.0625 -11.328125 19.921875 -12.34375 
Q 23.78125 -13.375 27.78125 -13.375 
Q 36.625 -13.375 41.015625 -8.765625 
Q 45.40625 -4.15625 45.40625 5.171875 
L 45.40625 9.625 
Q 42.625 4.78125 38.28125 2.390625 
Q 33.9375 0 27.875 0 
Q 17.828125 0 11.671875 7.65625 
Q 5.515625 15.328125 5.515625 27.984375 
Q 5.515625 40.671875 11.671875 48.328125 
Q 17.828125 56 27.875 56 
Q 33.9375 56 38.28125 53.609375 
Q 42.625 51.21875 45.40625 46.390625 
L 45.40625 54.6875 
L 54.390625 54.6875 
z
" id="DejaVuSans-103"/>
      <path d="M 9.421875 54.6875 
L 18.40625 54.6875 
L 18.40625 0 
L 9.421875 0 
z
M 9.421875 75.984375 
L 18.40625 75.984375 
L 18.40625 64.59375 
L 9.421875 64.59375 
z
" id="DejaVuSans-105"/>
      <path d="M 54.890625 33.015625 
L 54.890625 0 
L 45.90625 0 
L 45.90625 32.71875 
Q 45.90625 40.484375 42.875 44.328125 
Q 39.84375 48.1875 33.796875 48.1875 
Q 26.515625 48.1875 22.3125 43.546875 
Q 18.109375 38.921875 18.109375 30.90625 
L 18.109375 0 
L 9.078125 0 
L 9.078125 54.6875 
L 18.109375 54.6875 
L 18.109375 46.1875 
Q 21.34375 51.125 25.703125 53.5625 
Q 30.078125 56 35.796875 56 
Q 45.21875 56 50.046875 50.171875 
Q 54.890625 44.34375 54.890625 33.015625 
z
" id="DejaVuSans-110"/>
      <path d="M 41.109375 46.296875 
Q 39.59375 47.171875 37.8125 47.578125 
Q 36.03125 48 33.890625 48 
Q 26.265625 48 22.1875 43.046875 
Q 18.109375 38.09375 18.109375 28.8125 
L 18.109375 0 
L 9.078125 0 
L 9.078125 54.6875 
L 18.109375 54.6875 
L 18.109375 46.1875 
Q 20.953125 51.171875 25.484375 53.578125 
Q 30.03125 56 36.53125 56 
Q 37.453125 56 38.578125 55.875 
Q 39.703125 55.765625 41.0625 55.515625 
z
" id="DejaVuSans-114"/>
      <path d="M 32.171875 -5.078125 
Q 28.375 -14.84375 24.75 -17.8125 
Q 21.140625 -20.796875 15.09375 -20.796875 
L 7.90625 -20.796875 
L 7.90625 -13.28125 
L 13.1875 -13.28125 
Q 16.890625 -13.28125 18.9375 -11.515625 
Q 21 -9.765625 23.484375 -3.21875 
L 25.09375 0.875 
L 2.984375 54.6875 
L 12.5 54.6875 
L 29.59375 11.921875 
L 46.6875 54.6875 
L 56.203125 54.6875 
z
" id="DejaVuSans-121"/>
      <path id="DejaVuSans-32"/>
      <path d="M 64.40625 67.28125 
L 64.40625 56.890625 
Q 59.421875 61.53125 53.78125 63.8125 
Q 48.140625 66.109375 41.796875 66.109375 
Q 29.296875 66.109375 22.65625 58.46875 
Q 16.015625 50.828125 16.015625 36.375 
Q 16.015625 21.96875 22.65625 14.328125 
Q 29.296875 6.6875 41.796875 6.6875 
Q 48.140625 6.6875 53.78125 8.984375 
Q 59.421875 11.28125 64.40625 15.921875 
L 64.40625 5.609375 
Q 59.234375 2.09375 53.4375 0.328125 
Q 47.65625 -1.421875 41.21875 -1.421875 
Q 24.65625 -1.421875 15.125 8.703125 
Q 5.609375 18.84375 5.609375 36.375 
Q 5.609375 53.953125 15.125 64.078125 
Q 24.65625 74.21875 41.21875 74.21875 
Q 47.75 74.21875 53.53125 72.484375 
Q 59.328125 70.75 64.40625 67.28125 
z
" id="DejaVuSans-67"/>
      <path d="M 30.609375 48.390625 
Q 23.390625 48.390625 19.1875 42.75 
Q 14.984375 37.109375 14.984375 27.296875 
Q 14.984375 17.484375 19.15625 11.84375 
Q 23.34375 6.203125 30.609375 6.203125 
Q 37.796875 6.203125 41.984375 11.859375 
Q 46.1875 17.53125 46.1875 27.296875 
Q 46.1875 37.015625 41.984375 42.703125 
Q 37.796875 48.390625 30.609375 48.390625 
z
M 30.609375 56 
Q 42.328125 56 49.015625 48.375 
Q 55.71875 40.765625 55.71875 27.296875 
Q 55.71875 13.875 49.015625 6.21875 
Q 42.328125 -1.421875 30.609375 -1.421875 
Q 18.84375 -1.421875 12.171875 6.21875 
Q 5.515625 13.875 5.515625 27.296875 
Q 5.515625 40.765625 12.171875 48.375 
Q 18.84375 56 30.609375 56 
z
" id="DejaVuSans-111"/>
      <path d="M 18.109375 8.203125 
L 18.109375 -20.796875 
L 9.078125 -20.796875 
L 9.078125 54.6875 
L 18.109375 54.6875 
L 18.109375 46.390625 
Q 20.953125 51.265625 25.265625 53.625 
Q 29.59375 56 35.59375 56 
Q 45.5625 56 51.78125 48.09375 
Q 58.015625 40.1875 58.015625 27.296875 
Q 58.015625 14.40625 51.78125 6.484375 
Q 45.5625 -1.421875 35.59375 -1.421875 
Q 29.59375 -1.421875 25.265625 0.953125 
Q 20.953125 3.328125 18.109375 8.203125 
z
M 48.6875 27.296875 
Q 48.6875 37.203125 44.609375 42.84375 
Q 40.53125 48.484375 33.40625 48.484375 
Q 26.265625 48.484375 22.1875 42.84375 
Q 18.109375 37.203125 18.109375 27.296875 
Q 18.109375 17.390625 22.1875 11.75 
Q 26.265625 6.109375 33.40625 6.109375 
Q 40.53125 6.109375 44.609375 11.75 
Q 48.6875 17.390625 48.6875 27.296875 
z
" id="DejaVuSans-112"/>
      <path d="M 10.6875 12.40625 
L 21 12.40625 
L 21 0 
L 10.6875 0 
z
" id="DejaVuSans-46"/>
     </defs>
     <g style="fill:#003559;" transform="translate(108.9625 33.7575)scale(0.16 -0.16)">
      <use xlink:href="#DejaVuSans-73"/>
      <use x="29.492188" xlink:href="#DejaVuSans-109"/>
      <use x="126.904297" xlink:href="#DejaVuSans-97"/>
      <use x="188.183594" xlink:href="#DejaVuSans-103"/>
      <use x="251.660156" xlink:href="#DejaVuSans-105"/>
      <use x="279.443359" xlink:href="#DejaVuSans-110"/>
      <use x="342.822266" xlink:href="#DejaVuSans-97"/>
      <use x="404.101562" xlink:href="#DejaVuSans-114"/>
      <use x="445.214844" xlink:href="#DejaVuSans-121"/>
      <use x="504.394531" xlink:href="#DejaVuSans-32"/>
      <use x="536.181641" xlink:href="#DejaVuSans-67"/>
      <use x="606.005859" xlink:href="#DejaVuSans-111"/>
      <use x="667.1875" xlink:href="#DejaVuSans-114"/>
      <use x="708.300781" xlink:href="#DejaVuSans-112"/>
      <use x="771.777344" xlink:href="#DejaVuSans-46"/>
     </g>
    </g>
    <g id="line2d_28">
     <path d="M 64.1625 51.6425 
L 96.1625 51.6425 
" style="fill:none;stroke:#2d9cdb;stroke-linecap:square;stroke-width:2;"/>
    </g>
    <g id="line2d_29"/>
    <g id="text_17">
     <!-- Diamond Bread LLC. -->
     <defs>
      <path d="M 19.671875 64.796875 
L 19.671875 8.109375 
L 31.59375 8.109375 
Q 46.6875 8.109375 53.6875 14.9375 
Q 60.6875 21.78125 60.6875 36.53125 
Q 60.6875 51.171875 53.6875 57.984375 
Q 46.6875 64.796875 31.59375 64.796875 
z
M 9.8125 72.90625 
L 30.078125 72.90625 
Q 51.265625 72.90625 61.171875 64.09375 
Q 71.09375 55.28125 71.09375 36.53125 
Q 71.09375 17.671875 61.125 8.828125 
Q 51.171875 0 30.078125 0 
L 9.8125 0 
z
" id="DejaVuSans-68"/>
      <path d="M 45.40625 46.390625 
L 45.40625 75.984375 
L 54.390625 75.984375 
L 54.390625 0 
L 45.40625 0 
L 45.40625 8.203125 
Q 42.578125 3.328125 38.25 0.953125 
Q 33.9375 -1.421875 27.875 -1.421875 
Q 17.96875 -1.421875 11.734375 6.484375 
Q 5.515625 14.40625 5.515625 27.296875 
Q 5.515625 40.1875 11.734375 48.09375 
Q 17.96875 56 27.875 56 
Q 33.9375 56 38.25 53.625 
Q 42.578125 51.265625 45.40625 46.390625 
z
M 14.796875 27.296875 
Q 14.796875 17.390625 18.875 11.75 
Q 22.953125 6.109375 30.078125 6.109375 
Q 37.203125 6.109375 41.296875 11.75 
Q 45.40625 17.390625 45.40625 27.296875 
Q 45.40625 37.203125 41.296875 42.84375 
Q 37.203125 48.484375 30.078125 48.484375 
Q 22.953125 48.484375 18.875 42.84375 
Q 14.796875 37.203125 14.796875 27.296875 
z
" id="DejaVuSans-100"/>
      <path d="M 19.671875 34.8125 
L 19.671875 8.109375 
L 35.5 8.109375 
Q 43.453125 8.109375 47.28125 11.40625 
Q 51.125 14.703125 51.125 21.484375 
Q 51.125 28.328125 47.28125 31.5625 
Q 43.453125 34.8125 35.5 34.8125 
z
M 19.671875 64.796875 
L 19.671875 42.828125 
L 34.28125 42.828125 
Q 41.5 42.828125 45.03125 45.53125 
Q 48.578125 48.25 48.578125 53.8125 
Q 48.578125 59.328125 45.03125 62.0625 
Q 41.5 64.796875 34.28125 64.796875 
z
M 9.8125 72.90625 
L 35.015625 72.90625 
Q 46.296875 72.90625 52.390625 68.21875 
Q 58.5 63.53125 58.5 54.890625 
Q 58.5 48.1875 55.375 44.234375 
Q 52.25 40.28125 46.1875 39.3125 
Q 53.46875 37.75 57.5 32.78125 
Q 61.53125 27.828125 61.53125 20.40625 
Q 61.53125 10.640625 54.890625 5.3125 
Q 48.25 0 35.984375 0 
L 9.8125 0 
z
" id="DejaVuSans-66"/>
      <path d="M 56.203125 29.59375 
L 56.203125 25.203125 
L 14.890625 25.203125 
Q 15.484375 15.921875 20.484375 11.0625 
Q 25.484375 6.203125 34.421875 6.203125 
Q 39.59375 6.203125 44.453125 7.46875 
Q 49.3125 8.734375 54.109375 11.28125 
L 54.109375 2.78125 
Q 49.265625 0.734375 44.1875 -0.34375 
Q 39.109375 -1.421875 33.890625 -1.421875 
Q 20.796875 -1.421875 13.15625 6.1875 
Q 5.515625 13.8125 5.515625 26.8125 
Q 5.515625 40.234375 12.765625 48.109375 
Q 20.015625 56 32.328125 56 
Q 43.359375 56 49.78125 48.890625 
Q 56.203125 41.796875 56.203125 29.59375 
z
M 47.21875 32.234375 
Q 47.125 39.59375 43.09375 43.984375 
Q 39.0625 48.390625 32.421875 48.390625 
Q 24.90625 48.390625 20.390625 44.140625 
Q 15.875 39.890625 15.1875 32.171875 
z
" id="DejaVuSans-101"/>
      <path d="M 9.8125 72.90625 
L 19.671875 72.90625 
L 19.671875 8.296875 
L 55.171875 8.296875 
L 55.171875 0 
L 9.8125 0 
z
" id="DejaVuSans-76"/>
     </defs>
     <g style="fill:#003559;" transform="translate(108.9625 57.2425)scale(0.16 -0.16)">
      <use xlink:href="#DejaVuSans-68"/>
      <use x="77.001953" xlink:href="#DejaVuSans-105"/>
      <use x="104.785156" xlink:href="#DejaVuSans-97"/>
      <use x="166.064453" xlink:href="#DejaVuSans-109"/>
      <use x="263.476562" xlink:href="#DejaVuSans-111"/>
      <use x="324.658203" xlink:href="#DejaVuSans-110"/>
      <use x="388.037109" xlink:href="#DejaVuSans-100"/>
      <use x="451.513672" xlink:href="#DejaVuSans-32"/>
      <use x="483.300781" xlink:href="#DejaVuSans-66"/>
      <use x="551.904297" xlink:href="#DejaVuSans-114"/>
      <use x="592.986328" xlink:href="#DejaVuSans-101"/>
      <use x="654.509766" xlink:href="#DejaVuSans-97"/>
      <use x="715.789062" xlink:href="#DejaVuSans-100"/>
      <use x="779.265625" xlink:href="#DejaVuSans-32"/>
      <use x="811.052734" xlink:href="#DejaVuSans-76"/>
      <use x="866.765625" xlink:href="#DejaVuSans-76"/>
      <use x="922.478516" xlink:href="#DejaVuSans-67"/>
      <use x="992.302734" xlink:href="#DejaVuSans-46"/>
     </g>
    </g>
   </g>
  </g>
 </g>
 <defs>
  <clipPath id="p19796cb8a6">
   <rect height="303.44" width="642.815" x="49.7625" y="7.2"/>
  </clipPath>
 </defs>
</svg>
