<?xml version="1.0" encoding="utf-8" standalone="no"?>
<!DOCTYPE svg PUBLIC "-//W3C//DTD SVG 1.1//EN"
  "http://www.w3.org/Graphics/SVG/1.1/DTD/svg11.dtd">
<!-- Created with matplotlib (https://matplotlib.org/) -->
<svg height="339.914pt" version="1.1" viewBox="0 0 1057.835326 339.914" width="1057.835326pt" xmlns="http://www.w3.org/2000/svg" xmlns:xlink="http://www.w3.org/1999/xlink">
 <defs>
  <style type="text/css">
*{stroke-linecap:butt;stroke-linejoin:round;}
  </style>
 </defs>
 <g id="figure_1">
  <g id="patch_1">
   <path d="M 0 339.914 
L 1057.835326 339.914 
L 1057.835326 0 
L 0 0 
z
" style="fill:none;"/>
  </g>
  <g id="axes_1">
   <g id="patch_2">
    <path d="M 80.105 310.229 
L 518.096089 310.229 
L 518.096089 27.789 
L 80.105 27.789 
z
" style="fill:none;"/>
   </g>
   <g id="matplotlib.axis_1">
    <g id="xtick_1">
     <g id="line2d_1">
      <defs>
       <path d="M 0 0 
L 0 3.5 
" id="m66de660645" style="stroke:#003559;stroke-width:0.8;"/>
      </defs>
      <g>
       <use style="fill:#003559;stroke:#003559;stroke-width:0.8;" x="100.013686" xlink:href="#m66de660645" y="310.229"/>
      </g>
     </g>
     <g id="text_1">
      <!-- 2010 -->
      <defs>
       <path d="M 19.1875 8.296875 
L 53.609375 8.296875 
L 53.609375 0 
L 7.328125 0 
L 7.328125 8.296875 
Q 12.9375 14.109375 22.625 23.890625 
Q 32.328125 33.6875 34.8125 36.53125 
Q 39.546875 41.84375 41.421875 45.53125 
Q 43.3125 49.21875 43.3125 52.78125 
Q 43.3125 58.59375 39.234375 62.25 
Q 35.15625 65.921875 28.609375 65.921875 
Q 23.96875 65.921875 18.8125 64.3125 
Q 13.671875 62.703125 7.8125 59.421875 
L 7.8125 69.390625 
Q 13.765625 71.78125 18.9375 73 
Q 24.125 74.21875 28.421875 74.21875 
Q 39.75 74.21875 46.484375 68.546875 
Q 53.21875 62.890625 53.21875 53.421875 
Q 53.21875 48.921875 51.53125 44.890625 
Q 49.859375 40.875 45.40625 35.40625 
Q 44.1875 33.984375 37.640625 27.21875 
Q 31.109375 20.453125 19.1875 8.296875 
z
" id="DejaVuSans-50"/>
       <path d="M 31.78125 66.40625 
Q 24.171875 66.40625 20.328125 58.90625 
Q 16.5 51.421875 16.5 36.375 
Q 16.5 21.390625 20.328125 13.890625 
Q 24.171875 6.390625 31.78125 6.390625 
Q 39.453125 6.390625 43.28125 13.890625 
Q 47.125 21.390625 47.125 36.375 
Q 47.125 51.421875 43.28125 58.90625 
Q 39.453125 66.40625 31.78125 66.40625 
z
M 31.78125 74.21875 
Q 44.046875 74.21875 50.515625 64.515625 
Q 56.984375 54.828125 56.984375 36.375 
Q 56.984375 17.96875 50.515625 8.265625 
Q 44.046875 -1.421875 31.78125 -1.421875 
Q 19.53125 -1.421875 13.0625 8.265625 
Q 6.59375 17.96875 6.59375 36.375 
Q 6.59375 54.828125 13.0625 64.515625 
Q 19.53125 74.21875 31.78125 74.21875 
z
" id="DejaVuSans-48"/>
       <path d="M 12.40625 8.296875 
L 28.515625 8.296875 
L 28.515625 63.921875 
L 10.984375 60.40625 
L 10.984375 69.390625 
L 28.421875 72.90625 
L 38.28125 72.90625 
L 38.28125 8.296875 
L 54.390625 8.296875 
L 54.390625 0 
L 12.40625 0 
z
" id="DejaVuSans-49"/>
      </defs>
      <g style="fill:#003559;" transform="translate(79.653686 329.3865)scale(0.16 -0.16)">
       <use xlink:href="#DejaVuSans-50"/>
       <use x="63.623047" xlink:href="#DejaVuSans-48"/>
       <use x="127.246094" xlink:href="#DejaVuSans-49"/>
       <use x="190.869141" xlink:href="#DejaVuSans-48"/>
      </g>
     </g>
    </g>
    <g id="xtick_2">
     <g id="line2d_2">
      <g>
       <use style="fill:#003559;stroke:#003559;stroke-width:0.8;" x="165.89069" xlink:href="#m66de660645" y="310.229"/>
      </g>
     </g>
     <g id="text_2">
      <!-- Jul -->
      <defs>
       <path d="M 9.8125 72.90625 
L 19.671875 72.90625 
L 19.671875 5.078125 
Q 19.671875 -8.109375 14.671875 -14.0625 
Q 9.671875 -20.015625 -1.421875 -20.015625 
L -5.171875 -20.015625 
L -5.171875 -11.71875 
L -2.09375 -11.71875 
Q 4.4375 -11.71875 7.125 -8.046875 
Q 9.8125 -4.390625 9.8125 5.078125 
z
" id="DejaVuSans-74"/>
       <path d="M 8.5 21.578125 
L 8.5 54.6875 
L 17.484375 54.6875 
L 17.484375 21.921875 
Q 17.484375 14.15625 20.5 10.265625 
Q 23.53125 6.390625 29.59375 6.390625 
Q 36.859375 6.390625 41.078125 11.03125 
Q 45.3125 15.671875 45.3125 23.6875 
L 45.3125 54.6875 
L 54.296875 54.6875 
L 54.296875 0 
L 45.3125 0 
L 45.3125 8.40625 
Q 42.046875 3.421875 37.71875 1 
Q 33.40625 -1.421875 27.6875 -1.421875 
Q 18.265625 -1.421875 13.375 4.4375 
Q 8.5 10.296875 8.5 21.578125 
z
M 31.109375 56 
z
" id="DejaVuSans-117"/>
       <path d="M 9.421875 75.984375 
L 18.40625 75.984375 
L 18.40625 0 
L 9.421875 0 
z
" id="DejaVuSans-108"/>
      </defs>
      <g style="fill:#003559;" transform="translate(156.23819 329.3865)scale(0.16 -0.16)">
       <use xlink:href="#DejaVuSans-74"/>
       <use x="29.492188" xlink:href="#DejaVuSans-117"/>
       <use x="92.871094" xlink:href="#DejaVuSans-108"/>
      </g>
     </g>
    </g>
    <g id="xtick_3">
     <g id="line2d_3">
      <g>
       <use style="fill:#003559;stroke:#003559;stroke-width:0.8;" x="232.859579" xlink:href="#m66de660645" y="310.229"/>
      </g>
     </g>
     <g id="text_3">
      <!-- 2011 -->
      <g style="fill:#003559;" transform="translate(212.499579 329.3865)scale(0.16 -0.16)">
       <use xlink:href="#DejaVuSans-50"/>
       <use x="63.623047" xlink:href="#DejaVuSans-48"/>
       <use x="127.246094" xlink:href="#DejaVuSans-49"/>
       <use x="190.869141" xlink:href="#DejaVuSans-49"/>
      </g>
     </g>
    </g>
    <g id="xtick_4">
     <g id="line2d_4">
      <g>
       <use style="fill:#003559;stroke:#003559;stroke-width:0.8;" x="298.736583" xlink:href="#m66de660645" y="310.229"/>
      </g>
     </g>
     <g id="text_4">
      <!-- Jul -->
      <g style="fill:#003559;" transform="translate(289.084083 329.3865)scale(0.16 -0.16)">
       <use xlink:href="#DejaVuSans-74"/>
       <use x="29.492188" xlink:href="#DejaVuSans-117"/>
       <use x="92.871094" xlink:href="#DejaVuSans-108"/>
      </g>
     </g>
    </g>
    <g id="xtick_5">
     <g id="line2d_5">
      <g>
       <use style="fill:#003559;stroke:#003559;stroke-width:0.8;" x="365.705472" xlink:href="#m66de660645" y="310.229"/>
      </g>
     </g>
     <g id="text_5">
      <!-- 2012 -->
      <g style="fill:#003559;" transform="translate(345.345472 329.3865)scale(0.16 -0.16)">
       <use xlink:href="#DejaVuSans-50"/>
       <use x="63.623047" xlink:href="#DejaVuSans-48"/>
       <use x="127.246094" xlink:href="#DejaVuSans-49"/>
       <use x="190.869141" xlink:href="#DejaVuSans-50"/>
      </g>
     </g>
    </g>
    <g id="xtick_6">
     <g id="line2d_6">
      <g>
       <use style="fill:#003559;stroke:#003559;stroke-width:0.8;" x="431.946437" xlink:href="#m66de660645" y="310.229"/>
      </g>
     </g>
     <g id="text_6">
      <!-- Jul -->
      <g style="fill:#003559;" transform="translate(422.293937 329.3865)scale(0.16 -0.16)">
       <use xlink:href="#DejaVuSans-74"/>
       <use x="29.492188" xlink:href="#DejaVuSans-117"/>
       <use x="92.871094" xlink:href="#DejaVuSans-108"/>
      </g>
     </g>
    </g>
    <g id="xtick_7">
     <g id="line2d_7">
      <g>
       <use style="fill:#003559;stroke:#003559;stroke-width:0.8;" x="498.915326" xlink:href="#m66de660645" y="310.229"/>
      </g>
     </g>
     <g id="text_7">
      <!-- 2013 -->
      <defs>
       <path d="M 40.578125 39.3125 
Q 47.65625 37.796875 51.625 33 
Q 55.609375 28.21875 55.609375 21.1875 
Q 55.609375 10.40625 48.1875 4.484375 
Q 40.765625 -1.421875 27.09375 -1.421875 
Q 22.515625 -1.421875 17.65625 -0.515625 
Q 12.796875 0.390625 7.625 2.203125 
L 7.625 11.71875 
Q 11.71875 9.328125 16.59375 8.109375 
Q 21.484375 6.890625 26.8125 6.890625 
Q 36.078125 6.890625 40.9375 10.546875 
Q 45.796875 14.203125 45.796875 21.1875 
Q 45.796875 27.640625 41.28125 31.265625 
Q 36.765625 34.90625 28.71875 34.90625 
L 20.21875 34.90625 
L 20.21875 43.015625 
L 29.109375 43.015625 
Q 36.375 43.015625 40.234375 45.921875 
Q 44.09375 48.828125 44.09375 54.296875 
Q 44.09375 59.90625 40.109375 62.90625 
Q 36.140625 65.921875 28.71875 65.921875 
Q 24.65625 65.921875 20.015625 65.03125 
Q 15.375 64.15625 9.8125 62.3125 
L 9.8125 71.09375 
Q 15.4375 72.65625 20.34375 73.4375 
Q 25.25 74.21875 29.59375 74.21875 
Q 40.828125 74.21875 47.359375 69.109375 
Q 53.90625 64.015625 53.90625 55.328125 
Q 53.90625 49.265625 50.4375 45.09375 
Q 46.96875 40.921875 40.578125 39.3125 
z
" id="DejaVuSans-51"/>
      </defs>
      <g style="fill:#003559;" transform="translate(478.555326 329.3865)scale(0.16 -0.16)">
       <use xlink:href="#DejaVuSans-50"/>
       <use x="63.623047" xlink:href="#DejaVuSans-48"/>
       <use x="127.246094" xlink:href="#DejaVuSans-49"/>
       <use x="190.869141" xlink:href="#DejaVuSans-51"/>
      </g>
     </g>
    </g>
   </g>
   <g id="matplotlib.axis_2">
    <g id="ytick_1">
     <g id="line2d_8">
      <path clip-path="url(#p9bc46d2d91)" d="M 80.105 310.229 
L 518.096089 310.229 
" style="fill:none;stroke:#f0f0f0;stroke-linecap:square;"/>
     </g>
     <g id="line2d_9">
      <defs>
       <path d="M 0 0 
L -3.5 0 
" id="m2e37da9a2b" style="stroke:#003559;stroke-width:0.8;"/>
      </defs>
      <g>
       <use style="fill:#003559;stroke:#003559;stroke-width:0.8;" x="80.105" xlink:href="#m2e37da9a2b" y="310.229"/>
      </g>
     </g>
     <g id="text_8">
      <!-- -1.0% -->
      <defs>
       <path d="M 4.890625 31.390625 
L 31.203125 31.390625 
L 31.203125 23.390625 
L 4.890625 23.390625 
z
" id="DejaVuSans-45"/>
       <path d="M 10.6875 12.40625 
L 21 12.40625 
L 21 0 
L 10.6875 0 
z
" id="DejaVuSans-46"/>
       <path d="M 72.703125 32.078125 
Q 68.453125 32.078125 66.03125 28.46875 
Q 63.625 24.859375 63.625 18.40625 
Q 63.625 12.0625 66.03125 8.421875 
Q 68.453125 4.78125 72.703125 4.78125 
Q 76.859375 4.78125 79.265625 8.421875 
Q 81.6875 12.0625 81.6875 18.40625 
Q 81.6875 24.8125 79.265625 28.4375 
Q 76.859375 32.078125 72.703125 32.078125 
z
M 72.703125 38.28125 
Q 80.421875 38.28125 84.953125 32.90625 
Q 89.5 27.546875 89.5 18.40625 
Q 89.5 9.28125 84.9375 3.921875 
Q 80.375 -1.421875 72.703125 -1.421875 
Q 64.890625 -1.421875 60.34375 3.921875 
Q 55.8125 9.28125 55.8125 18.40625 
Q 55.8125 27.59375 60.375 32.9375 
Q 64.9375 38.28125 72.703125 38.28125 
z
M 22.3125 68.015625 
Q 18.109375 68.015625 15.6875 64.375 
Q 13.28125 60.75 13.28125 54.390625 
Q 13.28125 47.953125 15.671875 44.328125 
Q 18.0625 40.71875 22.3125 40.71875 
Q 26.5625 40.71875 28.96875 44.328125 
Q 31.390625 47.953125 31.390625 54.390625 
Q 31.390625 60.6875 28.953125 64.34375 
Q 26.515625 68.015625 22.3125 68.015625 
z
M 66.40625 74.21875 
L 74.21875 74.21875 
L 28.609375 -1.421875 
L 20.796875 -1.421875 
z
M 22.3125 74.21875 
Q 30.03125 74.21875 34.609375 68.875 
Q 39.203125 63.53125 39.203125 54.390625 
Q 39.203125 45.171875 34.640625 39.84375 
Q 30.078125 34.515625 22.3125 34.515625 
Q 14.546875 34.515625 10.03125 39.859375 
Q 5.515625 45.21875 5.515625 54.390625 
Q 5.515625 63.484375 10.046875 68.84375 
Q 14.59375 74.21875 22.3125 74.21875 
z
" id="DejaVuSans-37"/>
      </defs>
      <g style="fill:#003559;" transform="translate(26.685 316.30775)scale(0.16 -0.16)">
       <use xlink:href="#DejaVuSans-45"/>
       <use x="36.083984" xlink:href="#DejaVuSans-49"/>
       <use x="99.707031" xlink:href="#DejaVuSans-46"/>
       <use x="131.494141" xlink:href="#DejaVuSans-48"/>
       <use x="195.117188" xlink:href="#DejaVuSans-37"/>
      </g>
     </g>
    </g>
    <g id="ytick_2">
     <g id="line2d_10">
      <path clip-path="url(#p9bc46d2d91)" d="M 80.105 274.924 
L 518.096089 274.924 
" style="fill:none;stroke:#f0f0f0;stroke-linecap:square;"/>
     </g>
     <g id="line2d_11">
      <g>
       <use style="fill:#003559;stroke:#003559;stroke-width:0.8;" x="80.105" xlink:href="#m2e37da9a2b" y="274.924"/>
      </g>
     </g>
     <g id="text_9">
      <!-- -0.8% -->
      <defs>
       <path d="M 31.78125 34.625 
Q 24.75 34.625 20.71875 30.859375 
Q 16.703125 27.09375 16.703125 20.515625 
Q 16.703125 13.921875 20.71875 10.15625 
Q 24.75 6.390625 31.78125 6.390625 
Q 38.8125 6.390625 42.859375 10.171875 
Q 46.921875 13.96875 46.921875 20.515625 
Q 46.921875 27.09375 42.890625 30.859375 
Q 38.875 34.625 31.78125 34.625 
z
M 21.921875 38.8125 
Q 15.578125 40.375 12.03125 44.71875 
Q 8.5 49.078125 8.5 55.328125 
Q 8.5 64.0625 14.71875 69.140625 
Q 20.953125 74.21875 31.78125 74.21875 
Q 42.671875 74.21875 48.875 69.140625 
Q 55.078125 64.0625 55.078125 55.328125 
Q 55.078125 49.078125 51.53125 44.71875 
Q 48 40.375 41.703125 38.8125 
Q 48.828125 37.15625 52.796875 32.3125 
Q 56.78125 27.484375 56.78125 20.515625 
Q 56.78125 9.90625 50.3125 4.234375 
Q 43.84375 -1.421875 31.78125 -1.421875 
Q 19.734375 -1.421875 13.25 4.234375 
Q 6.78125 9.90625 6.78125 20.515625 
Q 6.78125 27.484375 10.78125 32.3125 
Q 14.796875 37.15625 21.921875 38.8125 
z
M 18.3125 54.390625 
Q 18.3125 48.734375 21.84375 45.5625 
Q 25.390625 42.390625 31.78125 42.390625 
Q 38.140625 42.390625 41.71875 45.5625 
Q 45.3125 48.734375 45.3125 54.390625 
Q 45.3125 60.0625 41.71875 63.234375 
Q 38.140625 66.40625 31.78125 66.40625 
Q 25.390625 66.40625 21.84375 63.234375 
Q 18.3125 60.0625 18.3125 54.390625 
z
" id="DejaVuSans-56"/>
      </defs>
      <g style="fill:#003559;" transform="translate(26.685 281.00275)scale(0.16 -0.16)">
       <use xlink:href="#DejaVuSans-45"/>
       <use x="36.083984" xlink:href="#DejaVuSans-48"/>
       <use x="99.707031" xlink:href="#DejaVuSans-46"/>
       <use x="131.494141" xlink:href="#DejaVuSans-56"/>
       <use x="195.117188" xlink:href="#DejaVuSans-37"/>
      </g>
     </g>
    </g>
    <g id="ytick_3">
     <g id="line2d_12">
      <path clip-path="url(#p9bc46d2d91)" d="M 80.105 239.619 
L 518.096089 239.619 
" style="fill:none;stroke:#f0f0f0;stroke-linecap:square;"/>
     </g>
     <g id="line2d_13">
      <g>
       <use style="fill:#003559;stroke:#003559;stroke-width:0.8;" x="80.105" xlink:href="#m2e37da9a2b" y="239.619"/>
      </g>
     </g>
     <g id="text_10">
      <!-- -0.5% -->
      <defs>
       <path d="M 10.796875 72.90625 
L 49.515625 72.90625 
L 49.515625 64.59375 
L 19.828125 64.59375 
L 19.828125 46.734375 
Q 21.96875 47.46875 24.109375 47.828125 
Q 26.265625 48.1875 28.421875 48.1875 
Q 40.625 48.1875 47.75 41.5 
Q 54.890625 34.8125 54.890625 23.390625 
Q 54.890625 11.625 47.5625 5.09375 
Q 40.234375 -1.421875 26.90625 -1.421875 
Q 22.3125 -1.421875 17.546875 -0.640625 
Q 12.796875 0.140625 7.71875 1.703125 
L 7.71875 11.625 
Q 12.109375 9.234375 16.796875 8.0625 
Q 21.484375 6.890625 26.703125 6.890625 
Q 35.15625 6.890625 40.078125 11.328125 
Q 45.015625 15.765625 45.015625 23.390625 
Q 45.015625 31 40.078125 35.4375 
Q 35.15625 39.890625 26.703125 39.890625 
Q 22.75 39.890625 18.8125 39.015625 
Q 14.890625 38.140625 10.796875 36.28125 
z
" id="DejaVuSans-53"/>
      </defs>
      <g style="fill:#003559;" transform="translate(26.685 245.69775)scale(0.16 -0.16)">
       <use xlink:href="#DejaVuSans-45"/>
       <use x="36.083984" xlink:href="#DejaVuSans-48"/>
       <use x="99.707031" xlink:href="#DejaVuSans-46"/>
       <use x="131.494141" xlink:href="#DejaVuSans-53"/>
       <use x="195.117188" xlink:href="#DejaVuSans-37"/>
      </g>
     </g>
    </g>
    <g id="ytick_4">
     <g id="line2d_14">
      <path clip-path="url(#p9bc46d2d91)" d="M 80.105 204.314 
L 518.096089 204.314 
" style="fill:none;stroke:#f0f0f0;stroke-linecap:square;"/>
     </g>
     <g id="line2d_15">
      <g>
       <use style="fill:#003559;stroke:#003559;stroke-width:0.8;" x="80.105" xlink:href="#m2e37da9a2b" y="204.314"/>
      </g>
     </g>
     <g id="text_11">
      <!-- -0.2% -->
      <g style="fill:#003559;" transform="translate(26.685 210.39275)scale(0.16 -0.16)">
       <use xlink:href="#DejaVuSans-45"/>
       <use x="36.083984" xlink:href="#DejaVuSans-48"/>
       <use x="99.707031" xlink:href="#DejaVuSans-46"/>
       <use x="131.494141" xlink:href="#DejaVuSans-50"/>
       <use x="195.117188" xlink:href="#DejaVuSans-37"/>
      </g>
     </g>
    </g>
    <g id="ytick_5">
     <g id="line2d_16">
      <path clip-path="url(#p9bc46d2d91)" d="M 80.105 169.009 
L 518.096089 169.009 
" style="fill:none;stroke:#f0f0f0;stroke-linecap:square;"/>
     </g>
     <g id="line2d_17">
      <g>
       <use style="fill:#003559;stroke:#003559;stroke-width:0.8;" x="80.105" xlink:href="#m2e37da9a2b" y="169.009"/>
      </g>
     </g>
     <g id="text_12">
      <!-- 0.0% -->
      <g style="fill:#003559;" transform="translate(32.4575 175.08775)scale(0.16 -0.16)">
       <use xlink:href="#DejaVuSans-48"/>
       <use x="63.623047" xlink:href="#DejaVuSans-46"/>
       <use x="95.410156" xlink:href="#DejaVuSans-48"/>
       <use x="159.033203" xlink:href="#DejaVuSans-37"/>
      </g>
     </g>
    </g>
    <g id="ytick_6">
     <g id="line2d_18">
      <path clip-path="url(#p9bc46d2d91)" d="M 80.105 133.704 
L 518.096089 133.704 
" style="fill:none;stroke:#f0f0f0;stroke-linecap:square;"/>
     </g>
     <g id="line2d_19">
      <g>
       <use style="fill:#003559;stroke:#003559;stroke-width:0.8;" x="80.105" xlink:href="#m2e37da9a2b" y="133.704"/>
      </g>
     </g>
     <g id="text_13">
      <!-- 0.2% -->
      <g style="fill:#003559;" transform="translate(32.4575 139.78275)scale(0.16 -0.16)">
       <use xlink:href="#DejaVuSans-48"/>
       <use x="63.623047" xlink:href="#DejaVuSans-46"/>
       <use x="95.410156" xlink:href="#DejaVuSans-50"/>
       <use x="159.033203" xlink:href="#DejaVuSans-37"/>
      </g>
     </g>
    </g>
    <g id="ytick_7">
     <g id="line2d_20">
      <path clip-path="url(#p9bc46d2d91)" d="M 80.105 98.399 
L 518.096089 98.399 
" style="fill:none;stroke:#f0f0f0;stroke-linecap:square;"/>
     </g>
     <g id="line2d_21">
      <g>
       <use style="fill:#003559;stroke:#003559;stroke-width:0.8;" x="80.105" xlink:href="#m2e37da9a2b" y="98.399"/>
      </g>
     </g>
     <g id="text_14">
      <!-- 0.5% -->
      <g style="fill:#003559;" transform="translate(32.4575 104.47775)scale(0.16 -0.16)">
       <use xlink:href="#DejaVuSans-48"/>
       <use x="63.623047" xlink:href="#DejaVuSans-46"/>
       <use x="95.410156" xlink:href="#DejaVuSans-53"/>
       <use x="159.033203" xlink:href="#DejaVuSans-37"/>
      </g>
     </g>
    </g>
    <g id="ytick_8">
     <g id="line2d_22">
      <path clip-path="url(#p9bc46d2d91)" d="M 80.105 63.094 
L 518.096089 63.094 
" style="fill:none;stroke:#f0f0f0;stroke-linecap:square;"/>
     </g>
     <g id="line2d_23">
      <g>
       <use style="fill:#003559;stroke:#003559;stroke-width:0.8;" x="80.105" xlink:href="#m2e37da9a2b" y="63.094"/>
      </g>
     </g>
     <g id="text_15">
      <!-- 0.8% -->
      <g style="fill:#003559;" transform="translate(32.4575 69.17275)scale(0.16 -0.16)">
       <use xlink:href="#DejaVuSans-48"/>
       <use x="63.623047" xlink:href="#DejaVuSans-46"/>
       <use x="95.410156" xlink:href="#DejaVuSans-56"/>
       <use x="159.033203" xlink:href="#DejaVuSans-37"/>
      </g>
     </g>
    </g>
    <g id="ytick_9">
     <g id="line2d_24">
      <path clip-path="url(#p9bc46d2d91)" d="M 80.105 27.789 
L 518.096089 27.789 
" style="fill:none;stroke:#f0f0f0;stroke-linecap:square;"/>
     </g>
     <g id="line2d_25">
      <g>
       <use style="fill:#003559;stroke:#003559;stroke-width:0.8;" x="80.105" xlink:href="#m2e37da9a2b" y="27.789"/>
      </g>
     </g>
     <g id="text_16">
      <!-- 1.0% -->
      <g style="fill:#003559;" transform="translate(32.4575 33.86775)scale(0.16 -0.16)">
       <use xlink:href="#DejaVuSans-49"/>
       <use x="63.623047" xlink:href="#DejaVuSans-46"/>
       <use x="95.410156" xlink:href="#DejaVuSans-48"/>
       <use x="159.033203" xlink:href="#DejaVuSans-37"/>
      </g>
     </g>
    </g>
    <g id="text_17">
     <!-- Daily return -->
     <defs>
      <path d="M 19.671875 64.796875 
L 19.671875 8.109375 
L 31.59375 8.109375 
Q 46.6875 8.109375 53.6875 14.9375 
Q 60.6875 21.78125 60.6875 36.53125 
Q 60.6875 51.171875 53.6875 57.984375 
Q 46.6875 64.796875 31.59375 64.796875 
z
M 9.8125 72.90625 
L 30.078125 72.90625 
Q 51.265625 72.90625 61.171875 64.09375 
Q 71.09375 55.28125 71.09375 36.53125 
Q 71.09375 17.671875 61.125 8.828125 
Q 51.171875 0 30.078125 0 
L 9.8125 0 
z
" id="DejaVuSans-68"/>
      <path d="M 34.28125 27.484375 
Q 23.390625 27.484375 19.1875 25 
Q 14.984375 22.515625 14.984375 16.5 
Q 14.984375 11.71875 18.140625 8.90625 
Q 21.296875 6.109375 26.703125 6.109375 
Q 34.1875 6.109375 38.703125 11.40625 
Q 43.21875 16.703125 43.21875 25.484375 
L 43.21875 27.484375 
z
M 52.203125 31.203125 
L 52.203125 0 
L 43.21875 0 
L 43.21875 8.296875 
Q 40.140625 3.328125 35.546875 0.953125 
Q 30.953125 -1.421875 24.3125 -1.421875 
Q 15.921875 -1.421875 10.953125 3.296875 
Q 6 8.015625 6 15.921875 
Q 6 25.140625 12.171875 29.828125 
Q 18.359375 34.515625 30.609375 34.515625 
L 43.21875 34.515625 
L 43.21875 35.40625 
Q 43.21875 41.609375 39.140625 45 
Q 35.0625 48.390625 27.6875 48.390625 
Q 23 48.390625 18.546875 47.265625 
Q 14.109375 46.140625 10.015625 43.890625 
L 10.015625 52.203125 
Q 14.9375 54.109375 19.578125 55.046875 
Q 24.21875 56 28.609375 56 
Q 40.484375 56 46.34375 49.84375 
Q 52.203125 43.703125 52.203125 31.203125 
z
" id="DejaVuSans-97"/>
      <path d="M 9.421875 54.6875 
L 18.40625 54.6875 
L 18.40625 0 
L 9.421875 0 
z
M 9.421875 75.984375 
L 18.40625 75.984375 
L 18.40625 64.59375 
L 9.421875 64.59375 
z
" id="DejaVuSans-105"/>
      <path d="M 32.171875 -5.078125 
Q 28.375 -14.84375 24.75 -17.8125 
Q 21.140625 -20.796875 15.09375 -20.796875 
L 7.90625 -20.796875 
L 7.90625 -13.28125 
L 13.1875 -13.28125 
Q 16.890625 -13.28125 18.9375 -11.515625 
Q 21 -9.765625 23.484375 -3.21875 
L 25.09375 0.875 
L 2.984375 54.6875 
L 12.5 54.6875 
L 29.59375 11.921875 
L 46.6875 54.6875 
L 56.203125 54.6875 
z
" id="DejaVuSans-121"/>
      <path id="DejaVuSans-32"/>
      <path d="M 41.109375 46.296875 
Q 39.59375 47.171875 37.8125 47.578125 
Q 36.03125 48 33.890625 48 
Q 26.265625 48 22.1875 43.046875 
Q 18.109375 38.09375 18.109375 28.8125 
L 18.109375 0 
L 9.078125 0 
L 9.078125 54.6875 
L 18.109375 54.6875 
L 18.109375 46.1875 
Q 20.953125 51.171875 25.484375 53.578125 
Q 30.03125 56 36.53125 56 
Q 37.453125 56 38.578125 55.875 
Q 39.703125 55.765625 41.0625 55.515625 
z
" id="DejaVuSans-114"/>
      <path d="M 56.203125 29.59375 
L 56.203125 25.203125 
L 14.890625 25.203125 
Q 15.484375 15.921875 20.484375 11.0625 
Q 25.484375 6.203125 34.421875 6.203125 
Q 39.59375 6.203125 44.453125 7.46875 
Q 49.3125 8.734375 54.109375 11.28125 
L 54.109375 2.78125 
Q 49.265625 0.734375 44.1875 -0.34375 
Q 39.109375 -1.421875 33.890625 -1.421875 
Q 20.796875 -1.421875 13.15625 6.1875 
Q 5.515625 13.8125 5.515625 26.8125 
Q 5.515625 40.234375 12.765625 48.109375 
Q 20.015625 56 32.328125 56 
Q 43.359375 56 49.78125 48.890625 
Q 56.203125 41.796875 56.203125 29.59375 
z
M 47.21875 32.234375 
Q 47.125 39.59375 43.09375 43.984375 
Q 39.0625 48.390625 32.421875 48.390625 
Q 24.90625 48.390625 20.390625 44.140625 
Q 15.875 39.890625 15.1875 32.171875 
z
" id="DejaVuSans-101"/>
      <path d="M 18.3125 70.21875 
L 18.3125 54.6875 
L 36.8125 54.6875 
L 36.8125 47.703125 
L 18.3125 47.703125 
L 18.3125 18.015625 
Q 18.3125 11.328125 20.140625 9.421875 
Q 21.96875 7.515625 27.59375 7.515625 
L 36.8125 7.515625 
L 36.8125 0 
L 27.59375 0 
Q 17.1875 0 13.234375 3.875 
Q 9.28125 7.765625 9.28125 18.015625 
L 9.28125 47.703125 
L 2.6875 47.703125 
L 2.6875 54.6875 
L 9.28125 54.6875 
L 9.28125 70.21875 
z
" id="DejaVuSans-116"/>
      <path d="M 54.890625 33.015625 
L 54.890625 0 
L 45.90625 0 
L 45.90625 32.71875 
Q 45.90625 40.484375 42.875 44.328125 
Q 39.84375 48.1875 33.796875 48.1875 
Q 26.515625 48.1875 22.3125 43.546875 
Q 18.109375 38.921875 18.109375 30.90625 
L 18.109375 0 
L 9.078125 0 
L 9.078125 54.6875 
L 18.109375 54.6875 
L 18.109375 46.1875 
Q 21.34375 51.125 25.703125 53.5625 
Q 30.078125 56 35.796875 56 
Q 45.21875 56 50.046875 50.171875 
Q 54.890625 44.34375 54.890625 33.015625 
z
" id="DejaVuSans-110"/>
     </defs>
     <g style="fill:#003559;" transform="translate(19.3575 216.5665)rotate(-90)scale(0.16 -0.16)">
      <use xlink:href="#DejaVuSans-68"/>
      <use x="77.001953" xlink:href="#DejaVuSans-97"/>
      <use x="138.28125" xlink:href="#DejaVuSans-105"/>
      <use x="166.064453" xlink:href="#DejaVuSans-108"/>
      <use x="193.847656" xlink:href="#DejaVuSans-121"/>
      <use x="253.027344" xlink:href="#DejaVuSans-32"/>
      <use x="284.814453" xlink:href="#DejaVuSans-114"/>
      <use x="325.896484" xlink:href="#DejaVuSans-101"/>
      <use x="387.419922" xlink:href="#DejaVuSans-116"/>
      <use x="426.628906" xlink:href="#DejaVuSans-117"/>
      <use x="490.007812" xlink:href="#DejaVuSans-114"/>
      <use x="531.105469" xlink:href="#DejaVuSans-110"/>
     </g>
    </g>
   </g>
   <g id="line2d_26">
    <path clip-path="url(#p9bc46d2d91)" d="M 100.013686 121.987301 
L 100.377647 185.14376 
L 100.741609 182.782994 
L 101.10557 198.170237 
L 101.469531 143.422738 
L 101.833493 232.86997 
L 102.197454 118.584848 
L 102.561415 189.364839 
L 102.925377 158.854371 
L 103.289338 174.908528 
L 103.653299 126.569535 
L 104.017261 226.051926 
L 104.381222 176.971663 
L 104.745183 178.712543 
L 105.109145 135.843127 
L 105.473106 198.93064 
L 105.837067 172.735374 
L 106.201029 192.659545 
L 106.56499 166.673026 
L 106.928952 151.404279 
L 107.292913 198.9512 
L 107.656874 135.533735 
L 108.020836 142.400783 
L 108.384797 153.672861 
L 108.748758 142.421536 
L 109.11272 187.176521 
L 109.476681 171.336223 
L 109.840642 194.295183 
L 110.568565 152.885952 
L 110.932526 187.400578 
L 111.296488 179.071218 
L 111.660449 187.273817 
L 112.02441 191.7373 
L 112.388372 186.823987 
L 112.752333 168.22301 
L 113.116294 199.422625 
L 113.844217 120.985859 
L 114.936101 192.935504 
L 115.300063 188.96805 
L 115.664024 120.063624 
L 116.027985 166.430297 
L 116.391947 185.856617 
L 116.755908 162.473095 
L 117.119869 108.545705 
L 117.483831 164.471542 
L 117.847792 150.433027 
L 118.211753 159.387301 
L 118.939676 200.134595 
L 119.303637 177.732147 
L 119.667599 173.76532 
L 120.03156 151.296726 
L 120.395521 144.169064 
L 120.759483 141.567264 
L 121.123444 159.799183 
L 121.487406 142.865384 
L 121.851367 189.172527 
L 122.215328 132.479303 
L 122.943251 176.284646 
L 123.307212 154.067605 
L 123.671174 169.999759 
L 124.035135 135.903571 
L 124.399096 124.939605 
L 124.763058 106.13592 
L 125.127019 207.307954 
L 125.49098 208.652862 
L 126.218903 163.345224 
L 126.582864 143.118796 
L 126.946826 158.950518 
L 127.310787 224.980363 
L 127.674748 176.513738 
L 128.03871 144.479996 
L 128.402671 161.366516 
L 128.766633 146.343068 
L 129.130594 174.144748 
L 129.494555 173.535522 
L 129.858517 162.596072 
L 130.222478 156.283813 
L 130.586439 162.264534 
L 130.950401 164.504031 
L 131.314362 186.807497 
L 131.678323 157.2014 
L 132.042285 164.424592 
L 132.406246 135.964168 
L 132.770207 134.003075 
L 133.134169 162.635754 
L 133.49813 178.46486 
L 133.862091 185.905613 
L 134.226053 155.904137 
L 134.953976 177.577115 
L 135.317937 166.633962 
L 135.681898 185.376615 
L 136.04586 148.150095 
L 136.409821 180.494011 
L 136.773782 133.280316 
L 137.137744 156.469094 
L 137.501705 151.10028 
L 137.865666 198.790002 
L 138.229628 163.081274 
L 138.593589 146.949035 
L 138.95755 194.801631 
L 139.321512 175.384387 
L 139.685473 166.944146 
L 140.049434 206.647637 
L 140.413396 158.96395 
L 140.777357 143.96635 
L 141.141318 192.14148 
L 141.50528 157.964491 
L 141.869241 204.929444 
L 142.233203 168.958227 
L 142.597164 213.501186 
L 142.961125 136.19199 
L 143.325087 156.316325 
L 143.689048 168.560593 
L 144.053009 189.758976 
L 144.416971 131.889349 
L 144.780932 112.30649 
L 145.144893 220.342151 
L 145.508855 132.951095 
L 145.872816 121.893944 
L 146.600739 201.737438 
L 146.9647 143.480986 
L 147.328661 172.975224 
L 147.692623 184.922446 
L 148.056584 202.607073 
L 148.420545 152.31593 
L 148.784507 145.473274 
L 149.148468 185.476313 
L 149.51243 153.162153 
L 149.876391 200.18609 
L 150.240352 145.217549 
L 150.604314 166.550065 
L 150.968275 173.134788 
L 151.332236 170.739022 
L 151.696198 143.324491 
L 152.060159 146.670685 
L 152.42412 152.911093 
L 152.788082 163.976079 
L 153.152043 165.667332 
L 153.516004 150.399779 
L 153.879966 161.298735 
L 154.243927 148.58733 
L 154.607888 176.62425 
L 154.97185 236.634869 
L 155.335811 138.524749 
L 155.699772 106.096258 
L 156.063734 155.399414 
L 156.427695 170.694096 
L 156.791657 171.719057 
L 157.155618 171.227878 
L 157.519579 167.3736 
L 157.883541 199.555608 
L 158.247502 182.470127 
L 158.611463 196.025337 
L 158.975425 160.838228 
L 159.339386 176.243644 
L 159.703347 153.878563 
L 160.067309 172.799628 
L 160.43127 140.00726 
L 160.795231 161.83426 
L 161.159193 105.991188 
L 161.523154 221.426129 
L 162.251077 142.403716 
L 162.615038 96.45528 
L 162.978999 174.887752 
L 163.342961 166.631924 
L 163.706922 174.257331 
L 164.070884 130.259637 
L 164.434845 175.980035 
L 164.798806 148.657419 
L 165.526729 203.807461 
L 165.89069 159.00947 
L 166.254652 153.65336 
L 166.618613 131.33944 
L 166.982574 170.984777 
L 167.346536 185.302086 
L 167.710497 151.970687 
L 168.074458 161.065933 
L 168.43842 159.938207 
L 168.802381 169.930307 
L 169.166342 135.092709 
L 169.530304 157.429359 
L 169.894265 114.070131 
L 170.258226 136.484626 
L 170.622188 149.251109 
L 170.986149 213.83068 
L 171.350111 150.853406 
L 171.714072 155.994861 
L 172.078033 144.960792 
L 172.441995 138.366089 
L 172.805956 179.187715 
L 173.169917 144.592097 
L 173.533879 183.747066 
L 173.89784 112.651735 
L 174.261801 205.484954 
L 174.625763 217.594199 
L 174.989724 214.488283 
L 175.353685 193.018163 
L 175.717647 199.473607 
L 176.081608 112.617819 
L 176.445569 177.086963 
L 176.809531 205.787846 
L 177.173492 136.390679 
L 177.537453 184.431094 
L 177.901415 202.798998 
L 178.265376 143.128117 
L 178.629338 150.25907 
L 178.993299 180.150228 
L 179.35726 128.110752 
L 179.721222 164.218966 
L 180.085183 122.196187 
L 180.449144 153.665898 
L 180.813106 123.838408 
L 181.541028 202.315772 
L 181.90499 98.685343 
L 182.268951 183.280157 
L 182.632912 173.481288 
L 182.996874 187.647367 
L 183.724796 161.011356 
L 184.088758 162.16482 
L 184.452719 149.195454 
L 184.816681 117.247595 
L 185.180642 171.267713 
L 185.544603 202.693574 
L 185.908565 201.258705 
L 186.272526 186.668882 
L 186.636487 215.151298 
L 187.000449 144.563169 
L 187.36441 181.936855 
L 187.728371 176.648771 
L 188.092333 167.918735 
L 188.456294 207.311459 
L 188.820255 192.192331 
L 189.184217 148.808759 
L 189.548178 150.395292 
L 189.912139 180.382259 
L 190.276101 116.728563 
L 190.640062 204.744263 
L 191.004023 177.60913 
L 191.367985 174.385149 
L 191.731946 246.753204 
L 192.095908 113.141748 
L 192.82383 197.368694 
L 193.187792 109.931969 
L 193.551753 151.323874 
L 193.915714 155.733775 
L 194.279676 185.009374 
L 194.643637 164.865157 
L 195.007598 210.956626 
L 195.37156 145.410594 
L 195.735521 178.440947 
L 196.099482 164.079254 
L 196.463444 133.914474 
L 196.827405 159.822886 
L 197.191366 160.452181 
L 197.555328 160.055865 
L 197.919289 188.575835 
L 198.28325 144.253194 
L 198.647212 124.274677 
L 199.011173 146.433604 
L 199.375135 142.871947 
L 199.739096 192.643251 
L 200.103057 192.375094 
L 200.467019 208.561414 
L 200.83098 133.061556 
L 201.194941 175.044368 
L 201.558903 128.328119 
L 201.922864 189.949625 
L 202.286825 180.222315 
L 202.650787 165.170125 
L 203.014748 141.839876 
L 203.378709 166.149483 
L 203.742671 161.902304 
L 204.106632 167.398507 
L 204.470593 162.860822 
L 204.834555 199.398891 
L 205.198516 165.579606 
L 205.562477 173.135049 
L 205.926439 169.470262 
L 206.2904 153.959758 
L 206.654362 187.090385 
L 207.018323 170.252156 
L 207.382284 176.264001 
L 207.746246 156.079034 
L 208.110207 145.700249 
L 208.474168 194.850343 
L 209.202091 109.519327 
L 209.566052 209.416668 
L 209.930014 191.312686 
L 210.293975 192.736345 
L 210.657936 175.748148 
L 211.021898 122.029562 
L 211.385859 167.488178 
L 211.74982 187.486237 
L 212.113782 150.303093 
L 212.477743 184.806191 
L 212.841704 136.135658 
L 213.205666 159.243349 
L 213.569627 128.640626 
L 213.933589 186.544318 
L 214.29755 82.261783 
L 214.661511 144.575743 
L 215.025473 149.37735 
L 215.753395 188.359077 
L 216.117357 192.37457 
L 216.481318 171.705855 
L 216.845279 190.383399 
L 217.209241 159.881419 
L 217.573202 191.197607 
L 217.937163 150.323452 
L 218.301125 140.86061 
L 218.665086 187.801071 
L 219.029047 134.179086 
L 219.393009 174.585744 
L 219.75697 135.23536 
L 220.120931 155.489741 
L 220.484893 136.16627 
L 220.848854 196.025139 
L 221.212816 170.881601 
L 221.576777 126.871143 
L 221.940738 185.321144 
L 222.3047 225.404023 
L 222.668661 222.7318 
L 223.032622 238.657221 
L 223.396584 227.577757 
L 224.124506 131.754564 
L 224.488468 180.355635 
L 224.852429 158.727605 
L 225.21639 170.971911 
L 225.580352 167.623855 
L 225.944313 172.61592 
L 226.308274 172.784861 
L 226.672236 154.840193 
L 227.036197 201.079766 
L 227.400158 139.335279 
L 227.76412 141.880325 
L 228.128081 173.374511 
L 228.492043 145.11778 
L 228.856004 187.674083 
L 229.219965 183.038639 
L 229.583927 163.451795 
L 230.311849 180.539468 
L 230.675811 186.857934 
L 231.039772 183.611192 
L 231.403733 141.339429 
L 231.767695 222.752538 
L 232.131656 157.909461 
L 232.495617 174.543237 
L 232.859579 147.308947 
L 233.22354 153.317572 
L 233.587501 246.455215 
L 233.951463 151.352553 
L 234.679386 167.247818 
L 235.043347 181.102535 
L 235.407308 143.765237 
L 235.77127 179.530911 
L 236.135231 116.045547 
L 236.499192 151.924882 
L 236.863154 107.484496 
L 237.227115 190.051934 
L 237.591076 217.459675 
L 237.955038 147.676794 
L 238.318999 143.781538 
L 238.68296 166.866601 
L 239.046922 211.326988 
L 239.774844 150.410928 
L 240.138806 173.067188 
L 240.502767 171.141197 
L 240.866728 172.820975 
L 241.23069 194.242797 
L 241.594651 182.919938 
L 241.958613 208.156943 
L 242.322574 117.931051 
L 242.686535 181.291743 
L 243.050497 154.37569 
L 243.414458 196.727458 
L 243.778419 145.424656 
L 244.142381 220.77087 
L 244.506342 141.863458 
L 244.870303 168.864243 
L 245.234265 108.253382 
L 245.598226 204.76706 
L 245.962187 165.708021 
L 246.326149 157.493216 
L 246.69011 133.043307 
L 247.054071 179.808484 
L 247.418033 165.423211 
L 247.781994 228.377142 
L 248.509917 155.109871 
L 248.873878 136.679012 
L 249.23784 175.822671 
L 249.601801 109.785606 
L 249.965762 118.148832 
L 250.693685 236.03229 
L 251.057646 218.070896 
L 251.421608 189.835156 
L 251.785569 136.349495 
L 252.14953 159.101981 
L 252.513492 227.015247 
L 253.241414 122.297533 
L 253.605376 178.451295 
L 253.969337 189.047453 
L 254.333298 109.834508 
L 254.69726 166.356813 
L 255.061221 181.398625 
L 255.425182 157.97519 
L 255.789144 167.380511 
L 256.153105 179.986006 
L 256.517067 133.733671 
L 256.881028 136.35343 
L 257.244989 144.116018 
L 257.608951 170.771258 
L 257.972912 135.472257 
L 258.336873 169.269111 
L 259.064796 138.66986 
L 259.428757 145.020311 
L 259.792719 117.31548 
L 260.15668 155.119246 
L 260.520641 215.429902 
L 260.884603 200.633156 
L 261.248564 129.732894 
L 261.612525 177.222073 
L 261.976487 156.9479 
L 262.340448 191.913825 
L 262.704409 139.596417 
L 263.068371 178.734514 
L 263.432332 126.682502 
L 263.796294 182.897729 
L 264.160255 136.284752 
L 264.524216 148.817668 
L 264.888178 188.268548 
L 265.252139 136.825259 
L 265.6161 193.331076 
L 265.980062 191.095075 
L 266.344023 147.481298 
L 266.707984 185.527471 
L 267.071946 184.637815 
L 267.435907 177.578443 
L 267.799868 196.11409 
L 268.16383 138.350489 
L 268.527791 150.678422 
L 268.891752 169.823431 
L 269.255714 170.926737 
L 269.619675 155.151119 
L 269.983636 118.005187 
L 270.347598 143.26564 
L 270.711559 182.226175 
L 271.075521 145.907883 
L 271.439482 171.219884 
L 271.803443 173.485816 
L 272.167405 115.148694 
L 272.531366 179.697793 
L 272.895327 181.39941 
L 273.259289 223.000573 
L 273.62325 207.472696 
L 273.987211 155.123795 
L 274.351173 187.492657 
L 274.715134 153.307964 
L 275.079095 199.353729 
L 275.443057 189.53721 
L 275.807018 148.812736 
L 276.170979 126.603867 
L 276.534941 151.13151 
L 277.262863 119.720754 
L 277.626825 138.489033 
L 277.990786 193.805732 
L 278.718709 150.066065 
L 279.08267 179.582247 
L 279.446632 155.100548 
L 279.810593 212.467002 
L 280.174554 191.26908 
L 280.538516 152.927632 
L 280.902477 231.049583 
L 281.6304 168.365748 
L 281.994361 216.427889 
L 282.358322 166.251986 
L 282.722284 190.447731 
L 283.086245 176.101109 
L 283.450206 175.180023 
L 283.814168 162.518914 
L 284.178129 183.788961 
L 284.542091 165.332209 
L 284.906052 184.844384 
L 285.633975 120.025367 
L 285.997936 162.304921 
L 286.361897 163.067524 
L 286.725859 200.741553 
L 287.08982 148.281876 
L 287.453781 189.276165 
L 287.817743 190.710392 
L 288.181704 152.120992 
L 288.545665 162.752053 
L 288.909627 136.594248 
L 289.273588 127.112696 
L 289.637549 183.108078 
L 290.001511 164.239432 
L 290.365472 118.144145 
L 290.729433 140.566377 
L 291.093395 147.725954 
L 291.457356 130.972827 
L 291.821318 184.941718 
L 292.185279 149.88565 
L 292.54924 128.062359 
L 292.913202 122.084265 
L 293.277163 190.635195 
L 294.005086 157.055904 
L 294.369047 176.027752 
L 294.733008 178.931769 
L 295.09697 148.546378 
L 295.460931 177.847023 
L 295.824892 218.363123 
L 296.188854 157.645296 
L 296.552815 179.854686 
L 296.916776 188.526673 
L 297.280738 212.08802 
L 297.644699 139.23091 
L 298.00866 230.767881 
L 298.372622 215.86129 
L 299.100545 133.15469 
L 299.464506 130.873978 
L 299.828467 200.486641 
L 300.192429 172.882355 
L 300.55639 210.526641 
L 300.920351 139.304779 
L 301.284313 209.569347 
L 302.012235 138.689718 
L 302.376197 174.147173 
L 302.740158 126.342103 
L 303.104119 192.437824 
L 303.468081 157.437896 
L 303.832042 143.765209 
L 304.196003 171.81133 
L 304.559965 128.710251 
L 304.923926 152.383939 
L 305.287887 214.113438 
L 305.651849 56.058537 
L 306.01581 149.54502 
L 306.379772 164.833507 
L 306.743733 207.373381 
L 307.107694 165.555861 
L 307.471656 180.855937 
L 307.835617 149.666187 
L 308.199578 157.367856 
L 308.56354 115.528912 
L 308.927501 163.847564 
L 309.291462 153.361863 
L 309.655424 157.34564 
L 310.019385 172.059257 
L 310.383346 173.045267 
L 310.747308 136.768662 
L 311.111269 145.834225 
L 311.47523 185.64326 
L 311.839192 199.313201 
L 312.567114 135.061601 
L 312.931076 168.642851 
L 313.295037 118.538999 
L 313.658999 189.756397 
L 314.02296 163.864816 
L 314.386921 238.935798 
L 314.750883 184.689355 
L 315.114844 176.596134 
L 315.478805 153.434385 
L 315.842767 119.549379 
L 316.206728 166.878365 
L 316.570689 126.800863 
L 316.934651 149.176791 
L 317.298612 140.006781 
L 317.662573 181.031389 
L 318.026535 128.747616 
L 318.390496 198.170115 
L 318.754457 153.880052 
L 319.118419 194.755353 
L 319.48238 182.499814 
L 319.846341 209.141195 
L 320.574264 157.948366 
L 320.938226 169.807664 
L 321.302187 205.931584 
L 321.666148 126.325735 
L 322.03011 158.340843 
L 322.394071 139.393511 
L 322.758032 145.687362 
L 323.485955 222.801218 
L 323.849916 193.720557 
L 324.213878 133.26201 
L 324.577839 197.621667 
L 324.9418 144.816974 
L 325.305762 185.162134 
L 325.669723 156.762334 
L 326.033684 219.380104 
L 326.397646 134.90244 
L 326.761607 168.985714 
L 327.125568 142.846048 
L 327.48953 162.502859 
L 327.853491 145.324798 
L 328.217453 170.74428 
L 328.581414 146.869949 
L 328.945375 210.501682 
L 329.309337 198.388904 
L 329.673298 147.375024 
L 330.037259 168.971862 
L 330.401221 174.326244 
L 330.765182 172.938281 
L 331.129143 153.694587 
L 331.493105 184.623712 
L 331.857066 153.452184 
L 332.221027 193.730936 
L 332.584989 179.367738 
L 332.94895 140.046336 
L 333.312911 137.608858 
L 333.676873 198.853339 
L 334.040834 144.178912 
L 334.404796 197.215977 
L 334.768757 147.161803 
L 335.132718 221.495359 
L 335.860641 182.240724 
L 336.224602 172.567541 
L 336.588564 127.656746 
L 336.952525 142.332759 
L 337.316486 123.367796 
L 337.680448 133.785878 
L 338.044409 175.85451 
L 338.40837 175.387448 
L 338.772332 137.673277 
L 339.136293 166.725061 
L 339.500254 172.299441 
L 339.864216 205.576777 
L 340.228177 170.872171 
L 340.592138 246.694214 
L 340.9561 180.747896 
L 341.320061 195.541332 
L 341.684023 148.304242 
L 342.047984 181.384934 
L 342.411945 177.159043 
L 342.775907 129.817665 
L 343.139868 197.495181 
L 343.503829 158.921598 
L 343.867791 221.395231 
L 344.231752 165.331002 
L 344.595713 156.277766 
L 344.959675 143.579116 
L 345.323636 193.24772 
L 345.687597 158.836921 
L 346.051559 158.879364 
L 346.41552 168.40849 
L 346.779481 163.628252 
L 347.143443 154.773248 
L 347.507404 156.627577 
L 347.871365 195.996643 
L 348.235327 201.641224 
L 348.599288 97.086404 
L 348.96325 113.642698 
L 349.327211 207.172313 
L 349.691172 155.149362 
L 350.419095 146.644543 
L 350.783056 163.899983 
L 351.147018 194.043883 
L 351.510979 173.017593 
L 351.87494 181.73665 
L 352.238902 164.070077 
L 352.602863 175.445191 
L 352.966824 171.584358 
L 353.330786 139.097315 
L 353.694747 133.109426 
L 354.058708 201.224389 
L 354.42267 180.855577 
L 354.786631 190.200665 
L 355.150592 133.302501 
L 355.514554 169.542099 
L 355.878515 126.940055 
L 356.242477 181.354105 
L 356.606438 167.130968 
L 356.970399 205.957894 
L 357.334361 131.076498 
L 357.698322 178.106927 
L 358.062283 209.81207 
L 358.426245 184.598788 
L 358.790206 232.965131 
L 359.154167 168.763956 
L 359.88209 159.728832 
L 360.246051 125.552744 
L 360.610013 176.366082 
L 360.973974 145.059527 
L 361.701897 173.325488 
L 362.065858 226.522508 
L 362.429819 141.104089 
L 362.793781 182.099552 
L 363.157742 167.358165 
L 363.521704 203.748206 
L 363.885665 159.872386 
L 364.249626 164.814089 
L 364.613588 167.03444 
L 364.977549 171.672409 
L 365.34151 138.23119 
L 365.705472 140.575369 
L 366.069433 147.362516 
L 366.433394 74.064763 
L 366.797356 184.818076 
L 367.161317 178.584404 
L 367.525278 196.527427 
L 367.88924 155.551317 
L 368.253201 187.282705 
L 368.617162 244.077841 
L 369.345085 165.824629 
L 369.709046 139.344878 
L 370.073008 211.839569 
L 370.436969 185.163127 
L 370.800931 171.801164 
L 371.164892 188.442124 
L 371.528853 152.863121 
L 371.892815 167.752312 
L 372.256776 158.791477 
L 372.620737 188.348282 
L 372.984699 124.467379 
L 373.34866 167.875903 
L 373.712621 131.330296 
L 374.076583 180.264361 
L 374.440544 151.200237 
L 374.804505 187.053827 
L 375.168467 194.722792 
L 375.532428 187.758982 
L 375.896389 169.16077 
L 376.260351 174.043219 
L 376.624312 124.391949 
L 376.988273 200.309314 
L 377.352235 198.660827 
L 377.716196 119.845197 
L 378.080158 150.670826 
L 378.444119 221.00388 
L 378.80808 153.820443 
L 379.172042 161.162087 
L 379.536003 228.432989 
L 379.899964 178.303233 
L 380.263926 168.358309 
L 380.627887 147.207579 
L 380.991848 140.906536 
L 381.35581 165.16104 
L 381.719771 138.676527 
L 382.083732 171.996654 
L 382.447694 192.084452 
L 382.811655 194.250343 
L 383.175616 152.538838 
L 383.539578 223.171839 
L 383.903539 148.721314 
L 384.267501 199.119361 
L 385.359385 133.465789 
L 385.723346 222.677905 
L 386.451269 166.479613 
L 386.81523 184.701174 
L 387.179191 143.529629 
L 387.543153 226.793327 
L 387.907114 157.646586 
L 388.271075 155.835622 
L 388.635037 166.479085 
L 388.998998 136.733737 
L 389.362959 202.593407 
L 389.726921 136.55354 
L 390.090882 187.718595 
L 390.454843 147.372863 
L 390.818805 177.022135 
L 391.182766 144.865004 
L 391.546728 145.821719 
L 391.910689 209.216041 
L 392.27465 172.228761 
L 392.638612 170.47597 
L 393.002573 174.58386 
L 393.366534 189.208251 
L 393.730496 115.5733 
L 394.094457 161.959585 
L 394.458418 123.94544 
L 394.82238 183.940346 
L 395.186341 197.854699 
L 395.550302 164.130105 
L 395.914264 183.773366 
L 396.278225 100.358029 
L 396.642186 160.933589 
L 397.006148 135.311302 
L 397.370109 174.198627 
L 397.73407 177.074587 
L 398.098032 168.738374 
L 398.825955 143.869581 
L 399.189916 171.315429 
L 399.553877 187.095283 
L 399.917839 198.026418 
L 400.2818 170.031043 
L 400.645761 151.682552 
L 401.009723 154.931054 
L 401.737645 184.815632 
L 402.101607 163.720073 
L 402.465568 151.715254 
L 402.829529 168.905189 
L 403.193491 164.691576 
L 403.557452 172.116156 
L 403.921413 142.00795 
L 404.285375 180.24184 
L 404.649336 162.625043 
L 405.013297 156.725086 
L 405.377259 147.373652 
L 405.74122 125.615542 
L 406.105182 148.787794 
L 406.469143 150.941133 
L 406.833104 209.390688 
L 407.561027 103.081551 
L 407.924988 191.308142 
L 408.28895 196.66063 
L 408.652911 173.927995 
L 409.016872 139.021179 
L 409.380834 153.044259 
L 409.744795 181.341208 
L 410.108756 168.881818 
L 410.472718 138.575182 
L 410.836679 148.867839 
L 411.20064 99.26411 
L 411.564602 139.460697 
L 411.928563 157.879159 
L 412.292524 150.502983 
L 412.656486 177.722021 
L 413.020447 195.481532 
L 413.384409 163.008554 
L 413.74837 154.009905 
L 414.112331 207.273685 
L 414.476293 182.618747 
L 414.840254 178.294575 
L 415.204215 160.362507 
L 415.568177 175.221915 
L 415.932138 155.294 
L 416.296099 165.094229 
L 416.660061 137.917421 
L 417.024022 216.195531 
L 417.387983 121.061483 
L 417.751945 127.824527 
L 418.115906 166.444156 
L 418.479867 149.497583 
L 418.843829 150.733958 
L 419.20779 188.68932 
L 419.571751 163.214511 
L 419.935713 145.88656 
L 420.299674 159.114847 
L 420.663636 138.171808 
L 421.027597 165.182241 
L 421.391558 165.584581 
L 421.75552 189.55116 
L 422.119481 178.161324 
L 422.483442 180.849578 
L 422.847404 119.695635 
L 423.575326 196.093114 
L 423.939288 156.607299 
L 424.303249 173.288264 
L 424.66721 254.115833 
L 425.031172 154.312361 
L 425.395133 211.719736 
L 425.759094 151.527162 
L 426.123056 195.015241 
L 426.487017 209.054228 
L 426.850978 153.903126 
L 427.21494 210.06732 
L 427.578901 180.481884 
L 427.942863 162.092876 
L 428.306824 150.573416 
L 428.670785 146.826793 
L 429.398708 191.375486 
L 429.762669 113.529069 
L 430.126631 184.980648 
L 430.490592 116.924744 
L 430.854553 180.646427 
L 431.218515 135.065958 
L 431.582476 137.645205 
L 431.946437 197.395381 
L 432.310399 157.830656 
L 432.67436 146.530019 
L 433.038321 148.066772 
L 433.402283 173.484101 
L 433.766244 159.336752 
L 434.494167 200.962009 
L 434.858128 140.07287 
L 435.22209 183.672954 
L 435.586051 128.895421 
L 435.950012 150.849688 
L 436.313974 193.077224 
L 436.677935 172.418197 
L 437.041896 175.953967 
L 437.405858 192.462662 
L 437.769819 153.702934 
L 438.13378 181.383287 
L 438.497742 121.779816 
L 438.861703 143.550299 
L 439.225664 192.725371 
L 439.589626 168.401962 
L 439.953587 174.269926 
L 440.317548 212.053271 
L 440.68151 141.562926 
L 441.045471 141.038911 
L 441.409433 141.725455 
L 441.773394 180.772477 
L 442.137355 137.672872 
L 442.501317 173.789573 
L 443.229239 116.672276 
L 443.957162 207.94775 
L 444.685085 149.761307 
L 445.049046 133.41118 
L 445.413007 199.888134 
L 445.776969 173.247158 
L 446.14093 161.274881 
L 446.504891 155.579219 
L 446.868853 142.151307 
L 447.232814 194.653041 
L 447.596775 179.826033 
L 447.960737 139.396306 
L 448.324698 156.784204 
L 448.68866 155.201248 
L 449.052621 136.081675 
L 449.416582 164.926428 
L 449.780544 152.952383 
L 450.508466 205.853774 
L 450.872428 204.448575 
L 451.236389 165.766202 
L 451.60035 173.501704 
L 451.964312 186.353923 
L 452.328273 158.883316 
L 452.692234 193.010141 
L 453.056196 164.720702 
L 453.420157 168.416707 
L 453.784118 191.589958 
L 454.14808 232.775838 
L 454.512041 126.727152 
L 454.876002 158.922209 
L 455.239964 243.110885 
L 455.603925 179.909361 
L 455.967887 156.743171 
L 456.331848 174.308917 
L 456.695809 151.474468 
L 457.059771 195.354281 
L 457.423732 162.917874 
L 457.787693 169.375905 
L 458.151655 173.035714 
L 458.515616 174.108052 
L 458.879577 162.223303 
L 459.243539 141.521528 
L 459.6075 182.838015 
L 459.971461 179.367399 
L 460.335423 163.330314 
L 460.699384 171.258827 
L 461.063345 156.97436 
L 461.427307 147.577908 
L 461.791268 131.396972 
L 462.155229 171.15416 
L 462.519191 232.185316 
L 462.883152 169.831787 
L 463.247114 157.870595 
L 463.611075 173.145669 
L 463.975036 172.193314 
L 464.338998 236.569082 
L 464.702959 153.517802 
L 465.06692 177.017281 
L 465.430882 210.544159 
L 465.794843 192.477756 
L 466.158804 192.291568 
L 466.522766 150.671802 
L 466.886727 152.002405 
L 467.250688 125.082702 
L 467.61465 149.565323 
L 467.978611 206.041297 
L 468.342572 207.667018 
L 468.706534 135.929105 
L 469.070495 123.615826 
L 469.434456 174.580269 
L 469.798418 152.08248 
L 470.162379 210.369461 
L 470.526341 222.769438 
L 471.254263 177.953716 
L 471.618225 182.591066 
L 471.982186 174.364653 
L 472.346147 181.733523 
L 472.710109 148.67913 
L 473.07407 127.545675 
L 473.438031 166.84295 
L 473.801993 110.530062 
L 474.165954 185.783438 
L 474.529915 182.696332 
L 474.893877 156.914134 
L 475.257838 177.886248 
L 475.621799 134.620648 
L 475.985761 185.972761 
L 476.349722 130.507143 
L 476.713683 162.381032 
L 477.077645 95.406663 
L 477.441606 180.973773 
L 477.805568 173.590198 
L 478.169529 163.751522 
L 478.53349 229.466265 
L 478.897452 150.854935 
L 479.261413 154.284294 
L 479.625374 164.777724 
L 479.989336 211.485226 
L 480.353297 211.546381 
L 480.717258 151.296858 
L 481.445181 122.831252 
L 481.809142 193.156162 
L 482.173104 196.979171 
L 482.537065 175.545951 
L 482.901026 223.667834 
L 483.628949 143.807365 
L 483.992911 121.697598 
L 484.356872 159.980845 
L 484.720833 121.529514 
L 485.084795 156.260616 
L 485.448756 162.460429 
L 485.812717 172.707496 
L 486.176679 162.585462 
L 486.54064 175.063378 
L 486.904601 171.845195 
L 487.268563 186.559784 
L 487.632524 160.549214 
L 487.996485 167.45723 
L 488.360447 209.65457 
L 488.724408 174.663656 
L 489.088369 192.032894 
L 489.452331 225.714685 
L 489.816292 154.198502 
L 490.544215 100.934652 
L 490.908176 123.736334 
L 491.272138 192.460231 
L 491.636099 134.671692 
L 492.00006 136.234884 
L 492.364022 224.009569 
L 492.727983 143.539079 
L 493.091944 150.151323 
L 493.455906 163.266955 
L 493.819867 159.713621 
L 494.183828 166.218478 
L 494.54779 121.772915 
L 494.911751 179.213435 
L 495.639674 167.656617 
L 496.003635 160.079455 
L 496.367596 217.666539 
L 496.731558 128.663379 
L 497.095519 161.476526 
L 497.45948 151.790956 
L 498.187403 173.131159 
L 498.187403 173.131159 
" style="fill:none;stroke:#003559;stroke-linecap:square;stroke-width:1.5;"/>
   </g>
   <g id="line2d_27">
    <path clip-path="url(#p9bc46d2d91)" d="M 80.105 138.857543 
L 518.096089 138.857543 
" style="fill:none;stroke:#e75a7c;stroke-linecap:square;stroke-width:3;"/>
   </g>
   <g id="line2d_28">
    <path clip-path="url(#p9bc46d2d91)" d="M 80.105 194.760167 
L 518.096089 194.760167 
" style="fill:none;stroke:#e75a7c;stroke-linecap:square;stroke-width:3;"/>
   </g>
   <g id="patch_3">
    <path d="M 80.105 310.229 
L 80.105 27.789 
" style="fill:none;"/>
   </g>
   <g id="patch_4">
    <path d="M 518.096089 310.229 
L 518.096089 27.789 
" style="fill:none;"/>
   </g>
   <g id="patch_5">
    <path d="M 80.105 310.229 
L 518.096089 310.229 
" style="fill:none;"/>
   </g>
   <g id="patch_6">
    <path d="M 80.105 27.789 
L 518.096089 27.789 
" style="fill:none;"/>
   </g>
   <g id="text_18">
    <!-- Investment A -->
    <defs>
     <path d="M 9.8125 72.90625 
L 19.671875 72.90625 
L 19.671875 0 
L 9.8125 0 
z
" id="DejaVuSans-73"/>
     <path d="M 2.984375 54.6875 
L 12.5 54.6875 
L 29.59375 8.796875 
L 46.6875 54.6875 
L 56.203125 54.6875 
L 35.6875 0 
L 23.484375 0 
z
" id="DejaVuSans-118"/>
     <path d="M 44.28125 53.078125 
L 44.28125 44.578125 
Q 40.484375 46.53125 36.375 47.5 
Q 32.28125 48.484375 27.875 48.484375 
Q 21.1875 48.484375 17.84375 46.4375 
Q 14.5 44.390625 14.5 40.28125 
Q 14.5 37.15625 16.890625 35.375 
Q 19.28125 33.59375 26.515625 31.984375 
L 29.59375 31.296875 
Q 39.15625 29.25 43.1875 25.515625 
Q 47.21875 21.78125 47.21875 15.09375 
Q 47.21875 7.46875 41.1875 3.015625 
Q 35.15625 -1.421875 24.609375 -1.421875 
Q 20.21875 -1.421875 15.453125 -0.5625 
Q 10.6875 0.296875 5.421875 2 
L 5.421875 11.28125 
Q 10.40625 8.6875 15.234375 7.390625 
Q 20.0625 6.109375 24.8125 6.109375 
Q 31.15625 6.109375 34.5625 8.28125 
Q 37.984375 10.453125 37.984375 14.40625 
Q 37.984375 18.0625 35.515625 20.015625 
Q 33.0625 21.96875 24.703125 23.78125 
L 21.578125 24.515625 
Q 13.234375 26.265625 9.515625 29.90625 
Q 5.8125 33.546875 5.8125 39.890625 
Q 5.8125 47.609375 11.28125 51.796875 
Q 16.75 56 26.8125 56 
Q 31.78125 56 36.171875 55.265625 
Q 40.578125 54.546875 44.28125 53.078125 
z
" id="DejaVuSans-115"/>
     <path d="M 52 44.1875 
Q 55.375 50.25 60.0625 53.125 
Q 64.75 56 71.09375 56 
Q 79.640625 56 84.28125 50.015625 
Q 88.921875 44.046875 88.921875 33.015625 
L 88.921875 0 
L 79.890625 0 
L 79.890625 32.71875 
Q 79.890625 40.578125 77.09375 44.375 
Q 74.3125 48.1875 68.609375 48.1875 
Q 61.625 48.1875 57.5625 43.546875 
Q 53.515625 38.921875 53.515625 30.90625 
L 53.515625 0 
L 44.484375 0 
L 44.484375 32.71875 
Q 44.484375 40.625 41.703125 44.40625 
Q 38.921875 48.1875 33.109375 48.1875 
Q 26.21875 48.1875 22.15625 43.53125 
Q 18.109375 38.875 18.109375 30.90625 
L 18.109375 0 
L 9.078125 0 
L 9.078125 54.6875 
L 18.109375 54.6875 
L 18.109375 46.1875 
Q 21.1875 51.21875 25.484375 53.609375 
Q 29.78125 56 35.6875 56 
Q 41.65625 56 45.828125 52.96875 
Q 50 49.953125 52 44.1875 
z
" id="DejaVuSans-109"/>
     <path d="M 34.1875 63.1875 
L 20.796875 26.90625 
L 47.609375 26.90625 
z
M 28.609375 72.90625 
L 39.796875 72.90625 
L 67.578125 0 
L 57.328125 0 
L 50.6875 18.703125 
L 17.828125 18.703125 
L 11.1875 0 
L 0.78125 0 
z
" id="DejaVuSans-65"/>
    </defs>
    <g style="fill:#003559;" transform="translate(235.107545 21.789)scale(0.192 -0.192)">
     <use xlink:href="#DejaVuSans-73"/>
     <use x="29.492188" xlink:href="#DejaVuSans-110"/>
     <use x="92.871094" xlink:href="#DejaVuSans-118"/>
     <use x="152.050781" xlink:href="#DejaVuSans-101"/>
     <use x="213.574219" xlink:href="#DejaVuSans-115"/>
     <use x="265.673828" xlink:href="#DejaVuSans-116"/>
     <use x="304.882812" xlink:href="#DejaVuSans-109"/>
     <use x="402.294922" xlink:href="#DejaVuSans-101"/>
     <use x="463.818359" xlink:href="#DejaVuSans-110"/>
     <use x="527.197266" xlink:href="#DejaVuSans-116"/>
     <use x="566.40625" xlink:href="#DejaVuSans-32"/>
     <use x="598.193359" xlink:href="#DejaVuSans-65"/>
    </g>
   </g>
   <g id="legend_1">
    <g id="line2d_29">
     <path d="M 394.488589 48.7465 
L 426.488589 48.7465 
" style="fill:none;stroke:#e75a7c;stroke-linecap:square;stroke-width:3;"/>
    </g>
    <g id="line2d_30"/>
    <g id="text_19">
     <!-- std. dev -->
     <defs>
      <path d="M 45.40625 46.390625 
L 45.40625 75.984375 
L 54.390625 75.984375 
L 54.390625 0 
L 45.40625 0 
L 45.40625 8.203125 
Q 42.578125 3.328125 38.25 0.953125 
Q 33.9375 -1.421875 27.875 -1.421875 
Q 17.96875 -1.421875 11.734375 6.484375 
Q 5.515625 14.40625 5.515625 27.296875 
Q 5.515625 40.1875 11.734375 48.09375 
Q 17.96875 56 27.875 56 
Q 33.9375 56 38.25 53.625 
Q 42.578125 51.265625 45.40625 46.390625 
z
M 14.796875 27.296875 
Q 14.796875 17.390625 18.875 11.75 
Q 22.953125 6.109375 30.078125 6.109375 
Q 37.203125 6.109375 41.296875 11.75 
Q 45.40625 17.390625 45.40625 27.296875 
Q 45.40625 37.203125 41.296875 42.84375 
Q 37.203125 48.484375 30.078125 48.484375 
Q 22.953125 48.484375 18.875 42.84375 
Q 14.796875 37.203125 14.796875 27.296875 
z
" id="DejaVuSans-100"/>
     </defs>
     <g style="fill:#003559;" transform="translate(439.288589 54.3465)scale(0.16 -0.16)">
      <use xlink:href="#DejaVuSans-115"/>
      <use x="52.099609" xlink:href="#DejaVuSans-116"/>
      <use x="91.308594" xlink:href="#DejaVuSans-100"/>
      <use x="154.785156" xlink:href="#DejaVuSans-46"/>
      <use x="186.572266" xlink:href="#DejaVuSans-32"/>
      <use x="218.359375" xlink:href="#DejaVuSans-100"/>
      <use x="281.835938" xlink:href="#DejaVuSans-101"/>
      <use x="343.359375" xlink:href="#DejaVuSans-118"/>
     </g>
    </g>
   </g>
   <g id="patch_7">
    <path clip-path="url(#p9bc46d2d91)" d="M 80.105 138.857543 
L 80.105 194.760167 
L 518.096089 194.760167 
L 518.096089 138.857543 
z
" style="fill:#e75a7c;opacity:0.5;"/>
   </g>
  </g>
  <g id="axes_2">
   <g id="patch_8">
    <path d="M 611.465 310.229 
L 1049.456089 310.229 
L 1049.456089 27.789 
L 611.465 27.789 
z
" style="fill:none;"/>
   </g>
   <g id="matplotlib.axis_3">
    <g id="xtick_8">
     <g id="line2d_31">
      <g>
       <use style="fill:#003559;stroke:#003559;stroke-width:0.8;" x="631.373686" xlink:href="#m66de660645" y="310.229"/>
      </g>
     </g>
     <g id="text_20">
      <!-- 2010 -->
      <g style="fill:#003559;" transform="translate(611.013686 329.3865)scale(0.16 -0.16)">
       <use xlink:href="#DejaVuSans-50"/>
       <use x="63.623047" xlink:href="#DejaVuSans-48"/>
       <use x="127.246094" xlink:href="#DejaVuSans-49"/>
       <use x="190.869141" xlink:href="#DejaVuSans-48"/>
      </g>
     </g>
    </g>
    <g id="xtick_9">
     <g id="line2d_32">
      <g>
       <use style="fill:#003559;stroke:#003559;stroke-width:0.8;" x="697.25069" xlink:href="#m66de660645" y="310.229"/>
      </g>
     </g>
     <g id="text_21">
      <!-- Jul -->
      <g style="fill:#003559;" transform="translate(687.59819 329.3865)scale(0.16 -0.16)">
       <use xlink:href="#DejaVuSans-74"/>
       <use x="29.492188" xlink:href="#DejaVuSans-117"/>
       <use x="92.871094" xlink:href="#DejaVuSans-108"/>
      </g>
     </g>
    </g>
    <g id="xtick_10">
     <g id="line2d_33">
      <g>
       <use style="fill:#003559;stroke:#003559;stroke-width:0.8;" x="764.219579" xlink:href="#m66de660645" y="310.229"/>
      </g>
     </g>
     <g id="text_22">
      <!-- 2011 -->
      <g style="fill:#003559;" transform="translate(743.859579 329.3865)scale(0.16 -0.16)">
       <use xlink:href="#DejaVuSans-50"/>
       <use x="63.623047" xlink:href="#DejaVuSans-48"/>
       <use x="127.246094" xlink:href="#DejaVuSans-49"/>
       <use x="190.869141" xlink:href="#DejaVuSans-49"/>
      </g>
     </g>
    </g>
    <g id="xtick_11">
     <g id="line2d_34">
      <g>
       <use style="fill:#003559;stroke:#003559;stroke-width:0.8;" x="830.096583" xlink:href="#m66de660645" y="310.229"/>
      </g>
     </g>
     <g id="text_23">
      <!-- Jul -->
      <g style="fill:#003559;" transform="translate(820.444083 329.3865)scale(0.16 -0.16)">
       <use xlink:href="#DejaVuSans-74"/>
       <use x="29.492188" xlink:href="#DejaVuSans-117"/>
       <use x="92.871094" xlink:href="#DejaVuSans-108"/>
      </g>
     </g>
    </g>
    <g id="xtick_12">
     <g id="line2d_35">
      <g>
       <use style="fill:#003559;stroke:#003559;stroke-width:0.8;" x="897.065472" xlink:href="#m66de660645" y="310.229"/>
      </g>
     </g>
     <g id="text_24">
      <!-- 2012 -->
      <g style="fill:#003559;" transform="translate(876.705472 329.3865)scale(0.16 -0.16)">
       <use xlink:href="#DejaVuSans-50"/>
       <use x="63.623047" xlink:href="#DejaVuSans-48"/>
       <use x="127.246094" xlink:href="#DejaVuSans-49"/>
       <use x="190.869141" xlink:href="#DejaVuSans-50"/>
      </g>
     </g>
    </g>
    <g id="xtick_13">
     <g id="line2d_36">
      <g>
       <use style="fill:#003559;stroke:#003559;stroke-width:0.8;" x="963.306437" xlink:href="#m66de660645" y="310.229"/>
      </g>
     </g>
     <g id="text_25">
      <!-- Jul -->
      <g style="fill:#003559;" transform="translate(953.653937 329.3865)scale(0.16 -0.16)">
       <use xlink:href="#DejaVuSans-74"/>
       <use x="29.492188" xlink:href="#DejaVuSans-117"/>
       <use x="92.871094" xlink:href="#DejaVuSans-108"/>
      </g>
     </g>
    </g>
    <g id="xtick_14">
     <g id="line2d_37">
      <g>
       <use style="fill:#003559;stroke:#003559;stroke-width:0.8;" x="1030.275326" xlink:href="#m66de660645" y="310.229"/>
      </g>
     </g>
     <g id="text_26">
      <!-- 2013 -->
      <g style="fill:#003559;" transform="translate(1009.915326 329.3865)scale(0.16 -0.16)">
       <use xlink:href="#DejaVuSans-50"/>
       <use x="63.623047" xlink:href="#DejaVuSans-48"/>
       <use x="127.246094" xlink:href="#DejaVuSans-49"/>
       <use x="190.869141" xlink:href="#DejaVuSans-51"/>
      </g>
     </g>
    </g>
   </g>
   <g id="matplotlib.axis_4">
    <g id="ytick_10">
     <g id="line2d_38">
      <path clip-path="url(#pb758a98337)" d="M 611.465 310.229 
L 1049.456089 310.229 
" style="fill:none;stroke:#f0f0f0;stroke-linecap:square;"/>
     </g>
     <g id="line2d_39">
      <g>
       <use style="fill:#003559;stroke:#003559;stroke-width:0.8;" x="611.465" xlink:href="#m2e37da9a2b" y="310.229"/>
      </g>
     </g>
     <g id="text_27">
      <!-- -1.0% -->
      <g style="fill:#003559;" transform="translate(558.045 316.30775)scale(0.16 -0.16)">
       <use xlink:href="#DejaVuSans-45"/>
       <use x="36.083984" xlink:href="#DejaVuSans-49"/>
       <use x="99.707031" xlink:href="#DejaVuSans-46"/>
       <use x="131.494141" xlink:href="#DejaVuSans-48"/>
       <use x="195.117188" xlink:href="#DejaVuSans-37"/>
      </g>
     </g>
    </g>
    <g id="ytick_11">
     <g id="line2d_40">
      <path clip-path="url(#pb758a98337)" d="M 611.465 274.924 
L 1049.456089 274.924 
" style="fill:none;stroke:#f0f0f0;stroke-linecap:square;"/>
     </g>
     <g id="line2d_41">
      <g>
       <use style="fill:#003559;stroke:#003559;stroke-width:0.8;" x="611.465" xlink:href="#m2e37da9a2b" y="274.924"/>
      </g>
     </g>
     <g id="text_28">
      <!-- -0.8% -->
      <g style="fill:#003559;" transform="translate(558.045 281.00275)scale(0.16 -0.16)">
       <use xlink:href="#DejaVuSans-45"/>
       <use x="36.083984" xlink:href="#DejaVuSans-48"/>
       <use x="99.707031" xlink:href="#DejaVuSans-46"/>
       <use x="131.494141" xlink:href="#DejaVuSans-56"/>
       <use x="195.117188" xlink:href="#DejaVuSans-37"/>
      </g>
     </g>
    </g>
    <g id="ytick_12">
     <g id="line2d_42">
      <path clip-path="url(#pb758a98337)" d="M 611.465 239.619 
L 1049.456089 239.619 
" style="fill:none;stroke:#f0f0f0;stroke-linecap:square;"/>
     </g>
     <g id="line2d_43">
      <g>
       <use style="fill:#003559;stroke:#003559;stroke-width:0.8;" x="611.465" xlink:href="#m2e37da9a2b" y="239.619"/>
      </g>
     </g>
     <g id="text_29">
      <!-- -0.5% -->
      <g style="fill:#003559;" transform="translate(558.045 245.69775)scale(0.16 -0.16)">
       <use xlink:href="#DejaVuSans-45"/>
       <use x="36.083984" xlink:href="#DejaVuSans-48"/>
       <use x="99.707031" xlink:href="#DejaVuSans-46"/>
       <use x="131.494141" xlink:href="#DejaVuSans-53"/>
       <use x="195.117188" xlink:href="#DejaVuSans-37"/>
      </g>
     </g>
    </g>
    <g id="ytick_13">
     <g id="line2d_44">
      <path clip-path="url(#pb758a98337)" d="M 611.465 204.314 
L 1049.456089 204.314 
" style="fill:none;stroke:#f0f0f0;stroke-linecap:square;"/>
     </g>
     <g id="line2d_45">
      <g>
       <use style="fill:#003559;stroke:#003559;stroke-width:0.8;" x="611.465" xlink:href="#m2e37da9a2b" y="204.314"/>
      </g>
     </g>
     <g id="text_30">
      <!-- -0.2% -->
      <g style="fill:#003559;" transform="translate(558.045 210.39275)scale(0.16 -0.16)">
       <use xlink:href="#DejaVuSans-45"/>
       <use x="36.083984" xlink:href="#DejaVuSans-48"/>
       <use x="99.707031" xlink:href="#DejaVuSans-46"/>
       <use x="131.494141" xlink:href="#DejaVuSans-50"/>
       <use x="195.117188" xlink:href="#DejaVuSans-37"/>
      </g>
     </g>
    </g>
    <g id="ytick_14">
     <g id="line2d_46">
      <path clip-path="url(#pb758a98337)" d="M 611.465 169.009 
L 1049.456089 169.009 
" style="fill:none;stroke:#f0f0f0;stroke-linecap:square;"/>
     </g>
     <g id="line2d_47">
      <g>
       <use style="fill:#003559;stroke:#003559;stroke-width:0.8;" x="611.465" xlink:href="#m2e37da9a2b" y="169.009"/>
      </g>
     </g>
     <g id="text_31">
      <!-- 0.0% -->
      <g style="fill:#003559;" transform="translate(563.8175 175.08775)scale(0.16 -0.16)">
       <use xlink:href="#DejaVuSans-48"/>
       <use x="63.623047" xlink:href="#DejaVuSans-46"/>
       <use x="95.410156" xlink:href="#DejaVuSans-48"/>
       <use x="159.033203" xlink:href="#DejaVuSans-37"/>
      </g>
     </g>
    </g>
    <g id="ytick_15">
     <g id="line2d_48">
      <path clip-path="url(#pb758a98337)" d="M 611.465 133.704 
L 1049.456089 133.704 
" style="fill:none;stroke:#f0f0f0;stroke-linecap:square;"/>
     </g>
     <g id="line2d_49">
      <g>
       <use style="fill:#003559;stroke:#003559;stroke-width:0.8;" x="611.465" xlink:href="#m2e37da9a2b" y="133.704"/>
      </g>
     </g>
     <g id="text_32">
      <!-- 0.2% -->
      <g style="fill:#003559;" transform="translate(563.8175 139.78275)scale(0.16 -0.16)">
       <use xlink:href="#DejaVuSans-48"/>
       <use x="63.623047" xlink:href="#DejaVuSans-46"/>
       <use x="95.410156" xlink:href="#DejaVuSans-50"/>
       <use x="159.033203" xlink:href="#DejaVuSans-37"/>
      </g>
     </g>
    </g>
    <g id="ytick_16">
     <g id="line2d_50">
      <path clip-path="url(#pb758a98337)" d="M 611.465 98.399 
L 1049.456089 98.399 
" style="fill:none;stroke:#f0f0f0;stroke-linecap:square;"/>
     </g>
     <g id="line2d_51">
      <g>
       <use style="fill:#003559;stroke:#003559;stroke-width:0.8;" x="611.465" xlink:href="#m2e37da9a2b" y="98.399"/>
      </g>
     </g>
     <g id="text_33">
      <!-- 0.5% -->
      <g style="fill:#003559;" transform="translate(563.8175 104.47775)scale(0.16 -0.16)">
       <use xlink:href="#DejaVuSans-48"/>
       <use x="63.623047" xlink:href="#DejaVuSans-46"/>
       <use x="95.410156" xlink:href="#DejaVuSans-53"/>
       <use x="159.033203" xlink:href="#DejaVuSans-37"/>
      </g>
     </g>
    </g>
    <g id="ytick_17">
     <g id="line2d_52">
      <path clip-path="url(#pb758a98337)" d="M 611.465 63.094 
L 1049.456089 63.094 
" style="fill:none;stroke:#f0f0f0;stroke-linecap:square;"/>
     </g>
     <g id="line2d_53">
      <g>
       <use style="fill:#003559;stroke:#003559;stroke-width:0.8;" x="611.465" xlink:href="#m2e37da9a2b" y="63.094"/>
      </g>
     </g>
     <g id="text_34">
      <!-- 0.8% -->
      <g style="fill:#003559;" transform="translate(563.8175 69.17275)scale(0.16 -0.16)">
       <use xlink:href="#DejaVuSans-48"/>
       <use x="63.623047" xlink:href="#DejaVuSans-46"/>
       <use x="95.410156" xlink:href="#DejaVuSans-56"/>
       <use x="159.033203" xlink:href="#DejaVuSans-37"/>
      </g>
     </g>
    </g>
    <g id="ytick_18">
     <g id="line2d_54">
      <path clip-path="url(#pb758a98337)" d="M 611.465 27.789 
L 1049.456089 27.789 
" style="fill:none;stroke:#f0f0f0;stroke-linecap:square;"/>
     </g>
     <g id="line2d_55">
      <g>
       <use style="fill:#003559;stroke:#003559;stroke-width:0.8;" x="611.465" xlink:href="#m2e37da9a2b" y="27.789"/>
      </g>
     </g>
     <g id="text_35">
      <!-- 1.0% -->
      <g style="fill:#003559;" transform="translate(563.8175 33.86775)scale(0.16 -0.16)">
       <use xlink:href="#DejaVuSans-49"/>
       <use x="63.623047" xlink:href="#DejaVuSans-46"/>
       <use x="95.410156" xlink:href="#DejaVuSans-48"/>
       <use x="159.033203" xlink:href="#DejaVuSans-37"/>
      </g>
     </g>
    </g>
    <g id="text_36">
     <!-- Daily return -->
     <g style="fill:#003559;" transform="translate(550.7175 216.5665)rotate(-90)scale(0.16 -0.16)">
      <use xlink:href="#DejaVuSans-68"/>
      <use x="77.001953" xlink:href="#DejaVuSans-97"/>
      <use x="138.28125" xlink:href="#DejaVuSans-105"/>
      <use x="166.064453" xlink:href="#DejaVuSans-108"/>
      <use x="193.847656" xlink:href="#DejaVuSans-121"/>
      <use x="253.027344" xlink:href="#DejaVuSans-32"/>
      <use x="284.814453" xlink:href="#DejaVuSans-114"/>
      <use x="325.896484" xlink:href="#DejaVuSans-101"/>
      <use x="387.419922" xlink:href="#DejaVuSans-116"/>
      <use x="426.628906" xlink:href="#DejaVuSans-117"/>
      <use x="490.007812" xlink:href="#DejaVuSans-114"/>
      <use x="531.105469" xlink:href="#DejaVuSans-110"/>
     </g>
    </g>
   </g>
   <g id="line2d_56">
    <path clip-path="url(#pb758a98337)" d="M 631.373686 182.343629 
L 631.737647 163.221495 
L 632.101609 160.851618 
L 632.46557 118.349648 
L 632.829531 152.632385 
L 633.193493 172.948848 
L 633.557454 83.13065 
L 633.921415 221.497636 
L 634.285377 224.072769 
L 634.649338 152.270397 
L 635.013299 176.290874 
L 635.377261 242.476001 
L 635.741222 180.521389 
L 636.105183 197.40111 
L 636.469145 119.372073 
L 636.833106 193.61342 
L 637.197067 122.783127 
L 637.92499 176.034883 
L 638.288952 166.396502 
L 638.652913 149.132911 
L 639.016874 265.075827 
L 639.380836 153.436887 
L 639.744797 183.355249 
L 640.108758 91.122815 
L 640.47272 196.579768 
L 640.836681 118.887604 
L 641.200642 273.840764 
L 641.564604 132.781064 
L 642.292526 177.758568 
L 642.656488 172.415064 
L 643.020449 178.332377 
L 643.38441 149.372513 
L 643.748372 172.981042 
L 644.112333 243.032763 
L 644.476294 175.16553 
L 644.840256 72.617246 
L 645.204217 165.308781 
L 645.568179 154.973945 
L 645.93214 185.852084 
L 646.296101 159.919476 
L 646.660063 159.754626 
L 647.024024 178.359548 
L 647.387985 130.72045 
L 647.751947 206.400588 
L 648.479869 145.89636 
L 649.207792 219.144353 
L 649.571753 143.642045 
L 649.935715 208.903698 
L 650.299676 186.244125 
L 650.663637 202.378768 
L 651.027599 171.984587 
L 651.39156 185.484833 
L 651.755521 187.399942 
L 652.483444 92.618779 
L 652.847406 182.439914 
L 653.211367 145.150658 
L 653.575328 182.350915 
L 653.93929 163.10168 
L 654.303251 119.515154 
L 655.031174 201.844946 
L 655.395135 198.217538 
L 655.759096 193.422546 
L 656.123058 167.857114 
L 656.487019 130.942954 
L 656.85098 224.860254 
L 657.214942 211.23926 
L 657.578903 206.46258 
L 657.942864 241.408777 
L 658.306826 111.119427 
L 658.670787 168.834685 
L 659.034748 86.765051 
L 659.39871 227.636788 
L 659.762671 112.464139 
L 660.126633 197.019509 
L 660.490594 184.552091 
L 660.854555 209.191935 
L 661.218517 207.535399 
L 661.582478 223.375265 
L 661.946439 158.128305 
L 662.310401 222.970908 
L 662.674362 177.537645 
L 663.038323 167.6833 
L 663.402285 139.051839 
L 663.766246 163.040272 
L 664.494169 145.499907 
L 664.85813 168.024317 
L 665.222091 151.899869 
L 665.586053 208.800293 
L 665.950014 200.147048 
L 666.313976 86.903524 
L 666.677937 167.790599 
L 667.041898 197.394539 
L 667.40586 108.833475 
L 667.769821 173.938261 
L 668.133782 194.682706 
L 668.497744 228.681443 
L 668.861705 134.269515 
L 669.225666 213.315691 
L 669.589628 190.130122 
L 669.953589 140.005527 
L 670.31755 159.513647 
L 670.681512 170.955028 
L 671.045473 176.359274 
L 671.773396 72.805673 
L 672.137357 190.542269 
L 672.86528 85.577913 
L 673.229241 121.578136 
L 673.593203 196.391776 
L 673.957164 185.539683 
L 674.321125 192.627002 
L 674.685087 205.992411 
L 675.049048 193.725833 
L 675.413009 156.198851 
L 675.776971 192.163538 
L 676.140932 130.172384 
L 676.504893 162.071626 
L 676.868855 184.118094 
L 677.232816 129.753382 
L 677.596777 153.779907 
L 677.960739 156.072085 
L 678.3247 123.231198 
L 678.688661 143.006503 
L 679.052623 171.90706 
L 679.416584 127.573019 
L 679.780545 154.188909 
L 680.144507 43.698764 
L 680.508468 120.74643 
L 680.87243 118.436461 
L 681.236391 112.599242 
L 681.600352 163.910982 
L 681.964314 111.67134 
L 682.328275 166.303923 
L 682.692236 202.50696 
L 683.056198 191.187318 
L 683.420159 144.926314 
L 683.78412 233.431873 
L 684.148082 158.466387 
L 684.512043 198.150747 
L 684.876004 136.865512 
L 685.239966 198.905863 
L 685.603927 87.971467 
L 685.967888 134.764084 
L 686.33185 221.049946 
L 686.695811 92.781869 
L 687.059772 176.921247 
L 687.423734 198.11372 
L 687.787695 210.667749 
L 688.151657 143.239546 
L 688.515618 103.552894 
L 688.879579 191.799104 
L 689.243541 209.558672 
L 689.607502 215.578001 
L 689.971463 103.89676 
L 690.335425 96.511353 
L 690.699386 182.056796 
L 691.063347 144.513053 
L 691.427309 167.41656 
L 691.79127 169.862131 
L 692.155231 126.451684 
L 692.519193 148.611925 
L 692.883154 153.334295 
L 693.247115 179.688866 
L 693.611077 132.739742 
L 693.975038 179.240929 
L 694.338999 165.178451 
L 694.702961 157.995084 
L 695.066922 218.181628 
L 695.430884 179.964925 
L 695.794845 180.537207 
L 696.158806 163.005897 
L 696.522768 214.396752 
L 696.886729 217.562917 
L 697.25069 98.513872 
L 697.614652 118.299577 
L 697.978613 129.628426 
L 698.342574 89.983195 
L 698.706536 149.516895 
L 699.070497 171.152109 
L 699.434458 146.865609 
L 699.79842 246.91134 
L 700.162381 213.814858 
L 700.526342 135.153049 
L 700.890304 165.91168 
L 701.254265 221.421808 
L 701.618226 139.393894 
L 701.982188 124.974 
L 702.346149 138.998082 
L 703.074072 202.713539 
L 703.438033 162.7351 
L 703.801995 149.206391 
L 704.165956 182.48544 
L 704.529917 141.745248 
L 704.893879 153.972244 
L 705.25784 153.180736 
L 705.621801 253.404048 
L 705.985763 121.491881 
L 706.349724 94.237888 
L 706.713685 184.344411 
L 707.077647 229.863769 
L 707.441608 140.224588 
L 707.805569 187.021607 
L 708.169531 208.261913 
L 708.533492 115.7037 
L 708.897453 225.901717 
L 709.261415 136.898886 
L 709.625376 220.154971 
L 709.989338 105.343022 
L 710.71726 178.198264 
L 711.445183 142.632753 
L 711.809144 132.134162 
L 712.173106 132.223256 
L 712.537067 144.130693 
L 712.901028 187.518219 
L 713.26499 139.159073 
L 713.628951 222.849036 
L 713.992912 124.754059 
L 714.356874 130.307702 
L 714.720835 108.23183 
L 715.084796 192.237704 
L 715.812719 130.931323 
L 716.176681 153.8271 
L 716.540642 185.369653 
L 716.904603 154.273079 
L 717.268565 164.411222 
L 717.632526 125.109474 
L 717.996487 193.918912 
L 718.360449 152.910727 
L 718.72441 154.883147 
L 719.088371 135.208504 
L 719.452333 170.38162 
L 719.816294 161.899655 
L 720.180255 170.299321 
L 720.544217 165.850233 
L 720.908178 166.939323 
L 721.272139 181.136327 
L 721.636101 47.512084 
L 722.000062 203.046621 
L 722.364023 217.006151 
L 722.727985 201.000984 
L 723.091946 197.375554 
L 723.455908 166.808945 
L 723.819869 106.670568 
L 724.18383 95.7634 
L 724.547792 157.238983 
L 724.911753 273.132747 
L 725.275714 151.009699 
L 725.639676 222.820659 
L 726.003637 188.50619 
L 726.367598 216.002623 
L 726.73156 149.261541 
L 727.095521 193.840318 
L 727.459482 134.581845 
L 727.823444 147.072074 
L 728.187405 177.464254 
L 728.551366 163.880447 
L 728.915328 128.426061 
L 729.279289 183.059208 
L 729.64325 128.502358 
L 730.007212 168.111809 
L 730.371173 155.880175 
L 731.099096 110.88176 
L 731.463057 145.228738 
L 731.827019 164.820484 
L 732.19098 136.760887 
L 732.554941 232.767902 
L 732.918903 97.85722 
L 733.282864 223.44923 
L 733.646825 129.006913 
L 734.010787 191.194836 
L 734.374748 145.803247 
L 734.738709 172.231963 
L 735.102671 154.431583 
L 735.830593 258.830633 
L 736.194555 150.065094 
L 736.558516 192.734434 
L 736.922477 194.77357 
L 737.286439 198.022507 
L 737.6504 83.2219 
L 738.014362 191.958632 
L 738.378323 153.447709 
L 738.742284 216.456804 
L 739.106246 102.765952 
L 739.834168 277.472258 
L 740.19813 52.398999 
L 740.562091 213.817632 
L 740.926052 111.83924 
L 741.290014 136.236115 
L 741.653975 139.663225 
L 742.017936 177.100554 
L 742.381898 159.277873 
L 742.745859 115.440194 
L 743.10982 180.042698 
L 743.837743 127.965524 
L 744.201704 163.760616 
L 744.565666 185.298305 
L 744.929627 105.791639 
L 745.293589 152.817488 
L 745.65755 172.596532 
L 746.021511 200.165027 
L 746.385473 209.896599 
L 746.749434 129.42741 
L 747.113395 127.076775 
L 747.477357 259.257812 
L 748.569241 64.585293 
L 748.933202 76.191578 
L 749.297163 127.390365 
L 749.661125 109.110864 
L 750.025086 189.63812 
L 750.389047 134.479538 
L 750.753009 219.707187 
L 751.11697 191.097921 
L 751.480931 153.695206 
L 751.844893 75.446645 
L 752.208854 135.605253 
L 752.936777 174.499227 
L 753.300738 223.320086 
L 753.6647 141.752573 
L 754.028661 182.083171 
L 754.392622 157.166099 
L 754.756584 204.970861 
L 755.120545 162.15638 
L 755.484506 232.411232 
L 755.848468 145.944976 
L 756.212429 111.381959 
L 756.57639 128.573027 
L 756.940352 77.73921 
L 757.304313 153.543433 
L 757.668274 145.88324 
L 758.032236 145.480704 
L 758.396197 204.5641 
L 758.760158 76.069578 
L 759.488081 177.581051 
L 759.852043 205.542837 
L 760.216004 142.657245 
L 760.579965 130.962608 
L 760.943927 161.451837 
L 761.307888 159.410234 
L 761.671849 175.263225 
L 762.035811 167.409863 
L 762.399772 110.72887 
L 762.763733 107.95489 
L 763.127695 230.849961 
L 763.491656 161.409725 
L 763.855617 218.306425 
L 764.219579 223.881541 
L 764.58354 142.468991 
L 764.947501 202.947394 
L 765.311463 300.888609 
L 765.675424 139.96093 
L 766.403347 80.918635 
L 766.767308 184.082829 
L 767.13127 106.055731 
L 767.495231 278.335246 
L 768.223154 145.306811 
L 768.587115 147.316446 
L 768.951076 111.352642 
L 769.315038 126.76236 
L 769.678999 170.749263 
L 770.04296 102.505352 
L 770.406922 138.209944 
L 770.770883 94.547286 
L 771.134844 201.367466 
L 771.498806 154.57292 
L 771.862767 185.493718 
L 772.226728 133.150144 
L 772.59069 176.595014 
L 772.954651 177.963437 
L 773.318613 223.491528 
L 773.682574 154.236091 
L 774.046535 120.034644 
L 774.410497 124.580252 
L 774.774458 295.070678 
L 775.138419 235.911377 
L 775.502381 82.343684 
L 775.866342 175.242445 
L 776.230303 173.603511 
L 776.594265 117.922866 
L 777.322187 194.093781 
L 777.686149 176.183843 
L 778.05011 86.918358 
L 778.414071 225.817485 
L 778.778033 112.165776 
L 779.141994 180.528272 
L 779.505955 178.784343 
L 779.869917 88.369291 
L 780.233878 194.52945 
L 780.59784 131.915385 
L 781.325762 227.964419 
L 782.053685 117.770732 
L 782.417646 175.168975 
L 782.781608 144.016662 
L 783.145569 159.305217 
L 783.50953 165.30941 
L 783.873492 184.98118 
L 784.237453 161.710378 
L 784.601414 253.419031 
L 784.965376 186.287062 
L 785.329337 243.719343 
L 785.693298 155.867406 
L 786.05726 152.267921 
L 786.421221 201.019568 
L 786.785182 133.345269 
L 787.149144 150.52371 
L 787.513105 154.855992 
L 787.877067 182.604703 
L 788.604989 122.630932 
L 788.968951 195.273803 
L 789.332912 201.899898 
L 789.696873 116.919837 
L 790.060835 265.516008 
L 790.424796 278.177579 
L 790.788757 244.176195 
L 791.152719 159.593827 
L 791.51668 160.837982 
L 791.880641 146.258535 
L 792.244603 164.074613 
L 792.608564 102.160834 
L 792.972525 100.533826 
L 793.336487 118.190823 
L 793.700448 216.260102 
L 794.064409 151.890127 
L 794.428371 203.99101 
L 794.792332 188.506563 
L 795.156294 210.64923 
L 795.520255 166.839625 
L 795.884216 144.241106 
L 796.248178 163.9596 
L 796.612139 217.851725 
L 796.9761 231.945474 
L 797.340062 199.579952 
L 797.704023 200.238894 
L 798.067984 134.06695 
L 798.431946 180.82012 
L 798.795907 175.286505 
L 799.159868 173.942178 
L 799.52383 120.824399 
L 799.887791 97.977814 
L 800.251752 149.200705 
L 800.615714 177.813192 
L 800.979675 107.875088 
L 801.707598 185.133658 
L 802.071559 124.479501 
L 802.435521 158.513963 
L 802.799482 228.047613 
L 803.163443 140.733955 
L 803.527405 154.591073 
L 803.891366 245.951938 
L 804.255327 258.424562 
L 804.619289 161.518939 
L 804.98325 138.342396 
L 805.347211 141.510365 
L 805.711173 224.952736 
L 806.439095 139.052719 
L 806.803057 232.357145 
L 807.167018 163.680368 
L 807.530979 158.255559 
L 807.894941 128.157622 
L 808.258902 271.255053 
L 808.986825 81.793717 
L 809.350786 193.611537 
L 809.714748 180.691263 
L 810.078709 126.876632 
L 810.44267 199.624767 
L 810.806632 118.277917 
L 811.170593 144.393239 
L 811.534554 233.980662 
L 811.898516 163.031726 
L 812.262477 229.104697 
L 812.626438 126.937826 
L 812.9904 238.496922 
L 813.354361 244.050225 
L 813.718322 215.476506 
L 814.082284 201.316444 
L 814.446245 111.584686 
L 814.810206 168.066966 
L 815.174168 154.964769 
L 815.538129 121.754264 
L 815.902091 196.856881 
L 816.266052 191.794815 
L 816.630013 203.196641 
L 816.993975 134.040197 
L 817.357936 98.098087 
L 817.721897 156.331583 
L 818.085859 193.699347 
L 818.44982 189.339083 
L 818.813781 214.417774 
L 819.177743 136.317763 
L 819.541704 212.325507 
L 819.905665 178.081252 
L 820.633588 247.766121 
L 820.997549 274.901218 
L 821.361511 204.997577 
L 821.725472 158.054354 
L 822.089433 180.758042 
L 822.453395 176.765441 
L 822.817356 212.683547 
L 823.181318 206.765088 
L 823.545279 212.527745 
L 823.90924 158.344342 
L 824.273202 80.542522 
L 824.637163 173.071025 
L 825.001124 225.304401 
L 825.365086 113.377507 
L 825.729047 209.598732 
L 826.093008 143.673039 
L 826.45697 186.047006 
L 826.820931 163.858296 
L 827.184892 21.865248 
L 827.548854 198.963165 
L 827.912815 192.148771 
L 828.276776 151.396242 
L 829.004699 184.497067 
L 829.36866 196.458541 
L 829.732622 142.276604 
L 830.096583 121.649332 
L 830.460545 207.629461 
L 830.824506 215.439592 
L 831.188467 89.76766 
L 831.552429 227.671634 
L 831.91639 136.98765 
L 832.280351 148.689397 
L 832.644313 214.021875 
L 833.008274 135.116762 
L 833.372235 214.032331 
L 833.736197 213.453389 
L 834.100158 226.163153 
L 834.464119 131.948225 
L 834.828081 186.330453 
L 835.192042 121.31571 
L 835.556003 201.61586 
L 835.919965 141.252672 
L 836.283926 107.66711 
L 837.011849 214.974398 
L 837.37581 181.806828 
L 837.739772 114.050528 
L 838.103733 135.981018 
L 838.831656 241.195547 
L 839.195617 136.979036 
L 839.559578 98.198493 
L 839.92354 97.449131 
L 840.287501 148.957878 
L 841.015424 200.598281 
L 841.379385 191.552316 
L 841.743346 237.186789 
L 842.107308 76.861056 
L 842.471269 168.435841 
L 842.83523 66.275759 
L 843.199192 170.449625 
L 843.563153 235.855125 
L 843.927114 88.4264 
L 844.291076 203.720899 
L 844.655037 185.845886 
L 845.018999 97.450952 
L 845.38296 105.491081 
L 845.746921 253.135728 
L 846.110883 167.248781 
L 846.474844 213.452707 
L 847.202767 90.518773 
L 847.566728 189.217441 
L 847.930689 104.03159 
L 848.294651 206.636411 
L 848.658612 75.263055 
L 849.022573 202.27312 
L 849.386535 186.923244 
L 849.750496 154.712571 
L 850.114457 226.631052 
L 850.478419 101.642739 
L 850.84238 212.625803 
L 851.206341 141.282795 
L 851.570303 221.90875 
L 851.934264 162.642403 
L 852.298226 167.739419 
L 852.662187 183.741681 
L 853.026148 146.567207 
L 853.39011 214.609183 
L 853.754071 102.818102 
L 854.118032 158.716583 
L 854.481994 285.555785 
L 854.845955 82.325846 
L 855.209916 148.113802 
L 855.573878 101.475123 
L 856.3018 263.151428 
L 856.665762 185.075235 
L 857.029723 219.237147 
L 857.393684 168.923815 
L 857.757646 187.744673 
L 858.121607 158.438453 
L 858.485568 242.04438 
L 858.84953 165.014922 
L 859.213491 186.764111 
L 859.577453 140.45423 
L 859.941414 238.989557 
L 860.305375 185.302024 
L 860.669337 97.033721 
L 861.033298 217.330378 
L 861.397259 136.025085 
L 861.761221 110.925245 
L 862.125182 167.72093 
L 862.489143 125.414225 
L 862.853105 123.171836 
L 863.217066 100.789205 
L 863.581027 182.877046 
L 863.944989 172.05113 
L 864.30895 133.225999 
L 864.672911 198.883423 
L 865.036873 165.257751 
L 865.400834 196.889112 
L 865.764796 265.965623 
L 866.128757 153.104452 
L 866.492718 95.168316 
L 866.85668 183.05636 
L 867.220641 163.722124 
L 867.584602 186.489712 
L 867.948564 198.68512 
L 868.676486 121.837668 
L 869.040448 73.417048 
L 869.76837 208.022606 
L 870.132332 227.750411 
L 870.496293 111.928283 
L 871.224216 193.156353 
L 871.588177 212.039256 
L 871.952138 201.513433 
L 872.3161 115.038188 
L 873.044023 226.625778 
L 873.407984 130.325786 
L 874.135907 179.627573 
L 874.499868 141.547003 
L 874.863829 202.359126 
L 875.227791 126.456685 
L 875.591752 227.659124 
L 875.955713 205.568722 
L 876.319675 225.626494 
L 876.683636 184.941408 
L 877.047597 199.383638 
L 877.77552 167.091473 
L 878.139481 143.812004 
L 878.503443 161.085489 
L 878.867404 156.623179 
L 879.231365 99.324679 
L 879.595327 178.583606 
L 879.959288 229.077328 
L 880.32325 126.987225 
L 880.687211 89.515018 
L 881.051172 159.358794 
L 881.415134 131.72576 
L 881.779095 195.069324 
L 882.143056 159.427145 
L 882.507018 140.305253 
L 882.870979 151.254734 
L 883.23494 190.158298 
L 883.598902 98.210205 
L 883.962863 159.971941 
L 884.326824 127.88469 
L 884.690786 150.102235 
L 885.054747 130.279385 
L 885.418708 127.755258 
L 885.78267 176.451096 
L 886.510592 75.7636 
L 886.874554 82.604172 
L 887.238515 134.924088 
L 887.602477 95.811212 
L 887.966438 222.706981 
L 888.330399 104.913925 
L 888.694361 164.121266 
L 889.058322 242.998773 
L 889.422283 160.294156 
L 889.786245 125.931698 
L 890.150206 196.781376 
L 890.514167 85.224951 
L 890.878129 110.132087 
L 891.24209 221.314941 
L 891.606051 124.542349 
L 892.333974 190.665952 
L 892.697935 180.707883 
L 893.061897 186.146126 
L 893.425858 218.822005 
L 893.789819 186.287124 
L 894.153781 137.947009 
L 894.517742 106.882007 
L 894.881704 105.509505 
L 895.245665 191.584468 
L 895.609626 172.260782 
L 895.973588 203.701592 
L 896.337549 123.656382 
L 896.70151 237.119114 
L 897.065472 225.050042 
L 897.793394 156.639543 
L 898.157356 180.899223 
L 898.521317 165.892682 
L 898.885278 165.279615 
L 899.24924 157.410338 
L 899.613201 211.119526 
L 899.977162 181.670783 
L 900.341124 142.822343 
L 900.705085 155.421279 
L 901.069046 120.974438 
L 901.433008 198.908005 
L 901.796969 128.898796 
L 902.160931 105.158443 
L 902.524892 173.334448 
L 902.888853 156.027071 
L 903.252815 157.753092 
L 903.616776 144.599247 
L 903.980737 150.858801 
L 904.344699 105.037151 
L 904.70866 145.544248 
L 905.072621 130.667988 
L 905.436583 153.248006 
L 905.800544 211.429107 
L 906.164505 148.933723 
L 906.528467 177.035784 
L 906.892428 194.199581 
L 907.256389 205.184374 
L 907.620351 170.27591 
L 907.984312 193.029291 
L 908.348273 80.880712 
L 908.712235 99.644629 
L 909.076196 178.602236 
L 909.440158 137.249314 
L 909.804119 118.277594 
L 910.16808 174.61598 
L 910.532042 88.991212 
L 911.259964 171.602476 
L 911.623926 243.522574 
L 911.987887 208.217126 
L 912.351848 153.791739 
L 912.71581 185.860958 
L 913.079771 168.1727 
L 913.443732 200.648793 
L 913.807694 156.832339 
L 914.171655 186.709891 
L 914.535616 233.075404 
L 914.899578 181.767525 
L 915.263539 191.527916 
L 915.627501 233.030995 
L 915.991462 106.999143 
L 916.355423 170.515442 
L 916.719385 181.141476 
L 917.083346 135.503088 
L 917.447307 170.792697 
L 917.811269 134.786305 
L 918.17523 230.022881 
L 918.539191 211.21243 
L 918.903153 144.194355 
L 919.267114 104.087744 
L 919.631075 166.021999 
L 919.995037 158.124013 
L 920.358998 202.179492 
L 920.722959 168.561731 
L 921.086921 197.32828 
L 921.450882 174.082115 
L 921.814843 136.693348 
L 922.178805 251.9731 
L 922.542766 158.268419 
L 922.906728 201.378676 
L 923.270689 194.686569 
L 923.63465 119.07364 
L 923.998612 154.77687 
L 924.362573 127.739314 
L 924.726534 242.017547 
L 925.090496 184.672713 
L 925.454457 186.513529 
L 925.818418 192.265245 
L 926.18238 148.642492 
L 926.546341 129.336858 
L 926.910302 214.183261 
L 927.274264 208.077629 
L 927.638225 220.333896 
L 928.002186 118.673963 
L 928.366148 189.100727 
L 928.730109 171.588565 
L 929.09407 181.367905 
L 929.458032 208.119742 
L 929.821993 151.479893 
L 930.185955 151.066151 
L 930.549916 127.413268 
L 930.913877 176.843614 
L 931.277839 179.879873 
L 931.6418 192.099682 
L 932.005761 104.246862 
L 932.369723 124.606884 
L 932.733684 169.004427 
L 933.097645 139.799051 
L 933.461607 192.113323 
L 933.825568 80.253589 
L 934.189529 192.355763 
L 934.553491 183.37937 
L 934.917452 183.012589 
L 935.281413 95.218947 
L 935.645375 161.040142 
L 936.009336 121.35099 
L 936.737259 218.682365 
L 937.10122 134.439474 
L 937.465182 193.833925 
L 937.829143 223.153992 
L 938.557066 140.532682 
L 938.921027 92.547766 
L 939.284988 226.075357 
L 939.64895 260.458758 
L 940.012911 127.886436 
L 940.376872 154.581496 
L 940.740834 191.165561 
L 941.104795 149.569146 
L 941.468756 136.389882 
L 941.832718 86.286763 
L 942.196679 172.815534 
L 942.56064 113.073453 
L 942.924602 186.432559 
L 943.288563 188.886093 
L 943.652524 149.339882 
L 944.016486 214.530181 
L 944.380447 222.452263 
L 944.744409 126.486828 
L 945.10837 250.461106 
L 945.472331 162.491355 
L 945.836293 181.051498 
L 946.200254 183.096841 
L 946.928177 253.54651 
L 947.292138 195.293516 
L 947.656099 216.659093 
L 948.020061 185.31677 
L 948.384022 163.56373 
L 948.747983 198.718881 
L 949.111945 212.732074 
L 949.475906 155.005575 
L 949.839867 199.569356 
L 950.203829 207.944992 
L 950.931751 155.198337 
L 951.295713 77.954231 
L 951.659674 98.933319 
L 952.023636 220.817864 
L 952.387597 223.39661 
L 952.751558 164.551651 
L 953.11552 143.69565 
L 953.479481 172.873305 
L 953.843442 75.260416 
L 954.207404 117.42571 
L 954.571365 97.810797 
L 954.935326 184.996974 
L 955.299288 205.290668 
L 955.663249 212.637301 
L 956.02721 172.113937 
L 956.391172 220.60472 
L 956.755133 194.144701 
L 957.119094 185.543458 
L 957.483056 127.2879 
L 957.847017 187.327313 
L 958.210978 226.905145 
L 958.57494 186.25112 
L 958.938901 159.303964 
L 959.302863 143.529613 
L 959.666824 206.340475 
L 960.030785 139.866773 
L 960.394747 108.539214 
L 960.758708 146.554606 
L 961.122669 157.176642 
L 961.486631 186.278172 
L 961.850592 193.170408 
L 962.214553 253.29412 
L 962.578515 141.537202 
L 962.942476 182.295644 
L 963.306437 160.8292 
L 963.670399 146.056457 
L 964.03436 200.610207 
L 964.398321 124.207428 
L 964.762283 162.501424 
L 965.126244 103.871767 
L 965.490206 160.136254 
L 965.854167 153.794613 
L 966.218128 178.875363 
L 966.58209 104.743712 
L 966.946051 256.410042 
L 967.310012 189.867426 
L 967.673974 180.217385 
L 968.037935 232.131272 
L 968.401896 200.96184 
L 968.765858 259.317618 
L 969.129819 159.227522 
L 969.49378 226.827337 
L 969.857742 151.623958 
L 970.949626 233.121021 
L 971.677548 154.133578 
L 972.04151 172.608163 
L 972.405471 139.067382 
L 972.769433 200.691867 
L 973.133394 99.253946 
L 973.497355 177.374602 
L 973.861317 203.101017 
L 974.225278 111.787261 
L 974.589239 109.778806 
L 974.953201 171.113581 
L 975.317162 187.811411 
L 975.681123 128.737245 
L 976.045085 205.174474 
L 976.409046 127.673142 
L 976.773007 226.062757 
L 977.136969 170.826507 
L 977.50093 166.795433 
L 977.864891 116.111125 
L 978.228853 244.790186 
L 978.592814 157.361321 
L 978.956775 172.407487 
L 979.320737 167.170255 
L 979.684698 204.749483 
L 980.04866 222.449544 
L 980.412621 186.914732 
L 980.776582 177.531795 
L 981.140544 104.795844 
L 981.504505 162.574673 
L 981.868466 167.474635 
L 982.232428 137.707328 
L 982.596389 235.581301 
L 982.96035 136.681217 
L 983.324312 128.512642 
L 983.688273 128.86141 
L 984.416196 219.626069 
L 984.780157 209.020948 
L 985.144118 156.809837 
L 985.50808 144.552888 
L 985.872041 113.211159 
L 986.236002 102.836392 
L 986.963925 165.85604 
L 987.327887 156.069868 
L 987.691848 177.262711 
L 988.055809 122.60291 
L 988.783732 158.148356 
L 989.147693 220.48824 
L 989.511655 122.950611 
L 989.875616 231.981535 
L 990.239577 115.107783 
L 990.603539 125.578654 
L 990.9675 234.531225 
L 991.331461 169.346707 
L 991.695423 219.886376 
L 992.059384 173.420409 
L 992.423345 143.773136 
L 992.787307 173.082277 
L 993.151268 225.0751 
L 993.515229 156.243259 
L 993.879191 156.300011 
L 994.243152 168.447297 
L 994.607114 211.571825 
L 995.335036 155.917045 
L 995.698998 173.862308 
L 996.062959 77.790119 
L 996.42692 156.444406 
L 996.790882 176.053118 
L 997.154843 146.847722 
L 997.518804 214.126214 
L 998.246727 98.796363 
L 998.610688 204.735323 
L 998.97465 154.633023 
L 999.338611 134.793954 
L 999.702572 239.033879 
L 1000.066534 97.860299 
L 1000.430495 211.565861 
L 1001.158418 151.16591 
L 1001.522379 177.147921 
L 1001.886341 133.276252 
L 1002.250302 160.899361 
L 1002.614263 143.155384 
L 1002.978225 164.117143 
L 1003.342186 104.930647 
L 1003.706147 252.682056 
L 1004.070109 151.86825 
L 1004.798031 207.923843 
L 1005.161993 201.678137 
L 1005.525954 191.525971 
L 1005.889915 142.788526 
L 1006.253877 205.258929 
L 1006.617838 174.206903 
L 1006.981799 155.632274 
L 1007.345761 216.259736 
L 1007.709722 120.167704 
L 1008.073683 64.700415 
L 1008.437645 195.848884 
L 1008.801606 128.340168 
L 1009.165568 180.413348 
L 1009.529529 144.696822 
L 1009.89349 174.99159 
L 1010.257452 73.721309 
L 1010.621413 181.034109 
L 1010.985374 133.657812 
L 1011.349336 141.561793 
L 1011.713297 213.216522 
L 1012.077258 258.815441 
L 1012.44122 142.759858 
L 1012.805181 131.514599 
L 1013.169142 190.031529 
L 1013.533104 194.127018 
L 1013.897065 125.910221 
L 1014.261026 131.162326 
L 1014.624988 126.796797 
L 1014.988949 156.218909 
L 1015.352911 200.689588 
L 1015.716872 218.894127 
L 1016.080833 251.73469 
L 1016.808756 85.985964 
L 1017.172717 147.046986 
L 1017.536679 170.671742 
L 1017.90064 231.721401 
L 1018.628563 167.084231 
L 1018.992524 176.708018 
L 1019.356485 128.810748 
L 1019.720447 174.013002 
L 1020.084408 137.836133 
L 1020.448369 172.132438 
L 1020.812331 175.333143 
L 1021.176292 113.949016 
L 1021.540253 199.151743 
L 1021.904215 179.285285 
L 1022.268176 222.06158 
L 1022.996099 121.982988 
L 1023.36006 138.425194 
L 1023.724022 136.196323 
L 1024.087983 122.680274 
L 1024.451944 140.805474 
L 1024.815906 135.169048 
L 1025.179867 150.189293 
L 1025.543828 208.616778 
L 1025.90779 145.004922 
L 1026.271751 127.220045 
L 1026.635712 205.080112 
L 1027.363635 121.419009 
L 1027.727596 183.116171 
L 1028.091558 223.263468 
L 1028.81948 99.775385 
L 1029.183442 205.971313 
L 1029.547403 171.758423 
L 1029.547403 171.758423 
" style="fill:none;stroke:#2d9cdb;stroke-linecap:square;stroke-width:1.5;"/>
   </g>
   <g id="line2d_57">
    <path clip-path="url(#pb758a98337)" d="M 611.465 123.46469 
L 1049.456089 123.46469 
" style="fill:none;stroke:#e75a7c;stroke-linecap:square;stroke-width:3;"/>
   </g>
   <g id="line2d_58">
    <path clip-path="url(#pb758a98337)" d="M 611.465 209.152725 
L 1049.456089 209.152725 
" style="fill:none;stroke:#e75a7c;stroke-linecap:square;stroke-width:3;"/>
   </g>
   <g id="patch_9">
    <path d="M 611.465 310.229 
L 611.465 27.789 
" style="fill:none;"/>
   </g>
   <g id="patch_10">
    <path d="M 1049.456089 310.229 
L 1049.456089 27.789 
" style="fill:none;"/>
   </g>
   <g id="patch_11">
    <path d="M 611.465 310.229 
L 1049.456089 310.229 
" style="fill:none;"/>
   </g>
   <g id="patch_12">
    <path d="M 611.465 27.789 
L 1049.456089 27.789 
" style="fill:none;"/>
   </g>
   <g id="text_37">
    <!-- Investment B -->
    <defs>
     <path d="M 19.671875 34.8125 
L 19.671875 8.109375 
L 35.5 8.109375 
Q 43.453125 8.109375 47.28125 11.40625 
Q 51.125 14.703125 51.125 21.484375 
Q 51.125 28.328125 47.28125 31.5625 
Q 43.453125 34.8125 35.5 34.8125 
z
M 19.671875 64.796875 
L 19.671875 42.828125 
L 34.28125 42.828125 
Q 41.5 42.828125 45.03125 45.53125 
Q 48.578125 48.25 48.578125 53.8125 
Q 48.578125 59.328125 45.03125 62.0625 
Q 41.5 64.796875 34.28125 64.796875 
z
M 9.8125 72.90625 
L 35.015625 72.90625 
Q 46.296875 72.90625 52.390625 68.21875 
Q 58.5 63.53125 58.5 54.890625 
Q 58.5 48.1875 55.375 44.234375 
Q 52.25 40.28125 46.1875 39.3125 
Q 53.46875 37.75 57.5 32.78125 
Q 61.53125 27.828125 61.53125 20.40625 
Q 61.53125 10.640625 54.890625 5.3125 
Q 48.25 0 35.984375 0 
L 9.8125 0 
z
" id="DejaVuSans-66"/>
    </defs>
    <g style="fill:#003559;" transform="translate(766.448045 21.789)scale(0.192 -0.192)">
     <use xlink:href="#DejaVuSans-73"/>
     <use x="29.492188" xlink:href="#DejaVuSans-110"/>
     <use x="92.871094" xlink:href="#DejaVuSans-118"/>
     <use x="152.050781" xlink:href="#DejaVuSans-101"/>
     <use x="213.574219" xlink:href="#DejaVuSans-115"/>
     <use x="265.673828" xlink:href="#DejaVuSans-116"/>
     <use x="304.882812" xlink:href="#DejaVuSans-109"/>
     <use x="402.294922" xlink:href="#DejaVuSans-101"/>
     <use x="463.818359" xlink:href="#DejaVuSans-110"/>
     <use x="527.197266" xlink:href="#DejaVuSans-116"/>
     <use x="566.40625" xlink:href="#DejaVuSans-32"/>
     <use x="598.193359" xlink:href="#DejaVuSans-66"/>
    </g>
   </g>
   <g id="legend_2">
    <g id="line2d_59">
     <path d="M 925.848589 48.7465 
L 957.848589 48.7465 
" style="fill:none;stroke:#e75a7c;stroke-linecap:square;stroke-width:3;"/>
    </g>
    <g id="line2d_60"/>
    <g id="text_38">
     <!-- std. dev -->
     <g style="fill:#003559;" transform="translate(970.648589 54.3465)scale(0.16 -0.16)">
      <use xlink:href="#DejaVuSans-115"/>
      <use x="52.099609" xlink:href="#DejaVuSans-116"/>
      <use x="91.308594" xlink:href="#DejaVuSans-100"/>
      <use x="154.785156" xlink:href="#DejaVuSans-46"/>
      <use x="186.572266" xlink:href="#DejaVuSans-32"/>
      <use x="218.359375" xlink:href="#DejaVuSans-100"/>
      <use x="281.835938" xlink:href="#DejaVuSans-101"/>
      <use x="343.359375" xlink:href="#DejaVuSans-118"/>
     </g>
    </g>
   </g>
   <g id="patch_13">
    <path clip-path="url(#pb758a98337)" d="M 611.465 123.46469 
L 611.465 209.152725 
L 1049.456089 209.152725 
L 1049.456089 123.46469 
z
" style="fill:#e75a7c;opacity:0.5;"/>
   </g>
  </g>
 </g>
 <defs>
  <clipPath id="p9bc46d2d91">
   <rect height="282.44" width="437.991089" x="80.105" y="27.789"/>
  </clipPath>
  <clipPath id="pb758a98337">
   <rect height="282.44" width="437.991089" x="611.465" y="27.789"/>
  </clipPath>
 </defs>
</svg>
